<svg width="115" height="118" viewBox="0 0 115 118" fill="none" xmlns="http://www.w3.org/2000/svg">
<path d="M72.8549 23.1143H72.7299C72.7665 23.3608 72.7491 23.6114 72.6789 23.8518C72.6086 24.0922 72.4867 24.3177 72.3203 24.5153C72.1539 24.7129 71.9461 24.8788 71.7089 25.0034C71.4717 25.128 71.2098 25.209 70.9381 25.2416C70.9381 26.4234 71.7975 27.3783 72.8549 27.3783C73.9122 27.3783 74.7716 26.4328 74.7716 25.2416C74.7716 24.0503 73.9122 23.1143 72.8549 23.1143Z" fill="#2D1E1E"/>
<path d="M71.7088 26.7828C69.5108 35.8115 63.4012 45.5494 52.2079 46.5988C51.2704 46.6839 51.26 48.0169 52.2079 47.9366C64.0835 46.8257 70.7713 36.8279 73.1308 27.1373C73.3339 26.3006 71.9172 25.9414 71.7088 26.7828Z" fill="#2D1E1E"/>
<path opacity="0.08" d="M93.1631 112.936C88.3279 112.643 83.4724 112.802 78.6728 113.408L78.8238 113.366C78.972 113.311 79.1016 113.221 79.1993 113.106C79.2969 112.991 79.3593 112.855 79.3799 112.71C79.4006 112.566 79.3788 112.42 79.3168 112.286C79.2548 112.152 79.1548 112.035 79.027 111.948C78.9078 111.863 78.7656 111.809 78.6155 111.792L77.9488 111.726C71.2802 111.113 64.5735 110.911 57.8748 111.121C54.7336 110.24 51.3922 110.126 48.1869 110.79C42.8241 110.438 37.4392 110.47 32.0819 110.884C33.9709 110.339 35.8807 109.866 37.8113 109.466C38.5249 109.31 39.2385 109.168 39.9573 109.036C41.1605 108.814 42.3636 108.62 43.5772 108.454C43.8846 108.407 44.1971 108.365 44.5044 108.327C44.6416 108.296 44.7702 108.24 44.8816 108.161C44.993 108.082 45.0847 107.982 45.1507 107.869C45.2166 107.755 45.2553 107.631 45.2642 107.503C45.2731 107.375 45.252 107.246 45.2023 107.126C45.1619 106.992 45.0682 106.876 44.9393 106.801C44.8104 106.726 44.6555 106.697 44.5044 106.72L43.296 106.847L39.1656 107.287L34.7278 107.76L23.6648 108.885C22.6647 108.993 22.6543 110.601 23.6648 110.492L29.988 109.825C27.8004 110.503 25.6371 111.267 23.4981 112.118C20.6482 112.725 17.8603 113.55 15.1644 114.585C14.4039 114.878 14.4195 116.273 15.3727 116.164L44.7492 112.855C44.8098 112.958 44.9024 113.042 45.0154 113.098C45.1283 113.153 45.2567 113.177 45.3846 113.167C48.39 113.025 51.3901 112.893 54.3903 112.789C56.057 112.926 57.7186 113.073 59.3749 113.219C59.4646 113.228 59.5552 113.22 59.6413 113.195C59.7274 113.171 59.8072 113.131 59.8758 113.078C59.9445 113.025 60.0006 112.96 60.0407 112.887C60.0808 112.814 60.1042 112.734 60.1093 112.652C64.7971 112.586 69.4536 112.652 74.1205 112.973C72.1204 113.481 70.1081 113.908 68.0837 114.255C64.0557 114.538 60.0329 114.921 56.0154 115.403C55.0362 115.521 54.9737 117.029 56.0154 117.01C60.1361 116.933 64.2426 116.544 68.292 115.848L69.4015 115.781C69.3934 115.942 69.4443 116.101 69.546 116.232C69.6478 116.364 69.7948 116.461 69.964 116.509C76.096 117.889 82.5535 117.451 88.392 115.261C88.5705 115.187 88.7191 115.065 88.8171 114.911C88.9151 114.756 88.9577 114.578 88.9389 114.401C90.3452 114.401 91.7516 114.448 93.1579 114.533C94.1788 114.604 94.1736 112.997 93.1631 112.936ZM74.7715 115.616L75.5893 115.465C77.7074 115.386 79.8308 115.334 81.9594 115.309C79.5881 115.692 77.1721 115.795 74.7715 115.616Z" fill="#2D1E1E"/>
<path d="M53.5155 88.1177C53.1977 89.2617 52.8696 90.4151 52.5206 91.578C52.5109 91.6179 52.4987 91.6574 52.4842 91.6961C52.2498 92.4761 52.0102 93.2608 51.7549 94.0597C50.7264 97.4173 49.3594 100.682 47.6714 103.812C47.0133 105.012 46.1774 106.126 45.1869 107.121C44.6939 107.61 44.1496 108.055 43.5618 108.449C42.2802 109.36 40.6946 109.847 39.0668 109.829C38.7768 109.825 38.4877 109.8 38.2022 109.754C38.1592 109.709 38.1121 109.668 38.0615 109.631L37.9782 109.574C37.9235 109.531 37.8641 109.493 37.8011 109.461C37.7289 109.418 37.6542 109.378 37.5771 109.343C37.4319 109.28 37.2801 109.231 37.124 109.196H37.0823C36.8844 108.7 37.1761 108.01 37.8219 108.166C38.5003 108.332 39.2072 108.38 39.9054 108.307C41.1744 108.147 42.3593 107.639 43.3014 106.851C45.0411 105.481 46.3693 103.372 47.286 101.377C48.4527 98.8341 49.4684 96.1775 50.3643 93.5303C50.6386 92.7109 50.9025 91.8915 51.156 91.0722C51.2133 90.8973 51.2653 90.7176 51.3174 90.538C51.5831 89.6776 51.8383 88.8126 52.0779 87.9475C52.3175 87.0824 53.7707 87.1912 53.5155 88.1177Z" fill="#2D1E1E"/>
<path d="M80.0325 111.924H79.9804C79.9372 111.919 79.8934 111.919 79.8502 111.924H79.7304H79.5168C79.3874 111.922 79.2582 111.934 79.1314 111.957H79.0272H78.9803C78.9111 111.971 78.8431 111.99 78.7772 112.014C78.4963 111.936 78.2214 111.841 77.9542 111.73C74.5165 110.312 72.8393 106.403 72.4487 102.748C72.3289 101.581 72.2612 100.385 72.2404 99.2125C72.2404 98.9478 72.2404 98.6784 72.2404 98.4136C72.2404 95.8563 72.4279 93.2705 72.6987 90.7226C72.7768 90.0088 72.8602 89.3044 72.9435 88.5953L73.006 88.1226C73.0894 87.4135 73.1831 86.7045 73.2769 86.0049C73.4019 85.0594 74.8395 85.4612 74.6936 86.4067C74.4957 87.9004 74.3186 89.4084 74.1728 90.9211C73.9332 93.4738 73.7873 96.0406 73.7821 98.6027C73.7821 98.8706 73.7821 99.14 73.7821 99.4111C73.7821 99.8318 73.7821 100.248 73.7821 100.664C73.8759 104.124 74.7822 108.274 77.8188 110.024C78.4147 110.367 79.0749 110.609 79.7668 110.737C80.4388 110.804 80.4388 111.555 80.0325 111.924Z" fill="#2D1E1E"/>
<path d="M80.2928 109.116C78.7303 109.116 77.449 109.858 77.449 110.771C77.4812 111.062 77.6033 111.34 77.8014 111.571C77.9995 111.803 78.2654 111.979 78.5688 112.08C78.8602 111.939 79.1865 111.867 79.5168 111.872C79.7758 111.868 80.0329 111.913 80.2721 112.003C80.5114 112.094 80.7276 112.227 80.9074 112.397C82.1783 112.231 83.1315 111.574 83.1315 110.785C83.1315 109.858 81.8606 109.116 80.2928 109.116Z" fill="#2D1E1E"/>
<path d="M114.076 81.5238C114.071 81.6703 114.05 81.816 114.013 81.9587C113.937 82.2629 113.836 82.5615 113.711 82.8522C113.631 83.0438 113.541 83.2315 113.44 83.4147L113.284 83.6842C113.175 83.8638 113.055 84.0387 112.93 84.2089C111.57 86.0997 109.325 87.4801 107.398 88.799C104.59 90.7293 101.589 92.4164 98.4342 93.8381C95.933 95.0365 93.2007 95.786 90.3869 96.0457C85.2372 97.7079 79.8153 98.5693 74.3496 98.5937C74.1502 98.596 73.9511 98.5786 73.7559 98.5417C73.5529 98.5042 73.3554 98.4455 73.1673 98.3668C72.8496 98.3668 72.5266 98.3668 72.2089 98.3668L52.8329 91.8669L52.4683 91.6967C52.0152 91.484 51.5672 91.2618 51.1193 91.0302C48.0303 89.4453 45.1948 87.4843 42.6918 85.2016C41.9313 84.6816 41.1761 84.138 40.4365 83.5754C39.4885 82.8522 38.5353 82.0816 37.6342 81.2544C35.6393 79.4391 33.8997 77.3686 32.9986 75.0429C29.645 70.646 27.5833 65.5452 27.0087 60.2232C26.7743 58.3323 26.6441 56.3941 26.6024 54.456C26.6024 53.9833 26.6024 53.4775 26.6024 52.9859C26.6024 52.5841 26.6024 52.187 26.6024 51.7852C26.6024 51.5063 26.6024 51.2368 26.6024 50.9579C26.6024 50.679 26.6024 50.3575 26.6389 50.055C26.6753 49.7525 26.6753 49.3837 26.6962 49.0434C26.6949 47.2295 26.9008 45.4203 27.3108 43.645C27.3837 43.1297 27.467 42.6192 27.5556 42.1086C28.0421 39.0913 29.0401 36.1604 30.5141 33.4201C32.0767 29.4918 34.4726 25.6911 37.853 22.9021C38.9361 22.0079 40.1361 21.238 41.4261 20.6094C43.8793 19.4324 46.6347 18.8745 49.3067 19.4371L49.3796 19.3614C49.8837 18.5542 50.5729 17.8545 51.4006 17.3099C53.734 14.0828 55.9095 10.7737 57.9269 7.38278C58.0259 7.19369 58.1249 6.99987 58.2186 6.81078C58.453 6.19152 58.7082 5.58172 58.9791 4.98137C59.3608 4.12927 59.792 3.29612 60.2708 2.48542C60.4896 2.11197 60.7239 1.74325 60.9688 1.37925L61.2448 0.977449C61.5262 0.57817 61.9522 0.280418 62.4494 0.135464C62.9466 -0.00949101 63.484 0.0074184 63.9689 0.183279C64.1353 0.239489 64.2943 0.312429 64.4429 0.400733L64.5991 0.499999C64.6559 0.53582 64.7083 0.577026 64.7554 0.622911C64.8191 0.670517 64.8768 0.724423 64.9273 0.783633C65.1463 1.01507 65.2921 1.29606 65.3492 1.59671C65.4036 1.90182 65.3787 2.21426 65.2763 2.50905C65.2034 2.71705 65.1408 2.92032 65.0627 3.13304C64.7971 3.93666 64.5419 4.74028 64.2502 5.53917C64.2189 5.62899 64.1877 5.71408 64.1564 5.80863C63.0487 9.02311 61.8768 12.2218 60.6406 15.4048C59.8437 17.4375 59.1145 19.5411 58.1405 21.5123C57.9797 21.8418 57.788 22.1581 57.5675 22.4577C57.518 22.7309 57.4101 22.9927 57.2498 23.2283C57.346 23.5575 57.3665 23.9011 57.3101 24.2378C57.2536 24.5745 57.1214 24.897 56.9217 25.1853C57.1068 25.5903 57.1344 26.0405 56.9998 26.4617C55.9893 30.0118 54.9164 33.8172 54.1455 37.7029C53.8421 40.5825 53.7464 43.4769 53.859 46.3678C53.859 46.8122 53.9007 47.2565 53.9319 47.7009C54.0257 49.015 54.1715 50.3245 54.3799 51.6197C54.432 51.9553 54.4893 52.2862 54.557 52.6219C54.6247 52.9575 54.6872 53.3026 54.7601 53.6382C55.6039 55.5669 56.531 57.4672 57.4998 59.3439C59.2382 62.8884 61.3913 66.2529 63.922 69.3797C64.0679 69.5546 64.2189 69.7248 64.37 69.895C64.8179 70.4102 65.2867 70.9066 65.7711 71.384C70.2921 75.8607 76.1883 78.8388 83.074 78.8766C85.0325 78.8766 86.9805 78.7537 88.9337 78.6024C89.84 78.5315 90.7463 78.4559 91.6526 78.3944C93.2881 78.2763 94.9236 78.1912 96.5643 78.2054H97.0279H97.4967L98.455 78.2432C98.778 78.2432 99.1009 78.281 99.429 78.3094L99.9187 78.3566C100.085 78.3566 100.247 78.385 100.44 78.4039L102.148 78.1108C102.716 78.0163 103.289 77.9264 103.862 77.8414C104.242 77.7799 104.622 77.7279 105.007 77.6712C105.768 77.5625 106.534 77.4585 107.304 77.3639C108.075 77.2694 108.836 77.1748 109.607 77.0897L109.966 77.0519C110.314 77.004 110.67 77.0276 111.007 77.1208C111.345 77.2141 111.654 77.3747 111.914 77.5908C111.961 77.6286 112.003 77.6712 112.044 77.709C112.169 77.8369 112.28 77.9745 112.378 78.1203C112.441 78.2213 112.499 78.3255 112.55 78.4323C112.596 78.541 112.643 78.6497 112.68 78.7632L112.727 78.9239C112.738 78.9579 112.747 78.9926 112.753 79.0279L112.826 79.0752C112.954 79.1673 113.074 79.2685 113.185 79.3777L113.221 79.4155L113.253 79.4439C113.266 79.4544 113.277 79.4672 113.284 79.4817C113.322 79.5171 113.356 79.555 113.388 79.5951L113.497 79.7322C113.56 79.8079 113.612 79.8882 113.669 79.9733L113.701 80.0253C113.747 80.1057 113.794 80.1908 113.836 80.2758C113.878 80.3609 113.925 80.4697 113.961 80.5737C113.997 80.6777 114.024 80.7722 114.044 80.8762C114.065 80.9637 114.081 81.052 114.091 81.1409C114.099 81.2687 114.094 81.3969 114.076 81.5238Z" fill="#FCBA1B"/>
<path d="M113.362 79.5901C113.331 79.55 113.296 79.5121 113.258 79.4766C113.251 79.4622 113.24 79.4493 113.227 79.4388L113.196 79.4105L113.159 79.3727C113.048 79.2634 112.928 79.1623 112.8 79.0701L112.727 79.0181C112.721 78.9829 112.713 78.9481 112.701 78.9141L112.654 78.7534C112.618 78.6407 112.575 78.5302 112.524 78.4225C112.473 78.3157 112.415 78.2116 112.352 78.1105C112.258 77.9626 112.146 77.8247 112.018 77.6992C111.977 77.6614 111.935 77.6189 111.888 77.581C111.629 77.3649 111.319 77.2043 110.982 77.111C110.644 77.0178 110.289 76.9942 109.94 77.0421L109.581 77.0847C108.81 77.1698 108.044 77.2596 107.279 77.3541C106.513 77.4487 105.742 77.5527 104.982 77.6614C104.596 77.7181 104.216 77.7701 103.836 77.8316C103.263 77.9167 102.69 78.0065 102.122 78.101C101.554 78.1956 100.981 78.2948 100.414 78.3988L99.8928 78.3468L99.4032 78.2996C99.0751 78.2712 98.7521 78.2523 98.4292 78.2334L97.4708 78.1956H97.002H96.5385C94.8978 78.1956 93.2623 78.2665 91.6268 78.3894C90.7205 78.4508 89.8142 78.5265 88.9079 78.5974C86.9546 78.7487 85.0066 78.881 83.0482 78.8716C76.1468 78.8337 70.2663 75.8556 65.7452 71.379C65.266 70.9062 64.7972 70.4051 64.3441 69.8899C64.193 69.7197 64.042 69.5495 63.8961 69.3746C61.3836 66.2548 59.2463 62.8999 57.5208 59.3671C56.552 57.4763 55.6248 55.5854 54.7811 53.6614C54.7081 53.3258 54.6456 52.9854 54.5779 52.6451C54.5102 52.3047 54.4581 51.9643 54.4008 51.6193V51.6429C53.8766 57.3703 55.1784 63.1136 58.151 68.1881C58.25 68.3488 58.3437 68.5096 58.4479 68.6608C58.6927 69.0768 58.9688 69.4834 59.2344 69.8852C59.2709 69.9419 59.3073 69.9986 59.349 70.0506C60.8886 72.2883 62.7585 74.3241 64.9066 76.1014C74.2508 83.8068 87.4599 86.4634 99.6272 83.7169C100.606 83.4932 101.573 83.2379 102.528 82.9511C105.203 82.6038 107.818 81.9494 110.31 81.0035C111.352 80.6112 112.43 80.1763 113.472 79.7083L113.362 79.5901Z" fill="#F8D500"/>
<path d="M114.076 81.5233C114.071 81.6698 114.05 81.8154 114.013 81.9582C113.937 82.2624 113.836 82.561 113.711 82.8516C113.632 83.0433 113.541 83.231 113.44 83.4142L113.284 83.6837C113.175 83.8633 113.06 84.0382 112.935 84.2084C112.367 83.9009 111.853 83.5186 111.409 83.0738C111.024 82.6858 110.724 82.2351 110.524 81.7455C110.428 81.5098 110.36 81.2658 110.32 81.0175C110.284 80.8301 110.263 80.6405 110.258 80.4502C110.116 79.3552 109.9 78.269 109.612 77.1978C109.607 77.1586 109.607 77.1189 109.612 77.0796L109.971 77.0371C110.32 76.9892 110.676 77.0127 111.013 77.106C111.35 77.1992 111.66 77.3598 111.919 77.576C111.966 77.6138 112.008 77.6564 112.05 77.6942C112.177 77.8196 112.289 77.9576 112.383 78.1055C112.448 78.2055 112.506 78.3098 112.555 78.4175C112.606 78.5251 112.649 78.6357 112.685 78.7484L112.732 78.9091C112.744 78.9431 112.752 78.9779 112.758 79.0131L112.831 79.0651C112.959 79.1572 113.079 79.2584 113.19 79.3676L113.227 79.4055L113.258 79.4338C113.271 79.4443 113.282 79.4572 113.289 79.4716C113.327 79.5071 113.362 79.545 113.393 79.5851L113.503 79.7222C113.565 79.7978 113.617 79.8782 113.675 79.9633L113.706 80.0153C113.753 80.0956 113.8 80.1807 113.841 80.2658C113.883 80.3509 113.93 80.4596 113.966 80.5636C114.004 80.6608 114.033 80.7604 114.055 80.8615C114.074 80.9505 114.088 81.0405 114.097 81.1309C114.103 81.262 114.096 81.3934 114.076 81.5233Z" fill="#442419"/>
<path d="M64.443 0.362886C64.2945 0.274583 64.1355 0.201643 63.969 0.145433C63.4841 -0.0304275 62.9467 -0.0473296 62.4495 0.0976247C61.9523 0.242579 61.5263 0.540323 61.2449 0.939601L60.9689 1.34141C60.7241 1.7054 60.4897 2.07412 60.2709 2.44757C59.7921 3.25827 59.3609 4.09142 58.9792 4.94351C58.7084 5.54386 58.4583 6.15366 58.2187 6.77292C58.125 6.96201 58.026 7.15583 57.9271 7.34491C55.8992 10.739 53.7237 14.048 51.4007 17.272C50.573 17.8166 49.8838 18.5163 49.3798 19.3236L49.3068 19.3992C46.6296 18.8367 43.8795 19.3992 41.4262 20.5715C40.1362 21.2001 38.9362 21.9701 37.8531 22.8642C34.4728 25.6532 32.056 29.4539 30.5142 33.3821C29.0402 36.1225 28.0423 39.0534 27.5557 42.0707C27.4672 42.5812 27.3839 43.0917 27.3109 43.607C26.9096 45.399 26.7159 47.2241 26.7328 49.0527C26.7328 49.3931 26.6911 49.7287 26.6755 50.0643C26.6599 50.4 26.6494 50.6694 26.639 50.9672C26.6286 51.265 26.639 51.5155 26.639 51.7945C26.639 52.1963 26.639 52.5933 26.639 52.9952C26.639 53.4679 26.639 53.9784 26.639 54.4653C26.6807 56.4035 26.8109 58.3321 27.0453 60.2324C27.6215 65.5549 29.685 70.6558 33.0404 75.0521C33.9415 77.3779 35.6811 79.4484 37.676 81.2636C38.5771 82.0909 39.5303 82.8614 40.4783 83.5846C41.2179 84.1472 41.9731 84.6908 42.7336 85.2108C45.2366 87.4935 48.0721 89.4545 51.1611 91.0394C51.609 91.271 52.057 91.5121 52.5101 91.7059L52.8747 91.8761L52.5466 91.5877L51.3226 90.5052C50.5656 89.8434 49.8173 89.1722 49.0777 88.4914C47.5672 87.1064 46.0358 85.7119 44.5306 84.2937C42.7584 81.9856 41.1173 79.5968 39.6136 77.1368C39.0407 76.215 38.4886 75.279 37.9521 74.343C37.8688 74.206 37.7906 74.0641 37.7125 73.927C36.1499 71.1569 34.6863 68.3395 33.2748 65.4938C32.4906 60.6611 32.2255 55.7708 32.4831 50.8916C32.4777 50.8034 32.4777 50.715 32.4831 50.6268C32.6181 48.0412 32.9085 45.4643 33.3529 42.9074C33.3998 42.6332 33.4519 42.359 33.504 42.0801C33.7644 40.6383 34.0613 39.1729 34.4155 37.7075C34.5821 37.0221 34.7592 36.3319 34.9363 35.6465C34.9676 35.5283 35.004 35.4101 35.0405 35.2919C35.2593 34.5419 35.5006 33.7981 35.7645 33.0607C35.8062 32.9378 35.853 32.8149 35.8999 32.6967C36.4072 31.312 37.0252 29.9628 37.749 28.6597C40.4462 26.0376 43.2886 23.5416 46.265 21.1813C49.6402 19.9995 52.4893 18.8981 54.7915 16.3123L55.1196 15.9294L55.2655 15.7498C55.578 15.3575 55.8749 14.9604 56.1718 14.5538C56.3489 14.308 56.526 14.0575 56.6926 13.8022C58.3438 11.3914 59.7397 8.7867 61.1877 6.2813C61.3908 5.92204 61.5991 5.56277 61.8075 5.20823C62.1981 4.55116 62.5888 3.88462 62.9638 3.22755C63.5107 2.31048 64.042 1.38868 64.5732 0.466884L64.443 0.362886Z" fill="#F8D500"/>
<path d="M35.5196 35.3436C35.3633 35.3673 35.223 35.445 35.1282 35.5603C35.0334 35.6756 34.9914 35.8197 35.0109 35.9625C35.0304 36.1053 35.1099 36.2357 35.2329 36.3266C35.3558 36.4174 35.5127 36.4616 35.6707 36.4499C35.827 36.4262 35.9673 36.3486 36.0621 36.2333C36.1569 36.118 36.1989 35.9739 36.1794 35.8311C36.1599 35.6883 36.0804 35.5578 35.9574 35.467C35.8345 35.3762 35.6776 35.332 35.5196 35.3436Z" fill="#2D1E1E"/>
<path d="M49.531 35.0366C49.3759 35.0611 49.2371 35.1386 49.1432 35.2532C49.0492 35.3677 49.0073 35.5107 49.026 35.6525C49.0447 35.7943 49.1226 35.9242 49.2437 36.0154C49.3648 36.1067 49.5198 36.1523 49.6768 36.1428C49.8318 36.1184 49.9706 36.0409 50.0646 35.9263C50.1585 35.8117 50.2005 35.6688 50.1818 35.527C50.1631 35.3851 50.0852 35.2552 49.9641 35.164C49.843 35.0728 49.688 35.0272 49.531 35.0366Z" fill="#2D1E1E"/>
<path d="M45.3013 41.0919C44.9512 41.6212 44.4569 42.0597 43.866 42.3655C43.2752 42.6712 42.6075 42.8338 41.9274 42.8376C41.2473 42.8414 40.5775 42.6863 39.9825 42.3872C39.3875 42.0881 38.8874 41.655 38.5301 41.1297C38.2697 40.7515 37.6603 41.1723 37.9207 41.5505C38.3488 42.1623 38.9409 42.6656 39.6415 43.0134C40.3421 43.3612 41.1284 43.5421 41.9269 43.5393C42.7255 43.5364 43.5102 43.3499 44.2078 42.9972C44.9054 42.6444 45.493 42.1369 45.9159 41.5221C46.1659 41.1439 45.5409 40.709 45.3013 41.0919Z" fill="#2D1E1E"/>
<path d="M35.4676 32.6069L33.2903 33.8311C32.9569 34.0201 33.3268 34.4597 33.6601 34.2754L35.8374 33.0465C36.1656 32.8574 35.801 32.4178 35.4676 32.6069Z" fill="#2D1E1E"/>
<path d="M51.2184 33.6941C50.7776 33.1503 50.1763 32.7308 49.4839 32.4839C49.1193 32.3563 48.8745 32.8668 49.2443 32.9945C49.8377 33.2043 50.3527 33.5634 50.7288 34.0298C50.7796 34.084 50.8513 34.1185 50.9293 34.1263C51.0072 34.134 51.0855 34.1145 51.1481 34.0716C51.2106 34.0287 51.2528 33.9657 51.2658 33.8955C51.2789 33.8254 51.2619 33.7533 51.2184 33.6941Z" fill="#2D1E1E"/>
<path d="M33.5612 37.7075C33.0797 37.7612 32.6265 37.9434 32.259 38.2309C31.8915 38.5184 31.6262 38.8984 31.4967 39.3227C31.3671 39.7471 31.3791 40.1968 31.5312 40.6149C31.6832 41.0331 31.9685 41.401 32.3509 41.672C32.7333 41.943 33.1956 42.105 33.6795 42.1376C34.1634 42.1701 34.647 42.0717 35.0693 41.8548C35.4915 41.6379 35.8334 41.3123 36.0517 40.919C36.27 40.5258 36.355 40.0826 36.2958 39.6456C36.2086 39.0626 35.8739 38.5337 35.363 38.1716C34.8521 37.8095 34.2055 37.6429 33.5612 37.7075Z" fill="#E0A319"/>
<path d="M50.3642 37.3571C49.8826 37.4109 49.4294 37.5931 49.0619 37.8806C48.6944 38.1681 48.4291 38.5481 48.2995 38.9725C48.17 39.3969 48.182 39.8466 48.334 40.2648C48.4861 40.6829 48.7713 41.0508 49.1538 41.3219C49.5362 41.5929 49.9985 41.7549 50.4824 41.7875C50.9663 41.82 51.45 41.7216 51.8722 41.5047C52.2945 41.2878 52.6364 40.9621 52.8547 40.5688C53.073 40.1756 53.1579 39.7324 53.0987 39.2953C53.0116 38.7123 52.6769 38.1834 52.166 37.8212C51.6551 37.4591 51.0085 37.2926 50.3642 37.3571Z" fill="#E0A319"/>
<path d="M35.1238 35.2825C35.0677 35.3026 35.0206 35.3391 34.99 35.3863C34.9594 35.4334 34.947 35.4885 34.9548 35.5428C34.9625 35.5971 34.9901 35.6475 35.0329 35.6859C35.0758 35.7244 35.1316 35.7488 35.1915 35.7552C35.2476 35.7351 35.2947 35.6986 35.3253 35.6514C35.3559 35.6043 35.3683 35.5492 35.3605 35.4949C35.3528 35.4406 35.3252 35.3903 35.2824 35.3518C35.2395 35.3133 35.1837 35.2889 35.1238 35.2825Z" fill="white"/>
<path d="M49.0256 34.9891C48.9695 35.0093 48.9224 35.0458 48.8918 35.093C48.8611 35.1401 48.8487 35.1952 48.8565 35.2495C48.8643 35.3038 48.8918 35.3542 48.9347 35.3927C48.9776 35.4312 49.0334 35.4556 49.0933 35.462C49.1494 35.4419 49.1965 35.4054 49.2271 35.3582C49.2578 35.311 49.2702 35.2559 49.2624 35.2016C49.2546 35.1473 49.2271 35.097 49.1842 35.0585C49.1413 35.02 49.0855 34.9956 49.0256 34.9891Z" fill="white"/>
<path d="M37.9467 106.474C39.3843 107.112 40.2593 108.308 39.8999 109.145C39.7575 109.401 39.5304 109.611 39.2503 109.745C38.9702 109.879 38.651 109.93 38.3373 109.891C38.1285 109.645 37.8592 109.446 37.5508 109.31C37.3261 109.201 37.0791 109.137 36.8253 109.12C36.5715 109.102 36.3166 109.133 36.0768 109.211C34.9777 108.539 34.3631 107.551 34.6704 106.847C35.0506 105.991 36.5091 105.831 37.9467 106.474Z" fill="#2D1E1E"/>
<path d="M28.0246 53.8221C27.5558 54.0396 27.0923 54.257 26.6183 54.4556C24.5036 55.3585 22.3212 56.0108 19.92 55.8737C19.4708 55.8457 19.0238 55.7936 18.5814 55.7178C16.5693 55.3372 14.6563 54.6103 12.9456 53.5763C8.13532 50.6958 4.39408 46.5656 2.21065 41.7251C2.02314 41.3375 1.85126 40.9451 1.68979 40.5481C1.62072 40.3813 1.62747 40.1965 1.70854 40.0343C1.78962 39.872 1.93838 39.7457 2.12211 39.683C2.30584 39.6203 2.50948 39.6264 2.68823 39.7C2.86699 39.7736 3.00622 39.9086 3.07529 40.0753C3.24717 40.4913 3.42427 40.9026 3.6222 41.3091C5.63632 45.6785 8.97383 49.4402 13.2477 52.1581C14.7871 53.1448 16.5115 53.8688 18.3366 54.2948C18.8696 54.4088 19.4109 54.4878 19.9564 54.5312C22.3368 54.7061 24.5192 53.9309 26.6026 52.9854C26.9152 52.8483 27.2225 52.7065 27.5298 52.56C28.3527 52.1676 28.8736 53.4298 28.0246 53.8221Z" fill="#2D1E1E"/>
<path d="M1.09605 37.7876C0.961272 37.8323 0.83346 37.8927 0.715824 37.9672C-0.148811 38.5156 -0.242569 39.7493 0.502268 40.7183C1.2471 41.6874 2.55968 42.0183 3.42953 41.47C3.75934 41.2246 3.99356 40.8895 4.09766 40.5142C4.20175 40.1389 4.17021 39.7432 4.00769 39.3853C2.64823 39.9148 1.32523 38.9268 1.09605 37.7876Z" fill="#2D1E1E"/>
<path d="M107.101 78.7015L105.018 80.1198C104.752 80.3042 105.018 80.7155 105.284 80.5312L107.367 79.1128C107.638 78.9332 107.372 78.5171 107.101 78.7015Z" fill="#E0A319"/>
<path d="M107.706 79.8973L106.664 80.1478C106.595 80.1647 106.536 80.2059 106.5 80.2622C106.465 80.3184 106.455 80.3853 106.474 80.4479C106.492 80.5106 106.538 80.564 106.6 80.5963C106.662 80.6287 106.735 80.6374 106.805 80.6204L107.846 80.3652C107.915 80.3483 107.973 80.3074 108.008 80.2516C108.043 80.1958 108.052 80.1295 108.034 80.0675C108.015 80.0054 107.97 79.9527 107.909 79.9207C107.847 79.8888 107.774 79.8804 107.706 79.8973Z" fill="#E0A319"/>
<path d="M31.176 61.8961L30.6551 60.2273C30.6364 60.1646 30.5911 60.1112 30.5291 60.0788C30.4671 60.0465 30.3934 60.0378 30.3243 60.0547C30.2553 60.0717 30.1964 60.1128 30.1608 60.1691C30.1251 60.2254 30.1156 60.2922 30.1342 60.3549L30.6551 62.0237C30.6737 62.0864 30.7191 62.1398 30.7811 62.1721C30.8431 62.2045 30.9168 62.2132 30.9858 62.1962C31.0549 62.1793 31.1138 62.1382 31.1494 62.0819C31.1851 62.0256 31.1946 61.9588 31.176 61.8961Z" fill="#E0A319"/>
<path d="M31.7173 60.7665V61.4804C31.7294 61.535 31.7619 61.5841 31.8094 61.6194C31.8569 61.6547 31.9164 61.674 31.9778 61.674C32.0392 61.674 32.0986 61.6547 32.1461 61.6194C32.1936 61.5841 32.2262 61.535 32.2383 61.4804V60.7665C32.2262 60.7119 32.1936 60.6627 32.1461 60.6274C32.0986 60.5921 32.0392 60.5729 31.9778 60.5729C31.9164 60.5729 31.8569 60.5921 31.8094 60.6274C31.7619 60.6627 31.7294 60.7119 31.7173 60.7665Z" fill="#E0A319"/>
<path d="M54.6143 14.6718V16.0899C54.6264 16.1445 54.6589 16.1936 54.7064 16.2289C54.7539 16.2642 54.8133 16.2834 54.8747 16.2834C54.9361 16.2834 54.9955 16.2642 55.043 16.2289C55.0905 16.1936 55.123 16.1445 55.1351 16.0899V14.6718C55.123 14.6172 55.0905 14.5681 55.043 14.5328C54.9955 14.4975 54.9361 14.4783 54.8747 14.4783C54.8133 14.4783 54.7539 14.4975 54.7064 14.5328C54.6589 14.5681 54.6264 14.6172 54.6143 14.6718Z" fill="#E0A319"/>
<path d="M56.1926 13.4762V14.8943C56.2047 14.9489 56.2373 14.998 56.2848 15.0333C56.3322 15.0686 56.3917 15.0879 56.4531 15.0879C56.5144 15.0879 56.5739 15.0686 56.6214 15.0333C56.6689 14.998 56.7014 14.9489 56.7135 14.8943V13.4762C56.7014 13.4216 56.6689 13.3724 56.6214 13.3372C56.5739 13.3019 56.5144 13.2826 56.4531 13.2826C56.3917 13.2826 56.3322 13.3019 56.2848 13.3372C56.2373 13.3724 56.2047 13.4216 56.1926 13.4762Z" fill="#E0A319"/>
<path d="M71.4537 87.2762H70.136C70.0759 87.2872 70.0217 87.3168 69.9829 87.3599C69.944 87.403 69.9227 87.457 69.9227 87.5127C69.9227 87.5684 69.944 87.6224 69.9829 87.6655C70.0217 87.7086 70.0759 87.7382 70.136 87.7491H71.4537C71.5139 87.7382 71.568 87.7086 71.6069 87.6655C71.6457 87.6224 71.667 87.5684 71.667 87.5127C71.667 87.457 71.6457 87.403 71.6069 87.3599C71.568 87.3168 71.5139 87.2872 71.4537 87.2762Z" fill="#E0A319"/>
<path d="M73.6309 88.2309C72.8509 87.976 72.0149 87.895 71.1933 87.9946C70.8599 88.0324 70.8547 88.5145 71.1933 88.4672C71.9671 88.3757 72.7539 88.4502 73.4902 88.6846C73.8132 88.7933 73.9486 88.3302 73.6309 88.2309Z" fill="#E0A319"/>
<path d="M59.2136 69.8851L57.1041 68.9397C56.802 68.8026 56.5363 69.2139 56.8384 69.351L58.9479 70.2964C59.25 70.4335 59.5157 70.0222 59.2136 69.8851Z" fill="#E0A319"/>
<path d="M60.1251 69.5493C59.9835 69.2043 59.7524 68.8954 59.4514 68.6486C59.1505 68.4018 58.7884 68.2244 58.3959 68.1314C58.3617 68.123 58.326 68.1208 58.2908 68.125C58.2557 68.1291 58.2218 68.1395 58.1911 68.1555C58.1604 68.1715 58.1335 68.1929 58.1118 68.2183C58.0902 68.2438 58.0743 68.2729 58.0651 68.3039C58.0559 68.3349 58.0535 68.3673 58.058 68.3992C58.0626 68.4311 58.074 68.4618 58.0917 68.4897C58.1093 68.5176 58.1328 68.542 58.1609 68.5616C58.189 68.5812 58.221 68.5956 58.2552 68.604C58.5581 68.67 58.8394 68.8004 59.0757 68.9845C59.3121 69.1686 59.4968 69.4011 59.6147 69.6628C59.7188 69.9558 60.2293 69.8518 60.1251 69.5493Z" fill="#E0A319"/>
<path d="M95.4131 90.4859L95.1422 90.9585C94.9911 91.2279 95.4443 91.4736 95.6006 91.1995L95.8662 90.7269C96.0173 90.4528 95.5433 90.2118 95.4131 90.4859Z" fill="#E0A319"/>
<path d="M96.4655 91.1999L95.9447 91.909C95.752 92.1643 96.2103 92.3817 96.3978 92.1501L96.9187 91.441C97.1062 91.1857 96.6583 90.9494 96.4655 91.1999Z" fill="#E0A319"/>
<path d="M37.7697 73.8982C37.7095 73.9092 37.6554 73.9387 37.6165 73.9818C37.5776 74.0249 37.5564 74.0789 37.5564 74.1346C37.5564 74.1904 37.5776 74.2444 37.6165 74.2875C37.6554 74.3306 37.7095 74.3601 37.7697 74.3711C37.8298 74.3601 37.8839 74.3306 37.9228 74.2875C37.9617 74.2444 37.9829 74.1904 37.9829 74.1346C37.9829 74.0789 37.9617 74.0249 37.9228 73.9818C37.8839 73.9387 37.8298 73.9092 37.7697 73.8982Z" fill="#E0A319"/>
<path d="M40.6658 75.5723C40.6056 75.5832 40.5515 75.6128 40.5126 75.6559C40.4738 75.6989 40.4525 75.7529 40.4525 75.8086C40.4525 75.8643 40.4738 75.9183 40.5126 75.9613C40.5515 76.0044 40.6056 76.0339 40.6658 76.0449C40.7259 76.0339 40.78 76.0044 40.8189 75.9613C40.8578 75.9183 40.879 75.8643 40.879 75.8086C40.879 75.7529 40.8578 75.6989 40.8189 75.6559C40.78 75.6128 40.7259 75.5832 40.6658 75.5723Z" fill="#E0A319"/>
<path d="M38.5615 77.2452C38.5014 77.2562 38.4473 77.2857 38.4084 77.3288C38.3695 77.3719 38.3483 77.4258 38.3483 77.4815C38.3483 77.5372 38.3695 77.5911 38.4084 77.6342C38.4473 77.6773 38.5014 77.7068 38.5615 77.7178C38.6217 77.7068 38.6758 77.6773 38.7147 77.6342C38.7535 77.5911 38.7748 77.5372 38.7748 77.4815C38.7748 77.4258 38.7535 77.3719 38.7147 77.3288C38.6758 77.2857 38.6217 77.2562 38.5615 77.2452Z" fill="#E0A319"/>
<path d="M103.034 80.5873C102.973 80.5983 102.919 80.6278 102.88 80.6709C102.842 80.714 102.82 80.7681 102.82 80.8238C102.82 80.8795 102.842 80.9335 102.88 80.9766C102.919 81.0198 102.973 81.0493 103.034 81.0603C103.094 81.0493 103.148 81.0198 103.187 80.9766C103.226 80.9335 103.247 80.8795 103.247 80.8238C103.247 80.7681 103.226 80.714 103.187 80.6709C103.148 80.6278 103.094 80.5983 103.034 80.5873Z" fill="#E0A319"/>
<path d="M105.138 81.5426C105.077 81.5536 105.023 81.5831 104.984 81.6262C104.946 81.6693 104.924 81.7232 104.924 81.7789C104.924 81.8346 104.946 81.8886 104.984 81.9317C105.023 81.9747 105.077 82.0043 105.138 82.0153C105.198 82.0043 105.252 81.9747 105.291 81.9317C105.33 81.8886 105.351 81.8346 105.351 81.7789C105.351 81.7232 105.33 81.6693 105.291 81.6262C105.252 81.5831 105.198 81.5536 105.138 81.5426Z" fill="#E0A319"/>
<path d="M51.1923 58.3744C51.1321 58.3854 51.078 58.4149 51.0391 58.458C51.0002 58.5012 50.979 58.5552 50.979 58.6109C50.979 58.6666 51.0002 58.7206 51.0391 58.7638C51.078 58.8069 51.1321 58.8364 51.1923 58.8474C51.2524 58.8364 51.3065 58.8069 51.3454 58.7638C51.3843 58.7206 51.4055 58.6666 51.4055 58.6109C51.4055 58.5552 51.3843 58.5012 51.3454 58.458C51.3065 58.4149 51.2524 58.3854 51.1923 58.3744Z" fill="#E0A319"/>
<path d="M49.8745 50.7356C49.8143 50.7466 49.7602 50.7761 49.7213 50.8192C49.6824 50.8623 49.6611 50.9163 49.6611 50.972C49.6611 51.0277 49.6824 51.0817 49.7213 51.1248C49.7602 51.1679 49.8143 51.1974 49.8745 51.2084C49.9346 51.1974 49.9887 51.1679 50.0276 51.1248C50.0665 51.0817 50.0878 51.0277 50.0878 50.972C50.0878 50.9163 50.0665 50.8623 50.0276 50.8192C49.9887 50.7761 49.9346 50.7466 49.8745 50.7356Z" fill="#E0A319"/>
<path d="M53.8228 54.3184C53.7626 54.3293 53.7085 54.3589 53.6696 54.402C53.6307 54.4451 53.6095 54.4991 53.6095 54.5549C53.6095 54.6106 53.6307 54.6646 53.6696 54.7077C53.7085 54.7508 53.7626 54.7804 53.8228 54.7914C53.8829 54.7804 53.937 54.7508 53.9759 54.7077C54.0148 54.6646 54.036 54.6106 54.036 54.5549C54.036 54.4991 54.0148 54.4451 53.9759 54.402C53.937 54.3589 53.8829 54.3293 53.8228 54.3184Z" fill="#E0A319"/>
<path d="M30.4049 49.5254C30.3448 49.5364 30.2906 49.5659 30.2518 49.6089C30.2129 49.652 30.1917 49.7059 30.1917 49.7616C30.1917 49.8173 30.2129 49.8712 30.2518 49.9143C30.2906 49.9573 30.3448 49.9868 30.4049 49.9978C30.4651 49.9868 30.5192 49.9573 30.558 49.9143C30.5969 49.8712 30.6182 49.8173 30.6182 49.7616C30.6182 49.7059 30.5969 49.652 30.558 49.6089C30.5192 49.5659 30.4651 49.5364 30.4049 49.5254Z" fill="#E0A319"/>
<path d="M32.2435 50.4944C32.1834 50.5054 32.1293 50.5349 32.0904 50.5779C32.0515 50.621 32.0303 50.6749 32.0303 50.7306C32.0303 50.7862 32.0515 50.8402 32.0904 50.8833C32.1293 50.9263 32.1834 50.9558 32.2435 50.9668C32.3037 50.9558 32.3578 50.9263 32.3967 50.8833C32.4355 50.8402 32.4568 50.7862 32.4568 50.7306C32.4568 50.6749 32.4355 50.621 32.3967 50.5779C32.3578 50.5349 32.3037 50.5054 32.2435 50.4944Z" fill="#E0A319"/>
<path d="M41.718 22.7928C41.6579 22.8038 41.6038 22.8334 41.5649 22.8765C41.526 22.9196 41.5048 22.9736 41.5048 23.0293C41.5048 23.085 41.526 23.139 41.5649 23.1821C41.6038 23.2252 41.6579 23.2548 41.718 23.2657C41.7782 23.2548 41.8323 23.2252 41.8712 23.1821C41.91 23.139 41.9313 23.085 41.9313 23.0293C41.9313 22.9736 41.91 22.9196 41.8712 22.8765C41.8323 22.8334 41.7782 22.8038 41.718 22.7928Z" fill="#E0A319"/>
<path d="M45.4003 23.7479C45.3401 23.7589 45.286 23.7884 45.2471 23.8315C45.2083 23.8746 45.187 23.9286 45.187 23.9843C45.187 24.04 45.2083 24.094 45.2471 24.1371C45.286 24.1802 45.3401 24.2097 45.4003 24.2207C45.4604 24.2097 45.5145 24.1802 45.5534 24.1371C45.5923 24.094 45.6135 24.04 45.6135 23.9843C45.6135 23.9286 45.5923 23.8746 45.5534 23.8315C45.5145 23.7884 45.4604 23.7589 45.4003 23.7479Z" fill="#E0A319"/>
<path d="M60.4014 10.1335C60.3412 10.1445 60.2871 10.174 60.2482 10.2171C60.2094 10.2602 60.1881 10.3141 60.1881 10.3698C60.1881 10.4255 60.2094 10.4794 60.2482 10.5225C60.2871 10.5656 60.3412 10.5951 60.4014 10.6061C60.4615 10.5951 60.5156 10.5656 60.5545 10.5225C60.5934 10.4794 60.6146 10.4255 60.6146 10.3698C60.6146 10.3141 60.5934 10.2602 60.5545 10.2171C60.5156 10.174 60.4615 10.1445 60.4014 10.1335Z" fill="#E0A319"/>
<path d="M65.292 2.50879C65.219 2.71679 65.1565 2.92006 65.0784 3.13278C64.8128 3.9364 64.5575 4.74002 64.2659 5.53891C64.2346 5.62873 64.2033 5.71382 64.1721 5.80837C63.62 6.08254 63.0731 6.3378 62.6095 6.59307C62.3781 6.71798 62.1024 6.75674 61.8402 6.70122C61.578 6.6457 61.3497 6.50021 61.2032 6.29527C61.1412 6.21194 61.0921 6.12127 61.0573 6.02581C60.6851 4.86102 60.4185 3.67052 60.2604 2.46625C60.4791 2.0928 60.7135 1.72408 60.9583 1.36009L61.2344 0.958277C61.5158 0.558998 61.9418 0.261253 62.439 0.116299C62.9362 -0.0286561 63.4736 -0.0117466 63.9585 0.164114C64.125 0.220324 64.284 0.293257 64.4325 0.38156L64.5888 0.480834C64.6455 0.516655 64.6979 0.557854 64.745 0.603738C64.8087 0.651345 64.8664 0.705258 64.9169 0.764468C65.136 0.995901 65.2818 1.27689 65.3388 1.57754C65.4051 1.88693 65.389 2.20618 65.292 2.50879Z" fill="#442419"/>
<path opacity="0.11" d="M114.076 81.5281C114.071 81.6746 114.05 81.8202 114.013 81.963C113.937 82.2672 113.836 82.5658 113.711 82.8564C113.632 83.048 113.541 83.2358 113.44 83.419L113.284 83.6884C113.175 83.868 113.06 84.0429 112.935 84.2131C111.576 86.104 109.331 87.4843 107.403 88.8032C104.596 90.7335 101.594 92.4207 98.4395 93.8424C95.9383 95.0407 93.206 95.7903 90.3922 96.05C85.2425 97.7121 79.8206 98.5735 74.355 98.5979C74.1555 98.6003 73.9564 98.5828 73.7612 98.5459C73.7612 98.8138 73.7612 99.0832 73.7612 99.3542C73.2403 99.2975 72.7195 99.2313 72.2247 99.1604C72.2247 98.8957 72.2247 98.6263 72.2247 98.3615L52.8331 91.8664L52.4685 91.6962C52.2341 92.4762 51.9945 93.2609 51.7393 94.0598C51.2653 93.8802 50.7965 93.6958 50.3277 93.502C50.602 92.6826 50.8659 91.8633 51.1194 91.0439C48.0305 89.459 45.195 87.498 42.6919 85.2153C41.9315 84.6953 41.1762 84.1517 40.4366 83.5891C39.4886 82.8659 38.5355 82.0953 37.6344 81.2681C35.6395 79.4529 33.8998 77.3824 32.9987 75.0566C29.6452 70.6598 27.5835 65.5589 27.0089 60.2369C26.7745 58.346 26.6443 56.4079 26.6026 54.4697C24.4879 55.3726 22.3055 56.025 19.9043 55.8879C19.4551 55.8598 19.0082 55.8077 18.5657 55.7319C18.472 55.2592 18.3938 54.7865 18.3209 54.3138C18.8539 54.4277 19.3953 54.5067 19.9408 54.5501C22.3211 54.725 24.5035 53.9497 26.587 53.0043C26.587 52.6025 26.587 52.2054 26.587 51.8036C26.587 51.5247 26.587 51.2553 26.587 50.9764C26.587 50.6975 26.587 50.376 26.6234 50.0735C26.6599 49.7709 26.6599 49.4022 26.6807 49.0619C26.6831 47.2411 26.8943 45.4256 27.311 43.6445C27.3839 43.1293 27.4672 42.6187 27.5558 42.1082C28.0423 39.0909 29.0402 36.16 30.5142 33.4196C32.0768 29.4914 34.4728 25.6907 37.8531 22.9017C38.9362 22.0075 40.1363 21.2375 41.4262 20.609C38.4552 24.552 36.0372 28.8157 34.228 33.3015C34.1082 33.5804 33.9936 33.8593 33.8894 34.1382C33.3894 35.424 32.938 36.7239 32.5352 38.0381C32.2435 38.9835 31.9779 39.929 31.7383 40.9075C31.0305 43.7517 30.5449 46.6377 30.2851 49.544C30.2851 49.6811 30.259 49.8182 30.2538 49.9553C29.9717 53.3141 29.9995 56.6885 30.3371 60.0431C30.3788 60.5158 30.4257 60.9602 30.483 61.414C30.5767 62.1514 30.6861 62.8888 30.8059 63.6263C32.8867 67.9767 35.4209 72.1366 38.374 76.0493C38.7751 76.4038 39.1761 76.7489 39.5876 77.0893L39.7855 77.2547C48.8902 84.7189 60.6199 88.9308 72.6674 90.6326C73.157 90.7035 73.6518 90.765 74.1466 90.8264C76.6224 91.1416 79.0983 91.3464 81.5741 91.441C86.4285 91.6442 90.986 91.4835 95.3768 90.4955L95.8248 90.3963C98.854 89.6848 101.75 88.5697 104.419 87.0872C106.799 85.7778 109.107 84.3738 111.404 83.003C112.289 82.5539 113.175 82.0339 114.076 81.5281Z" fill="#2D1E1E"/>
<path d="M104.138 83.0881C103.93 83.0881 103.732 83.1628 103.585 83.2958C103.439 83.4288 103.356 83.6091 103.356 83.7972C103.356 83.9852 103.439 84.1656 103.585 84.2986C103.732 84.4315 103.93 84.5062 104.138 84.5062C104.345 84.5062 104.544 84.4315 104.69 84.2986C104.837 84.1656 104.919 83.9852 104.919 83.7972C104.919 83.6091 104.837 83.4288 104.69 83.2958C104.544 83.1628 104.345 83.0881 104.138 83.0881Z" fill="white"/>
<path d="M107.263 81.1971C107.056 81.1971 106.857 81.2718 106.711 81.4048C106.564 81.5378 106.482 81.7181 106.482 81.9062C106.482 82.0942 106.564 82.2746 106.711 82.4076C106.857 82.5405 107.056 82.6152 107.263 82.6152C107.47 82.6152 107.669 82.5405 107.815 82.4076C107.962 82.2746 108.044 82.0942 108.044 81.9062C108.044 81.7181 107.962 81.5378 107.815 81.4048C107.669 81.2718 107.47 81.1971 107.263 81.1971Z" fill="white"/>
<path d="M34.3425 70.0886C34.2044 70.0886 34.0719 70.1384 33.9742 70.2271C33.8765 70.3157 33.8217 70.436 33.8217 70.5613C33.8217 70.6867 33.8765 70.8069 33.9742 70.8956C34.0719 70.9842 34.2044 71.0341 34.3425 71.0341C34.4807 71.0341 34.6132 70.9842 34.7108 70.8956C34.8085 70.8069 34.8634 70.6867 34.8634 70.5613C34.8634 70.436 34.8085 70.3157 34.7108 70.2271C34.6132 70.1384 34.4807 70.0886 34.3425 70.0886Z" fill="white"/>
<path d="M52.5726 19.0349C52.4344 19.0349 52.302 19.0847 52.2043 19.1734C52.1066 19.262 52.0518 19.3823 52.0518 19.5077C52.0518 19.6331 52.1066 19.7533 52.2043 19.842C52.302 19.9307 52.4344 19.9805 52.5726 19.9805C52.7107 19.9805 52.8432 19.9307 52.9408 19.842C53.0385 19.7533 53.0934 19.6331 53.0934 19.5077C53.0934 19.3823 53.0385 19.262 52.9408 19.1734C52.8432 19.0847 52.7107 19.0349 52.5726 19.0349Z" fill="white"/>
<path d="M54.6561 17.3807C54.587 17.3807 54.5208 17.4056 54.4719 17.4499C54.4231 17.4943 54.3956 17.5543 54.3956 17.617C54.3956 17.6797 54.4231 17.7398 54.4719 17.7841C54.5208 17.8284 54.587 17.8533 54.6561 17.8533C54.7251 17.8533 54.7914 17.8284 54.8402 17.7841C54.8891 17.7398 54.9165 17.6797 54.9165 17.617C54.9165 17.5543 54.8891 17.4943 54.8402 17.4499C54.7914 17.4056 54.7251 17.3807 54.6561 17.3807Z" fill="white"/>
<path d="M55.6979 21.1622C55.6288 21.1622 55.5625 21.1871 55.5137 21.2315C55.4648 21.2758 55.4374 21.336 55.4374 21.3987C55.4374 21.4614 55.4648 21.5215 55.5137 21.5659C55.5625 21.6102 55.6288 21.6351 55.6979 21.6351C55.767 21.6351 55.8332 21.6102 55.8821 21.5659C55.9309 21.5215 55.9584 21.4614 55.9584 21.3987C55.9584 21.336 55.9309 21.2758 55.8821 21.2315C55.8332 21.1871 55.767 21.1622 55.6979 21.1622Z" fill="white"/>
<path d="M39.0303 69.8518C38.9613 69.8518 38.895 69.8767 38.8462 69.9211C38.7973 69.9654 38.7699 70.0255 38.7699 70.0883C38.7699 70.151 38.7973 70.2111 38.8462 70.2554C38.895 70.2998 38.9613 70.3247 39.0303 70.3247C39.0994 70.3247 39.1656 70.2998 39.2145 70.2554C39.2633 70.2111 39.2908 70.151 39.2908 70.0883C39.2908 70.0255 39.2633 69.9654 39.2145 69.9211C39.1656 69.8767 39.0994 69.8518 39.0303 69.8518Z" fill="white"/>
<path d="M36.4259 73.634C36.3568 73.634 36.2906 73.6589 36.2418 73.7033C36.193 73.7476 36.1655 73.8077 36.1655 73.8704C36.1655 73.933 36.193 73.9931 36.2418 74.0375C36.2906 74.0818 36.3568 74.1067 36.4259 74.1067C36.495 74.1067 36.5612 74.0818 36.61 74.0375C36.6588 73.9931 36.6863 73.933 36.6863 73.8704C36.6863 73.8077 36.6588 73.7476 36.61 73.7033C36.5612 73.6589 36.495 73.634 36.4259 73.634Z" fill="white"/>
<path d="M86.4286 87.8149C86.3596 87.8149 86.2933 87.8399 86.2445 87.8842C86.1957 87.9285 86.1682 87.9886 86.1682 88.0513C86.1682 88.114 86.1957 88.1741 86.2445 88.2185C86.2933 88.2628 86.3596 88.2877 86.4286 88.2877C86.4977 88.2877 86.564 88.2628 86.6128 88.2185C86.6616 88.1741 86.6891 88.114 86.6891 88.0513C86.6891 87.9886 86.6616 87.9285 86.6128 87.8842C86.564 87.8399 86.4977 87.8149 86.4286 87.8149Z" fill="white"/>
<path d="M86.4286 84.9794C86.3596 84.9794 86.2933 85.0043 86.2445 85.0486C86.1957 85.0929 86.1682 85.153 86.1682 85.2156C86.1682 85.2783 86.1957 85.3384 86.2445 85.3827C86.2933 85.427 86.3596 85.4519 86.4286 85.4519C86.4977 85.4519 86.564 85.427 86.6128 85.3827C86.6616 85.3384 86.6891 85.2783 86.6891 85.2156C86.6891 85.153 86.6616 85.0929 86.6128 85.0486C86.564 85.0043 86.4977 84.9794 86.4286 84.9794Z" fill="white"/>
<path d="M91.1161 86.8696C91.0471 86.8696 90.9808 86.8945 90.932 86.9389C90.8832 86.9832 90.8557 87.0434 90.8557 87.1061C90.8557 87.1688 90.8832 87.2289 90.932 87.2733C90.9808 87.3176 91.0471 87.3425 91.1161 87.3425C91.1852 87.3425 91.2515 87.3176 91.3003 87.2733C91.3491 87.2289 91.3766 87.1688 91.3766 87.1061C91.3766 87.0434 91.3491 86.9832 91.3003 86.9389C91.2515 86.8945 91.1852 86.8696 91.1161 86.8696Z" fill="white"/>
<path d="M45.2806 46.689C45.2115 46.689 45.1453 46.7139 45.0964 46.7582C45.0476 46.8026 45.0201 46.8627 45.0201 46.9254C45.0201 46.9881 45.0476 47.0483 45.0964 47.0926C45.1453 47.137 45.2115 47.1619 45.2806 47.1619C45.3497 47.1619 45.4159 47.137 45.4647 47.0926C45.5136 47.0483 45.541 46.9881 45.541 46.9254C45.541 46.8627 45.5136 46.8026 45.4647 46.7582C45.4159 46.7139 45.3497 46.689 45.2806 46.689Z" fill="white"/>
<path d="M48.4057 48.1072C48.3366 48.1072 48.2704 48.1321 48.2215 48.1764C48.1727 48.2207 48.1453 48.2809 48.1453 48.3436C48.1453 48.4063 48.1727 48.4664 48.2215 48.5107C48.2704 48.555 48.3366 48.58 48.4057 48.58C48.4748 48.58 48.541 48.555 48.5899 48.5107C48.6387 48.4664 48.6661 48.4063 48.6661 48.3436C48.6661 48.2809 48.6387 48.2207 48.5899 48.1764C48.541 48.1321 48.4748 48.1072 48.4057 48.1072Z" fill="white"/>
<path d="M32.2591 52.8342C32.19 52.8342 32.1238 52.8591 32.0749 52.9034C32.0261 52.9477 31.9987 53.0078 31.9987 53.0705C31.9987 53.1332 32.0261 53.1932 32.0749 53.2376C32.1238 53.2819 32.19 53.3068 32.2591 53.3068C32.3282 53.3068 32.3944 53.2819 32.4432 53.2376C32.4921 53.1932 32.5195 53.1332 32.5195 53.0705C32.5195 53.0078 32.4921 52.9477 32.4432 52.9034C32.3944 52.8591 32.3282 52.8342 32.2591 52.8342Z" fill="white"/>
<path d="M44.7596 50.2345C44.6215 50.2345 44.489 50.2843 44.3913 50.373C44.2936 50.4616 44.2388 50.5818 44.2388 50.7072C44.2388 50.8326 44.2936 50.9528 44.3913 51.0415C44.489 51.1301 44.6215 51.1799 44.7596 51.1799C44.8977 51.1799 45.0302 51.1301 45.1279 51.0415C45.2255 50.9528 45.2804 50.8326 45.2804 50.7072C45.2804 50.5818 45.2255 50.4616 45.1279 50.373C45.0302 50.2843 44.8977 50.2345 44.7596 50.2345Z" fill="white"/>
</svg>
