<svg width="99" height="133" viewBox="0 0 99 133" fill="none" xmlns="http://www.w3.org/2000/svg">
<path opacity="0.08" d="M68.8244 122.75C65.3959 122.94 61.9939 123.47 58.672 124.334L58.7744 124.289C58.8737 124.235 58.9567 124.157 59.015 124.062C59.0733 123.967 59.1048 123.859 59.1063 123.748C59.1077 123.638 59.0791 123.53 59.0233 123.434C58.9676 123.338 58.8866 123.259 58.7887 123.204C58.6972 123.15 58.5923 123.122 58.4851 123.121L58.01 123.128C53.2625 123.232 48.5254 123.648 43.8313 124.373C41.5413 123.976 39.1799 124.174 36.9849 124.945C33.1798 125.135 29.3939 125.615 25.6621 126.381C26.9417 125.81 28.2426 125.293 29.5647 124.828C30.0526 124.65 30.5418 124.483 31.0356 124.322C31.862 124.053 32.691 123.805 33.5298 123.577C33.7418 123.516 33.9578 123.457 34.1706 123.403C34.2644 123.368 34.3497 123.315 34.421 123.246C34.4922 123.177 34.5477 123.094 34.5838 123.003C34.6199 122.912 34.6358 122.815 34.6305 122.718C34.6251 122.621 34.5987 122.526 34.5528 122.44C34.5122 122.342 34.4358 122.263 34.3383 122.217C34.2408 122.172 34.1292 122.163 34.0249 122.193L33.1862 122.391L30.32 123.072L27.2405 123.804L19.5586 125.589C18.8648 125.755 19.0032 126.966 19.7043 126.799L24.0929 125.761C22.6151 126.457 21.1623 127.215 19.7345 128.037C17.7843 128.735 15.8976 129.593 14.0946 130.601C13.5862 130.886 13.7236 131.935 14.3844 131.772L34.7534 126.792C34.8054 126.864 34.8782 126.92 34.9627 126.952C35.0472 126.984 35.1397 126.991 35.2288 126.973C37.3305 126.611 39.4294 126.257 41.5309 125.925C42.716 125.887 43.8983 125.857 45.077 125.827C45.1409 125.825 45.2039 125.811 45.2623 125.786C45.3206 125.76 45.3732 125.724 45.4167 125.678C45.4601 125.632 45.4937 125.578 45.5153 125.52C45.5369 125.461 45.5461 125.399 45.5423 125.337C48.8346 124.89 52.1168 124.545 55.4296 124.392C54.0683 124.944 52.6912 125.436 51.2983 125.868C48.49 126.423 45.6943 127.052 42.9113 127.755C42.233 127.927 42.3258 129.068 43.057 128.966C45.9493 128.558 48.8033 127.918 51.5893 127.05L52.3639 126.906C52.3728 127.028 52.423 127.143 52.5065 127.233C52.5901 127.324 52.7023 127.385 52.8257 127.406C57.2652 127.925 61.769 127.049 65.6784 124.905C65.7972 124.835 65.8907 124.73 65.9457 124.605C66.0007 124.481 66.0145 124.343 65.9852 124.211C66.9747 124.092 67.9684 124.009 68.9656 123.954C69.6903 123.92 69.5409 122.711 68.8244 122.75ZM56.1273 126.326L56.6889 126.143C58.1721 125.904 59.6614 125.685 61.1567 125.486C59.5231 125.976 57.8325 126.258 56.1273 126.326Z" fill="#2D1E1E"/>
<path d="M32.0902 65.2795L32.0931 65.2679C32.1504 64.9908 32.0981 64.7023 31.947 64.463C31.796 64.2237 31.558 64.0523 31.2832 63.9849C31.0084 63.9174 30.7182 63.9591 30.4735 64.1013C30.2288 64.2435 30.0488 64.475 29.9713 64.7471C29.9539 64.8166 28.8099 69.0392 23.0541 72.3958C16.0765 76.4647 8.61509 74.693 8.53985 74.6742C8.25857 74.6039 7.9609 74.6482 7.71233 74.7975C7.46375 74.9467 7.28463 75.1885 7.21436 75.4698C7.1441 75.7511 7.18844 76.0487 7.33765 76.2973C7.48686 76.5459 7.7287 76.725 8.00998 76.7953C8.34709 76.8795 16.3848 78.8121 24.1518 74.284C30.6892 70.4756 32.0046 65.6224 32.0902 65.2795Z" fill="#231F20"/>
<path d="M12.5835 74.7682C11.724 74.3813 11.4169 73.9557 10.3812 73.3819C9.34556 72.808 8.43502 72.041 7.46048 71.3702C7.27904 71.2203 7.05829 71.1256 6.82457 71.0976C6.3804 71.085 6.04157 71.5676 6.06588 72.0118C6.0902 72.4559 6.37745 72.8444 6.70268 73.1546C7.0279 73.4649 7.39037 73.7307 7.65592 74.0891C5.80653 73.9188 3.94188 74.038 2.12922 74.4424C1.80773 74.4922 1.50177 74.6145 1.23444 74.7999C0.979477 75.0021 0.816774 75.3519 0.92787 75.6579C1.03897 75.9639 1.32329 76.0995 1.60254 76.2061C2.11474 76.4027 2.65811 76.5057 3.20673 76.51C2.74413 76.5958 2.26992 76.4943 1.80008 76.5106C1.33024 76.527 0.807974 76.7163 0.635522 77.1543C0.435593 77.6593 0.835737 78.2419 1.34107 78.4404C1.8464 78.6389 2.41606 78.5552 2.95317 78.4788C2.61931 78.4246 2.3387 78.8218 2.42304 79.1488C2.50737 79.4757 2.84632 79.688 3.18199 79.7288C3.52017 79.7485 3.85883 79.6993 4.17736 79.5839C8.12149 78.4526 11.3995 77.8526 14.8641 75.6438L12.5835 74.7682Z" fill="#231F20"/>
<path d="M47.6048 43.2021C57.9695 59.905 77.1002 70.8036 96.7514 71.2048C99.2449 76.0888 98.4366 82.4762 94.7993 86.5878C94.2773 87.1843 93.6882 87.7465 93.4183 88.4862C93.1573 89.1991 93.2229 89.9776 93.2244 90.7411C93.2244 95.7952 90.03 100.566 85.6291 103.051C81.2282 105.535 75.8162 105.884 70.9187 104.639C69.9016 104.379 68.8949 104.054 67.8525 103.932C66.5894 103.783 65.3173 103.932 64.0452 104.041C55.4551 104.738 46.8301 103.213 38.9998 99.613C39.2877 80.4032 30.2294 62.4999 24.1239 44.2848L47.6048 43.2021Z" fill="#3A88AA"/>
<path d="M48.1924 54.5213C46.6354 52.6631 45.0606 50.1845 46.0747 47.9863C50.2958 54.566 55.498 60.4617 61.501 65.4691C72.3175 74.523 84.0886 78.4153 97.2078 82.6641C96.6467 84.1009 95.8392 85.4287 94.8216 86.5878C94.325 87.1485 93.7777 87.6914 93.4795 88.3774C93.3944 88.2968 93.3079 88.2163 93.22 88.1388C90.9964 86.1657 88.2255 84.9473 85.5516 83.6514C71.1871 76.679 58.4564 66.7525 48.1924 54.5213Z" fill="#49A7DB"/>
<path d="M75.6865 97.8458C78.8675 100.132 82.3975 102.259 86.2526 102.69C86.0537 102.815 85.8549 102.935 85.656 103.051C81.2536 105.535 75.8431 105.884 70.9456 104.639C70.5355 104.534 70.1284 104.42 69.7197 104.312C67.9987 101.456 66.6834 98.2395 65.4814 95.1495C64.9893 93.8834 64.4897 92.4994 64.8849 91.199C68.892 92.5859 72.2386 95.3672 75.6865 97.8458Z" fill="#49A7DB"/>
<path d="M31.0442 110.031C31.0268 109.998 31.0114 109.965 30.9979 109.931C30.8999 109.647 28.6502 102.939 31.3636 93.6609C33.9458 84.8342 41.71 78.873 42.0418 78.6276C42.1545 78.5291 42.2863 78.4549 42.4289 78.4094C42.5715 78.364 42.7219 78.3483 42.8708 78.3633C43.0197 78.3784 43.164 78.4238 43.2946 78.4969C43.4252 78.57 43.5394 78.6691 43.6302 78.7881C43.7209 78.9072 43.7863 79.0435 43.8221 79.1888C43.858 79.3341 43.8637 79.4853 43.8388 79.6329C43.8139 79.7804 43.7589 79.9213 43.6773 80.0468C43.5957 80.1723 43.4893 80.2797 43.3645 80.3623C43.2634 80.4386 35.8398 86.1701 33.4701 94.2726C30.9639 102.841 33.0516 109.152 33.0744 109.216C33.1646 109.481 33.1499 109.77 33.0331 110.024C32.9164 110.279 32.7066 110.479 32.4469 110.583C32.1872 110.687 31.8974 110.688 31.6372 110.585C31.377 110.482 31.1662 110.283 31.0483 110.029L31.0442 110.031Z" fill="#231F20"/>
<path d="M80.144 92.0237C80.144 92.0237 57.5878 81.6948 52.5068 64.9323C47.4259 48.1698 47.9806 33.3043 46.6742 27.6805C44.7474 19.3828 40.2973 17.3068 40.2973 17.3068L35.7473 16.5045C35.7473 16.5045 30.8528 13.2952 25.5869 23.9611C21.6558 31.9129 19.1205 52.8242 27.1081 72.89C35.0673 92.8708 48.1044 98.4588 57.5878 99.8129C67.0711 101.167 79.4998 97.0912 79.4998 97.0912L80.144 92.0237Z" fill="#F2D211"/>
<path d="M25.5123 23.8806C28.1967 18.4373 30.7901 16.6104 32.6841 16.1257C31.5551 17.3188 30.3501 19.0487 29.1243 21.5318C25.1931 29.4895 22.6564 50.4053 30.6469 70.4666C38.6061 90.4504 51.6448 96.0354 61.1266 97.3895C67.5139 98.3097 75.239 96.7497 79.6011 95.6402L79.4267 97.0167C79.4267 97.0167 66.992 101.092 57.5146 99.7384C48.0372 98.3842 34.9956 92.7962 27.0349 72.8155C19.0444 52.7527 21.5811 31.8383 25.5123 23.8806Z" fill="#EFBB18"/>
<path d="M40.2972 17.3068L47.8672 7.86818L43.0278 3.80432L32.8704 16.1734C32.8704 16.1734 33.8845 18.7086 34.3916 19.0442C34.8986 19.3797 40.2972 17.3068 40.2972 17.3068Z" fill="#F2D211"/>
<path d="M52.1682 8.83908C51.3226 9.22385 45.0575 8.70636 45.0575 8.70636L41.6633 5.46272L44.549 0L52.1682 3.80437V8.83908Z" fill="#F2D211"/>
<path d="M48.9603 48.8409C44.7294 47.533 36.9417 45.3139 29.7834 44.2745C26.0774 43.7361 23.5541 43.8524 21.8391 44.2282C21.8641 40.8172 22.1412 37.4127 22.6683 34.0425C24.5011 33.6622 27.1616 33.3714 30.969 33.437C37.322 33.5474 43.8257 35.2147 47.6271 36.3794C47.9179 39.9243 48.2803 44.1582 48.9603 48.8409Z" fill="#49A7DB"/>
<path d="M42.7864 41.4738C42.6493 41.7846 42.4283 42.0511 42.1481 42.2433C41.8403 42.4239 41.4967 42.5349 41.1415 42.5684C39.8291 42.7608 38.4839 42.6191 37.1969 42.3C36.2275 42.0599 35.2373 41.6885 34.593 40.9264C33.9488 40.1644 33.7862 38.9191 34.4752 38.1973C34.9554 37.6947 35.7011 37.5605 36.3946 37.5128C38.4586 37.3711 44.4626 37.8677 42.7864 41.4738Z" fill="#F2D211"/>
<path d="M30.1906 39.9138C30.1488 40.222 30.0145 40.5103 29.8055 40.7406C29.5965 40.9709 29.3226 41.1324 29.0199 41.2038C27.976 41.5587 26.8649 41.5886 25.7673 41.4364C24.9426 41.3216 24.0791 41.0785 23.4379 40.4074C22.7966 39.7363 22.4745 38.5239 22.9248 37.723C23.238 37.1653 23.8196 36.9386 24.3819 36.8044C26.0402 36.4062 31.0048 36.1407 30.1906 39.9138Z" fill="#F2D211"/>
<path d="M60.3585 115.933C60.5806 115.933 60.7971 115.864 60.9774 115.734C61.1578 115.604 61.2927 115.421 61.3632 115.211C61.4337 115 61.436 114.773 61.37 114.561C61.304 114.349 61.1729 114.163 60.9953 114.03C60.9327 113.983 54.6825 109.162 53.3433 100.56C52.1324 92.7739 54.9644 85.969 54.9927 85.9018C55.0774 85.6498 55.0639 85.3751 54.9551 85.1325C54.8463 84.8899 54.65 84.6972 54.4055 84.5929C54.161 84.4885 53.8861 84.48 53.6356 84.5692C53.3852 84.6584 53.1775 84.8387 53.054 85.0742C52.9272 85.3724 49.9535 92.4816 51.2644 100.882C52.7393 110.36 59.4488 115.497 59.7336 115.716C59.9135 115.853 60.1325 115.929 60.3585 115.933Z" fill="#231F20"/>
<path d="M35.0776 39.7304C35.0776 40.0734 35.1793 40.4087 35.3699 40.694C35.5604 40.9792 35.8313 41.2015 36.1482 41.3328C36.4652 41.464 36.8139 41.4984 37.1503 41.4315C37.4868 41.3645 37.7958 41.1994 38.0384 40.9568C38.2809 40.7142 38.4461 40.4052 38.5131 40.0687C38.58 39.7323 38.5456 39.3836 38.4144 39.0667C38.2831 38.7497 38.0608 38.4788 37.7756 38.2883C37.4903 38.0977 37.155 37.996 36.812 37.996C36.3521 37.9964 35.9112 38.1792 35.586 38.5044C35.2608 38.8296 35.078 39.2705 35.0776 39.7304Z" fill="#231F20"/>
<path d="M36.818 39.4307C36.818 39.5734 36.8603 39.713 36.9396 39.8317C37.019 39.9504 37.1317 40.0429 37.2636 40.0975C37.3955 40.1522 37.5406 40.1664 37.6806 40.1386C37.8206 40.1107 37.9492 40.042 38.0502 39.9411C38.1511 39.8401 38.2199 39.7115 38.2477 39.5715C38.2756 39.4315 38.2613 39.2863 38.2067 39.1544C38.152 39.0225 38.0595 38.9098 37.9408 38.8305C37.8221 38.7512 37.6826 38.7089 37.5398 38.7089C37.3484 38.7089 37.1648 38.7849 37.0294 38.9203C36.894 39.0556 36.818 39.2392 36.818 39.4307Z" fill="white"/>
<path d="M23.4811 38.8922C23.4796 39.2356 23.5801 39.5716 23.7697 39.8578C23.9594 40.144 24.2298 40.3675 24.5466 40.4999C24.8634 40.6323 25.2123 40.6678 25.5493 40.6017C25.8862 40.5356 26.1959 40.371 26.4392 40.1287C26.6826 39.8865 26.8485 39.5775 26.916 39.2408C26.9835 38.9042 26.9496 38.5551 26.8186 38.2377C26.6875 37.9203 26.4652 37.649 26.1798 37.4581C25.8945 37.2672 25.5588 37.1653 25.2155 37.1653C24.7568 37.1653 24.3168 37.347 23.9917 37.6706C23.6667 37.9943 23.4831 38.4335 23.4811 38.8922Z" fill="#231F20"/>
<path d="M25.2155 38.5925C25.2155 38.7353 25.2578 38.8748 25.3371 38.9935C25.4164 39.1122 25.5291 39.2048 25.661 39.2594C25.7929 39.314 25.9381 39.3283 26.0781 39.3005C26.2181 39.2726 26.3467 39.2039 26.4476 39.1029C26.5486 39.002 26.6173 38.8734 26.6452 38.7333C26.673 38.5933 26.6587 38.4482 26.6041 38.3163C26.5495 38.1844 26.457 38.0717 26.3383 37.9924C26.2196 37.9131 26.08 37.8707 25.9373 37.8707C25.7458 37.8707 25.5622 37.9468 25.4269 38.0821C25.2915 38.2175 25.2155 38.4011 25.2155 38.5925Z" fill="white"/>
<path d="M34.0337 47.3153C34.0337 47.3153 31.7624 49.7387 29.509 49.7387C27.2556 49.7387 26.498 46.2625 26.498 46.2625C26.498 46.2625 25.5003 52.2859 29.2987 52.866C32.8033 53.4074 34.0337 47.3153 34.0337 47.3153Z" fill="#231F20"/>
<path d="M27.0379 45.7851C26.8421 45.6983 26.6231 45.6786 26.4149 45.729C26.2067 45.7794 26.021 45.8972 25.8866 46.064C25.8647 46.0986 25.8305 46.1235 25.7909 46.1338C25.7513 46.144 25.7093 46.1388 25.6734 46.1192C25.6549 46.1096 25.6387 46.0963 25.6257 46.0801C25.6127 46.0639 25.6032 46.0452 25.5979 46.0251C25.5925 46.005 25.5915 45.984 25.5947 45.9635C25.5979 45.943 25.6054 45.9234 25.6167 45.9059C25.7952 45.6696 26.0497 45.5019 26.3373 45.431C26.6249 45.3602 26.9281 45.3904 27.196 45.5167C27.2143 45.5264 27.2304 45.5398 27.2433 45.5561C27.2561 45.5723 27.2654 45.5911 27.2706 45.6112C27.2758 45.6312 27.2768 45.6522 27.2734 45.6726C27.2701 45.6931 27.2625 45.7126 27.2512 45.73C27.2298 45.7651 27.1956 45.7905 27.1558 45.8008C27.1159 45.8111 27.0737 45.8055 27.0379 45.7851Z" fill="#231F20"/>
<path d="M34.6571 47.718C34.6791 47.4441 34.6174 47.17 34.4803 46.932C34.3432 46.6939 34.137 46.5031 33.8891 46.3847C33.8707 46.375 33.8547 46.3616 33.8418 46.3453C33.829 46.3291 33.8196 46.3103 33.8144 46.2902C33.8093 46.2702 33.8083 46.2493 33.8116 46.2288C33.815 46.2083 33.8226 46.1888 33.8339 46.1715C33.8555 46.1366 33.8898 46.1114 33.9295 46.1012C33.9692 46.0909 34.0113 46.0963 34.0472 46.1163C34.3425 46.2615 34.5879 46.4914 34.752 46.7767C34.9161 47.062 34.9916 47.3896 34.9688 47.718C34.9688 47.7593 34.9524 47.7989 34.9231 47.8282C34.8939 47.8574 34.8543 47.8738 34.8129 47.8738C34.7716 47.8738 34.732 47.8574 34.7027 47.8282C34.6735 47.7989 34.6571 47.7593 34.6571 47.718Z" fill="#231F20"/>
<path d="M41.6633 78.5332C41.82 78.5333 41.9749 78.4996 42.1175 78.4345C42.26 78.3694 42.3869 78.2744 42.4895 78.1559C42.6819 77.9337 47.211 72.6499 47.9999 66.6622C48.9872 59.1683 46.3729 54.8211 46.2625 54.6406C46.111 54.3934 45.8676 54.2165 45.5856 54.1489C45.3037 54.0812 45.0065 54.1283 44.7593 54.2797C44.5121 54.4312 44.3352 54.6747 44.2675 54.9566C44.1998 55.2385 44.2469 55.5358 44.3984 55.783C44.4327 55.8412 46.7099 59.7231 45.833 66.3714C45.1291 71.7163 40.8803 76.6705 40.8386 76.7197C40.7008 76.8778 40.6114 77.0722 40.5812 77.2797C40.551 77.4872 40.5812 77.6991 40.6682 77.8899C40.7551 78.0807 40.8953 78.2424 41.0717 78.3557C41.2482 78.469 41.4536 78.529 41.6633 78.5287V78.5332Z" fill="#231F20"/>
<path d="M42.5342 75.394C42.0868 76.1143 40.7446 76.156 40.1063 77.0076C39.468 77.8591 38.6672 78.5764 37.9469 79.3624C37.7909 79.5054 37.6791 79.6902 37.6248 79.8948C37.5577 80.2915 37.9454 80.6524 38.3451 80.6867C38.7448 80.721 39.1265 80.5122 39.4427 80.2661C39.7589 80.02 40.0392 79.7248 40.3942 79.5324C40.0106 81.1605 39.8843 82.8387 40.0198 84.5059C40.0244 84.7989 40.0953 85.0869 40.2271 85.3485C40.2952 85.4783 40.4011 85.5841 40.5309 85.6521C40.6606 85.72 40.808 85.7468 40.9534 85.7288C41.2174 85.6737 41.4008 85.4306 41.5276 85.1964C41.7658 84.7637 41.9254 84.292 41.9988 83.8035C42.0167 84.2256 41.8676 84.6372 41.8243 85.0577C41.7811 85.4783 41.884 85.9689 42.2523 86.1762C42.6789 86.4178 43.2471 86.1345 43.4872 85.7065C43.7273 85.2784 43.7288 84.7639 43.7228 84.2748C43.6318 84.5731 43.9525 84.8713 44.2552 84.8311C44.5579 84.7908 44.7876 84.5209 44.8666 84.2345C44.927 83.9353 44.927 83.627 44.8666 83.3278C44.3492 79.6696 43.7317 77.009 43.435 75.042L42.5342 75.394Z" fill="#231F20"/>
<path d="M56.1709 104.378C57.2804 104.772 66.5281 114.875 66.5281 114.875C66.5281 114.875 57.4236 126.415 56.1709 125.234C54.9182 124.053 56.1709 116.38 56.1709 116.38L48.9603 109.69L56.1709 104.378Z" fill="#49A7DB"/>
<path d="M36.1781 107.531C36.1781 107.531 27.8271 109.147 27.737 109.392C27.647 109.637 27.9584 119.341 27.9584 119.341C27.9584 119.341 21.7957 123.847 22.0769 124.789C22.3581 125.732 35.7625 124.062 35.7625 124.062L36.1781 107.531Z" fill="#49A7DB"/>
<path d="M54.3977 108.202C54.5722 107.72 55.1881 107.383 55.6191 107.659L56.2738 107.938C57.1477 108.719 57.9839 109.54 58.7822 110.401C59.1923 110.849 59.6203 111.399 59.4906 111.988C59.3743 112.522 58.8031 112.868 58.2573 112.883C57.7114 112.898 57.1939 112.632 56.7436 112.321C55.7947 111.66 55.0456 110.752 54.5782 109.694C54.3709 109.22 54.2232 108.683 54.3977 108.202Z" fill="#F2D211"/>
<path d="M31.8664 116.308C31.4191 116.556 30.7316 116.404 30.5894 115.913L30.2812 115.269C30.1371 114.105 30.0483 112.936 30.0146 111.763C29.9981 111.159 30.0401 110.461 30.5248 110.102C30.9627 109.775 31.6207 109.892 32.0387 110.246C32.4568 110.6 32.675 111.134 32.8074 111.664C33.0886 112.786 33.055 113.963 32.7101 115.067C32.5564 115.559 32.3151 116.059 31.8664 116.308Z" fill="#F2D211"/>
<path opacity="0.55" d="M43.6081 23.4675C43.9872 24.3443 44.2504 25.2668 44.391 26.2116C44.6162 27.5389 44.7117 28.8855 44.8056 30.2277C44.9856 32.8027 45.1665 35.3778 45.3485 37.9528C45.3887 38.524 45.3082 39.2711 44.7519 39.4083C44.3299 39.5127 43.9377 39.1593 43.6812 38.8118C41.5694 35.9291 42.5537 31.8801 41.6873 28.4143C41.2607 26.7097 40.3809 25.1662 39.3668 23.7464C38.8015 22.956 36.9359 21.4125 37.6607 20.3656C38.2363 19.5334 39.9305 19.8615 40.6582 20.2164C41.9468 20.8309 43.0235 22.1939 43.6081 23.4675Z" fill="white"/>
<path opacity="0.55" d="M74.128 92.1132L63.5142 86.5073C61.3697 85.3753 59.2162 84.2375 57.2507 82.8177C54.8835 81.1098 52.8171 79.0197 51.1362 76.6332C50.1132 75.1792 49.2109 73.5089 49.2974 71.7342C49.2894 71.4406 49.378 71.1524 49.5495 70.914C50.0684 70.3025 51.0646 70.7976 51.6373 71.3614C53.4075 73.1256 54.5991 75.3879 56.1829 77.3162C58.733 80.4405 62.2198 82.6253 65.6498 84.7535L73.0498 89.3453C73.7402 89.7748 75.8117 90.5696 76.1323 91.3511C76.7095 92.741 74.8259 92.4815 74.128 92.1132Z" fill="white"/>
<path d="M80.144 92.0251L77.8414 92.9647V94.9332L79.4998 97.0912L80.144 92.0251Z" fill="#C6A810"/>
<path d="M52.1682 8.83906L43.5826 1.82983L41.6633 5.4627L46.9097 8.83906H52.1682Z" fill="#EFBB18"/>
</svg>
