<svg width="205" height="211" viewBox="0 0 205 211" fill="none" xmlns="http://www.w3.org/2000/svg">
<g opacity="0.6">
<path d="M151.556 157.502C151.556 157.502 155.391 135.699 155.63 131.24C155.849 125.184 155.203 119.128 153.713 113.253C152.941 110.058 152.259 107.189 149.637 104.939C148.806 104.26 147.778 103.864 146.705 103.812C146.705 103.812 142.247 97.098 138.364 96.235C134.481 95.372 129.301 93.5336 129.301 93.5336L102.991 78.579C102.991 78.579 93.6667 67.5934 85.9205 66.2615C78.1744 64.9296 70.6886 64.1772 70.6886 64.1772L60.1558 65.7595C60.1558 65.7595 47.1476 69.684 41.4431 74.135C35.7386 78.586 30.3295 90.7451 30.3295 90.7451L22.8622 102.152C22.8622 102.152 17.9591 106.61 18.2899 109.608C18.3368 110.439 18.5766 111.248 18.9902 111.971C19.4037 112.694 19.9798 113.311 20.6728 113.773C20.6728 113.773 21.7166 114.746 25.0295 111.18C28.3424 107.614 43.0778 90.4668 48.3772 86.0223C53.6766 81.5778 63.158 75.1382 63.158 75.1382L73.7708 71.3422L79.4225 70.7247L84.1794 73.5874L87.6769 80.34L88.5187 86.5842L87.9695 93.4865C87.9695 93.4865 78.2595 93.4201 73.9264 102.308C71.3338 107.623 69.305 113.195 67.8728 118.933C67.8728 118.933 66.2377 129.11 65.6551 135.21C65.3403 139.135 65.6272 143.084 66.5059 146.923C66.5059 146.923 67.3644 153.568 71.7448 162.299C73.8898 166.728 76.2866 171.031 78.9232 175.186L81.9771 178.573L89.2057 186.599C90.2465 187.751 91.2753 188.932 92.2863 190.096C93.7063 191.723 96.6464 191.836 98.5604 191.337C99.6225 191.103 100.583 190.539 101.305 189.726C101.628 189.23 101.831 188.665 101.898 188.077L103.645 180.565C103.645 180.565 111.689 184.511 117.038 186.742C122.387 188.972 126.523 190.814 126.523 190.814C127.216 191.111 127.918 191.618 128.612 191.99C129.173 192.211 129.7 192.509 130.178 192.875C131.335 193.86 132.352 194.998 133.201 196.257C134.098 197.855 135.343 199.231 136.844 200.282C137.978 200.915 139.203 201.371 140.475 201.636C140.9 201.769 141.343 201.84 141.788 201.847C144.215 201.741 144.362 197.152 144.384 195.438C144.341 194.565 144.234 193.696 144.063 192.839C143.949 191.857 143.766 190.884 143.514 189.928C143.19 188.531 142.478 187.253 141.46 186.24C140.659 185.53 139.816 184.869 138.934 184.262L135.233 181.409C132.014 173.32 129.313 165.035 127.144 156.604C124.039 143.965 123.695 129.197 123.695 129.197L125.444 126.329L128.025 135.273C130.799 141.969 133.286 148.591 138.286 154.004C139.906 155.758 141.759 157.39 144.063 158.067C145.073 158.334 146.111 158.484 147.155 158.517C147.935 158.562 148.71 158.591 149.482 158.605C150.565 158.644 150.895 158.219 151.556 157.502Z" fill="#FEDD4E"/>
<path d="M122.082 110.864C124.267 105.641 127.129 99.5671 130.342 94.9326C132.649 91.6071 140.308 85.4519 142.903 84.3425C145.498 83.233 161.666 77.17 161.666 77.17C161.666 77.17 181.666 70.75 185.06 69.2126C188.454 67.6752 191.155 64.3303 191.881 62.2954C192.607 60.2604 191.631 55.821 191.631 55.821C191.631 55.821 182.505 50.09 174.371 49.1825C168.84 48.6843 163.268 48.8921 157.79 49.8008C157.79 49.8008 135.515 55.2849 127.377 59.4377C119.239 63.5904 111.014 70.7747 111.011 70.7817C106.481 74.7358 102.445 79.4111 98.1989 83.717C96.5232 85.4015 93.845 86.8772 93.0814 89.1913C92.9833 89.4199 92.4997 95.4233 91.7629 94.787C94.6656 97.3213 97.1827 100.141 99.8167 102.938C102.328 105.599 104.232 105.104 107.86 105.242C113.354 105.451 117.813 107.973 121.841 111.483C121.912 111.259 121.996 111.065 122.082 110.864Z" fill="#FFEC8F"/>
<path d="M121.906 111.428C122.171 111.861 122.399 112.316 122.587 112.787C121.552 112.477 120.467 112.367 119.391 112.465C118.319 112.417 117.247 112.554 116.221 112.868C115.169 113.255 114.147 113.718 113.163 114.255C111.03 115.346 109.243 117.007 107.999 119.053C104.42 125.475 101.021 132.877 101.021 132.877L97.7386 148.172L98.4278 165.96L100.417 181.066C100.06 181.897 101.547 189.526 101.547 189.526L94.7151 190.999L83.5912 180.685C83.5912 180.685 72.4789 165.314 68.4074 154.122C64.336 142.931 65.9897 127.699 65.9897 127.699L71.2552 106.847C71.2552 106.847 75.2056 98.812 77.1814 97.5188C79.1571 96.2257 82.3307 94.495 82.3307 94.495L88.9485 92.8319L92.2939 95.5398L101.14 104.523C101.14 104.523 101.288 104.521 101.322 104.519C104.695 104.478 108.062 104.797 111.368 105.468C113.652 105.88 115.862 106.63 117.926 107.693C119.557 108.568 120.929 109.856 121.906 111.428Z" fill="#FFF5CB"/>
<path d="M147.22 103.836C142.85 104.34 138.722 106.106 135.341 108.918C131.139 112.601 127.296 116.673 123.863 121.08C123.903 119.658 123.867 118.235 123.755 116.817C123.726 115.199 123.306 113.611 122.531 112.189C122.401 112.009 122.295 111.811 122.217 111.603C121.932 110.66 122.807 109.444 123.212 108.634C123.712 107.642 124.202 106.654 124.691 105.667L127.466 100.122C127.58 99.8252 127.721 99.5399 127.889 99.2699L131.948 94.0629C131.948 94.0629 142.05 95.5287 147.22 103.836Z" fill="#FFF5CB"/>
<path d="M102.991 78.579L93.0685 89.2022L90.8276 78.2222L88.1866 72.6496C88.1866 72.6496 78.4764 67.5536 73.1513 66.1289C69.4954 65.2798 65.7193 65.0776 61.9943 65.5315C61.9943 65.5315 72.7647 61.4832 82.6525 65.5724C92.5404 69.6616 99.1653 73.433 102.991 78.579Z" fill="#FFF5CB"/>
<path d="M190.259 56.4713C190.259 56.4713 189.844 61.5519 186.235 62.4971C182.627 63.4422 159.588 64.7011 150.987 67.6544C142.387 70.6077 118.16 88.3076 117.766 88.729C117.371 89.1504 101.446 90.7475 110.311 79.0877C119.176 67.4279 127.648 60.834 137.994 55.9961C148.339 51.1583 166.063 48.4709 166.063 48.4709C166.063 48.4709 185.366 49.9481 190.259 56.4713Z" fill="#FFF0AD"/>
<path d="M135.8 190.473C135.327 189.662 129.89 184.654 129.89 184.654L125.427 189.884L131.248 193.712L135.8 190.473Z" fill="#D2925D"/>
<path d="M127.807 182.677L125.436 189.863L119.489 187.86L112.719 185.478L105.253 180.894L103.624 180.556L103.583 168.814L104.435 148.545L108.072 126.953C108.072 126.953 108.579 146.14 114.439 161.315C120.298 176.491 127.807 182.677 127.807 182.677Z" fill="#D2925D"/>
<path d="M144.73 153.931C144.73 153.931 147.236 139.87 146.406 128.568C145.902 121.791 144.486 115.111 142.196 108.711C142.196 108.711 135.047 112.205 132.136 115.771C130.109 118.372 128.316 121.147 126.778 124.063C128.103 129.238 129.783 134.315 131.807 139.26C135.153 147.358 141.966 155.206 144.73 153.931Z" fill="#D2925D"/>
<path d="M79.4224 70.7247C79.4224 70.7247 67.2823 71.1739 59.7795 76.3133C52.2768 81.4528 42.2921 90.9581 42.2921 90.9581L30.6486 104.346C30.6486 104.346 43.6673 84.4269 43.5289 80.7902C43.3905 77.1535 38.3188 82.1962 38.3188 82.1962C38.3188 82.1962 47.5479 69.3061 54.7712 67.4188C58.9849 66.2956 63.2999 65.5922 67.6528 65.3189C67.6528 65.3189 78.2471 66.5198 79.4224 70.7247Z" fill="#D2925D"/>
<path d="M141.648 82.6384C144.018 81.044 146.542 79.6895 149.181 78.595C156.151 75.6677 163.501 73.7434 171.013 72.8797C155.264 76.7432 136.375 84.7067 127.886 99.2767C123.319 107.161 121.839 111.449 121.839 111.449C120.262 108.969 117.809 107.172 114.968 106.415C111.149 105.409 107.264 104.673 103.342 104.213L99.801 102.898C99.801 102.898 90.466 95.6085 91.7471 94.7473C93.0283 93.8861 93.4237 87.9926 93.4237 87.9926C93.4237 87.9926 95.3024 94.805 98.4064 96.5069C101.51 98.2087 107.036 99.8346 111.529 95.4131C116.022 90.9917 120.475 86.0523 125.36 82.2094C131.158 77.6753 138.023 74.7481 144.804 72.0148C148.52 70.5523 152.232 69.1046 155.94 67.6718C146.159 72.0547 135.962 76.7758 129.479 85.3152C128.91 85.9686 128.505 86.7481 128.297 87.5892C128.198 88.011 128.23 88.4531 128.388 88.8567C128.546 89.2603 128.824 89.6062 129.183 89.8484C130.207 90.4276 131.459 89.7505 132.441 89.0891C135.739 86.8952 138.592 84.6494 141.648 82.6384Z" fill="#E7BB82"/>
<path d="M65.7533 134.465C64.1631 146.565 68.7396 158.359 75.2137 168.391C78.5877 173.474 82.362 178.28 86.5007 182.763C88.1989 184.641 89.3641 186.938 91.0524 188.819C92.5318 190.48 94.6918 191.818 96.9723 191.747C98.2998 191.704 99.5762 191.226 100.603 190.385C100.845 190.216 101.033 189.979 101.141 189.705C101.201 189.349 101.181 188.985 101.082 188.638C100.984 188.046 101.056 187.437 101.029 186.851C100.995 186.497 100.937 186.146 100.856 185.8C100.734 185.165 100.585 184.518 100.481 183.9C100.377 183.281 100.201 182.467 100.008 181.769C99.8151 181.07 99.6122 180.491 99.446 179.845C99.1537 178.726 98.9968 177.576 98.9787 176.42C99.005 175.871 98.9999 175.321 98.9634 174.773C98.8834 174.156 98.7934 173.543 98.6867 172.931C98.4731 171.707 98.2229 170.492 97.9797 169.28C97.4391 166.911 97.176 164.488 97.1956 162.06C97.4065 156.94 97.0539 150.914 98.2434 145.944C97.3545 149.812 96.3481 163.747 92.3107 165.5C90.6492 166.215 88.8993 164.782 87.6446 163.497C81.618 157.127 82.8336 145.556 83.2009 137.509C83.2858 135.609 82.8627 127.337 84.3114 126.162C81.8154 128.151 78.8222 129.672 76.1169 126.697C74.6682 125.099 74.133 122.884 73.7415 120.755C72.9713 116.36 72.6391 111.899 72.7496 107.439C68.284 115.68 66.9681 125.19 65.7533 134.465Z" fill="#E7BB82"/>
<path d="M107.382 117.123C104.019 115.392 100.044 115.376 96.4318 114.227C95.9702 114.131 95.5595 113.87 95.277 113.493C94.8453 112.758 95.4588 111.865 96.0475 111.239C96.9628 110.138 98.1133 109.255 99.4145 108.656C101.104 108.011 102.989 108.287 104.77 108.576L111.351 109.638C112.78 109.866 114.392 110.205 115.185 111.399C112.069 112.589 109.313 114.562 107.183 117.128L107.382 117.123Z" fill="white"/>
<path d="M96.4661 104.412C94.0568 104.822 92.2234 106.758 90.7487 108.702C90.5661 108.998 90.3136 109.244 90.0134 109.42C89.1584 109.824 88.2533 108.968 87.7147 108.195C85.5047 105.023 83.5634 101.301 80.0374 99.7217C81.01 97.4563 83.6503 96.432 86.0745 95.9877C87.1532 95.6882 88.3034 95.7808 89.3207 96.2492C90.8687 97.1763 91.0165 99.3566 92.1007 100.79C92.8226 101.572 93.6167 102.284 94.4725 102.916C94.9044 103.239 95.2465 103.667 95.4664 104.159C95.6862 104.651 95.7765 105.191 95.7286 105.728L96.4661 104.412Z" fill="white"/>
<path d="M141.308 53.5547C148.498 51.4971 155.783 49.5791 163.241 48.8098C170.699 48.0405 178.24 48.4722 185.034 51.6022C187.863 52.8909 192.162 54.7938 192.56 58.2466C193.497 66.468 183.63 70.1905 177.464 72.2362C175.661 72.8405 173.833 73.3685 172.032 73.949C163.15 76.8308 154.046 79.9044 145.475 83.5924C133.197 88.8562 127.589 99.4527 122.362 111.034C122.261 111.269 121.906 111.084 121.995 110.876C126.949 99.7194 132.306 89.0969 143.922 83.8445C150.981 80.656 158.516 78.3284 165.809 75.7243C171.48 73.7039 177.426 72.6302 182.894 70.0304C185.679 68.7073 188.509 66.9931 190.295 64.4206C191.117 63.2562 191.649 61.9121 191.847 60.5003C192.068 58.856 191.813 56.7529 190.293 55.7802C189.271 55.1199 188.225 54.515 187.149 53.9625C185.075 52.9067 182.908 52.045 180.675 51.3882C173.289 49.2181 165.427 49.2643 157.873 50.4107C150.254 51.6598 142.784 53.6903 135.581 56.4701C117.636 63.1731 106.56 77.1328 93.0643 89.7665C92.9783 89.8392 92.8686 89.8778 92.756 89.875C92.6434 89.8722 92.5357 89.8282 92.4533 89.7514C92.3709 89.6746 92.3195 89.5702 92.3089 89.4581C92.2984 89.346 92.3293 89.2339 92.3959 89.1431C104.95 73.3483 121.66 59.174 141.308 53.5547Z" fill="black"/>
<path d="M122.562 112.309C122.675 112.792 122.83 113.264 123.023 113.721C112.655 110.312 104.459 123.875 102.033 131.457C99.8243 138.36 99.3353 145.887 99.0277 153.049C98.4885 165.322 99.6432 177.321 101.4 189.447C101.433 189.658 101.078 189.719 101.036 189.512C97.3674 172.676 96.2755 153.894 99.5257 136.895C101.319 127.343 109.865 108.72 122.562 112.309Z" fill="black"/>
<path d="M85.1056 93.2331C86.0364 92.9781 87.0009 92.8664 87.9656 92.9021C93.8061 93.4323 96.8567 100.518 101.019 103.79C101.147 103.894 100.996 104.092 100.854 104.023C98.7104 102.881 96.8089 101.334 95.2542 99.4691C93.3926 97.4556 91.3212 94.5725 88.516 93.9343C87.9387 93.8058 87.344 93.7752 86.7567 93.8436C83.672 94.2821 80.7815 95.6063 78.4362 97.6556C73.0972 102.288 70.5111 109.612 68.8732 116.277C66.6969 125.181 65.8828 134.364 66.4584 143.514C66.5215 144.476 66.6252 145.439 66.7625 146.401C68.0304 155.306 72.298 163.497 77.3635 170.824C79.9734 174.595 82.833 178.185 85.7987 181.682C87.2503 183.388 88.7277 185.073 90.1972 186.737C91.5825 188.292 92.8408 190.621 95.019 191.113C95.9972 191.276 96.9978 191.245 97.9641 191.024C98.8943 190.935 99.7829 190.596 100.536 190.044C101.43 189.144 101.975 187.956 102.074 186.692C102.155 186.177 102.341 185.707 102.412 185.196C102.514 184.518 102.523 183.808 102.564 183.12C102.734 180.354 102.788 177.582 102.727 174.805C102.667 172.113 102.507 169.426 102.538 166.732C102.57 164.038 102.69 161.235 102.881 158.494C103.045 156.103 103.279 153.742 103.478 151.366C104.204 143.613 104.522 135.241 107.412 127.916C108.795 124.408 111.588 120.101 114.794 118.048C115.626 117.481 116.523 117.015 117.467 116.66C118.418 116.308 119.457 116.265 120.434 116.539C120.995 116.741 121.509 117.056 121.944 117.464C122.379 117.872 122.726 118.365 122.962 118.913C123.426 120.013 123.592 121.217 123.443 122.402C123.234 121.33 122.86 120.298 122.335 119.341C121.798 118.38 120.916 117.659 119.868 117.322C118.899 117.096 117.882 117.214 116.991 117.654C114.256 119.02 112.038 121.234 110.669 123.965C109.119 126.424 107.947 129.101 107.193 131.908C105.983 136.065 105.57 140.45 105.094 144.733C104.871 146.744 104.685 148.759 104.535 150.778C104.103 156.336 103.865 161.903 103.685 167.446C103.637 168.935 103.592 170.417 103.551 171.909C103.524 172.833 103.494 173.764 103.514 174.692C103.583 178.069 103.873 181.335 103.234 184.696C103.003 185.887 102.694 187.062 102.308 188.212C101.929 189.374 101.121 190.348 100.047 190.933C97.0551 192.701 93.3505 191.824 90.8956 189.548C87.5823 186.47 84.4919 183.161 81.6477 179.645C75.8908 172.652 71.3981 164.709 68.3718 156.174C65.8908 149.078 64.8534 141.558 65.3206 134.057C65.444 132.469 65.5644 130.946 65.7373 129.395C67.1089 116.504 70.06 96.5864 85.1056 93.2331Z" fill="black"/>
<path d="M150.992 158.663C143.317 160.569 137.402 154.838 133.674 148.815C131.498 145.19 129.685 141.358 128.263 137.377C127.585 135.552 126.964 133.71 126.382 131.852C125.886 130.252 125.63 128.362 124.98 126.836C125.212 126.295 125.395 125.734 125.609 125.178C125.708 126.976 126.477 128.627 127.046 130.324C127.615 132.02 128.103 133.485 128.651 135.058C129.84 138.583 131.251 142.031 132.874 145.379C136.333 152.279 142.103 159.687 150.787 157.992C151.221 157.9 151.442 158.552 150.992 158.663Z" fill="black"/>
<path d="M152.525 108.157C153.051 109.54 153.494 110.952 153.854 112.387C154.314 114.041 154.691 115.717 154.983 117.409C155.558 120.765 155.848 124.164 155.851 127.569C155.894 137.95 153.711 148.18 151.41 158.244C151.39 158.293 151.353 158.333 151.306 158.357C151.259 158.381 151.204 158.388 151.153 158.377C151.101 158.365 151.055 158.336 151.022 158.294C150.99 158.252 150.973 158.2 150.975 158.147C153.197 147.828 155.366 137.363 155.189 126.76C155.144 123.383 154.827 120.015 154.241 116.688C153.64 113.345 152.981 109.583 150.948 106.782C146.988 101.316 139.123 106.555 135.221 109.581C130.614 113.031 126.677 117.294 123.604 122.16C123.649 121.826 123.684 121.496 123.715 121.157C124.238 120.397 124.789 119.649 125.365 118.92C129.459 113.687 134.462 108.459 140.344 105.241C142.617 104.001 145.427 102.869 148.036 103.62C150.38 104.241 151.675 106.044 152.525 108.157Z" fill="black"/>
<path d="M147.496 104.151C143.111 99.6186 138.731 94.8256 132.065 94.3432C131.678 94.3082 131.647 93.7121 132.04 93.7333C138.818 94.1821 143.56 98.9745 147.637 104.032C147.71 104.112 147.557 104.219 147.496 104.151Z" fill="black"/>
<path d="M153.549 112.371C147.941 102.751 136.287 112.606 131.798 116.98C127.553 121.13 124.636 125.515 123.845 131.526C123.806 131.788 123.365 131.746 123.38 131.482C123.892 121.643 145.565 97.612 153.729 112.259C153.789 112.367 153.634 112.481 153.555 112.357L153.549 112.371Z" fill="black"/>
<path d="M140.144 188.884C138.145 189.644 136.278 190.714 134.612 192.055C133.672 192.808 132.485 193.603 132.232 194.824C131.834 194.413 131.397 194.041 130.927 193.714C133.218 192.949 134.681 190.706 136.967 189.858C138.006 189.472 139.067 189.147 140.144 188.884Z" fill="black"/>
<path d="M131.74 194.67C123.195 188.064 111.643 188.273 103.564 181.195C103.147 180.827 103.453 179.884 103.396 179.367C105.091 180.815 106.955 182.054 108.948 183.055C112.918 184.997 117.243 186.034 121.386 187.534C125.409 188.99 129.353 190.954 132.02 194.437C132.117 194.594 131.888 194.783 131.74 194.67Z" fill="black"/>
<path d="M71.3802 65.6639C83.9313 68.5418 92.5819 81.1168 87.8146 93.617C87.6718 93.9496 87.1023 93.7461 87.2104 93.3987C88.2696 90.2058 88.5413 86.8041 88.0024 83.4828C87.5216 80.592 86.444 77.8326 84.8383 75.3801C83.2105 72.9747 80.4463 71.3613 77.9871 69.8788C75.7696 68.5412 73.3607 67.6301 71.1016 66.3894C71.0275 66.3385 70.9728 66.2642 70.9461 66.1785C70.9194 66.0927 70.9224 66.0005 70.9546 65.9167C70.9868 65.8329 71.0463 65.7624 71.1235 65.7165C71.2007 65.6707 71.2911 65.6521 71.3802 65.6639Z" fill="black"/>
<path d="M102.672 78.442C88.4832 63.5055 68.9725 59.3955 52.0743 68.7469C51.7434 68.9248 51.3988 68.4077 51.7357 68.2159C68.0535 58.5907 89.6357 62.5234 102.873 78.2244C103.006 78.372 102.82 78.5956 102.672 78.442Z" fill="black"/>
<path d="M185.877 63.1969C182.492 64.8858 178.054 65.2203 174.635 65.6478C169.815 66.2611 164.962 66.5655 160.145 67.2294C155.628 67.842 150.973 68.5674 146.816 70.4665C146.44 70.6334 146.069 70.8103 145.707 70.9832C148.201 69.5925 151.195 67.8587 154.048 67.393C157.164 66.885 160.216 66.1849 163.358 65.8274C167.73 65.3414 172.116 65.1078 176.485 64.6287C180.653 64.1781 185.819 63.9265 188.983 60.8216C188.124 61.8199 187.066 62.6287 185.877 63.1969Z" fill="black"/>
<path d="M143.737 71.9009C139.181 74.556 134.621 77.2012 130.278 80.202C121.699 86.1098 114.48 93.2831 107.561 101.003C107.181 101.431 106.793 101.855 106.402 102.269C110.212 96.5363 114.734 91.31 119.862 86.716C123.565 83.4131 127.545 80.4333 131.757 77.8094C133.77 76.5648 135.858 75.4677 137.912 74.3558C138.998 73.739 140.15 73.2163 141.301 72.7174C142.446 72.3268 143.567 71.8683 144.657 71.3443C144.38 71.5698 144.076 71.7428 143.737 71.9009Z" fill="black"/>
<path d="M89.9035 179.752C86.37 171.228 83.2666 162.258 83.3561 152.926C83.361 152.875 83.3841 152.828 83.4211 152.793C83.4581 152.758 83.5065 152.738 83.5574 152.736C83.6083 152.734 83.6583 152.75 83.6982 152.782C83.738 152.813 83.765 152.859 83.7741 152.909C84.2789 162.577 87.4283 170.542 90.2255 179.653C90.2918 179.862 89.9857 179.943 89.9035 179.752Z" fill="#FFF5CB"/>
<path d="M49.3647 68.9378C57.0835 65.2417 65.7918 64.1372 74.1926 65.7886C78.3435 66.6053 82.3173 68.1502 85.9298 70.3518C86.7542 70.8901 87.5006 71.5391 88.1481 72.2806C90.2355 74.629 91.4657 77.8073 92.2601 80.7574C93.5225 85.4674 93.7524 90.8417 91.9855 95.4736C91.8636 95.7576 91.4773 95.5672 91.5141 95.2712C91.9721 91.3163 92.5064 87.6812 91.7905 83.7064C91.0401 79.5444 89.0717 73.9735 85.2983 71.6314C81.7045 69.5141 77.776 68.0245 73.6819 67.2267C68.4408 66.1311 63.0266 66.1674 57.8019 67.333C52.5772 68.4987 47.6627 70.7668 43.3876 73.9856C36.5347 79.1415 33.5917 87.2395 29.1483 94.2422C28.066 95.9599 26.8757 97.6231 25.7081 99.3289C24.047 101.668 22.4345 104.028 20.7595 106.361C19.9062 107.388 19.2721 108.579 18.8959 109.86C18.7391 110.481 18.83 111.138 19.1494 111.693C19.4689 112.249 19.9919 112.658 20.6077 112.835C21.9825 113.285 22.9258 112.599 24.0138 111.729C26.5098 109.74 28.074 106.843 30.0779 104.413C32.6843 101.249 35.3086 98.1012 38.0358 95.0385C48.6158 83.1714 62.27 70.3022 79.2689 70.2981C79.3236 70.3037 79.3745 70.3289 79.412 70.3692C79.4495 70.4095 79.471 70.462 79.4726 70.5169C79.4741 70.5719 79.4556 70.6255 79.4205 70.6678C79.3853 70.7101 79.336 70.7381 79.2816 70.7467C60.3276 72.5122 47.0809 87.2055 35.3592 100.699C32.9054 103.527 30.4656 106.36 27.9474 109.127C26.0358 111.227 23.9732 114.386 20.7716 114.251C17.2708 114.142 17.6705 109.998 18.6728 107.664C20.74 102.677 25.3499 98.289 28.1866 93.7472C31.2057 88.9145 33.4494 83.5355 36.8577 78.9438C40.1538 74.6449 44.4459 71.2111 49.3647 68.9378Z" fill="black"/>
<path d="M98.2181 105.246C98.7444 104.748 99.3435 104.333 99.9947 104.015C100.193 103.927 100.4 103.862 100.612 103.821C101.155 103.744 101.707 103.748 102.248 103.834C104.208 104.052 106.17 104.262 108.118 104.565C113.325 105.365 118.936 106.888 122.247 111.321C125.331 115.442 123.766 121.17 124.082 125.982C124.215 127.967 124.077 130.009 124.26 131.974C124.656 136.312 125.04 140.695 125.645 145.024C126.565 151.635 127.913 158.181 129.681 164.618C130.573 167.856 131.568 171.067 132.664 174.251C133.208 175.855 133.727 177.514 134.373 179.087C134.994 180.445 135.936 181.632 137.117 182.546C138.22 183.496 139.308 184.463 140.414 185.406C141.17 186.016 141.829 186.736 142.371 187.542C142.936 188.384 143.389 189.296 143.719 190.254C144.219 191.936 144.468 193.683 144.458 195.437C144.518 197.555 144.372 201.816 141.599 202.25C139.673 202.547 137.53 201.323 135.99 200.301C134.624 199.441 133.464 198.293 132.589 196.938C132.188 196.32 131.895 195.639 131.721 194.924C131.613 194.468 130.679 193.755 130.796 193.387C131.208 193.67 131.661 193.897 132.037 194.207C132.209 194.341 132.359 194.499 132.484 194.677C132.993 195.404 133.499 196.139 134.063 196.832C135.156 198.243 136.505 199.434 138.04 200.345C138.973 200.868 140.793 201.928 141.88 201.575C142.968 201.221 143.402 199.849 143.686 198.88C144.026 197.638 144.142 196.346 144.027 195.063C143.835 192.011 143.189 188.238 140.638 186.224C139.497 185.324 138.523 184.282 137.423 183.326C136.782 182.772 136.082 182.241 135.474 181.669C134.947 181.074 134.525 180.393 134.228 179.657C132.838 176.728 131.62 173.72 130.581 170.649C128.375 164.336 126.693 157.851 125.554 151.261C124.489 145.135 123.974 138.932 123.47 132.743C123.126 129.835 122.948 126.909 122.937 123.981C123.044 120.901 123.808 117.726 123.072 114.678C122.56 112.562 120.588 110.805 118.981 109.442C117.181 107.908 115.06 106.796 112.775 106.187C110.309 105.638 107.795 105.331 105.269 105.27C102.669 105.13 100.907 104.645 98.9091 106.486C96.9114 108.328 94.568 110.152 92.6187 112.245C86.6767 118.645 85.1821 126.487 83.0237 134.593C82.2724 132.901 83.503 129.269 83.8702 127.515C84.7291 122.931 86.5567 118.583 89.2309 114.761C91.8266 111.234 94.8448 108.039 98.2181 105.246Z" fill="black"/>
</g>
</svg>
