<svg width="163" height="160" viewBox="0 0 163 160" fill="none" xmlns="http://www.w3.org/2000/svg">
<g opacity="0.6">
<path d="M19.6114 81.9568C18.401 81.648 17.2449 81.1554 16.1837 80.496C15.0006 79.6119 11.5937 76.3471 11.5937 76.3471L8.266 72.6232C8.266 72.6232 7.67425 72.3804 8.43326 70.9369C9.00392 69.7679 9.63844 68.6312 10.334 67.5319C10.5136 67.3936 11.2066 66.9159 11.2066 66.9159C11.2066 66.9159 14.9579 65.697 17.2875 65.9219L19.8101 65.8446L25.8034 66.6222C26.0395 66.6569 33.9392 68.1249 33.9392 68.1249L45.0574 69.776C45.0574 69.776 54.0744 70.3838 56.8138 70.2164C58.8582 70.1024 60.895 69.8794 62.9155 69.5486C63.1289 69.4541 68.9535 68.0638 71.4387 66.7231C73.9238 65.3825 77.6278 62.7333 77.6278 62.7333L82.2273 58.2562C82.2273 58.2562 85.6876 52.8613 86.6458 50.3984C87.6039 47.9356 88.6183 45.2828 88.6183 45.2828C88.6183 45.2828 90.0213 41.9747 91.2056 40.993C92.1422 40.3156 93.1978 39.8203 94.3176 39.5329C95.0314 38.0428 95.4471 36.4274 95.5413 34.7773C95.7268 33.1679 95.7057 31.5411 95.4784 29.9367L93.3716 26.1669L91.0758 23.1851C91.101 22.416 91.3093 21.6642 91.6835 20.9921C92.3404 19.6971 93.904 17.3408 93.904 17.3408C93.904 17.3408 96.538 17.4082 96.6999 17.3464C96.8617 17.2847 101.24 17.8043 101.24 17.8043C101.24 17.8043 103.07 21.5776 103.175 21.7135C103.279 21.8494 104.594 25.796 104.594 25.796L104.301 26.7203C104.301 26.7203 106.623 30.108 108.059 31.2302C109.495 32.3524 114.17 35.1513 114.17 35.1513L116.023 35.8822C116.023 35.8822 118.154 34.1719 119.993 34.4116C121.192 34.6076 122.327 35.0898 123.301 35.8175C126.401 37.9916 129.057 40.7373 131.128 43.9071C134.695 49.2836 137.047 58.403 137.047 58.403C137.047 58.403 138.625 65.8908 138.192 72.1185C137.76 78.3461 137.159 82.0429 137.159 82.0429C137.159 82.0429 135.615 89.2026 133.63 95.1173C131.645 101.032 127.481 107.471 127.481 107.471C125.607 110.365 123.479 113.085 121.122 115.601C118.758 118 115.988 119.963 112.94 121.398C112.94 121.398 108.086 123.124 104.465 123.18C100.845 123.237 100.253 122.931 100.253 122.931C99.8501 122.525 99.471 122.096 99.1181 121.647C98.8252 121.156 98.5911 120.633 98.4207 120.088C98.2708 119.521 98.1703 118.941 98.1205 118.357C98.1205 118.357 92.7954 123.106 87.9135 125.349C85.1303 126.658 82.2099 127.653 79.2063 128.316C79.2063 128.316 75.8473 129.247 69.0502 129.102C62.253 128.958 59.0869 126.422 59.0869 126.422C59.0869 126.422 58.1614 123.824 58.2634 123.676C58.2882 122.422 58.715 121.21 59.4808 120.217C60.6283 119.007 61.9452 117.97 63.3905 117.137C63.3905 117.137 68.5753 114.445 70.598 112.594C72.6207 110.743 74.322 108.938 74.4679 108.755L76.5704 105.984C71.5644 109.221 65.9632 111.427 60.0937 112.475C50.6243 114.08 47.3183 112.959 47.3183 112.959L41.6719 112.061L36.8936 110.704C36.8936 110.704 34.4665 108.766 33.6398 107.384C32.8131 106.002 31.6046 104.278 31.7067 104.13C31.8088 103.981 31.5958 102.49 32.3937 101.659C33.1917 100.828 34.1481 100.022 34.1481 100.022C34.1481 100.022 24.9055 97.7163 20.1177 95.7941C15.3298 93.8719 13.9881 92.9632 13.9881 92.9632L13.207 90.8337C13.207 90.8337 12.2521 88.1885 13.0616 86.6293C13.8711 85.0702 16.3947 83.7069 17.378 83.0896C18.0969 82.6636 18.8429 82.2852 19.6114 81.9568Z" fill="#FEDD4E"/>
<path d="M103.793 26.1057C103.402 26.9582 102.572 27.5836 101.842 28.376C101.978 27.6789 101.92 26.9576 101.674 26.291C101.926 26.963 100.711 28.4297 100.048 28.3946C99.3864 28.3596 98.4815 27.0029 98.1594 26.5664C97.3959 25.504 96.7504 24.3617 96.2343 23.1596L95.6596 21.5067C95.6596 21.5067 94.311 22.7825 93.0971 23.0187C92.4436 23.1574 91.7737 23.2029 91.1074 23.1537C91.2005 22.0314 91.5642 20.9486 92.1672 19.998C93.144 18.5475 93.9312 17.3128 93.9312 17.3128L96.727 17.3185L101.267 17.7763C101.966 19.1605 102.593 20.5801 103.145 22.0292C103.581 22.957 103.872 23.9462 104.008 24.9622C104.03 25.3553 103.956 25.7479 103.793 26.1057Z" fill="#753C1F"/>
<path d="M105.129 49.6408C105.129 49.6408 104.206 44.0096 103.333 44.3534C102.555 44.6661 102.472 44.6948 102.463 44.7015C102.19 43.9123 101.876 43.1379 101.522 42.3815C100.772 41.4987 98.991 40.9075 97.8863 40.6963C93.0423 39.7254 90.2013 43.994 88.3956 47.7309C86.6395 51.3599 82.9539 57.1239 83.2606 56.8878C83.5673 56.6516 87.4365 49.4402 88.4505 45.9077C89.4644 42.3752 90.657 41.6037 92.0854 40.504C92.8287 39.8981 93.6664 39.4183 94.5651 39.0837C94.5651 39.0837 96.3603 34.4539 95.8383 32.09C95.403 30.3205 94.8297 28.5878 94.1236 26.9078L91.1011 23.1724C91.5819 23.3108 92.0879 23.3368 92.5802 23.2485C93.0724 23.1601 93.5377 22.9598 93.94 22.6629C94.4596 22.2087 95.0358 21.8237 95.6544 21.5176C95.6544 21.5176 97.1043 24.4523 98.1817 26.0602C98.7198 26.9065 99.3464 27.6931 100.051 28.4066L101.516 27.2367C101.516 27.2367 101.723 28.7469 101.841 28.3836C102.436 27.5812 103.088 26.8225 103.792 26.1133L101.977 32.7209L101.274 40.2465L104.054 42.1712C104.054 42.1712 105.319 48.8451 105.129 49.6408Z" fill="#A0B43A"/>
<path d="M83.0312 57.2248C83.0312 57.2248 77.4017 63.8359 72.4119 66.2109C69.3772 67.6551 66.1953 68.7678 62.9216 69.5295C62.9216 69.5295 51.8178 70.689 42.4541 69.2865C33.0905 67.884 29.4995 67.2264 29.4995 67.2264C29.4995 67.2264 48.3301 71.4256 43.8876 72.4084C40.0832 73.3377 36.1243 73.448 32.2728 72.732C28.5025 72.0589 23.0225 70.4251 23.0225 70.4251L15.3235 68.2298C15.3235 68.2298 29.6451 74.5945 28.031 75.027C26.417 75.4595 20.7617 77.369 17.2145 77.0129C15.2189 76.8151 13.2369 76.4961 11.2798 76.0576L14.571 79.6978C14.571 79.6978 16.5715 81.2447 17.1145 81.3155C17.6575 81.3863 18.6672 82.1176 19.1352 82.0366C19.6033 81.9556 27.957 79.7984 34.3001 78.9727C37.953 78.4629 41.6627 78.513 45.3014 79.1214C45.3014 79.1214 55.5242 77.4249 60.9331 75.3768C66.3421 73.3286 73.2072 69.1746 73.2072 69.1746C73.2072 69.1746 81.6435 61.5409 83.0312 57.2248Z" fill="#D2925D"/>
<path d="M99.597 117.555C99.2214 117.774 98.8324 117.976 98.4333 118.165C99.5165 117.659 100.772 115.338 101.531 114.383C102.685 112.964 103.829 111.531 104.944 110.079C107.122 107.271 109.133 104.338 110.966 101.294C114.367 95.5601 118.382 89.9337 120.39 83.4776C121.692 79.2765 122.337 72.8991 122.795 71.5268C123.253 70.1546 123.303 61.8888 123.303 61.8888L121.936 50.4877C121.936 50.4877 119.973 47.2849 116.845 46.4944C113.717 45.7038 109.803 44.3452 109.803 44.3452C109.803 44.3452 107.329 38.5039 105.807 36.3094C104.285 34.1148 102.415 31.6855 102.415 31.6855L103.207 29.2247C103.207 29.2247 108.603 38.2006 111.121 39.2863C113.639 40.3721 115.115 40.7579 116.377 39.1158C117.639 37.4736 119.727 34.5112 119.492 34.8671C119.256 35.2229 116.912 39.3748 116.556 40.6617C116.199 41.9486 115.998 42.7744 115.998 42.7744C115.998 42.7744 121.072 41.7241 126.55 50.1347C129.21 54.233 130.155 59.9304 131.034 64.7156C131.94 69.7174 132.244 74.8615 131.198 79.8573C131.391 76.9677 130.646 74.0921 129.073 71.6591C128.169 72.7325 127.849 74.1662 127.529 75.5367C123.97 90.9245 115.477 104.723 103.346 114.829C102.174 115.84 100.92 116.752 99.597 117.555Z" fill="#D2925D"/>
<path d="M137.858 75.763C137.232 69.3614 135.542 63.1084 132.86 57.261C131.052 53.3725 129.034 49.3736 126.177 46.1331C124.42 44.1328 121.565 43.3976 119.863 41.3413C118.417 39.5984 119.345 36.8516 121.196 35.594C123.254 34.1977 126.043 37.6383 127.371 39.0816C129.35 41.1989 130.999 43.603 132.26 46.2124C136.245 54.452 138.259 61.6534 137.858 75.763Z" fill="#FFEBA7"/>
<path d="M82.1497 62.1713C75.7083 70.6647 66.8775 76.381 56.6717 79.4683C54.942 79.9092 53.2509 80.4894 51.615 81.2034C51.5305 81.2308 51.4526 81.2756 51.3865 81.3349C51.3204 81.3942 51.2675 81.4667 51.2311 81.5478C51.2172 81.6555 51.2314 81.7651 51.2722 81.8658C51.3131 81.9665 51.3792 82.0549 51.4643 82.1226C52.5576 83.2435 54.2302 83.4852 55.8073 83.612C57.947 83.7695 60.096 83.7502 62.2323 83.5544C70.8101 82.6995 78.922 79.2509 85.4877 73.6678C92.6912 67.5421 97.0927 59.1456 100.112 50.3046C100.811 48.2577 101.369 45.782 100.009 44.0979C99.1186 42.9955 97.6317 42.5689 96.2215 42.4323C95.4713 42.3179 94.7044 42.3943 93.9918 42.6544C92.7969 43.1692 92.1464 44.4453 91.5875 45.6229C88.8621 51.374 85.9971 57.107 82.1497 62.1713Z" fill="#FFF37F"/>
<path d="M104.492 56.0114C104.917 53.4506 104.76 50.8265 104.032 48.334C103.993 48.1189 103.884 47.9227 103.721 47.7768C103.565 47.6977 103.384 47.6806 103.216 47.7288C103.047 47.777 102.903 47.887 102.812 48.0369C102.645 48.3466 102.554 48.6918 102.547 49.0438C101.963 55.1649 98.9381 60.7625 95.7225 66.004C94.3292 68.3676 92.7656 70.6265 91.0442 72.7628C87.2727 77.2714 82.3836 80.7104 76.8654 82.7363C83.187 79.5804 88.0428 74.1308 92.3375 68.5054C97.1548 62.2263 101.646 55.1156 101.924 47.2189C101.988 45.2904 101.704 43.1626 100.284 41.8532C98.5653 40.2641 95.7572 40.5054 93.7759 41.7934C91.7945 43.0814 90.521 45.1165 89.289 47.1058L83.4672 56.5399C85.0793 54.6002 86.0909 52.243 87.0707 49.9171C88.0506 47.5912 89.0433 45.2276 90.6632 43.2889C92.2832 41.3502 94.6336 39.8619 97.1391 39.9164C99.6446 39.971 102.21 41.8794 102.384 44.3992C102.72 43.7843 103.662 44.2463 104.091 44.8032C105.273 46.5327 105.792 48.6298 105.554 50.71C105.305 52.7749 104.806 54.8015 104.066 56.7448L104.492 56.0114Z" fill="#D2925D"/>
<path d="M101.683 32.7378C101.051 31.6706 100.075 30.8504 98.9154 30.4124C98.335 30.2061 97.7092 30.1627 97.1061 30.2872C96.5031 30.4116 95.9458 30.6991 95.4949 31.1183C94.4574 28.5017 93.35 25.7853 91.307 23.866C92.9486 23.5249 94.4527 22.707 95.6311 21.5147C96.4988 24.2406 98.059 26.695 100.159 28.6377C100.64 27.9668 101.155 27.312 101.701 26.6889C101.623 26.9941 101.606 27.3116 101.651 27.6234C101.696 27.9352 101.802 28.2352 101.963 28.5061L104.104 26.5013L101.759 33.0633C102.218 32.8477 102.588 32.481 102.809 32.0247L101.683 32.7378Z" fill="#C0CA7E"/>
<path d="M103.424 22.4993C103.521 23.126 103.53 23.7633 103.45 24.3924C103.409 24.7059 103.302 25.0073 103.138 25.2772C102.973 25.5471 102.754 25.7797 102.494 25.9599L101.313 23.3208C101.427 23.9538 101.408 24.6033 101.26 25.2287C101.111 25.8541 100.834 26.4419 100.448 26.9555C99.3556 26.0178 98.5071 24.8289 97.9756 23.4911C97.444 22.1533 97.2452 20.7066 97.3962 19.2754C97.3963 18.9305 97.5119 18.5956 97.7246 18.3242C98.031 18.0684 98.4178 17.9289 98.817 17.9301C99.8995 17.7952 101.253 17.7941 101.837 18.7342C102.01 19.0675 102.129 19.4267 102.188 19.7977C102.476 21.0371 103.006 22.2072 103.75 23.2401L103.424 22.4993Z" fill="#9B522F"/>
<path d="M96.7929 78.6884C95.5107 83.7521 93.2402 88.5115 90.1117 92.6929C86.9833 96.8743 83.0587 100.395 78.5638 103.053C75.5923 104.712 72.5052 106.155 69.3265 107.371C67.4466 108.12 65.5842 108.855 63.6495 109.479C57.2784 111.488 50.5299 112.008 43.9241 110.997C40.2347 110.429 36.3152 109.173 34.1715 106.144C33.5019 105.192 33.0258 103.967 33.4353 102.876C33.9337 101.556 35.4944 101.018 36.9118 100.856C40.5885 100.456 44.2683 101.646 47.9507 101.597C50.1917 101.562 52.4155 101.051 54.6311 100.847C60.5734 100.253 66.5208 99.376 72.2513 97.5552C82.3191 94.3158 90.4355 86.9284 96.8489 78.743C96.0351 78.8959 95.3061 79.3428 94.8008 79.9986L96.7929 78.6884Z" fill="#D2925D"/>
<path d="M111.691 49.6521C111.406 49.6396 111.125 49.7129 110.882 49.8623C110.661 50.0718 110.513 50.3472 110.461 50.6476C109.67 53.5898 109.508 56.6614 109.187 59.6886C108.968 61.7706 108.266 63.6316 108.036 65.6805C107.793 67.8844 107.427 70.073 106.941 72.2361C105.924 76.5716 104.511 80.8043 102.719 84.8808C97.588 96.8074 90.7866 109.266 80.1424 117.104C75.9957 120.149 71.2449 122.271 66.2091 123.327C65.7442 123.457 65.2557 123.48 64.7806 123.393C63.9713 123.185 63.4523 122.411 63.0501 121.68C62.6478 120.949 62.2425 120.151 61.5039 119.763C60.7653 119.374 59.6061 119.736 59.5582 120.562C61.4889 117.93 64.6847 116.615 67.5315 115.01C72.8152 112.011 77.174 107.656 81.4459 103.334C84.5287 100.327 87.4422 97.1507 90.1731 93.8207C94.2996 88.593 97.5286 82.7153 99.7283 76.4276C100.829 73.3245 101.19 70.0501 102.216 66.969C103.243 63.8878 104.569 61.1693 105.312 58.0551C106.353 53.678 106.66 49.0276 105.439 44.687C105.057 43.2841 104.416 41.8357 103.167 41.1007C102.614 40.7722 101.947 40.5867 101.559 40.0824C101.232 39.5288 101.114 38.8768 101.225 38.244C101.364 36.1078 101.835 34.0065 102.62 32.0156C105.462 35.2619 107.684 38.5932 109.102 42.6636C109.247 43.1964 109.496 43.6954 109.834 44.1319C110.422 44.8042 111.36 45.0527 112.21 45.2504C113.742 45.6396 115.26 46.1005 116.764 46.6332C118.374 47.2022 120.044 47.921 121.052 49.3029C122.061 50.6849 122.239 52.5031 122.312 54.2207C122.404 56.1893 122.416 58.1593 122.347 60.1306C122.827 57.1281 121.442 54.1782 120.1 51.447C119.868 50.9275 116.342 50.1916 115.713 49.9913C114.403 49.6388 113.041 49.5239 111.691 49.6521Z" fill="#FFEBA7"/>
<path d="M122.29 67.9338C121.773 71.6848 120.145 75.1728 118.441 78.5798C111.506 92.0423 102.348 104.513 90.6811 114.187C88.91 115.648 86.8823 117.112 84.5906 117.081C85.6351 114.621 87.4674 112.596 89.1487 110.519C100.954 95.9405 108.436 76.9516 109.459 58.1934C108.987 66.6447 106.637 75.6203 103.748 83.5435C102.288 87.601 100.452 91.5124 98.262 95.2265C97.2927 96.8319 95.8835 97.875 94.8011 99.3788C93.2862 101.481 91.7591 103.586 90.1254 105.57C86.5962 109.894 82.5308 113.752 78.0273 117.049C75.7884 118.67 73.423 120.108 70.9538 121.35C69.1115 122.266 66.3674 124.113 64.2103 123.287C63.9699 123.205 63.759 123.054 63.604 122.853C63.4491 122.652 63.357 122.409 63.3393 122.156C63.5865 122.622 63.2396 123.168 62.9064 123.579C62.2945 124.343 61.6058 125.153 60.654 125.376C60.2624 125.455 59.8572 125.435 59.475 125.319C59.0928 125.202 58.7455 124.992 58.4646 124.708C58.3874 127.191 62.9622 127.531 64.7553 127.938C67.7231 128.601 70.765 128.871 73.8025 128.739C82.9799 128.323 91.0765 124.345 97.6813 118.121C110.668 105.874 119.815 89.5006 122.632 71.8679C123.047 69.1528 123.375 66.3237 122.965 63.6076L122.29 67.9338Z" fill="#F9C14C"/>
<path d="M81.9624 91.3418C82.2768 91.442 82.004 91.9035 81.7195 92.0597C79.4384 93.327 77.1464 94.5981 74.8433 95.8731C72.9588 97.0159 70.9506 97.9411 68.8572 98.6309C66.5712 99.2874 64.1397 99.3925 61.7499 99.4792C54.0601 99.7703 46.0586 100.001 39.03 96.8636C38.3145 96.5415 37.4827 95.9596 37.6385 95.1831C37.7749 94.7663 38.0707 94.4205 38.4613 94.2214C39.9361 93.2815 41.6881 92.9104 43.3869 92.5244C53.3039 90.3759 63.1051 87.7252 72.7526 84.5826C66.1143 86.1035 59.3178 86.7754 52.5403 87.4538C49.8263 87.7888 47.0916 87.9265 44.3575 87.866C40.0421 87.6543 35.8511 86.4529 31.598 85.6695C28.0658 85.0156 24.3361 84.6673 20.9517 85.8552C19.0024 86.6351 17.1609 87.6609 15.4718 88.9078C15.5747 88.9172 15.6729 88.9551 15.7553 89.0173C15.8378 89.0796 15.9012 89.1637 15.9384 89.2601C15.9756 89.3565 15.985 89.4613 15.9657 89.5628C15.9464 89.6642 15.899 89.7582 15.829 89.8341C16.0987 90.1736 16.4598 90.4287 16.8697 90.5694C16.7352 90.9651 16.7247 91.3926 16.8397 91.7946C16.9546 92.1966 17.1895 92.554 17.513 92.819C16.9487 93.1962 16.292 93.412 15.6137 93.4431C22.4411 95.0593 28.4995 99.23 35.4161 100.31C37.5756 100.602 39.7546 100.722 41.9328 100.67C49.113 100.66 56.2782 100.298 63.4285 99.5837C65.1565 99.4452 66.8704 99.1674 68.5535 98.753C71.0618 97.9781 73.4582 96.8797 75.6824 95.4854L81.9624 91.3418Z" fill="#F9C14C"/>
<path d="M14.969 67.8323C19.5204 69.2661 24.0264 70.5322 28.6231 71.7076C32.7044 72.7421 36.8954 73.2793 41.1049 73.3076C37.213 73.4194 33.3033 73.4263 29.4206 73.6498C31.9842 75.4476 26.1821 76.2689 25.4072 76.4046C23.2261 76.7987 21.0428 77.1898 18.8573 77.5781C18.2436 77.6874 17.5076 77.9188 17.3472 78.5172C17.3219 78.7197 17.3389 78.9253 17.3971 79.1209C17.4552 79.3166 17.5533 79.4981 17.685 79.654C18.3349 80.5956 19.2048 81.3644 20.2189 81.8937C19.3562 81.8758 18.5132 81.6312 17.7746 81.1844C14.0016 79.2439 10.7367 76.444 8.24326 73.0105C8.89219 73.9077 10.085 72.5564 10.3875 72.1698C10.5519 71.9664 12.0566 70.0955 12.0613 70.1198C12.0305 69.9619 11.8952 69.8496 11.86 69.6951C11.707 69.0795 12.9186 69.2572 13.3158 68.7489C13.4866 68.5266 13.457 68.2071 13.6056 67.974C13.8805 67.5878 14.5024 67.6886 14.969 67.8323Z" fill="#F9C14C"/>
<path d="M14.4757 89.2907C15.027 90.0022 15.4209 90.8227 15.6311 91.6977C15.441 92.2032 15.0823 92.6273 14.6156 92.8987C14.5307 92.9523 14.4328 92.9818 14.3323 92.984C14.236 92.9603 14.1493 92.9076 14.0837 92.8332C13.7668 92.4243 13.5694 91.9357 13.5132 91.4216L12.7094 87.4588C13.1669 87.6582 13.5642 87.9741 13.8618 88.3749C14.1594 88.7757 14.3467 89.2474 14.4053 89.743L14.4757 89.2907Z" fill="#9B522F"/>
<path d="M18.8843 69.6371L13.6802 69.2227C13.5628 69.2153 13.4158 69.2237 13.3697 69.3361C13.3235 69.4484 13.3931 69.5206 13.3932 69.6113C13.3988 69.8724 13.0444 69.9288 12.7857 69.9463C12.3986 69.9819 12.0278 70.1189 11.7107 70.3435C11.3935 70.568 11.1412 70.8723 10.9791 71.2255C10.7751 71.7038 10.7249 72.2733 10.358 72.6396C9.83598 73.1672 8.9644 73.0141 8.23913 72.7972C8.14679 72.784 8.06281 72.7364 8.00395 72.664C7.9263 72.5631 7.98419 72.4208 8.03469 72.3051C8.39993 71.4651 8.77193 70.634 9.14054 69.7984C9.58724 68.756 10.0865 67.6732 11.0266 67.0542L11.9743 67.8681C12.0887 67.973 12.2163 68.0626 12.3539 68.1346C12.6325 68.21 12.9241 68.2238 13.2085 68.175C14.544 68.0967 15.8038 68.6634 17.02 69.2007C18.0726 69.6614 19.3494 70.0961 20.3071 69.4636L18.8843 69.6371Z" fill="#9B522F"/>
<path d="M133.018 96.3347C130.859 102.124 127.402 107.341 122.913 111.585C118.424 115.829 113.022 118.988 107.122 120.82C105.588 121.302 103.94 121.663 102.365 121.304C101.898 121.145 101.411 121.05 100.919 121.021C100.673 121.01 100.431 121.081 100.231 121.222C100.03 121.364 99.8828 121.568 99.8113 121.803C99.6626 122.616 100.689 123.07 101.5 123.171C106.748 123.824 112.108 122.093 116.48 119.125C120.853 116.157 124.323 112.025 127.252 107.626C130.326 103.017 132.927 97.8928 133.358 92.3711L133.018 96.3347Z" fill="#FFEBA7"/>
<path d="M117.554 47.3872L113.398 46.1234C112.451 45.7811 111.458 45.5851 110.452 45.542C109.951 45.5255 109.452 45.6229 108.994 45.8268C108.536 46.0308 108.13 46.3361 107.807 46.7197C107.761 46.4997 107.647 46.2997 107.481 46.1479C107.315 45.9961 107.106 45.9001 106.883 45.8734C106.647 45.8822 106.41 45.8777 106.175 45.8599C105.469 45.7048 105.354 44.7944 105.204 44.1002C105.056 43.3657 104.747 42.673 104.3 42.0717C103.853 41.4705 103.278 40.9757 102.617 40.6228C102.03 40.3135 101.315 40.0467 101.096 39.4264C101.001 39.0169 101.025 38.589 101.165 38.1928L102.927 31.4166L109.595 43.087C110.015 43.9148 110.556 44.6753 111.2 45.3436C113.094 47.1054 116.026 46.971 118.601 46.6993L117.554 47.3872Z" fill="#A0B43A"/>
<path d="M103.867 37.7682C103.279 36.6422 102.555 35.5932 102.012 34.4534C101.65 36.0635 101.48 37.7112 101.506 39.3618C101.477 39.7758 101.572 40.1893 101.779 40.5492C102.254 41.2305 103.309 41.4035 103.907 42.0535C104.793 43.0491 105.309 44.3205 105.365 45.652C105.24 42.7244 105.24 40.4127 103.867 37.7682Z" fill="#697B23"/>
<path d="M98.7966 39.1504C97.3869 38.7264 95.871 38.8348 94.5366 39.4548C95.3071 38.141 95.792 36.6794 95.9597 35.1651C96.1274 33.6509 95.9741 32.118 95.5099 30.6665C96.0386 30.3258 96.6533 30.1425 97.2824 30.1379C97.9116 30.1333 98.5291 30.3077 99.0632 30.6407C99.2027 30.7179 99.3212 30.8282 99.4081 30.9618C99.4844 31.1435 99.5143 31.3413 99.4953 31.5373L99.3768 35.5258C99.4208 36.8463 99.206 38.1624 98.7445 39.4L98.7966 39.1504Z" fill="#697B23"/>
<path d="M87.2482 96.3942C87.8405 95.5203 88.3407 94.5875 88.741 93.6105C88.8965 93.2324 88.9993 92.7132 88.6622 92.4839C88.4266 92.323 88.108 92.4077 87.8315 92.5018C82.5287 94.3704 77.4212 97.5624 71.7956 97.3258C82.1605 94.4723 90.6031 86.7291 96.8328 77.9517C95.7273 85.5306 92.0941 92.5118 86.5225 97.7631L87.2482 96.3942Z" fill="#AC794B"/>
<path d="M114.366 45.4411C114.349 44.6793 114.424 43.9182 114.589 43.1743C111.884 42.8611 109.571 41.0801 107.696 39.1079C108.281 40.4386 108.911 41.7555 109.568 43.0521C109.712 43.3966 109.931 43.7052 110.208 43.9561C110.449 44.1177 110.714 44.2389 110.994 44.315L113.936 45.2904C114.278 45.3835 114.603 45.5325 114.896 45.7312L114.366 45.4411Z" fill="#AC794B"/>
<path d="M74.7004 65.3849C66.599 70.8972 57.8857 75.4518 48.7347 78.9575C55.516 77.7945 62.2795 75.9467 68.2761 72.559C74.2728 69.1714 79.5012 64.1332 82.2113 57.8002C79.9819 60.8746 77.1702 63.4807 73.9359 65.4706L74.7004 65.3849Z" fill="#AC794B"/>
<path d="M59.5749 100.679C51.6384 102.984 43.4304 104.226 35.1658 104.371C34.4915 104.428 33.8129 104.338 33.1764 104.108C32.8605 103.985 32.5898 103.768 32.4006 103.487C32.2114 103.206 32.1129 102.873 32.1182 102.534C32.1754 102.182 32.3373 101.855 32.5828 101.597C34.1152 99.8163 36.8985 100.132 39.2242 100.479C44.8134 101.313 50.4844 101.447 56.1057 100.877C57.9196 100.774 59.7021 100.36 61.376 99.6553L59.5749 100.679Z" fill="#AC794B"/>
<path d="M104.239 37.7537C104.871 37.9661 104.904 38.8344 105.126 39.3407C105.423 40.0342 104.148 40.3176 104.18 39.4619C104.203 38.9205 103.75 38.3959 103.96 37.8711C103.983 37.8196 104.024 37.7787 104.076 37.7569C104.128 37.7351 104.187 37.7339 104.239 37.7537Z" fill="#9B522F"/>
<path d="M94.78 41.0764C95.0017 40.766 95.3054 40.5532 95.5382 40.2482L95.477 40.4769C95.4589 40.3498 95.4746 40.2201 95.5226 40.101C95.5705 39.9819 95.6491 39.8776 95.7503 39.7986C95.8573 39.6889 95.9951 39.6143 96.1454 39.5846C96.2957 39.5549 96.4515 39.5715 96.5923 39.6322C96.6839 39.6729 96.7603 39.7414 96.8107 39.828C96.8611 39.9146 96.8829 40.0149 96.8729 40.1146C96.83 40.3357 96.7029 40.5314 96.5184 40.6604C96.3339 40.7894 96.1064 40.8417 95.884 40.8061C95.6853 40.7566 95.6182 40.7873 95.4251 40.908C95.2319 41.0288 95.0883 41.1324 94.906 41.2309C94.8183 41.2983 94.7201 41.1435 94.7743 41.0599L94.78 41.0764Z" fill="#9B522F"/>
<path d="M8.18134 72.2411C8.5508 71.275 8.97095 70.3291 9.44004 69.4072C9.96037 68.4968 10.6842 67.7509 11.2349 66.8799C11.2955 66.7774 11.1632 66.6418 11.0668 66.716C9.55516 67.8798 8.32346 70.3228 8.01232 72.1757C8.00026 72.2688 8.14061 72.3423 8.18134 72.2411Z" fill="black"/>
<path d="M7.66821 72.0285C9.29716 74.4204 11.232 76.5891 13.4233 78.4792C14.9255 79.823 16.8671 81.946 19.0377 81.9371C19.2468 81.9368 19.2998 81.5887 19.0792 81.556C16.5916 81.1803 14.4239 78.8542 12.6587 77.196C10.8935 75.5378 9.39396 73.717 7.78651 71.9374C7.77297 71.9272 7.75645 71.9217 7.73948 71.9217C7.72252 71.9218 7.70605 71.9274 7.69261 71.9378C7.67917 71.9481 7.66951 71.9626 7.6651 71.979C7.66069 71.9954 7.66178 72.0128 7.66821 72.0285Z" fill="black"/>
<path d="M10.8093 67.1795C18.4982 64.9475 26.1455 67.0848 33.8055 68.3322C40.7205 69.4549 47.8049 70.4261 54.8212 70.4929C61.333 70.5571 67.671 69.3441 73.3322 66.0192C78.5661 62.9734 82.8705 58.5583 85.783 53.2483C88.2174 48.6782 88.6219 41.8433 94.1671 39.809C94.2334 39.7894 94.2893 39.7443 94.3223 39.6835C94.3553 39.6227 94.3629 39.5513 94.3432 39.4849C94.3236 39.4185 94.2784 39.3626 94.2176 39.3295C94.1568 39.2964 94.0853 39.2889 94.019 39.3085C89.9019 40.3061 88.3617 44.8863 87.0823 48.4276C85.0109 54.3592 81.2395 59.5485 76.2382 63.3488C63.9862 72.6979 47.7156 70.0199 33.542 67.718C26.1602 66.5147 18.0145 64.0836 10.7393 66.989C10.6061 67.0426 10.6585 67.2467 10.8018 67.2062L10.8093 67.1795Z" fill="black"/>
<path d="M62.885 74.6214C58.0304 75.9844 53.2217 77.4796 48.2174 78.2314C43.0675 79.0115 37.9313 78.468 32.7686 78.8598C28.12 79.1916 23.5422 80.179 19.1709 81.7927C16.6814 82.7107 12.8459 84.0922 12.611 87.2135C12.5826 87.5845 13.1338 87.684 13.2991 87.3821C15.3257 83.6148 19.6831 82.467 23.5832 81.378C28.1301 80.1416 32.8246 79.5302 37.5373 79.5606C41.7226 79.558 45.8118 79.4759 49.9486 78.7215C54.4019 77.8798 58.7756 76.662 63.0227 75.0812C63.0792 75.0585 63.1251 75.0155 63.1514 74.9606C63.1777 74.9057 63.1824 74.8429 63.1647 74.7847C63.147 74.7264 63.1081 74.6769 63.0557 74.6458C63.0033 74.6148 62.9412 74.6045 62.8817 74.617L62.885 74.6214Z" fill="black"/>
<path d="M12.4364 87.7388C12.3899 88.6324 12.5023 89.5272 12.7684 90.3817C12.9015 91.173 13.2049 91.9259 13.6578 92.5884C13.6927 92.6183 13.7352 92.6377 13.7805 92.6444C13.8259 92.6512 13.8722 92.645 13.9142 92.6265C13.9561 92.6081 13.992 92.5782 14.0177 92.5402C14.0434 92.5023 14.0578 92.4578 14.0594 92.412C13.884 91.6602 13.6541 90.9222 13.3713 90.2039C13.1402 89.369 13.0505 88.5092 12.8161 87.67C12.7492 87.4561 12.4713 87.5303 12.4496 87.7287L12.4364 87.7388Z" fill="black"/>
<path d="M13.7459 93.0656C28.1638 102.066 47.411 103.507 63.755 100.171C79.2813 96.9963 92.4746 87.7187 99.9185 73.6203C103.668 66.5431 106.052 58.282 105.777 50.2106C105.773 50.0725 105.715 49.9415 105.615 49.8463C105.515 49.7512 105.381 49.6996 105.243 49.7031C105.105 49.7065 104.974 49.7647 104.879 49.8647C104.784 49.9648 104.732 50.0985 104.736 50.2366C104.142 64.7115 98.3506 78.2009 87.3248 87.8282C74.7396 98.7749 57.2859 101.603 41.0785 100.385C31.6151 99.6537 22.397 97.0089 13.9823 92.6112C13.9237 92.5842 13.8571 92.5804 13.7959 92.6006C13.7347 92.6209 13.6834 92.6636 13.6526 92.7202C13.6217 92.7768 13.6134 92.8431 13.6295 92.9056C13.6456 92.968 13.6848 93.0221 13.7392 93.0568L13.7459 93.0656Z" fill="black"/>
<path d="M69.9949 71.3474C73.2025 69.5763 76.1974 67.6197 78.6 64.7851C80.7652 62.2311 83.0754 59.0136 84.1804 55.8441C84.1918 55.7884 84.1851 55.7305 84.1611 55.679C84.1372 55.6274 84.0974 55.5848 84.0475 55.5576C83.9976 55.5303 83.9403 55.5198 83.884 55.5275C83.8277 55.5353 83.7754 55.5609 83.7347 55.6006C81.6291 58.3043 80.3927 61.6658 78.1508 64.3557C75.8409 67.1748 72.8669 69.1223 69.8447 71.1069C69.8228 71.1319 69.8103 71.1638 69.8092 71.197C69.8082 71.2303 69.8188 71.2629 69.8391 71.2893C69.8594 71.3156 69.8882 71.3342 69.9206 71.3417C69.953 71.3492 69.987 71.3453 70.0168 71.3305L69.9949 71.3474Z" fill="black"/>
<path d="M100.796 40.1882C101.37 40.6614 102.031 41.0395 102.628 41.4804C103.149 41.8757 103.661 42.4869 104.291 42.6795C104.466 42.7338 104.571 42.5267 104.503 42.3837C104.228 41.8271 103.523 41.4551 103.021 41.1016C102.398 40.6248 101.722 40.2216 101.007 39.9001C100.838 39.8347 100.617 40.0465 100.796 40.1882Z" fill="black"/>
<path d="M103.745 42.3875C104.092 44.2157 104.579 45.9361 104.774 47.8116C104.925 49.4408 104.829 51.0377 104.858 52.6707C104.86 52.9905 105.371 53.065 105.43 52.7334C106.014 49.1751 105.566 45.5231 104.139 42.21C104.027 41.9746 103.702 42.1689 103.745 42.3875Z" fill="black"/>
<path d="M94.3039 40.1228C97.4735 35.1751 96.2269 26.3498 91.2436 22.9228C91.1728 22.8843 91.0914 22.8703 91.0119 22.883C90.9324 22.8956 90.8593 22.9342 90.804 22.9927C90.7487 23.0512 90.7144 23.1263 90.7062 23.2064C90.6981 23.2865 90.7166 23.3671 90.759 23.4356C92.5129 25.759 94.2183 27.6658 94.9555 30.5903C95.7956 33.9386 95.0058 36.8376 93.9615 39.9953C93.8946 40.2075 94.1978 40.3022 94.3107 40.1316L94.3039 40.1228Z" fill="black"/>
<path d="M91.0084 23.1249C91.7587 21.1569 92.7637 19.296 93.9977 17.5897C94.1305 17.4176 93.8851 17.1805 93.7557 17.3569C92.4081 19.0387 91.3954 20.9634 90.7726 23.0271C90.7346 23.1681 90.9515 23.2595 91.0084 23.1249Z" fill="black"/>
<path d="M93.9365 17.483C94.8251 17.5559 95.7192 17.5175 96.598 17.3686C96.6182 17.3607 96.6355 17.3468 96.6475 17.3287C96.6595 17.3106 96.6656 17.2892 96.6649 17.2675C96.6643 17.2458 96.6569 17.2249 96.6439 17.2075C96.6309 17.1901 96.6128 17.1772 96.5921 17.1706C95.7084 17.0659 94.8154 17.0686 93.9325 17.1788C93.8972 17.186 93.8656 17.2053 93.843 17.2333C93.8204 17.2614 93.8083 17.2964 93.8088 17.3324C93.8093 17.3685 93.8223 17.4032 93.8456 17.4307C93.8689 17.4582 93.901 17.4767 93.9365 17.483Z" fill="black"/>
<path d="M96.4992 17.0678C96.0507 18.4901 95.6853 19.9375 95.4049 21.4024C95.4035 21.4329 95.4127 21.463 95.4309 21.4876C95.4491 21.5122 95.4752 21.5297 95.5048 21.5373C95.5344 21.5449 95.5657 21.542 95.5934 21.5291C95.6211 21.5163 95.6436 21.4943 95.6569 21.4668C96.0613 20.0283 96.3785 18.5666 96.6068 17.0897C96.6072 17.076 96.6029 17.0626 96.5947 17.0516C96.5866 17.0406 96.5749 17.0327 96.5617 17.0292C96.5485 17.0256 96.5345 17.0267 96.5219 17.0321C96.5093 17.0375 96.4989 17.047 96.4924 17.059L96.4992 17.0678Z" fill="black"/>
<path d="M95.4214 21.0613C95.5787 22.4348 96.3143 23.7891 96.9847 24.9772C97.7264 26.2849 98.5873 27.8291 99.7877 28.7628C99.8263 28.7948 99.8747 28.8127 99.9248 28.8135C99.9749 28.8144 100.024 28.7982 100.064 28.7677C100.103 28.7371 100.131 28.6939 100.143 28.6452C100.155 28.5965 100.15 28.5452 100.129 28.4997C99.4303 27.229 98.3863 26.154 97.643 24.8894C96.8997 23.6248 96.4311 22.2186 95.6288 21.0133C95.568 20.9344 95.419 20.9584 95.4282 21.07L95.4214 21.0613Z" fill="black"/>
<path d="M100.301 28.7311C100.758 28.1536 101.266 27.6191 101.821 27.1345L101.453 26.9918C101.495 27.455 101.53 27.9171 101.565 28.3792C101.567 28.4267 101.583 28.4726 101.61 28.5112C101.638 28.5499 101.676 28.5796 101.721 28.5967C101.765 28.6138 101.813 28.6175 101.86 28.6075C101.906 28.5974 101.949 28.574 101.982 28.5401C102.788 27.7103 103.659 26.9205 104.402 26.0273C104.447 25.9676 104.469 25.8933 104.463 25.8187C104.457 25.744 104.423 25.6743 104.369 25.6227C104.314 25.5712 104.243 25.5415 104.168 25.5393C104.093 25.5372 104.02 25.5627 103.963 25.611C103.129 26.4136 102.401 27.3443 101.63 28.2102L102.047 28.3711L101.878 26.9999C101.876 26.9587 101.862 26.919 101.838 26.8854C101.814 26.8519 101.781 26.8259 101.743 26.8105C101.704 26.7951 101.663 26.791 101.622 26.7987C101.582 26.8064 101.544 26.8255 101.514 26.8538C100.968 27.3682 100.503 27.9618 100.134 28.6147C100.082 28.7105 100.219 28.8151 100.285 28.7291L100.301 28.7311Z" fill="black"/>
<path d="M96.1843 17.4564C97.7216 18.0119 99.674 17.9825 101.289 18.0313C101.67 18.0454 101.63 17.4959 101.276 17.4616C99.6805 17.293 97.7636 16.9878 96.1781 17.3215C96.1053 17.3356 96.1277 17.4372 96.1843 17.4564Z" fill="black"/>
<path d="M100.913 17.6787C101.426 19.0712 102.291 20.3122 102.828 21.7076C103.365 23.1031 103.535 24.6558 104.118 26.0021C104.135 26.0459 104.166 26.0826 104.207 26.1059C104.248 26.1291 104.296 26.1375 104.342 26.1297C104.389 26.1218 104.431 26.0982 104.462 26.0628C104.493 26.0274 104.511 25.9823 104.513 25.9352C104.615 24.3825 103.913 22.6815 103.328 21.26C102.783 19.9542 102.18 18.5186 101.153 17.5286C101.128 17.507 101.097 17.4938 101.065 17.491C101.032 17.4881 100.999 17.4957 100.971 17.5126C100.943 17.5296 100.921 17.5551 100.908 17.5854C100.896 17.6156 100.893 17.6492 100.9 17.6811L100.913 17.6787Z" fill="black"/>
<path d="M101.22 40.358C101.825 37.9714 101.919 35.4472 102.513 33.0276C103.106 30.608 104.172 28.3209 104.713 25.914C104.72 25.8681 104.711 25.8211 104.688 25.7807C104.665 25.7403 104.629 25.709 104.586 25.6919C104.542 25.6748 104.495 25.6729 104.45 25.6865C104.406 25.7002 104.367 25.7286 104.341 25.767C102.95 27.7947 102.273 30.4677 101.729 32.8347C101.186 35.2017 100.623 37.933 100.963 40.3324C100.984 40.4693 101.18 40.5145 101.22 40.358Z" fill="black"/>
<path d="M104.281 26.7217C106.855 31.1979 111.029 34.5333 115.961 36.0556C116.102 36.0937 116.202 35.8701 116.056 35.8077C111.342 33.973 107.267 30.7975 104.334 26.6735C104.328 26.6695 104.32 26.6677 104.312 26.6681C104.304 26.6686 104.297 26.6714 104.291 26.6761C104.285 26.6808 104.28 26.6873 104.278 26.6946C104.275 26.702 104.275 26.7099 104.277 26.7173L104.281 26.7217Z" fill="black"/>
<path d="M102.46 32.0697C103.754 34.1043 105.205 36.0253 106.41 38.1076C107.616 40.1898 108.591 42.3999 109.693 44.5554C109.806 44.7753 110.162 44.6127 110.086 44.3779C108.474 39.7733 105.942 35.5442 102.645 31.9479C102.623 31.929 102.595 31.9182 102.566 31.9175C102.536 31.9168 102.508 31.9261 102.485 31.9439C102.462 31.9616 102.445 31.9868 102.439 32.0152C102.432 32.0436 102.435 32.0734 102.448 32.0997L102.46 32.0697Z" fill="black"/>
<path d="M36.6253 110.763C49.0304 115.998 64.3993 113.825 75.7177 106.962C86.1877 100.619 95.2297 89.2852 97.7591 77.1337C97.7744 77.0719 97.7646 77.0065 97.7317 76.9519C97.6988 76.8973 97.6456 76.858 97.5838 76.8426C97.522 76.8272 97.4566 76.837 97.4021 76.8698C97.3475 76.9027 97.3082 76.9558 97.2929 77.0177C95.2973 82.8285 93.1181 88.2918 89.4973 93.3424C85.7962 98.5318 81.1059 102.938 75.6959 106.308C69.8912 109.863 63.365 112.077 56.5937 112.787C49.7669 113.511 43.2426 112.478 36.7232 110.464C36.5643 110.412 36.4471 110.677 36.6152 110.75L36.6253 110.763Z" fill="black"/>
<path d="M58.2531 121.868C57.7448 123.446 58.0214 125.573 59.1815 126.817C59.2258 126.867 59.2861 126.899 59.3519 126.909C59.4177 126.918 59.4847 126.904 59.5411 126.869C59.5975 126.834 59.6397 126.78 59.6603 126.717C59.6808 126.654 59.6784 126.585 59.6534 126.524C59.3266 125.839 59.0465 125.133 58.815 124.41C58.6399 123.589 58.5632 122.75 58.5867 121.911C58.5885 121.714 58.314 121.702 58.2565 121.872L58.2531 121.868Z" fill="black"/>
<path d="M58.4536 122.3C60.6673 118.459 64.4503 117.209 67.9568 114.865C71.5147 112.568 74.575 109.58 76.9568 106.078C76.9881 106.025 76.9986 105.962 76.9861 105.901C76.9736 105.841 76.9391 105.787 76.8892 105.751C76.8394 105.714 76.7778 105.698 76.7163 105.704C76.6549 105.71 76.5981 105.739 76.5569 105.785C73.2536 109.725 69.6829 113.173 65.1826 115.758C62.1538 117.489 59.4467 118.777 58.2357 122.217C58.192 122.341 58.3842 122.41 58.4536 122.3Z" fill="black"/>
<path d="M59.5556 127.186C72.9085 133.416 88.5498 127.681 98.7663 118.18C104.372 112.971 108.815 106.631 112.614 100.018C116.657 92.9868 120.376 85.6256 122.243 77.6718C124.305 68.9741 124.856 58.6672 122.074 50.0599C122.037 49.9341 121.951 49.8284 121.835 49.766C121.72 49.7036 121.585 49.6896 121.459 49.7271C121.333 49.7646 121.228 49.8505 121.165 49.966C121.103 50.0814 121.089 50.2169 121.127 50.3426C121.802 54.3557 122.641 58.2561 122.783 62.3377C122.924 66.3868 122.636 70.4392 121.922 74.4267C120.532 82.2021 117.374 89.2775 113.664 96.1507C106.901 108.768 97.7564 121.347 83.8404 126.522C76.0913 129.401 67.6224 129.677 59.9311 126.45C59.4561 126.25 59.0512 126.938 59.5388 127.164L59.5556 127.186Z" fill="black"/>
<path d="M109.65 44.5536C111.552 45.5197 113.746 45.9399 115.703 46.8145C117.8 47.8277 119.756 49.1119 121.519 50.6341C121.589 50.7013 121.683 50.7379 121.781 50.7357C121.878 50.7336 121.97 50.693 122.037 50.6227C122.104 50.5525 122.141 50.4584 122.139 50.3612C122.137 50.264 122.096 50.1717 122.026 50.1044C119.412 46.9273 113.825 44.3841 109.762 44.1462C109.55 44.1344 109.481 44.4528 109.663 44.5435L109.65 44.5536Z" fill="black"/>
<path d="M97.9444 119.106C98.0065 119.913 98.2626 120.694 98.6909 121.381C99.0104 121.959 99.4741 122.824 100.146 123.054C100.185 123.063 100.225 123.062 100.263 123.051C100.301 123.039 100.336 123.018 100.363 122.989C100.39 122.961 100.41 122.925 100.419 122.887C100.428 122.848 100.427 122.808 100.416 122.77C100.258 122.193 99.6344 121.709 99.3109 121.162C98.9611 120.486 98.6563 119.787 98.3986 119.071C98.3016 118.845 97.9401 118.865 97.9471 119.146L97.9444 119.106Z" fill="black"/>
<path d="M100.164 123.104C117.265 125.765 128.29 109.782 133.54 95.7526C139.29 80.5064 140.762 63.1558 133.614 48.0973C131.679 44.0343 129.178 40.2052 125.692 37.301C124.39 36.2081 122.791 34.8201 121.181 34.2787C119.201 33.6102 117.324 34.825 115.729 35.8715C115.694 35.9003 115.67 35.9409 115.663 35.9858C115.655 36.0306 115.664 36.0766 115.688 36.1153C115.712 36.154 115.749 36.1828 115.793 36.1963C115.836 36.2098 115.883 36.2072 115.924 36.1889C116.875 35.7014 118.063 34.8149 119.127 34.7011C120.614 34.5479 121.932 35.209 123.1 36.0003C124.649 37.0407 126.086 38.2408 127.385 39.5808C130.126 42.4432 132.147 45.9928 133.717 49.6176C136.762 56.7739 138.193 64.5126 137.907 72.2825C137.636 79.3938 136.305 86.4241 133.957 93.1403C131.683 99.8852 128.545 106.506 124.068 112.076C121.637 115.181 118.662 117.819 115.289 119.862C110.769 122.573 105.447 123.628 100.232 122.849C100.065 122.831 99.9974 123.079 100.164 123.104Z" fill="black"/>
<path d="M116.026 42.4384C116.959 39.8342 118.253 37.5454 119.508 35.0778C119.561 34.9743 119.414 34.8566 119.335 34.9527C117.663 37.0779 116.628 39.8305 115.922 42.4131C115.907 42.4741 115.993 42.5052 116.022 42.434L116.026 42.4384Z" fill="black"/>
<path d="M62.0947 119.524C63.0966 120.83 63.7015 122.396 63.8372 124.036C63.8394 124.046 63.8452 124.055 63.8535 124.062C63.8619 124.068 63.8723 124.071 63.8828 124.071C63.8934 124.07 63.9034 124.066 63.911 124.059C63.9187 124.051 63.9235 124.042 63.9246 124.031C63.9875 123.189 63.8682 122.342 63.5748 121.55C63.2813 120.757 62.8207 120.037 62.2241 119.439C62.1735 119.373 62.0474 119.463 62.1015 119.533L62.0947 119.524Z" fill="black"/>
<path d="M67.091 123.431C71.6251 123.02 75.4503 120.682 78.9775 117.967C82.9209 114.931 87.0265 111.77 90.0676 107.752C93.2301 103.62 95.7817 98.9667 98.52 94.5467C101.175 90.2538 104.294 85.911 105.49 80.9388C105.527 80.8056 105.342 80.7459 105.288 80.8848C103.769 85.5467 101.314 89.6014 98.7487 93.756C96.1286 97.9942 93.6621 102.387 90.7687 106.451C87.8123 110.606 83.9517 113.795 79.9986 116.936C76.1745 119.964 72.0728 122.822 67.0828 123.311C66.9989 123.32 67.0007 123.458 67.089 123.446L67.091 123.431Z" fill="black"/>
<path d="M8.29059 72.9181C8.79075 72.9242 9.6772 73.1147 10.0613 72.7072C10.2709 72.49 10.1926 71.9078 10.4534 71.6301C10.7142 71.3525 11.0636 71.335 11.264 71.0061C11.4644 70.6772 11.3687 70.3807 11.4943 70.1722C11.6199 69.9637 12.1472 69.7603 12.3312 69.5279C12.5535 69.2476 12.7069 68.919 12.779 68.5685C12.783 68.553 12.7834 68.5368 12.7802 68.5211C12.777 68.5054 12.7703 68.4907 12.7605 68.478C12.7507 68.4653 12.7382 68.455 12.7238 68.4479C12.7095 68.4408 12.6937 68.437 12.6777 68.4369C11.9661 68.4191 11.8311 68.3344 11.8241 67.6274C11.8224 67.6049 11.8141 67.5833 11.8003 67.5654C11.7865 67.5475 11.7678 67.534 11.7465 67.5266C11.5208 67.4419 11.4007 67.3947 11.174 67.3178C10.9473 67.2409 10.9418 67.4966 11.0807 67.5502C11.5224 67.734 11.6137 68.0339 11.6508 68.5082C11.649 68.5219 11.6498 68.5359 11.6534 68.5493C11.657 68.5628 11.6632 68.5753 11.6717 68.5864C11.6802 68.5974 11.6908 68.6066 11.7028 68.6135C11.7149 68.6204 11.7282 68.6248 11.742 68.6266C12.1382 68.6427 12.4572 68.495 12.3683 69.0593C12.2793 69.6237 11.5036 69.9485 11.1115 70.0828C11.0938 70.0877 11.0777 70.0971 11.0648 70.1102C11.0519 70.1232 11.0426 70.1394 11.0379 70.1572C11.0333 70.1749 11.0333 70.1936 11.038 70.2113C11.0428 70.229 11.0521 70.2452 11.0651 70.2582C11.2069 70.4424 10.622 71.1511 10.4622 71.2881C10.3025 71.4251 10.1699 71.4433 10.0486 71.5576C9.91314 71.6704 9.80558 71.813 9.73429 71.9743C9.65248 72.149 9.746 72.2795 9.61764 72.4482C9.38923 72.7498 8.61073 72.6088 8.21919 72.6169C8.01347 72.6216 8.02417 72.9347 8.22889 72.9377L8.29059 72.9181Z" fill="black"/>
<path d="M12.8724 88.0879C13.0762 88.1894 13.6165 88.3112 13.7401 88.4535C13.9528 88.7298 13.9063 89.2405 13.913 89.5846C13.9148 89.6212 13.9249 89.657 13.9425 89.6892C13.9601 89.7214 13.9848 89.7492 14.0147 89.7705C14.0445 89.7919 14.0788 89.8062 14.115 89.8124C14.1511 89.8187 14.1882 89.8166 14.2235 89.8065C14.9817 89.4951 15.44 92.4109 15.2981 92.4713C15.2813 92.4765 15.2662 92.486 15.2544 92.4989C15.2425 92.5118 15.2342 92.5276 15.2304 92.5447C15.2266 92.5618 15.2273 92.5796 15.2326 92.5964C15.2379 92.6131 15.2475 92.6281 15.2604 92.64L15.3212 92.7189C15.3536 92.7477 15.3956 92.7632 15.4389 92.7622C15.4822 92.7613 15.5235 92.744 15.5546 92.7138C15.6271 92.6509 15.6819 92.5701 15.7137 92.4795C15.7455 92.3889 15.7532 92.2916 15.736 92.197C15.6928 91.5019 15.5405 90.8178 15.2848 90.1698C15.0786 89.6301 14.6782 89.1281 14.0727 89.3569L14.3831 89.5788L14.3025 88.3138C14.3001 88.2604 14.2814 88.209 14.2487 88.1667C14.2161 88.1243 14.1712 88.093 14.1202 88.0771C13.7518 87.9433 13.374 87.8373 12.9898 87.76C12.7891 87.726 12.6612 88.013 12.8505 88.1048L12.8724 88.0879Z" fill="black"/>
<path d="M14.8197 92.3577C14.7785 92.6758 14.5189 92.7012 14.3109 92.8752C14.2969 92.8904 14.2864 92.9085 14.2803 92.9283C14.2742 92.948 14.2726 92.9689 14.2757 92.9893C14.2787 93.0098 14.2863 93.0293 14.2978 93.0464C14.3094 93.0636 14.3246 93.0779 14.3424 93.0884C14.7747 93.3144 15.0865 92.7042 15.0255 92.353C15.0109 92.2525 14.8328 92.2569 14.8197 92.3577Z" fill="black"/>
<path d="M16.3926 87.8921C22.4248 83.4085 29.9416 85.2132 36.6935 86.5592C43.2915 87.9417 50.0449 88.4296 56.7718 88.0098C68.3986 87.167 79.9909 82.8168 88.1911 74.2963C93.0508 69.2417 96.5837 63.1343 99.9395 57.0236C99.9573 56.9914 99.9615 56.9534 99.9513 56.918C99.9411 56.8827 99.9173 56.8528 99.885 56.835C99.8528 56.8172 99.8149 56.8129 99.7795 56.8231C99.7442 56.8333 99.7143 56.8571 99.6966 56.8893C96.5295 62.3659 93.4373 67.9942 89.2333 72.7675C85.0052 77.5037 79.7758 81.2389 73.9241 83.7022C61.1317 89.1859 47.4066 88.4454 34.0424 85.7717C28.0558 84.5768 21.421 83.7273 16.3095 87.8024C16.2482 87.8496 16.3059 87.9519 16.3804 87.8945L16.3926 87.8921Z" fill="black"/>
<path d="M101.417 50.2772C102.358 46.7589 102.595 42.8962 101.402 39.3797C101.391 39.3608 101.375 39.346 101.355 39.3377C101.335 39.3295 101.313 39.3283 101.293 39.3344C101.272 39.3404 101.254 39.3534 101.242 39.3711C101.23 39.3888 101.224 39.4102 101.225 39.4316C101.977 43.1273 102.289 46.5329 101.392 50.262C101.392 50.262 101.415 50.2927 101.392 50.262L101.417 50.2772Z" fill="black"/>
<path d="M33.6414 100.189C32.9826 100.582 32.4474 101.152 32.0968 101.834C31.7462 102.517 31.5942 103.284 31.6581 104.049C31.6588 104.069 31.6635 104.089 31.672 104.108C31.6805 104.127 31.6927 104.144 31.7077 104.158C31.7227 104.172 31.7404 104.183 31.7596 104.19C31.7789 104.197 31.7994 104.201 31.8199 104.2C31.8614 104.199 31.9006 104.181 31.929 104.15C31.9573 104.12 31.9725 104.08 31.971 104.038C31.9549 103.339 32.1178 102.647 32.4444 102.029C32.771 101.411 33.2504 100.887 33.8369 100.506C33.871 100.478 33.8938 100.439 33.9011 100.396C33.9085 100.352 33.8998 100.308 33.8768 100.27C33.8538 100.232 33.818 100.204 33.776 100.191C33.7339 100.178 33.6885 100.18 33.6481 100.198L33.6414 100.189Z" fill="black"/>
<path d="M31.688 104.305C32.8956 106.734 34.9751 109.589 37.2693 111.092C37.3709 111.16 37.4574 111.01 37.3889 110.93C36.4879 109.877 35.3985 108.97 34.5208 107.921C33.573 106.724 32.6931 105.476 31.8855 104.181C31.8667 104.156 31.839 104.14 31.8084 104.136C31.7779 104.132 31.747 104.141 31.7226 104.159C31.6982 104.178 31.6822 104.206 31.6783 104.236C31.6743 104.267 31.6827 104.298 31.7015 104.322L31.688 104.305Z" fill="black"/>
<path d="M91.0407 23.212C91.9482 23.3034 92.8639 23.1643 93.703 22.8076C94.5421 22.4509 95.2775 21.8881 95.8412 21.1714C95.864 21.1482 95.8768 21.1169 95.8766 21.0843C95.8763 21.0517 95.8632 21.0205 95.84 20.9976C95.8168 20.9747 95.7855 20.962 95.7529 20.9622C95.7204 20.9624 95.6892 20.9755 95.6663 20.9987C95.049 21.6049 94.3378 22.1076 93.5604 22.4873C92.7589 22.7981 91.9181 22.9964 91.0621 23.0768C90.9937 23.0876 90.9685 23.1908 91.0494 23.2053L91.0407 23.212Z" fill="black"/>
<path d="M101.387 25.6107C101.319 25.9527 101.278 26.2995 101.265 26.6479C101.222 26.968 101.266 27.2938 101.391 27.5914C101.405 27.6126 101.424 27.6298 101.447 27.6416C101.469 27.6533 101.494 27.6591 101.52 27.6585C101.545 27.6578 101.57 27.6507 101.591 27.6379C101.613 27.625 101.632 27.6068 101.644 27.585C101.751 27.2825 101.78 26.9578 101.727 26.6412C101.697 26.2929 101.639 25.9476 101.553 25.6086C101.547 25.5918 101.535 25.5773 101.52 25.5672C101.505 25.557 101.488 25.5517 101.47 25.552C101.452 25.5522 101.434 25.5579 101.419 25.5684C101.405 25.5789 101.394 25.5937 101.387 25.6107Z" fill="black"/>
<path d="M38.9802 73.2674C33.9921 73.1336 29.2231 72.0699 24.456 70.7185C22.2373 70.0939 20.0217 69.446 17.8105 68.7947C16.1424 68.305 14.5457 67.6904 12.8091 68.0636C12.5046 68.1304 12.6446 68.6023 12.9501 68.5277C15.2069 68.0055 17.9215 69.247 20.0723 69.847C22.2231 70.447 24.4843 71.1088 26.7012 71.6858C30.7265 72.7354 34.8217 73.5495 39.0039 73.3888C39.0869 73.3878 39.0787 73.2684 39.0001 73.266L38.9802 73.2674Z" fill="black"/>
</g>
</svg>
