<svg width="123" height="126" viewBox="0 0 123 126" fill="none" xmlns="http://www.w3.org/2000/svg">
<path d="M49.2124 55.431H49.2243C49.5071 55.4195 49.7743 55.2987 49.9699 55.0942C50.1654 54.8897 50.274 54.6173 50.2729 54.3343C50.2717 54.0513 50.1609 53.7798 49.9637 53.5769C49.7664 53.374 49.4982 53.2555 49.2154 53.2462C49.1438 53.2462 44.7697 53.1597 40.1183 48.389C34.4796 42.6056 34.3901 34.9372 34.3901 34.8597C34.3901 34.5698 34.275 34.2917 34.07 34.0867C33.865 33.8817 33.5869 33.7665 33.297 33.7665C33.0071 33.7665 32.729 33.8817 32.524 34.0867C32.319 34.2917 32.2038 34.5698 32.2038 34.8597C32.2038 35.2072 32.2769 43.4736 38.5524 49.9116C43.8317 55.3311 48.859 55.431 49.2124 55.431Z" fill="#231F20"/>
<path d="M35.279 38.8058C35.4461 37.8782 35.7846 37.477 36.0903 36.3331C36.396 35.1893 36.9195 34.12 37.3341 33.012C37.4356 32.7996 37.4739 32.5625 37.4444 32.3289C37.349 31.895 36.7987 31.6832 36.3737 31.8144C35.9486 31.9457 35.6414 32.3185 35.4192 32.7092C35.197 33.1 35.027 33.516 34.7437 33.8605C34.4607 32.025 33.8931 30.2448 33.0614 28.5842C32.9351 28.2844 32.7424 28.0172 32.4977 27.8028C32.2397 27.6044 31.8609 27.5313 31.591 27.7133C31.3211 27.8952 31.2584 28.2039 31.2226 28.5007C31.156 29.0453 31.1879 29.5974 31.3166 30.1307C31.1212 29.7027 31.1048 29.218 30.9751 28.7662C30.8453 28.3143 30.5351 27.8535 30.0683 27.7923C29.53 27.7207 29.0617 28.2502 28.9916 28.7885C28.9215 29.3269 29.1407 29.8593 29.3451 30.3619C29.3167 30.0248 28.8634 29.8489 28.5666 30.0099C28.2698 30.171 28.146 30.5513 28.1878 30.8868C28.2506 31.2197 28.3805 31.5363 28.5696 31.8174C30.6231 35.3698 31.9996 38.4046 34.9823 41.2307L35.279 38.8058Z" fill="#231F20"/>
<path d="M71.6047 43.2022C81.9694 59.905 101.1 70.8036 120.751 71.2048C123.245 76.0889 122.436 82.4762 118.799 86.5878C118.277 87.1844 117.688 87.7466 117.418 88.4863C117.157 89.1991 117.223 89.9776 117.224 90.7412C117.224 95.7953 114.03 100.566 109.629 103.051C105.228 105.535 99.8161 105.884 94.9185 104.639C93.9015 104.379 92.8948 104.054 91.8524 103.932C90.5892 103.783 89.3171 103.932 88.045 104.041C79.455 104.738 70.83 103.213 62.9997 99.6131C63.2875 80.4033 54.2292 62.4999 48.1238 44.2849L71.6047 43.2022Z" fill="#3A88AA"/>
<path d="M72.1923 54.5213C70.6353 52.6632 69.0605 50.1846 70.0746 47.9864C74.2957 54.566 79.4979 60.4617 85.5008 65.4692C96.3174 74.523 108.088 78.4154 121.208 82.6641C120.647 84.1009 119.839 85.4287 118.822 86.5878C118.325 87.1486 117.778 87.6914 117.479 88.3774C117.394 88.2969 117.308 88.2163 117.22 88.1388C114.996 86.1658 112.225 84.9474 109.551 83.6514C95.1869 76.679 82.4563 66.7526 72.1923 54.5213Z" fill="#49A7DB"/>
<path d="M99.6864 97.8459C102.867 100.132 106.397 102.259 110.252 102.69C110.054 102.815 109.855 102.935 109.656 103.051C105.254 105.535 99.843 105.884 94.9455 104.639C94.5354 104.534 94.1282 104.42 93.7196 104.312C91.9986 101.456 90.6833 98.2396 89.4813 95.1496C88.9891 93.8834 88.4895 92.4995 88.8847 91.199C92.8919 92.586 96.2385 95.3673 99.6864 97.8459Z" fill="#49A7DB"/>
<path d="M39.9588 103.896C39.9956 103.898 40.0324 103.898 40.0692 103.896C40.3674 103.866 47.4005 103.094 54.6842 96.7378C61.6129 90.6905 63.7663 81.1415 63.8498 80.7374C63.8919 80.5937 63.904 80.443 63.8855 80.2945C63.8669 80.146 63.818 80.0028 63.7419 79.874C63.6657 79.7451 63.564 79.6333 63.4428 79.5454C63.3217 79.4575 63.1838 79.3954 63.0377 79.363C62.8916 79.3305 62.7403 79.3284 62.5934 79.3568C62.4464 79.3852 62.3069 79.4435 62.1834 79.528C62.0599 79.6126 61.955 79.7216 61.8754 79.8483C61.7957 79.975 61.7429 80.1167 61.7202 80.2646C61.6934 80.3884 59.6055 89.5317 53.245 95.0824C46.5192 100.952 39.9141 101.705 39.847 101.711C39.5686 101.741 39.3121 101.875 39.1302 102.088C38.9483 102.301 38.8549 102.575 38.8693 102.855C38.8836 103.134 39.0046 103.397 39.2073 103.59C39.41 103.783 39.679 103.891 39.9588 103.892V103.896Z" fill="#231F20"/>
<path d="M104.144 92.0237C104.144 92.0237 81.5876 81.6948 76.5067 64.9323C71.4257 48.1698 71.9805 33.3043 70.6741 27.6805C68.7473 19.3827 64.2972 17.3068 64.2972 17.3068L59.7472 16.5045C59.7472 16.5045 54.8526 13.2952 49.5868 23.9611C45.6556 31.9129 43.1204 52.8242 51.1079 72.89C59.0671 92.8708 72.1043 98.4588 81.5876 99.8129C91.071 101.167 103.5 97.0912 103.5 97.0912L104.144 92.0237Z" fill="#F2D211"/>
<path d="M49.5121 23.8806C52.1965 18.4373 54.79 16.6104 56.6839 16.1257C55.555 17.3188 54.35 19.0487 53.1241 21.5318C49.193 29.4895 46.6563 50.4053 54.6468 70.4666C62.606 90.4504 75.6446 96.0354 85.1265 97.3895C91.5138 98.3097 99.2389 96.7497 103.601 95.6402L103.427 97.0167C103.427 97.0167 90.9919 101.092 81.5145 99.7383C72.0371 98.3842 58.9955 92.7962 51.0348 72.8155C43.0443 52.7527 45.581 31.8383 49.5121 23.8806Z" fill="#EFBB18"/>
<path d="M64.2971 17.3068L71.8671 7.86823L67.0277 3.80437L56.8703 16.1734C56.8703 16.1734 57.8844 18.7087 58.3914 19.0442C58.8985 19.3798 64.2971 17.3068 64.2971 17.3068Z" fill="#F2D211"/>
<path d="M76.168 8.83908C75.3224 9.22385 69.0574 8.70636 69.0574 8.70636L65.6631 5.46272L68.5489 0L76.168 3.80437V8.83908Z" fill="#F2D211"/>
<path d="M72.9602 48.8409C68.7293 47.533 60.9416 45.3139 53.7833 44.2745C50.0773 43.7361 47.554 43.8524 45.839 44.2282C45.864 40.8172 46.1411 37.4127 46.6681 34.0425C48.501 33.6622 51.1615 33.3714 54.9689 33.437C61.3219 33.5474 67.8256 35.2147 71.627 36.3794C71.9178 39.9243 72.2802 44.1581 72.9602 48.8409Z" fill="#49A7DB"/>
<path d="M66.7863 41.4737C66.6492 41.7846 66.4282 42.0511 66.148 42.2432C65.8402 42.4239 65.4966 42.5349 65.1413 42.5684C63.829 42.7607 62.4838 42.6191 61.1968 42.2999C60.2274 42.0598 59.2372 41.6885 58.5929 40.9264C57.9487 40.1643 57.7861 38.9191 58.4751 38.1973C58.9553 37.6947 59.701 37.5605 60.3944 37.5128C62.4584 37.3711 68.4625 37.8677 66.7863 41.4737Z" fill="#F2D211"/>
<path d="M54.1904 39.9138C54.1487 40.222 54.0144 40.5103 53.8054 40.7406C53.5964 40.9709 53.3225 41.1324 53.0198 41.2038C51.9758 41.5587 50.8648 41.5886 49.7672 41.4365C48.9425 41.3216 48.079 41.0785 47.4377 40.4074C46.7965 39.7363 46.4743 38.5239 46.9247 37.723C47.2379 37.1653 47.8195 36.9386 48.3817 36.8044C50.0401 36.4062 55.0047 36.1408 54.1904 39.9138Z" fill="#F2D211"/>
<path d="M84.3584 115.933C84.5804 115.933 84.797 115.864 84.9773 115.734C85.1576 115.604 85.2926 115.421 85.3631 115.211C85.4335 115 85.4359 114.773 85.3699 114.561C85.3039 114.349 85.1728 114.163 84.9952 114.03C84.9325 113.983 78.6824 109.162 77.3432 100.56C76.1322 92.7738 78.9643 85.9689 78.9926 85.9018C79.0772 85.6497 79.0638 85.375 78.955 85.1325C78.8462 84.8899 78.6499 84.6972 78.4054 84.5928C78.1609 84.4884 77.886 84.48 77.6355 84.5692C77.385 84.6583 77.1774 84.8386 77.0539 85.0741C76.9271 85.3724 73.9534 92.4815 75.2643 100.882C76.7392 110.36 83.4487 115.497 83.7335 115.716C83.9133 115.853 84.1323 115.929 84.3584 115.933Z" fill="#231F20"/>
<path d="M59.0774 39.7304C59.0774 40.0734 59.1792 40.4087 59.3697 40.694C59.5603 40.9792 59.8312 41.2015 60.1481 41.3328C60.465 41.464 60.8138 41.4984 61.1502 41.4315C61.4867 41.3645 61.7957 41.1994 62.0383 40.9568C62.2808 40.7142 62.446 40.4052 62.5129 40.0687C62.5799 39.7323 62.5455 39.3836 62.4142 39.0667C62.283 38.7497 62.0607 38.4788 61.7754 38.2883C61.4902 38.0977 61.1549 37.996 60.8119 37.996C60.352 37.9964 59.9111 38.1792 59.5859 38.5044C59.2607 38.8296 59.0778 39.2705 59.0774 39.7304Z" fill="#231F20"/>
<path d="M60.8179 39.4306C60.8179 39.5734 60.8602 39.7129 60.9395 39.8316C61.0188 39.9503 61.1316 40.0429 61.2635 40.0975C61.3953 40.1521 61.5405 40.1664 61.6805 40.1386C61.8205 40.1107 61.9491 40.042 62.0501 39.941C62.151 39.8401 62.2198 39.7115 62.2476 39.5714C62.2755 39.4314 62.2612 39.2863 62.2065 39.1544C62.1519 39.0225 62.0594 38.9098 61.9407 38.8305C61.822 38.7512 61.6824 38.7088 61.5397 38.7088C61.3482 38.7088 61.1646 38.7849 61.0293 38.9202C60.8939 39.0556 60.8179 39.2392 60.8179 39.4306Z" fill="white"/>
<path d="M47.481 38.8923C47.4795 39.2356 47.5799 39.5717 47.7696 39.8579C47.9593 40.1441 48.2297 40.3675 48.5465 40.5C48.8632 40.6324 49.2122 40.6678 49.5491 40.6017C49.8861 40.5356 50.1958 40.371 50.4391 40.1288C50.6824 39.8865 50.8484 39.5775 50.9159 39.2408C50.9834 38.9042 50.9495 38.5551 50.8185 38.2377C50.6874 37.9204 50.4651 37.6491 50.1797 37.4581C49.8943 37.2672 49.5587 37.1653 49.2154 37.1653C48.7567 37.1653 48.3166 37.347 47.9916 37.6707C47.6665 37.9943 47.4829 38.4336 47.481 38.8923Z" fill="#231F20"/>
<path d="M49.2153 38.5925C49.2153 38.7353 49.2577 38.8748 49.337 38.9935C49.4163 39.1122 49.529 39.2047 49.6609 39.2594C49.7928 39.314 49.9379 39.3283 50.0779 39.3004C50.218 39.2726 50.3466 39.2038 50.4475 39.1029C50.5485 39.002 50.6172 38.8733 50.6451 38.7333C50.6729 38.5933 50.6586 38.4482 50.604 38.3163C50.5494 38.1844 50.4568 38.0717 50.3381 37.9924C50.2194 37.913 50.0799 37.8707 49.9371 37.8707C49.7457 37.8707 49.5621 37.9468 49.4267 38.0821C49.2914 38.2175 49.2153 38.4011 49.2153 38.5925Z" fill="white"/>
<path d="M58.0336 47.3153C58.0336 47.3153 55.7623 49.7387 53.5089 49.7387C51.2555 49.7387 50.4979 46.2624 50.4979 46.2624C50.4979 46.2624 49.5002 52.2859 53.2986 52.866C56.8032 53.4073 58.0336 47.3153 58.0336 47.3153Z" fill="#231F20"/>
<path d="M51.0378 45.7852C50.842 45.6984 50.623 45.6786 50.4148 45.7291C50.2066 45.7795 50.0209 45.8973 49.8865 46.0641C49.8646 46.0986 49.8304 46.1236 49.7908 46.1338C49.7512 46.1441 49.7092 46.1388 49.6732 46.1192C49.6548 46.1097 49.6386 46.0964 49.6256 46.0802C49.6126 46.064 49.6031 46.0452 49.5978 46.0251C49.5924 46.0051 49.5913 45.9841 49.5946 45.9636C49.5978 45.9431 49.6053 45.9234 49.6166 45.906C49.7951 45.6696 50.0496 45.502 50.3372 45.4311C50.6247 45.3602 50.928 45.3904 51.1959 45.5167C51.2142 45.5264 51.2303 45.5398 51.2432 45.5561C51.256 45.5724 51.2653 45.5911 51.2705 45.6112C51.2757 45.6313 51.2767 45.6522 51.2733 45.6727C51.27 45.6931 51.2624 45.7126 51.2511 45.73C51.2297 45.7651 51.1955 45.7906 51.1556 45.8009C51.1158 45.8112 51.0736 45.8055 51.0378 45.7852Z" fill="#231F20"/>
<path d="M58.657 47.7179C58.679 47.4441 58.6173 47.17 58.4802 46.9319C58.343 46.6939 58.1369 46.503 57.8889 46.3847C57.8706 46.375 57.8545 46.3616 57.8417 46.3453C57.8288 46.329 57.8195 46.3103 57.8143 46.2902C57.8091 46.2701 57.8082 46.2492 57.8115 46.2288C57.8149 46.2083 57.8225 46.1888 57.8338 46.1714C57.8554 46.1366 57.8896 46.1114 57.9293 46.1011C57.9691 46.0908 58.0112 46.0962 58.047 46.1162C58.3424 46.2615 58.5877 46.4914 58.7519 46.7766C58.916 47.0619 58.9915 47.3896 58.9687 47.7179C58.9687 47.7592 58.9522 47.7989 58.923 47.8281C58.8938 47.8573 58.8542 47.8737 58.8128 47.8737C58.7715 47.8737 58.7319 47.8573 58.7026 47.8281C58.6734 47.7989 58.657 47.7592 58.657 47.7179Z" fill="#231F20"/>
<path d="M65.6632 78.5332C65.8199 78.5333 65.9748 78.4996 66.1174 78.4345C66.2599 78.3694 66.3868 78.2744 66.4893 78.1559C66.6817 77.9337 71.2109 72.6499 71.9998 66.6622C72.987 59.1683 70.3728 54.8211 70.2624 54.6406C70.1109 54.3934 69.8674 54.2165 69.5855 54.1489C69.3036 54.0812 69.0063 54.1283 68.7591 54.2797C68.5119 54.4312 68.335 54.6747 68.2674 54.9566C68.1997 55.2385 68.2468 55.5358 68.3982 55.783C68.4325 55.8412 70.7098 59.7231 69.8329 66.3714C69.129 71.7163 64.8802 76.6705 64.8385 76.7197C64.7007 76.8778 64.6113 77.0722 64.5811 77.2797C64.5509 77.4872 64.581 77.6991 64.668 77.8899C64.755 78.0807 64.8951 78.2424 65.0716 78.3557C65.2481 78.469 65.4534 78.529 65.6632 78.5287V78.5332Z" fill="#231F20"/>
<path d="M66.5341 75.3939C66.0867 76.1142 64.7445 76.156 64.1062 77.0075C63.4679 77.8591 62.6671 78.5764 61.9468 79.3623C61.7907 79.5054 61.679 79.6901 61.6246 79.8947C61.5575 80.2914 61.9453 80.6523 62.345 80.6866C62.7446 80.7209 63.1264 80.5121 63.4426 80.2661C63.7587 80.02 64.0391 79.7247 64.394 79.5323C64.0105 81.1605 63.8842 82.8387 64.0197 84.5059C64.0243 84.7988 64.0951 85.0869 64.227 85.3485C64.295 85.4782 64.401 85.5841 64.5308 85.6521C64.6605 85.72 64.8079 85.7468 64.9533 85.7288C65.2172 85.6736 65.4007 85.4305 65.5274 85.1964C65.7657 84.7636 65.9252 84.292 65.9987 83.8035C66.0166 84.2255 65.8675 84.6372 65.8242 85.0577C65.781 85.4783 65.8839 85.9689 66.2522 86.1762C66.6787 86.4178 67.2469 86.1344 67.487 85.7064C67.7271 85.2784 67.7286 84.7639 67.7227 84.2748C67.6317 84.573 67.9523 84.8713 68.2551 84.831C68.5578 84.7908 68.7875 84.5208 68.8665 84.2345C68.9269 83.9353 68.9269 83.627 68.8665 83.3278C68.349 79.6695 67.7316 77.009 67.4348 75.042L66.5341 75.3939Z" fill="#231F20"/>
<path d="M80.1708 104.378C81.2803 104.772 90.528 114.875 90.528 114.875C90.528 114.875 81.4235 126.415 80.1708 125.234C78.918 124.053 80.1708 116.38 80.1708 116.38L72.9602 109.69L80.1708 104.378Z" fill="#49A7DB"/>
<path d="M51.3733 102.803C51.3733 102.803 46.9754 95.5224 46.7144 95.5224C46.4534 95.5224 37.4533 99.1627 37.4533 99.1627C37.4533 99.1627 31.0972 94.9333 30.3098 95.5224C29.5224 96.1114 35.7144 108.117 35.7144 108.117L51.3733 102.803Z" fill="#49A7DB"/>
<path d="M78.3976 108.202C78.5721 107.72 79.188 107.383 79.619 107.659L80.2737 107.938C81.1476 108.719 81.9837 109.54 82.7821 110.401C83.1922 110.849 83.6202 111.399 83.4905 111.988C83.3741 112.522 82.803 112.868 82.2571 112.883C81.7113 112.898 81.1938 112.632 80.7434 112.321C79.7945 111.66 79.0454 110.752 78.578 109.694C78.3707 109.22 78.2231 108.683 78.3976 108.202Z" fill="#F2D211"/>
<path d="M41.6483 101.784C41.2606 101.45 41.1666 100.752 41.5782 100.45L42.0763 99.9381C43.1193 99.4013 44.1856 98.9146 45.2752 98.4781C45.836 98.2544 46.5056 98.0531 47.0096 98.3842C47.4675 98.6825 47.5853 99.3401 47.3974 99.8546C47.2095 100.369 46.783 100.758 46.3311 101.066C45.3754 101.717 44.2587 102.091 43.1039 102.148C42.5894 102.174 42.0361 102.12 41.6483 101.784Z" fill="#F2D211"/>
<path opacity="0.55" d="M67.608 23.4675C67.9871 24.3442 68.2503 25.2667 68.3909 26.2115C68.6161 27.5388 68.7115 28.8855 68.8055 30.2277C68.9855 32.8027 69.1664 35.3777 69.3483 37.9527C69.3886 38.5239 69.3081 39.2711 68.7518 39.4083C68.3298 39.5127 67.9375 39.1592 67.681 38.8117C65.5693 35.929 66.5536 31.8801 65.6871 28.4142C65.2606 26.7096 64.3807 25.1661 63.3666 23.7464C62.8014 22.956 60.9358 21.4124 61.6606 20.3655C62.2362 19.5334 63.9304 19.8615 64.6581 20.2164C65.9466 20.8308 67.0234 22.1939 67.608 23.4675Z" fill="white"/>
<path opacity="0.55" d="M98.1279 92.1132L87.5141 86.5073C85.3696 85.3754 83.2161 84.2375 81.2505 82.8178C78.8833 81.1098 76.8169 79.0198 75.1361 76.6333C74.1131 75.1792 73.2108 73.5089 73.2973 71.7343C73.2893 71.4406 73.3778 71.1525 73.5493 70.914C74.0683 70.3026 75.0645 70.7977 75.6372 71.3614C77.4074 73.1257 78.599 75.388 80.1827 77.3163C82.7329 80.4406 86.2196 82.6254 89.6497 84.7535L97.0496 89.3453C97.7401 89.7748 99.8116 90.5697 100.132 91.3511C100.709 92.7411 98.8258 92.4816 98.1279 92.1132Z" fill="white"/>
<path d="M104.144 92.0252L101.841 92.9647V94.9333L103.5 97.0912L104.144 92.0252Z" fill="#C6A810"/>
<path d="M76.168 8.83908L67.5825 1.82985L65.6631 5.46272L70.9096 8.83908H76.168Z" fill="#EFBB18"/>
<path d="M17.8195 37.6058L19.5372 39.188C19.88 39.5038 20.2845 39.7427 20.7325 39.7459C22.1998 39.7566 25.8643 38.9407 29.7685 31.5725C33.6726 24.2043 32.4572 20.3981 31.7006 19.0462C31.4696 18.6334 31.0723 18.381 30.6449 18.2248L28.5034 17.4424C26.909 16.8599 26.0231 15.0381 26.5246 13.3733L28.433 7.03848C28.8708 5.58537 30.239 4.7018 31.6871 4.93715L33.4057 5.21645C34.7112 5.42863 35.918 6.12013 36.8115 7.16811C37.558 8.04367 38.213 9.00155 38.5693 10.1099C39.6922 13.6028 41.3456 22.5125 34.8841 34.7071C28.4226 46.9016 20.452 49.9142 17.0852 50.6561C16.0169 50.8915 14.9167 50.7739 13.8356 50.5297C12.5417 50.2373 11.3733 49.4735 10.538 48.3739L9.43841 46.9264C8.51189 45.7067 8.52118 43.9904 9.4605 42.8446L13.5554 37.8496C14.6316 36.5369 16.5407 36.4278 17.8195 37.6058Z" fill="black"/>
</svg>
