<svg width="96" height="96" viewBox="0 0 96 96" fill="none" xmlns="http://www.w3.org/2000/svg">
<g filter="url(#filter0_i)">
<circle cx="48" cy="48" r="48" fill="white" fill-opacity="0.9"/>
</g>
<path d="M40.4625 50.385L40.4637 50.3802C40.4877 50.2639 40.4658 50.1429 40.4024 50.0425C40.339 49.9421 40.2392 49.8702 40.1239 49.8419C40.0087 49.8136 39.8869 49.8311 39.7842 49.8907C39.6816 49.9504 39.6061 50.0475 39.5736 50.1617V50.1617C39.5663 50.1908 39.0864 51.9622 36.6718 53.3703C33.7447 55.0772 30.6146 54.334 30.583 54.3261C30.465 54.2966 30.3401 54.3152 30.2359 54.3778C30.1316 54.4404 30.0564 54.5419 30.027 54.6599C29.9975 54.7779 30.0161 54.9027 30.0787 55.007C30.1413 55.1113 30.2427 55.1864 30.3607 55.2159C30.5021 55.2512 33.874 56.062 37.1323 54.1624C39.8747 52.5648 40.4265 50.5289 40.4625 50.385Z" fill="#231F20"/>
<path d="M32.2792 54.3656C31.9187 54.2033 31.7898 54.0247 31.3554 53.784C30.9209 53.5432 30.5389 53.2215 30.1301 52.9401C30.054 52.8772 29.9614 52.8375 29.8634 52.8257C29.677 52.8205 29.5349 53.0229 29.5451 53.2092C29.5553 53.3955 29.6758 53.5585 29.8122 53.6887C29.9487 53.8188 30.1007 53.9303 30.2121 54.0807C29.4363 54.0092 28.6541 54.0592 27.8936 54.2289C27.7588 54.2498 27.6304 54.3011 27.5183 54.3788C27.4113 54.4637 27.3431 54.6104 27.3897 54.7388C27.4363 54.8671 27.5555 54.924 27.6727 54.9688C27.8876 55.0512 28.1155 55.0944 28.3457 55.0963C28.1516 55.1322 27.9527 55.0896 27.7556 55.0965C27.5585 55.1034 27.3394 55.1828 27.267 55.3665C27.1832 55.5784 27.351 55.8228 27.563 55.906C27.775 55.9893 28.014 55.9542 28.2393 55.9222C28.0992 55.8994 27.9815 56.066 28.0169 56.2032C28.0523 56.3404 28.1945 56.4294 28.3353 56.4465C28.4771 56.4548 28.6192 56.4341 28.7528 56.3858C30.4074 55.9111 31.7825 55.6595 33.236 54.7329L32.2792 54.3656Z" fill="#231F20"/>
<path d="M46.9706 41.1235C51.3187 48.1304 59.3441 52.7024 67.5878 52.8707C68.6338 54.9196 68.2948 57.5991 66.7689 59.3239C66.5499 59.5742 66.3028 59.81 66.1896 60.1203C66.0801 60.4194 66.1076 60.7459 66.1082 61.0662C66.1082 63.1865 64.7682 65.1878 62.922 66.2301C61.0758 67.2724 58.8054 67.4188 56.7509 66.8964C56.3242 66.7875 55.9019 66.6511 55.4646 66.5998C54.9347 66.5373 54.4011 66.5998 53.8674 66.6455C50.2639 66.9381 46.6456 66.2984 43.3608 64.788C43.4816 56.7295 39.6816 49.2189 37.1203 41.5777L46.9706 41.1235Z" fill="#3A88AA"/>
<path d="M47.2172 45.8719C46.564 45.0924 45.9034 44.0527 46.3288 43.1305C48.0996 45.8907 50.2819 48.364 52.8002 50.4646C57.3378 54.2627 62.2757 55.8956 67.7793 57.678C67.5439 58.2807 67.2052 58.8377 66.7783 59.3239C66.57 59.5592 66.3404 59.7869 66.2153 60.0747C66.1796 60.0409 66.1433 60.0071 66.1064 59.9746C65.1736 59.1469 64.0112 58.6358 62.8895 58.0921C56.8635 55.1672 51.523 51.003 47.2172 45.8719V45.8719Z" fill="#49A7DB"/>
<path d="M58.7511 64.0467C60.0855 65.0058 61.5664 65.8979 63.1836 66.0787C63.1002 66.1313 63.0168 66.1818 62.9333 66.2301C61.0865 67.2724 58.8168 67.4188 56.7623 66.8964C56.5902 66.8526 56.4194 66.8045 56.248 66.7594C55.5261 65.5614 54.9743 64.2119 54.47 62.9156C54.2636 62.3845 54.054 61.8039 54.2198 61.2584C55.9008 61.8402 57.3047 63.007 58.7511 64.0467Z" fill="#49A7DB"/>
<path d="M40.0236 69.1584C40.0163 69.1448 40.0098 69.1307 40.0041 69.1163C39.963 68.9975 39.0192 66.1834 40.1575 62.2911C41.2408 58.5883 44.4979 56.0875 44.6371 55.9846C44.6844 55.9433 44.7397 55.9121 44.7995 55.8931C44.8593 55.874 44.9224 55.8674 44.9849 55.8737C45.0473 55.88 45.1078 55.8991 45.1626 55.9298C45.2174 55.9604 45.2653 56.002 45.3034 56.0519C45.3415 56.1019 45.3689 56.1591 45.3839 56.22C45.399 56.281 45.4014 56.3444 45.3909 56.4063C45.3805 56.4682 45.3574 56.5273 45.3232 56.58C45.289 56.6326 45.2443 56.6776 45.192 56.7123C45.1495 56.7443 42.0353 59.1487 41.0412 62.5477C39.9899 66.1421 40.8657 68.7898 40.8752 68.8164C40.9131 68.9275 40.9069 69.0489 40.8579 69.1556C40.809 69.2623 40.7209 69.3462 40.612 69.3899C40.503 69.4336 40.3815 69.4339 40.2723 69.3907C40.1632 69.3475 40.0747 69.264 40.0253 69.1576L40.0236 69.1584Z" fill="#231F20"/>
<path d="M60.6211 61.6043C60.6211 61.6043 51.1586 57.2712 49.0272 50.2393C46.8957 43.2074 47.1284 36.9712 46.5804 34.612C45.7721 31.1311 43.9052 30.2603 43.9052 30.2603L41.9965 29.9237C41.9965 29.9237 39.9432 28.5773 37.7342 33.0518C36.085 36.3875 35.0215 45.1599 38.3723 53.5776C41.7112 61.9596 47.1804 64.3038 51.1586 64.8719C55.1369 65.4399 60.3508 63.7301 60.3508 63.7301L60.6211 61.6043Z" fill="#F2D211"/>
<path d="M37.7026 33.018C38.8287 30.7345 39.9166 29.9682 40.7112 29.7648C40.2376 30.2653 39.7321 30.991 39.2178 32.0327C37.5687 35.371 36.5045 44.1452 39.8566 52.561C43.1955 60.9443 48.6653 63.2872 52.6429 63.8553C55.3224 64.2413 58.5631 63.5869 60.3931 63.1214L60.3199 63.6989C60.3199 63.6989 55.1035 65.4087 51.1277 64.8406C47.1519 64.2726 41.6809 61.9284 38.3413 53.5464C34.9893 45.13 36.0535 36.3563 37.7026 33.018Z" fill="#EFBB18"/>
<path d="M43.9049 30.2603L47.0806 26.3008L45.0504 24.5959L40.7894 29.7848C40.7894 29.7848 41.2148 30.8484 41.4275 30.9891C41.6402 31.1299 43.9049 30.2603 43.9049 30.2603Z" fill="#F2D211"/>
<path d="M48.8853 26.708C48.5305 26.8694 45.9023 26.6523 45.9023 26.6523L44.4784 25.2916L45.689 23L48.8853 24.5959V26.708Z" fill="#F2D211"/>
<path d="M47.5391 43.489C45.7642 42.9403 42.4972 42.0094 39.4943 41.5733C37.9396 41.3475 36.8811 41.3963 36.1616 41.5539C36.1721 40.123 36.2884 38.6948 36.5094 37.281C37.2783 37.1214 38.3944 36.9994 39.9916 37.027C42.6568 37.0733 45.3851 37.7727 46.9798 38.2613C47.1018 39.7484 47.2538 41.5245 47.5391 43.489Z" fill="#49A7DB"/>
<path d="M44.9494 40.3983C44.8919 40.5288 44.7992 40.6405 44.6816 40.7212C44.5525 40.7969 44.4084 40.8435 44.2593 40.8575C43.7088 40.9383 43.1445 40.8788 42.6046 40.7449C42.1979 40.6442 41.7825 40.4884 41.5123 40.1687C41.242 39.8491 41.1738 39.3267 41.4628 39.0239C41.6643 38.813 41.9771 38.7567 42.268 38.7367C43.1339 38.6773 45.6526 38.8856 44.9494 40.3983Z" fill="#F2D211"/>
<path d="M39.6651 39.744C39.6476 39.8733 39.5912 39.9942 39.5036 40.0908C39.4159 40.1875 39.301 40.2552 39.174 40.2852C38.736 40.4341 38.27 40.4466 37.8095 40.3828C37.4635 40.3346 37.1013 40.2326 36.8323 39.9511C36.5633 39.6696 36.4281 39.1609 36.6171 38.825C36.7485 38.591 36.9925 38.4959 37.2283 38.4396C37.924 38.2726 40.0067 38.1612 39.6651 39.744Z" fill="#F2D211"/>
<path d="M52.3207 71.6341C52.4139 71.6343 52.5047 71.6052 52.5804 71.5508C52.656 71.4965 52.7126 71.4197 52.7422 71.3313C52.7718 71.243 52.7728 71.1476 52.7451 71.0587C52.7174 70.9697 52.6624 70.8918 52.5879 70.8359C52.5616 70.8165 49.9396 68.7938 49.3778 65.1853C48.8698 61.9189 50.0579 59.0643 50.0698 59.0361C50.1053 58.9304 50.0996 58.8151 50.054 58.7134C50.0083 58.6116 49.926 58.5308 49.8234 58.487C49.7209 58.4432 49.6055 58.4396 49.5005 58.4771C49.3954 58.5145 49.3083 58.5901 49.2565 58.6889C49.2033 58.814 47.9558 61.7963 48.5057 65.3204C49.1245 69.2962 51.9391 71.4515 52.0586 71.5434C52.134 71.6009 52.2259 71.6327 52.3207 71.6341V71.6341Z" fill="#231F20"/>
<path d="M41.7152 39.667C41.7152 39.8109 41.7579 39.9516 41.8378 40.0713C41.9178 40.1909 42.0314 40.2842 42.1644 40.3393C42.2973 40.3943 42.4436 40.4087 42.5848 40.3807C42.7259 40.3526 42.8555 40.2833 42.9573 40.1815C43.0591 40.0798 43.1284 39.9501 43.1564 39.809C43.1845 39.6679 43.1701 39.5216 43.115 39.3886C43.06 39.2557 42.9667 39.142 42.847 39.0621C42.7274 38.9821 42.5867 38.9395 42.4428 38.9395C42.2499 38.9396 42.0649 39.0163 41.9285 39.1527C41.7921 39.2892 41.7154 39.4741 41.7152 39.667V39.667Z" fill="#231F20"/>
<path d="M42.4457 39.5413C42.4457 39.6012 42.4634 39.6598 42.4967 39.7095C42.53 39.7593 42.5773 39.7982 42.6326 39.8211C42.6879 39.844 42.7488 39.85 42.8075 39.8383C42.8663 39.8266 42.9202 39.7978 42.9626 39.7554C43.0049 39.7131 43.0338 39.6591 43.0455 39.6004C43.0571 39.5417 43.0511 39.4808 43.0282 39.4254C43.0053 39.3701 42.9665 39.3228 42.9167 39.2896C42.8669 39.2563 42.8084 39.2385 42.7485 39.2385C42.6682 39.2385 42.5911 39.2704 42.5344 39.3272C42.4776 39.384 42.4457 39.461 42.4457 39.5413Z" fill="white"/>
<path d="M36.8505 39.3155C36.8499 39.4595 36.892 39.6005 36.9716 39.7205C37.0512 39.8406 37.1646 39.9344 37.2975 39.9899C37.4304 40.0454 37.5768 40.0603 37.7181 40.0326C37.8594 40.0049 37.9894 39.9358 38.0914 39.8342C38.1935 39.7326 38.2631 39.6029 38.2915 39.4617C38.3198 39.3205 38.3056 39.174 38.2506 39.0409C38.1956 38.9078 38.1023 38.7939 37.9826 38.7138C37.8629 38.6338 37.7221 38.591 37.5781 38.591C37.3856 38.591 37.2011 38.6672 37.0647 38.803C36.9283 38.9388 36.8513 39.123 36.8505 39.3155V39.3155Z" fill="#231F20"/>
<path d="M37.578 39.1897C37.578 39.2496 37.5958 39.3081 37.629 39.3579C37.6623 39.4077 37.7096 39.4465 37.7649 39.4694C37.8202 39.4924 37.8811 39.4984 37.9399 39.4867C37.9986 39.475 38.0526 39.4462 38.0949 39.4038C38.1373 39.3615 38.1661 39.3075 38.1778 39.2488C38.1895 39.19 38.1835 39.1292 38.1605 39.0738C38.1376 39.0185 38.0988 38.9712 38.049 38.9379C37.9992 38.9047 37.9407 38.8869 37.8808 38.8869C37.8005 38.8869 37.7235 38.9188 37.6667 38.9756C37.6099 39.0324 37.578 39.1094 37.578 39.1897Z" fill="white"/>
<path d="M41.2773 42.8489C41.2773 42.8489 40.3245 43.8655 39.3792 43.8655C38.4339 43.8655 38.1161 42.4072 38.1161 42.4072C38.1161 42.4072 37.6976 44.9341 39.291 45.1775C40.7612 45.4046 41.2773 42.8489 41.2773 42.8489Z" fill="#231F20"/>
<path d="M38.3428 42.2071C38.2606 42.1706 38.1687 42.1624 38.0814 42.1835C37.9941 42.2047 37.9162 42.2541 37.8598 42.324C37.8506 42.3385 37.8363 42.349 37.8196 42.3533C37.803 42.3576 37.7854 42.3554 37.7703 42.3472C37.7626 42.3432 37.7558 42.3376 37.7503 42.3308C37.7449 42.324 37.7409 42.3161 37.7387 42.3077C37.7364 42.2993 37.736 42.2905 37.7373 42.2819C37.7387 42.2733 37.7418 42.2651 37.7466 42.2577C37.8215 42.1586 37.9282 42.0882 38.0488 42.0585C38.1695 42.0288 38.2967 42.0415 38.4091 42.0944C38.4168 42.0985 38.4235 42.1041 38.4289 42.111C38.4343 42.1178 38.4382 42.1257 38.4404 42.1341C38.4426 42.1425 38.443 42.1513 38.4416 42.1598C38.4402 42.1684 38.437 42.1766 38.4322 42.1839C38.4233 42.1986 38.4089 42.2093 38.3922 42.2136C38.3755 42.218 38.3578 42.2156 38.3428 42.2071V42.2071Z" fill="#231F20"/>
<path d="M41.539 43.0178C41.5482 42.903 41.5223 42.788 41.4648 42.6881C41.4073 42.5883 41.3208 42.5082 41.2168 42.4585C41.2091 42.4545 41.2023 42.4489 41.1969 42.442C41.1915 42.4352 41.1876 42.4273 41.1855 42.4189C41.1833 42.4105 41.1829 42.4017 41.1843 42.3931C41.1857 42.3846 41.1889 42.3764 41.1936 42.3691C41.2027 42.3545 41.2171 42.3439 41.2337 42.3396C41.2504 42.3353 41.2681 42.3376 41.2831 42.3459C41.407 42.4069 41.5099 42.5033 41.5788 42.623C41.6476 42.7427 41.6793 42.8801 41.6697 43.0178C41.6697 43.0352 41.6628 43.0518 41.6506 43.0641C41.6383 43.0763 41.6217 43.0832 41.6043 43.0832C41.587 43.0832 41.5704 43.0763 41.5581 43.0641C41.5458 43.0518 41.539 43.0352 41.539 43.0178V43.0178Z" fill="#231F20"/>
<path d="M44.4785 55.945C44.5442 55.945 44.6092 55.9309 44.669 55.9036C44.7288 55.8763 44.782 55.8364 44.8251 55.7867C44.9058 55.6935 46.8058 53.4769 47.1367 50.9651C47.5509 47.8214 46.4542 45.9977 46.4079 45.922C46.3443 45.8183 46.2422 45.7441 46.1239 45.7157C46.0057 45.6873 45.881 45.707 45.7773 45.7706C45.6736 45.8341 45.5993 45.9363 45.5709 46.0545C45.5426 46.1728 45.5623 46.2975 45.6259 46.4012C45.6402 46.4256 46.5956 48.0541 46.2277 50.8431C45.9324 53.0853 44.15 55.1636 44.1325 55.1842C44.0747 55.2505 44.0372 55.3321 44.0245 55.4192C44.0119 55.5062 44.0245 55.5951 44.061 55.6751C44.0975 55.7552 44.1563 55.823 44.2303 55.8705C44.3043 55.9181 44.3905 55.9433 44.4785 55.9431V55.945Z" fill="#231F20"/>
<path d="M44.8434 54.628C44.6557 54.9302 44.0926 54.9477 43.8249 55.3049C43.5571 55.6621 43.2211 55.9631 42.919 56.2928C42.8535 56.3528 42.8066 56.4303 42.7838 56.5161C42.7557 56.6825 42.9183 56.8339 43.086 56.8483C43.2537 56.8627 43.4138 56.7751 43.5465 56.6719C43.6791 56.5687 43.7967 56.4448 43.9456 56.3641C43.7847 57.0471 43.7317 57.7511 43.7886 58.4505C43.7905 58.5734 43.8202 58.6942 43.8755 58.804C43.9041 58.8584 43.9485 58.9028 44.003 58.9313C44.0574 58.9598 44.1192 58.9711 44.1802 58.9635C44.2909 58.9404 44.3679 58.8384 44.4211 58.7402C44.521 58.5586 44.5879 58.3608 44.6188 58.1558C44.6263 58.3329 44.5637 58.5056 44.5456 58.682C44.5274 58.8584 44.5706 59.0642 44.7251 59.1512C44.904 59.2526 45.1424 59.1337 45.2431 58.9541C45.3439 58.7746 45.3445 58.5587 45.342 58.3535C45.3038 58.4787 45.4383 58.6038 45.5653 58.5869C45.6923 58.57 45.7887 58.4568 45.8218 58.3366C45.8472 58.2111 45.8472 58.0818 45.8218 57.9563C45.6047 56.4216 45.3457 55.3055 45.2212 54.4803L44.8434 54.628Z" fill="#231F20"/>
<path d="M50.5643 66.7869C51.0297 66.952 54.9092 71.1906 54.9092 71.1906C54.9092 71.1906 51.0898 76.0316 50.5643 75.5361C50.0388 75.0406 50.5643 71.8218 50.5643 71.8218L47.5394 69.0153L50.5643 66.7869Z" fill="#49A7DB"/>
<path d="M42.1769 68.1099C42.1769 68.1099 38.6737 68.7877 38.6359 68.8905C38.5981 68.9932 38.7288 73.0639 38.7288 73.0639C38.7288 73.0639 36.1435 74.9543 36.2614 75.3496C36.3794 75.7449 42.0026 75.0446 42.0026 75.0446L42.1769 68.1099Z" fill="#49A7DB"/>
<path d="M49.8204 68.391C49.8936 68.1889 50.152 68.0475 50.3328 68.1632L50.6074 68.2802C50.974 68.6081 51.3248 68.9526 51.6597 69.3138C51.8318 69.5014 52.0113 69.7323 51.9569 69.9794C51.9081 70.2034 51.6685 70.3485 51.4395 70.3548C51.2105 70.361 50.9934 70.2497 50.8045 70.1189C50.4064 69.8419 50.0922 69.4608 49.8961 69.0172C49.8091 68.8183 49.7472 68.593 49.8204 68.391Z" fill="#F2D211"/>
<path d="M40.3683 71.7914C40.1806 71.8958 39.8922 71.8317 39.8326 71.6259L39.7033 71.3557C39.6428 70.8673 39.6056 70.377 39.5914 69.8848C39.5845 69.6317 39.6022 69.3389 39.8055 69.1883C39.9892 69.0512 40.2652 69.1 40.4406 69.2485C40.616 69.3969 40.7075 69.6212 40.763 69.8436C40.881 70.3141 40.8669 70.808 40.7222 71.271C40.6577 71.4773 40.5565 71.6873 40.3683 71.7914Z" fill="#F2D211"/>
<path opacity="0.55" d="M45.294 32.8447C45.4531 33.2125 45.5635 33.5995 45.6225 33.9958C45.7169 34.5526 45.757 35.1176 45.7964 35.6806C45.8719 36.7608 45.9478 37.8411 46.0241 38.9213C46.041 39.1609 46.0072 39.4743 45.7739 39.5319C45.5968 39.5757 45.4323 39.4274 45.3247 39.2817C44.4388 38.0723 44.8517 36.3738 44.4882 34.9199C44.3093 34.2048 43.9402 33.5573 43.5148 32.9617C43.2777 32.6301 42.495 31.9826 42.7991 31.5434C43.0406 31.1943 43.7513 31.3319 44.0566 31.4808C44.5971 31.7386 45.0488 32.3104 45.294 32.8447Z" fill="white"/>
<path opacity="0.55" d="M58.0971 61.6418L53.6446 59.2901C52.745 58.8153 51.8416 58.3379 51.017 57.7424C50.024 57.0259 49.1571 56.1491 48.452 55.1479C48.0228 54.5379 47.6443 53.8373 47.6806 53.0928C47.6773 52.9696 47.7144 52.8487 47.7863 52.7487C48.0041 52.4922 48.422 52.6999 48.6622 52.9364C49.4048 53.6765 49.9047 54.6255 50.5691 55.4345C51.6389 56.7451 53.1016 57.6616 54.5405 58.5544L57.6448 60.4807C57.9345 60.6609 58.8034 60.9943 58.9379 61.3221C59.1801 61.9052 58.3899 61.7963 58.0971 61.6418Z" fill="white"/>
<path d="M60.6211 61.6049L59.6551 61.9991V62.8249L60.3508 63.7301L60.6211 61.6049Z" fill="#C6A810"/>
<path d="M48.8853 26.708L45.2836 23.7676L44.4784 25.2916L46.6793 26.708H48.8853Z" fill="#EFBB18"/>
<defs>
<filter id="filter0_i" x="0" y="0" width="96" height="100" filterUnits="userSpaceOnUse" color-interpolation-filters="sRGB">
<feFlood flood-opacity="0" result="BackgroundImageFix"/>
<feBlend mode="normal" in="SourceGraphic" in2="BackgroundImageFix" result="shape"/>
<feColorMatrix in="SourceAlpha" type="matrix" values="0 0 0 0 0 0 0 0 0 0 0 0 0 0 0 0 0 0 127 0" result="hardAlpha"/>
<feOffset dy="4"/>
<feGaussianBlur stdDeviation="7.5"/>
<feComposite in2="hardAlpha" operator="arithmetic" k2="-1" k3="1"/>
<feColorMatrix type="matrix" values="0 0 0 0 0.690196 0 0 0 0 0.538353 0 0 0 0 0 0 0 0 0.5 0"/>
<feBlend mode="normal" in2="shape" result="effect1_innerShadow"/>
</filter>
</defs>
</svg>
