<svg width="22" height="22" viewBox="0 0 22 22" fill="none" xmlns="http://www.w3.org/2000/svg">
<circle opacity="0.35" cx="10" cy="13" r="8" fill="#F9DF09"/>
<path d="M4.26529 19.2636C6.06551 20.8896 8.45728 21.7851 11 21.7851C13.5427 21.7851 15.9345 20.8896 17.7347 19.2636C19.5423 17.6308 20.5378 15.4583 20.5378 13.1456C20.5378 10.1633 18.8347 7.39658 16.0619 5.82161C16.8958 5.33142 17.4977 4.49817 17.525 4.45984C17.5576 4.41421 17.5745 4.35917 17.573 4.30308C17.5715 4.247 17.5518 4.19292 17.5168 4.14906C17.4818 4.1052 17.4335 4.07396 17.3791 4.06007C17.3248 4.04618 17.2673 4.0504 17.2156 4.07209C17.2055 4.07639 16.1919 4.49181 15.1539 4.19821C14.8797 4.12065 14.5973 3.98637 14.2984 3.84419C13.5977 3.51101 12.8113 3.13705 11.8435 3.35765L11.2129 0.8191C11.1629 0.614937 11.0342 0.438842 10.8548 0.32928C10.6755 0.219717 10.46 0.185592 10.2556 0.234356C10.0511 0.283121 9.87427 0.410813 9.76366 0.589542C9.65304 0.76827 9.61765 0.983509 9.66522 1.18824L10.305 3.93287C9.12764 3.63553 8.33147 3.95543 7.67821 4.21797C7.29347 4.37266 6.96119 4.50586 6.60554 4.50586C6.4628 4.50586 6.20976 4.4228 5.98645 4.34954C5.75682 4.27417 5.53987 4.20298 5.36478 4.1891C5.31588 4.18522 5.2669 4.19536 5.22357 4.21835C5.18024 4.24133 5.14437 4.2762 5.12016 4.31886C5.09595 4.36152 5.08441 4.4102 5.0869 4.45918C5.08939 4.50817 5.1058 4.55542 5.13421 4.59541C5.22908 4.72887 5.64854 5.29842 6.16507 5.6964C3.25273 7.24778 1.46227 10.0641 1.46227 13.1456C1.46227 15.4583 2.45781 17.6311 4.26529 19.2636ZM6.07428 4.91918C6.26403 4.97671 6.44858 5.0217 6.60554 5.0217C7.06101 5.0217 7.45418 4.86366 7.87046 4.69639C8.58834 4.40794 9.33058 4.10965 10.5709 4.55274C10.6145 4.56833 10.6615 4.57187 10.707 4.56301C10.7524 4.55414 10.7947 4.53319 10.8292 4.50235C10.8638 4.47152 10.8894 4.43194 10.9034 4.38778C10.9174 4.34362 10.9192 4.29651 10.9087 4.2514L10.1677 1.07262C10.1515 1.00071 10.1643 0.925321 10.2033 0.862798C10.2424 0.800275 10.3045 0.755664 10.3762 0.738645C10.4479 0.721626 10.5234 0.733571 10.5864 0.771889C10.6493 0.810207 10.6947 0.871807 10.7125 0.943323L11.6521 4.72548C11.6686 4.79183 11.7108 4.84893 11.7693 4.88419C11.8279 4.91945 11.8981 4.93 11.9645 4.91351C12.0308 4.89702 12.0879 4.85484 12.1232 4.79626C12.1585 4.73767 12.169 4.66748 12.1525 4.60112L11.968 3.85849C12.7613 3.684 13.4292 4.00167 14.077 4.30967C14.3962 4.46143 14.6977 4.60482 15.0137 4.69419C15.5836 4.85537 16.1389 4.83655 16.5718 4.76952C16.3149 5.02273 15.9832 5.29829 15.6169 5.47597C14.9521 5.79431 14.2082 5.90999 13.4781 5.80859C13.4189 5.8002 13.3586 5.81267 13.3075 5.84385C13.2565 5.87504 13.2179 5.923 13.1983 5.97952C13.1788 6.03604 13.1795 6.0976 13.2003 6.15367C13.2211 6.20973 13.2608 6.25681 13.3125 6.28683C13.7815 6.56031 14.1606 6.96446 14.4036 7.44991C14.6014 7.85226 14.6975 8.29703 14.6832 8.74516C14.4646 8.5124 14.2235 8.27482 13.97 8.16182C13.8541 8.11373 13.7358 8.07169 13.6156 8.03587C13.0859 7.8661 12.2854 7.60954 11.6786 6.68876C11.6551 6.65312 11.6231 6.62386 11.5856 6.60362C11.548 6.58337 11.506 6.57276 11.4633 6.57275C11.4606 6.57275 11.4578 6.57275 11.455 6.57275C11.2005 6.58091 11.0824 6.82832 10.9456 7.11484C10.735 7.55557 10.4469 8.15898 9.72366 8.31878C9.62668 8.34026 9.40234 8.34886 9.18539 8.35689C8.90377 8.36751 8.66976 8.37872 8.47984 8.40326C8.5895 8.01224 8.79149 7.71945 8.98833 7.4341C9.30879 6.96952 9.64021 6.48917 9.34497 5.74916C9.3204 5.68756 9.27304 5.63779 9.21273 5.61021C9.15241 5.58262 9.08379 5.57934 9.02112 5.60105C8.6668 5.72385 7.74095 5.95907 6.79899 5.49264C6.5548 5.37216 6.29844 5.15108 6.07428 4.91918ZM6.68594 6.00925C7.57677 6.4065 8.43476 6.29555 8.93105 6.1666C8.99052 6.5229 8.81229 6.78132 8.56367 7.14165C8.29696 7.52837 7.96499 8.00962 7.89448 8.7428C7.88961 8.79345 7.89984 8.84441 7.92388 8.88926C7.94792 8.93411 7.9847 8.97085 8.02958 8.99483C8.07445 9.01882 8.12543 9.02899 8.17608 9.02406C8.22673 9.01913 8.27478 8.99933 8.3142 8.96714C8.42793 8.90187 8.93269 8.88279 9.20464 8.87261C9.46632 8.86268 9.69229 8.85417 9.8346 8.82276C10.8035 8.60886 11.1835 7.813 11.4107 7.3375C11.4233 7.31103 11.4371 7.28216 11.4512 7.2532C12.1269 8.10046 12.9482 8.36373 13.458 8.52714C13.5808 8.56649 13.6869 8.60053 13.7598 8.63305C13.9585 8.72157 14.2092 8.9921 14.4107 9.20948C14.5148 9.32189 14.6132 9.42806 14.7014 9.50695C14.735 9.53703 14.7759 9.55776 14.82 9.56708C14.8641 9.5764 14.9099 9.57399 14.9528 9.56007C14.9957 9.54615 15.0342 9.52123 15.0645 9.48778C15.0948 9.45433 15.1157 9.41353 15.1253 9.36945C15.2822 8.6448 15.1909 7.88842 14.8659 7.22196C14.7062 6.89924 14.4938 6.60545 14.2373 6.3527C14.6627 6.3293 15.0822 6.24202 15.4816 6.09382C18.2844 7.54139 20.0221 10.236 20.0221 13.1456C20.0221 17.6251 15.9748 21.2694 11 21.2694C6.02521 21.2694 1.97789 17.6251 1.97789 13.1456C1.97789 10.1606 3.77867 7.43668 6.68594 6.00925Z" fill="#F6A900"/>
<path d="M5.84602 18.5822C5.86845 18.6079 5.89577 18.6289 5.92639 18.644C5.957 18.6591 5.99031 18.6679 6.02437 18.6701C6.05844 18.6722 6.09258 18.6675 6.12482 18.6563C6.15707 18.6451 6.18677 18.6276 6.21221 18.6049C6.23764 18.5821 6.25831 18.5545 6.273 18.5237C6.2877 18.4929 6.29613 18.4595 6.29782 18.4254C6.2995 18.3914 6.2944 18.3573 6.2828 18.3252C6.27121 18.2931 6.25336 18.2636 6.23029 18.2384C5.91605 17.8876 5.63269 17.5104 5.38338 17.1108C5.36574 17.0816 5.34246 17.0561 5.3149 17.0359C5.28733 17.0157 5.25603 17.0012 5.22281 16.9932C5.18959 16.9852 5.15511 16.9839 5.12138 16.9894C5.08766 16.9949 5.05535 17.007 5.02634 17.025C4.99733 17.0431 4.9722 17.0667 4.95241 17.0946C4.93262 17.1224 4.91856 17.1539 4.91106 17.1872C4.90355 17.2206 4.90274 17.2551 4.90868 17.2887C4.91462 17.3224 4.92719 17.3545 4.94565 17.3832C5.21068 17.8081 5.51193 18.2092 5.84602 18.5822Z" fill="#F6A900"/>
<path d="M4.48069 15.8818C4.51272 15.8708 4.54226 15.8536 4.56763 15.8312C4.593 15.8087 4.6137 15.7815 4.62855 15.7511C4.6434 15.7206 4.65211 15.6876 4.65418 15.6538C4.65625 15.62 4.65165 15.5861 4.64062 15.5541C4.09632 13.9738 4.10333 12.2558 4.66052 10.6801C4.68331 10.6156 4.67956 10.5447 4.65009 10.483C4.62062 10.4213 4.56785 10.3738 4.50338 10.351C4.43891 10.3283 4.36803 10.332 4.30633 10.3615C4.24463 10.3909 4.19716 10.4437 4.17437 10.5082C3.57829 12.1938 3.57071 14.0316 4.15289 15.722C4.16388 15.754 4.18109 15.7836 4.20352 15.809C4.22595 15.8343 4.25317 15.855 4.28361 15.8699C4.31405 15.8847 4.34712 15.8934 4.38092 15.8954C4.41473 15.8975 4.4486 15.8928 4.48061 15.8818L4.48069 15.8818Z" fill="#F6A900"/>
</svg>
