<svg width="22" height="22" viewBox="0 0 22 22" fill="none" xmlns="http://www.w3.org/2000/svg">
<g clip-path="url(#clip0)">
<path d="M19.2961 8.14464C18.4924 7.00813 17.2258 6.20178 15.5316 5.74791C13.5955 5.22952 12.2199 5.77191 11.3691 6.37276C11.3588 6.0332 11.3165 5.597 11.2049 5.08434L12.2164 4.12101C12.6686 4.35084 13.6007 4.74365 14.6918 4.74352C15.344 4.74352 16.0532 4.60307 16.7502 4.2036C19.0428 2.88958 19.0407 1.30354 19.0394 1.23669C19.0376 1.13417 18.9886 1.03825 18.9067 0.976524C18.8136 0.9064 16.598 -0.728033 14.1665 0.389874C11.9305 1.41793 11.7787 3.24173 11.7721 3.62375L11.0095 4.35004C10.9385 4.12381 10.8541 3.88718 10.7544 3.64141C9.96778 1.70362 9.42726 1.36693 9.23142 1.31214C9.05445 1.26235 8.87027 1.36594 8.82068 1.54324C8.77449 1.70829 8.86107 1.8792 9.01632 1.94192C9.06118 1.97125 9.48252 2.28027 10.1368 3.89218C10.5777 4.97829 10.6876 5.86756 10.702 6.42395C9.8576 5.80344 8.45933 5.21465 6.46842 5.74791C4.77419 6.20178 3.5077 7.00813 2.70402 8.14464C1.92993 9.23928 1.61824 10.5868 1.77768 12.1495C2.02172 14.5405 3.327 16.5427 4.10682 17.7389C4.29179 18.0228 4.45157 18.2679 4.54162 18.4368C4.70887 18.7504 4.79852 19.0224 4.88517 19.2853C5.03475 19.7395 5.18946 20.2091 5.71006 20.8097C6.56733 21.7988 8.2437 22.2505 9.60983 21.8603C10.2827 21.668 10.7251 21.3744 11 21.1274C11.2749 21.3744 11.7173 21.668 12.3902 21.8603C12.7213 21.9549 13.0705 22 13.422 22C14.5206 22 15.6404 21.5591 16.29 20.8097C16.8106 20.2091 16.9653 19.7394 17.1149 19.2853C17.2015 19.0223 17.2911 18.7503 17.4584 18.4367C17.5484 18.2679 17.7082 18.0228 17.8932 17.7389C18.673 16.5427 19.9783 14.5405 20.2223 12.1495C20.3818 10.5868 20.0701 9.23928 19.2961 8.14464ZM14.4448 0.995521C16.1797 0.197968 17.8523 1.09304 18.354 1.40793C18.2843 1.78441 17.9568 2.74367 16.4186 3.62535C14.7856 4.56141 12.9918 3.77226 12.4479 3.48843C12.4965 3.0251 12.7832 1.75941 14.4448 0.995521ZM19.5591 12.0818C19.3315 14.312 18.0816 16.2294 17.3347 17.375C17.1331 17.6842 16.9739 17.9284 16.8701 18.1231C16.6758 18.4874 16.5726 18.8005 16.4817 19.0768C16.3408 19.5044 16.2192 19.8736 15.7862 20.3733C15.0989 21.1662 13.6879 21.5379 12.5733 21.2194C11.7989 20.9981 11.4179 20.6347 11.2597 20.4376C11.1965 20.3589 11.101 20.313 10.9999 20.313C10.8988 20.313 10.8032 20.3589 10.74 20.4377C10.582 20.6347 10.2011 20.9981 9.42666 21.2194C8.31202 21.5379 6.90095 21.1662 6.21372 20.3733C5.78071 19.8737 5.65906 19.5044 5.51822 19.0769C5.42716 18.8005 5.32398 18.4874 5.12974 18.1231C5.02589 17.9284 4.86664 17.6842 4.66507 17.375C3.91825 16.2294 2.66829 14.312 2.44072 12.0818C2.14836 9.21642 3.63995 7.19571 6.64079 6.39189C8.80662 5.81157 10.1511 6.74184 10.7613 7.35048C10.7851 7.37495 10.8129 7.39594 10.8438 7.41227C10.8809 7.43194 10.9208 7.44414 10.9614 7.4488C11.0082 7.4542 11.0539 7.44974 11.0966 7.43674C11.1414 7.42321 11.1839 7.39994 11.221 7.36708C11.227 7.36175 11.2329 7.35615 11.2385 7.35042C11.8487 6.7417 13.1932 5.81157 15.359 6.39189C18.3599 7.19564 19.8515 9.21642 19.5591 12.0818Z" fill="#F6A900"/>
<path d="M5.28845 7.84128C5.22039 7.86728 3.61702 8.49586 3.24521 10.0924C3.20348 10.2717 3.315 10.4508 3.49424 10.4926C3.51964 10.4985 3.5451 10.5013 3.5701 10.5013C3.72154 10.5013 3.85859 10.3975 3.89445 10.2435C4.18467 8.99712 5.51348 8.469 5.52688 8.4638C5.69826 8.39787 5.78411 8.20557 5.71866 8.03392C5.65306 7.86188 5.46009 7.77576 5.28845 7.84128Z" fill="#F6A900"/>
<path opacity="0.35" d="M14.2758 2.89399C13.042 3.49995 11.9948 2.90092 12.1593 2.24602C12.3238 1.59113 12.6151 1.60702 14.042 0.893972C15.042 0.394238 17.2064 0.345108 17.042 1C16.8775 1.65489 15.042 2.49999 14.2758 2.89399Z" fill="#F9DF09"/>
<path opacity="0.35" d="M14.5 13C14.5 16.866 12.866 21.5 9 21.5C5.13401 21.5 3 16.5 2 12C2 8.13401 3.63401 6 7.5 6C11.366 6 13.5 9.5 14.5 13Z" fill="#F9DF09"/>
</g>
<defs>
<clipPath id="clip0">
<rect width="22" height="22" fill="white"/>
</clipPath>
</defs>
</svg>
