<svg width="22" height="22" viewBox="0 0 22 22" fill="none" xmlns="http://www.w3.org/2000/svg">
<g clip-path="url(#clip0)">
<path d="M15.6594 3.15469C14.1065 1.92995 12.0821 1.22754 10.1054 1.22754C9.90203 1.22754 9.73711 1.39241 9.73711 1.59582C9.73711 1.79924 9.90199 1.96407 10.1054 1.96407C11.9197 1.96407 13.7779 2.60882 15.2034 3.73301C16.3478 4.63548 17.1167 5.81249 17.1167 6.66172C17.1167 6.86509 17.2815 7.03001 17.4849 7.03001C17.6883 7.03001 17.8532 6.86514 17.8532 6.66172C17.8532 5.56563 17.0126 4.22182 15.6594 3.15469Z" fill="#F6A900"/>
<path d="M18.9938 8.99359C18.7985 8.83959 18.5955 8.69638 18.386 8.56433C18.8473 8.0222 19.0807 7.38419 19.0807 6.66167C19.0807 5.17628 18.0858 3.50488 16.4195 2.19077C14.6282 0.778037 12.3857 0 10.1054 0C7.82501 0 5.58255 0.778037 3.79118 2.19081C2.12485 3.50493 1.12999 5.17633 1.12999 6.66172C1.12999 8.04987 1.97042 9.10217 3.62803 9.78946C4.46918 10.1383 5.52287 10.3913 6.77597 10.5468L6.28444 16.5155C6.26867 16.6587 6.26073 16.8027 6.26073 16.9437C6.26073 19.0601 7.98545 20.782 10.1054 20.782C10.7866 20.782 11.438 20.6073 12.0162 20.2742C12.1344 20.5665 12.302 20.8396 12.5163 21.0793C13.0396 21.6644 13.7899 22 14.5749 22C15.3599 22 16.1103 21.6644 16.6335 21.0793C17.1556 20.4955 17.4056 19.7147 17.32 18.9365L16.9909 14.9374C17.7281 14.8397 18.3647 14.692 18.8944 14.4946C20.5273 13.8861 20.87 12.8904 20.87 12.1623C20.8699 11.1046 20.1686 9.92 18.9938 8.99359ZM3.91007 9.10914C2.53503 8.5389 1.86656 7.73834 1.86656 6.66167C1.86656 5.41876 2.77883 3.92722 4.24729 2.76908C5.90941 1.45836 7.98979 0.736486 10.1054 0.736486C12.221 0.736486 14.3015 1.45832 15.9635 2.76908C17.432 3.92722 18.3442 5.41871 18.3442 6.66167C18.3442 7.25752 18.1416 7.76159 17.7267 8.196C16.7508 7.71647 15.6691 7.46046 14.5749 7.46046C12.9791 7.46046 11.4097 8.00496 10.1561 8.99364C9.76827 9.29944 9.43243 9.63348 9.15605 9.98166C6.91677 9.91759 5.15243 9.62429 3.91007 9.10914ZM11.8298 18.9365C11.8081 19.1332 11.8081 19.3301 11.8284 19.524C11.3188 19.8654 10.7276 20.0454 10.1054 20.0454C8.39151 20.0454 6.99721 18.654 6.99721 16.9436C6.99721 16.8281 7.00387 16.7096 7.01702 16.5916C7.01741 16.5882 7.01775 16.5846 7.01805 16.5811L7.50854 10.6245C7.88374 10.658 8.27437 10.6837 8.68077 10.7015C8.4206 11.1909 8.27992 11.6892 8.27992 12.1623C8.27992 13.4815 9.35422 14.1588 10.2555 14.4946C10.7852 14.692 11.4218 14.8397 12.159 14.9374L11.8298 18.9365ZM16.0845 20.5883C15.7008 21.0173 15.1505 21.2635 14.5749 21.2635C13.9993 21.2635 13.4491 21.0174 13.0654 20.5883C12.6817 20.1592 12.4983 19.5849 12.5624 19.0129C12.5628 19.0093 12.5632 19.0057 12.5634 19.0021L12.8916 15.015C13.4116 15.0577 13.9726 15.0796 14.5749 15.0796C15.1772 15.0796 15.7382 15.0577 16.2582 15.015L16.5864 19.0021C16.5867 19.0056 16.5871 19.0092 16.5875 19.0129C16.6516 19.5849 16.4682 20.1592 16.0845 20.5883ZM14.5749 14.3431C12.499 14.3431 9.01645 14.0598 9.01645 12.1622C9.01645 11.3407 9.62785 10.3481 10.6121 9.57191C11.7364 8.68529 13.1438 8.19699 14.575 8.19699C16.0061 8.19699 17.4135 8.68525 18.5378 9.57191C19.5221 10.3481 20.1335 11.3407 20.1335 12.1622C20.1334 14.0598 16.6509 14.3431 14.5749 14.3431Z" fill="#F6A900"/>
<path d="M18.2337 9.95746C17.2107 9.15072 15.8771 8.68799 14.5749 8.68799C14.3716 8.68799 14.2067 8.85286 14.2067 9.05623C14.2067 9.2596 14.3716 9.42452 14.5749 9.42452C15.7147 9.42452 16.8821 9.82954 17.7776 10.5358C18.6054 11.1886 18.9059 11.8661 18.9059 12.1622C18.9059 12.3656 19.0708 12.5305 19.2741 12.5305C19.4775 12.5305 19.6424 12.3656 19.6424 12.1622C19.6424 11.4977 19.0895 10.6323 18.2337 9.95746Z" fill="#F6A900"/>
<ellipse opacity="0.35" cx="7.1592" cy="5.58197" rx="5.8505" ry="4.5" transform="rotate(-13.5141 7.1592 5.58197)" fill="#F9DF09"/>
<ellipse opacity="0.35" cx="13.5383" cy="11.4962" rx="5.01686" ry="2.98814" transform="rotate(-13.5141 13.5383 11.4962)" fill="#F9DF09"/>
</g>
<defs>
<clipPath id="clip0">
<rect width="22" height="22" fill="white"/>
</clipPath>
</defs>
</svg>
