<svg width="329" height="306" viewBox="0 0 329 306" fill="none" xmlns="http://www.w3.org/2000/svg">
<path d="M116.06 145.076C115.923 145.087 115.79 145.125 115.668 145.187C115.546 145.249 115.438 145.333 115.35 145.435C115.261 145.538 115.195 145.656 115.154 145.783C115.112 145.91 115.097 146.044 115.11 146.177C115.122 146.31 115.161 146.44 115.224 146.558C115.288 146.676 115.375 146.781 115.48 146.867C115.585 146.953 115.707 147.017 115.838 147.057C115.969 147.098 116.107 147.112 116.244 147.1C116.521 147.077 116.776 146.947 116.954 146.741C117.132 146.534 117.219 146.267 117.194 145.999C117.17 145.73 117.037 145.482 116.824 145.309C116.611 145.136 116.336 145.052 116.06 145.076Z" fill="#2D1E1E"/>
<path d="M71.1926 211.287C71.2518 211.849 71.8963 212.251 72.3041 212.564C73.2971 213.356 74.3823 214.052 75.3359 214.883C76.1777 215.611 77.3089 214.308 76.4671 213.605C75.8949 213.101 75.2373 212.673 74.6256 212.206C74.2113 211.893 73.797 211.568 73.3958 211.255L73.2906 211.165C73.2653 211.043 73.2119 210.928 73.1345 210.828C73.0571 210.729 72.9576 210.647 72.8433 210.59C72.1857 210.239 71.0874 210.29 71.1926 211.287Z" fill="#2D1E1E"/>
<path d="M68.1219 216.537L73.9686 218.319C75.0537 218.645 75.4681 216.99 74.3895 216.665L72.1534 215.981C72.0972 215.887 72.0213 215.806 71.9307 215.742C71.8401 215.678 71.7367 215.634 71.6273 215.611L68.5428 214.883C68.3169 214.829 68.0781 214.864 67.879 214.98C67.6798 215.097 67.5365 215.286 67.4807 215.506C67.4249 215.725 67.4611 215.957 67.5813 216.15C67.7016 216.344 67.896 216.483 68.1219 216.537Z" fill="#2D1E1E"/>
<path d="M67.3006 221.749L72.7592 221.608C72.9791 221.585 73.1819 221.482 73.3274 221.32C73.4729 221.159 73.5505 220.95 73.5447 220.735C73.5389 220.52 73.4502 220.316 73.2961 220.161C73.1421 220.007 72.934 219.915 72.7132 219.903L67.2545 220.044C67.0347 220.067 66.8318 220.17 66.6863 220.331C66.5408 220.493 66.4633 220.702 66.4691 220.917C66.4748 221.131 66.5636 221.336 66.7176 221.49C66.8717 221.644 67.0797 221.737 67.3006 221.749Z" fill="#2D1E1E"/>
<path d="M250.455 228.424C250.007 228.067 249.251 228.22 248.725 228.271C247.449 228.386 246.173 228.635 244.897 228.699C243.766 228.756 243.911 230.462 245.035 230.404C245.812 230.36 246.588 230.219 247.357 230.13L248.922 229.964H249.06C249.167 230.034 249.289 230.08 249.417 230.097C249.544 230.115 249.674 230.104 249.797 230.066C250.507 229.855 251.231 229.069 250.455 228.424Z" fill="#FCBA1B"/>
<path d="M248.824 222.605L243.385 225.339C242.378 225.85 243.286 227.306 244.286 226.802L246.37 225.754C246.481 225.783 246.596 225.79 246.71 225.773C246.823 225.757 246.931 225.718 247.028 225.658L249.744 224.068C249.843 224.009 249.929 223.932 249.997 223.841C250.066 223.75 250.115 223.647 250.142 223.538C250.169 223.428 250.174 223.315 250.156 223.203C250.138 223.092 250.097 222.985 250.037 222.889C249.976 222.793 249.897 222.71 249.803 222.644C249.71 222.577 249.604 222.53 249.491 222.503C249.378 222.477 249.261 222.472 249.147 222.49C249.032 222.507 248.922 222.546 248.824 222.605Z" fill="#FCBA1B"/>
<path d="M245.634 218.345L241.859 222.177C241.717 222.344 241.644 222.557 241.657 222.773C241.669 222.989 241.766 223.193 241.927 223.343C242.088 223.493 242.301 223.578 242.524 223.581C242.747 223.584 242.963 223.504 243.129 223.359L246.904 219.526C247.065 219.363 247.153 219.144 247.148 218.918C247.143 218.691 247.046 218.476 246.877 218.319C246.709 218.163 246.484 218.077 246.25 218.082C246.017 218.087 245.796 218.181 245.634 218.345Z" fill="#FCBA1B"/>
<path d="M209.836 148.691C209.778 148.606 209.7 148.535 209.609 148.483C209.518 148.432 209.416 148.401 209.311 148.393C209.206 148.385 209.101 148.4 209.002 148.437C208.904 148.475 208.816 148.533 208.745 148.608C208.06 149.241 207.491 149.982 207.061 150.799C206.779 150.443 206.415 150.155 205.998 149.959C205.581 149.763 205.123 149.663 204.661 149.669C204.158 149.691 203.677 149.867 203.283 150.171C202.89 150.474 202.606 150.891 202.47 151.361C202.207 152.517 203.036 153.348 203.911 153.999C205.673 155.277 207.706 156.369 209.573 157.525C209.641 157.572 209.718 157.604 209.8 157.618C209.882 157.633 209.967 157.629 210.047 157.608C210.05 157.623 210.05 157.638 210.047 157.653C209.764 158.47 211.112 158.745 211.395 157.934C211.939 156.388 212.081 154.735 211.81 153.123C211.538 151.51 210.86 149.988 209.836 148.691ZM210.362 156.477C210.316 156.42 210.26 156.371 210.198 156.331L206.436 154.006C205.783 153.688 205.174 153.294 204.621 152.83C202.74 150.793 205.608 150.767 206.627 152.517C206.685 152.625 206.774 152.714 206.883 152.774C206.992 152.834 207.116 152.863 207.241 152.857C207.366 152.851 207.487 152.81 207.589 152.74C207.691 152.67 207.77 152.572 207.817 152.46C208.119 151.607 208.578 150.815 209.172 150.122C210.4 152.007 210.827 154.281 210.362 156.465V156.477Z" fill="#FCBA1B"/>
<path d="M63.6953 191.677C63.6367 191.592 63.559 191.521 63.468 191.469C63.3771 191.417 63.2752 191.386 63.1701 191.378C63.0651 191.37 62.9595 191.386 62.8613 191.423C62.7632 191.46 62.675 191.519 62.6035 191.594C61.9192 192.227 61.35 192.968 60.9199 193.785C60.6388 193.431 60.2768 193.145 59.8625 192.95C59.4482 192.755 58.9929 192.656 58.5326 192.661C58.0297 192.68 57.5462 192.855 57.1524 193.159C56.7586 193.464 56.4749 193.882 56.3425 194.353C56.0795 195.503 56.9081 196.34 57.7828 196.985C59.5454 198.262 61.571 199.355 63.4454 200.511C63.5123 200.559 63.5899 200.592 63.672 200.606C63.7542 200.621 63.8387 200.617 63.9189 200.594C63.9218 200.611 63.9218 200.628 63.9189 200.645C63.6361 201.456 64.9843 201.731 65.2342 200.926C65.781 199.38 65.9266 197.728 65.6581 196.114C65.3897 194.501 64.7155 192.977 63.6953 191.677ZM64.2214 199.463C64.1745 199.408 64.119 199.361 64.057 199.323L60.2951 196.991C59.6425 196.676 59.0328 196.284 58.4799 195.823C56.599 193.785 59.4664 193.753 60.453 195.51C60.512 195.617 60.6014 195.705 60.7105 195.765C60.8197 195.825 60.9441 195.853 61.0691 195.846C61.1941 195.839 61.3146 195.798 61.4163 195.727C61.518 195.656 61.5968 195.559 61.6433 195.446C61.9468 194.596 62.4057 193.806 62.9981 193.114C64.2407 194.996 64.6795 197.273 64.2214 199.463Z" fill="#FCBA1B"/>
<path d="M112.167 134.594C110.812 134.645 109.464 134.728 108.115 134.856C107.649 134.007 107.149 133.176 106.609 132.352C106.366 131.976 105.761 132.199 105.702 132.595L105.34 135.15C103.722 135.361 102.111 135.616 100.506 135.936C100.408 135.953 100.318 135.997 100.245 136.062C100.172 136.128 100.12 136.212 100.095 136.306C100.07 136.399 100.073 136.498 100.104 136.59C100.135 136.681 100.192 136.763 100.269 136.824C101.646 137.787 103.168 138.539 104.781 139.053L104.485 141.161C104.481 141.284 104.524 141.405 104.607 141.5C104.689 141.594 104.805 141.656 104.932 141.672C105.058 141.688 105.186 141.657 105.291 141.586C105.396 141.515 105.47 141.409 105.498 141.288L105.774 139.334C106.274 139.455 106.787 139.557 107.3 139.634L107.234 139.743C106.918 140.305 107.892 140.682 108.175 140.126C108.247 140.004 108.319 139.883 108.398 139.762C108.802 139.796 109.209 139.815 109.622 139.819C109.71 139.829 109.8 139.816 109.881 139.782C109.963 139.748 110.035 139.694 110.088 139.625C110.142 139.556 110.176 139.475 110.188 139.389C110.2 139.303 110.188 139.216 110.154 139.136C110.003 138.753 109.839 138.369 109.674 137.992C110.505 137.013 111.475 136.152 112.555 135.437C113.015 135.176 112.627 134.582 112.167 134.594ZM106.517 134.103C106.688 134.39 106.859 134.677 107.017 134.965L106.359 135.029L106.517 134.103ZM101.914 136.696C103.005 136.496 104.101 136.323 105.202 136.178C105.11 136.817 105.018 137.456 104.932 138.095C103.871 137.74 102.854 137.27 101.9 136.696H101.914ZM105.925 138.357L106.254 136.044L107.57 135.904C107.912 136.542 108.227 137.181 108.53 137.858C108.313 138.139 108.109 138.427 107.905 138.721C107.224 138.644 106.55 138.522 105.886 138.357H105.925ZM108.635 135.802C109.293 135.744 109.95 135.699 110.647 135.661C110.142 136.075 109.667 136.523 109.227 137.002C109.023 136.6 108.832 136.198 108.622 135.802H108.635Z" fill="#FCBA1B"/>
<path d="M97.9415 136.043C92.2578 137.896 87.3104 141.424 83.7883 146.135C83.3477 146.723 84.2684 147.413 84.7091 146.825C88.1164 142.277 92.9013 138.876 98.3953 137.097C99.1056 136.848 98.6518 135.813 97.9415 136.043Z" fill="#FCBA1B"/>
<path d="M98.1247 139.966C96.1988 141.16 94.5573 142.739 93.3098 144.599C92.0623 146.458 91.2375 148.554 90.8904 150.748C90.772 151.463 91.9229 151.61 92.0413 150.894C92.3695 148.847 93.1457 146.893 94.3176 145.162C95.4896 143.431 97.03 141.964 98.835 140.86C99.4664 140.47 98.7495 139.582 98.1247 139.966Z" fill="#FCBA1B"/>
<path d="M100.499 142.693C97.9026 145.257 96.1965 148.544 95.6188 152.095C95.4938 152.811 96.6513 152.951 96.7697 152.236C97.3249 148.884 98.9516 145.787 101.419 143.383C101.939 142.866 101.018 142.182 100.499 142.693Z" fill="#FCBA1B"/>
<path d="M244.121 202.434C245.21 203.124 246.193 203.961 247.041 204.919C246.883 205.302 246.725 205.685 246.581 206.068C246.548 206.149 246.537 206.237 246.55 206.323C246.563 206.409 246.599 206.49 246.654 206.559C246.709 206.627 246.782 206.68 246.865 206.713C246.948 206.746 247.038 206.757 247.127 206.745C247.534 206.745 247.942 206.745 248.35 206.675L248.573 207.033C248.889 207.588 249.83 207.192 249.507 206.637L249.442 206.528C249.953 206.445 250.461 206.337 250.961 206.202C251.066 206.841 251.165 207.48 251.27 208.157C251.279 208.221 251.302 208.283 251.336 208.339C251.37 208.394 251.415 208.443 251.468 208.482C251.522 208.521 251.583 208.549 251.647 208.565C251.712 208.581 251.779 208.584 251.845 208.575C251.911 208.566 251.975 208.544 252.032 208.511C252.09 208.478 252.14 208.434 252.18 208.382C252.22 208.331 252.249 208.272 252.266 208.209C252.282 208.146 252.286 208.081 252.276 208.016C252.171 207.314 252.059 206.611 251.947 205.909C253.555 205.373 255.068 204.6 256.433 203.616C256.508 203.553 256.563 203.471 256.592 203.378C256.621 203.286 256.621 203.188 256.594 203.095C256.567 203.003 256.514 202.919 256.44 202.855C256.365 202.791 256.274 202.749 256.176 202.734C254.565 202.44 252.954 202.204 251.336 202.012L250.928 199.457C250.913 199.361 250.869 199.27 250.802 199.198C250.735 199.125 250.647 199.073 250.549 199.049C250.452 199.024 250.349 199.028 250.254 199.06C250.159 199.092 250.075 199.15 250.014 199.227C249.496 200.054 249.008 200.895 248.547 201.75C247.199 201.642 245.851 201.578 244.496 201.546C244.036 201.54 243.654 202.14 244.121 202.434ZM250.283 201.897L249.626 201.84C249.79 201.552 249.948 201.259 250.119 200.978L250.283 201.897ZM251.789 204.912L251.494 202.996C252.598 203.13 253.697 203.29 254.782 203.469C253.843 204.053 252.839 204.533 251.789 204.899V204.912ZM248.85 205.615C248.646 205.321 248.435 205.034 248.192 204.759C248.488 204.12 248.797 203.437 249.126 202.792L250.441 202.913C250.566 203.679 250.685 204.446 250.803 205.219C250.161 205.39 249.509 205.522 248.85 205.615ZM247.482 203.916C247.036 203.441 246.557 202.997 246.048 202.587C246.706 202.619 247.363 202.657 248.054 202.709C247.857 203.105 247.666 203.507 247.482 203.916Z" fill="#2D1E1E"/>
<path d="M258.742 202.792C264.452 204.554 269.453 208.004 273.046 212.66C273.5 213.235 272.592 213.937 272.139 213.356C268.666 208.864 263.839 205.535 258.327 203.833C257.597 203.622 258.032 202.568 258.742 202.792Z" fill="#2D1E1E"/>
<path d="M258.616 206.72C260.562 207.884 262.229 209.438 263.505 211.279C264.781 213.12 265.637 215.204 266.015 217.393C266.146 218.108 264.995 218.268 264.871 217.553C264.51 215.512 263.703 213.57 262.505 211.856C261.307 210.143 259.746 208.699 257.925 207.62C257.288 207.237 257.985 206.337 258.616 206.72Z" fill="#2D1E1E"/>
<path d="M256.289 209.479C258.923 212.003 260.68 215.263 261.313 218.804C261.445 219.52 260.294 219.679 260.162 218.964C259.556 215.622 257.883 212.55 255.381 210.181C254.848 209.67 255.762 208.974 256.289 209.479Z" fill="#2D1E1E"/>
<path d="M236.129 173.171C235.969 172.901 235.725 172.686 235.432 172.558C235.14 172.43 234.813 172.394 234.498 172.456C234.205 172.511 233.93 172.634 233.696 172.813C233.557 172.411 233.299 172.057 232.953 171.798C232.881 171.742 232.796 171.705 232.705 171.691C232.615 171.677 232.522 171.687 232.436 171.718C232.35 171.75 232.275 171.803 232.216 171.872C232.158 171.941 232.119 172.023 232.104 172.111V172.181C232.04 172.171 231.975 172.174 231.913 172.19C231.85 172.205 231.791 172.233 231.74 172.271C231.689 172.309 231.647 172.357 231.615 172.412C231.584 172.467 231.565 172.527 231.558 172.59C231.333 174.262 231.778 175.954 232.801 177.316C232.882 177.426 233.004 177.5 233.141 177.523C233.277 177.546 233.418 177.515 233.531 177.438C234.344 176.829 235.047 176.093 235.61 175.26C235.991 174.666 236.504 173.899 236.129 173.171Z" fill="#2D1E1E"/>
<path d="M132.245 129.248C131.928 129.195 131.602 129.24 131.313 129.377C131.024 129.513 130.787 129.734 130.633 130.008C130.49 130.261 130.411 130.543 130.403 130.832C129.996 130.684 129.553 130.651 129.127 130.736C129.037 130.754 128.952 130.795 128.883 130.855C128.814 130.914 128.761 130.991 128.732 131.076C128.702 131.161 128.695 131.252 128.713 131.34C128.73 131.429 128.771 131.511 128.831 131.579L128.877 131.63C128.792 131.716 128.745 131.831 128.745 131.95C128.745 132.069 128.792 132.183 128.877 132.269C130.058 133.507 131.682 134.257 133.415 134.364C133.554 134.373 133.69 134.328 133.795 134.24C133.9 134.151 133.964 134.026 133.974 133.892C134.011 132.898 133.878 131.905 133.58 130.953C133.336 130.302 133.054 129.433 132.245 129.248Z" fill="#2D1E1E"/>
<path d="M159.079 118.935C158.54 119.057 157.994 119.159 157.448 119.255C157.231 118.539 157.014 117.817 156.79 117.089C156.567 116.361 155.363 116.757 155.58 117.53C155.758 118.169 155.948 118.807 156.139 119.446C155.613 119.523 155.087 119.58 154.561 119.625C154.33 118.641 154.107 117.651 153.903 116.655C153.752 115.869 152.463 115.972 152.588 116.77C152.778 117.779 152.995 118.782 153.245 119.785C153.127 119.855 153.035 119.959 152.981 120.083C152.927 120.207 152.915 120.344 152.947 120.475C152.978 120.606 153.051 120.724 153.156 120.812C153.26 120.9 153.39 120.954 153.528 120.966C153.646 121.439 153.778 121.905 153.91 122.378C153.835 122.458 153.782 122.554 153.756 122.659C153.731 122.764 153.733 122.874 153.762 122.978C153.792 123.082 153.848 123.177 153.925 123.254C154.003 123.331 154.099 123.388 154.206 123.419C154.377 124.007 154.554 124.601 154.745 125.188C154.995 125.955 156.205 125.514 155.955 124.748C155.797 124.249 155.646 123.751 155.501 123.259L157.251 122.991C157.5 123.719 157.75 124.441 158.02 125.163C158.1 125.29 158.222 125.386 158.367 125.435C158.512 125.483 158.67 125.481 158.813 125.429C158.957 125.377 159.077 125.278 159.153 125.149C159.229 125.019 159.256 124.869 159.23 124.722C158.993 124.083 158.77 123.445 158.572 122.806H158.717C159.539 122.678 159.427 121.426 158.605 121.528L158.171 121.592C158.046 121.215 157.915 120.832 157.796 120.455C158.369 120.353 158.941 120.238 159.506 120.11C160.342 119.932 159.881 118.756 159.079 118.935ZM155.199 122.046C155.087 121.656 154.975 121.26 154.876 120.87C155.429 120.813 155.981 120.749 156.534 120.666C156.652 121.043 156.777 121.413 156.895 121.79L155.199 122.046Z" fill="#2D1E1E"/>
<path d="M214.441 129.433C213.849 127.741 213.346 126.02 212.935 124.278C212.982 123.463 212.838 122.649 212.514 121.896C212.471 121.799 212.394 121.72 212.297 121.673C212.2 121.625 212.089 121.612 211.983 121.635C211.877 121.659 211.783 121.717 211.717 121.801C211.65 121.885 211.616 121.988 211.62 122.094C211.712 122.854 211.844 123.601 212.008 124.348C211.947 125.028 211.722 125.685 211.35 126.265C210.983 125.797 210.755 125.24 210.693 124.655C210.693 124.189 210.693 123.812 210.693 123.601C210.693 123.09 209.844 123.065 209.772 123.563C209.719 123.924 209.708 124.291 209.739 124.655C209.739 125.217 209.673 125.766 209.594 126.322C209.535 126.782 209.516 128.168 209.18 128.5C208.845 128.832 208.522 128.979 208.24 128.928C208.943 126.961 209.351 124.304 207.582 124.253C205.405 124.189 206.122 127.663 207.135 129.254C207.055 129.434 206.951 129.604 206.826 129.758C206.747 130.295 206.47 130.397 205.997 129.976C205.735 129.644 205.527 129.276 205.379 128.883C205.314 128.719 205.261 128.55 205.221 128.379C205.335 127.653 205.315 126.913 205.162 126.194C205.037 125.754 204.34 125.856 204.267 126.271C204.139 127.008 204.152 127.762 204.307 128.494C204.208 129.292 203.932 129.937 203.268 129.509C203.224 129.483 203.178 129.461 203.13 129.445C202.788 128.602 202.472 127.759 202.097 126.89C201.873 126.354 201.005 126.661 201.229 127.203C201.843 128.698 202.457 130.188 203.07 131.675C203.149 131.873 203.228 132.071 203.314 132.275C203.544 132.805 204.405 132.499 204.182 131.956L203.938 131.355C203.824 131.074 203.726 130.787 203.643 130.493C203.889 130.49 204.13 130.416 204.333 130.281C204.537 130.146 204.695 129.955 204.787 129.733C204.917 129.981 205.069 130.219 205.241 130.442C205.793 131.144 206.523 131.611 207.214 130.844C207.446 130.558 207.636 130.242 207.779 129.905C209.522 130.953 210.206 128.756 210.476 126.629C210.645 126.857 210.834 127.071 211.041 127.267C211.136 127.344 211.259 127.382 211.382 127.371C211.506 127.36 211.62 127.302 211.699 127.21C211.956 126.864 212.176 126.494 212.357 126.105C212.692 127.306 213.073 128.494 213.475 129.688C213.744 130.301 214.626 129.988 214.441 129.433ZM207.207 126.712C207.154 126.156 207.404 124.578 207.865 125.747C208.055 126.213 207.865 127.286 207.575 128.219C207.375 127.737 207.251 127.229 207.207 126.712Z" fill="#2D1E1E"/>
<path d="M212.474 116.275C209.147 114.691 204.043 116.601 201.564 118.971C199.781 120.683 199.38 122.937 199.104 125.262C198.695 128.105 197.867 130.876 196.644 133.489L195.585 134.549C195.535 134.61 195.502 134.683 195.489 134.76C195.477 134.837 195.484 134.916 195.512 134.989C195.54 135.062 195.587 135.127 195.648 135.178C195.709 135.228 195.783 135.263 195.862 135.278C201.246 135.819 206.677 135.759 212.047 135.099C214.079 134.831 215.48 134.096 216.381 132.269C217.287 130.401 217.738 128.355 217.696 126.291C217.617 122.72 216.019 117.962 212.474 116.275ZM216.749 126.84C216.69 129.35 215.96 133.227 213.119 134.007C210.488 134.735 207.384 134.645 204.694 134.709C202.201 134.759 199.708 134.685 197.223 134.486C197.295 134.32 197.368 134.147 197.447 133.981L197.572 133.853C197.628 133.805 197.668 133.742 197.687 133.671C197.706 133.6 197.702 133.526 197.677 133.457C198.532 131.61 199.193 129.684 199.65 127.709C200.163 125.262 199.919 122.471 201.518 120.363C202.912 118.517 205.279 117.534 207.496 116.971C208.982 116.595 210.62 116.403 212.054 117.093C213.225 117.745 214.188 118.7 214.835 119.852C216.147 121.956 216.811 124.381 216.749 126.84Z" fill="#2D1E1E"/>
<path d="M81.6896 175.702C81.5711 176.184 81.5115 176.677 81.512 177.172C81.512 178.104 81.2884 179.247 79.7232 177.925C79.4311 177.666 79.1767 177.37 78.9668 177.044C79.4769 176.124 79.7648 175.104 79.8087 174.061C79.8601 173.652 79.7746 173.238 79.565 172.881C79.3553 172.523 79.0326 172.24 78.6446 172.074C78.3208 171.958 77.9628 171.969 77.6478 172.107C77.3328 172.244 77.0861 172.496 76.9609 172.809C76.3953 173.972 76.9609 175.747 77.9014 177.184L77.8291 177.331C77.5414 176.795 77.1784 176.301 76.7505 175.862C76.4386 175.497 76.0219 175.23 75.5534 175.096C75.0848 174.962 74.5858 174.966 74.1198 175.108C74.0113 175.145 73.9057 175.19 73.8041 175.243C73.7843 174.889 73.6793 174.545 73.4977 174.237C73.3161 173.93 73.0629 173.668 72.7584 173.473C72.4094 173.254 71.9995 173.145 71.5842 173.159C71.1689 173.174 70.7683 173.313 70.4368 173.556C70.1889 173.771 70.0299 174.066 69.9896 174.387C69.9143 174.317 69.8168 174.274 69.713 174.264C69.6093 174.255 69.5053 174.281 69.4183 174.336C69.3312 174.392 69.2662 174.474 69.2338 174.571C69.2014 174.667 69.2035 174.771 69.2399 174.866C70.4711 177.726 71.8564 180.521 73.3898 183.24C73.414 183.293 73.4487 183.341 73.4921 183.381C73.5354 183.421 73.5864 183.453 73.6423 183.474C73.6982 183.495 73.7578 183.505 73.8177 183.504C73.8776 183.503 73.9367 183.49 73.9916 183.466C74.0464 183.443 74.0959 183.409 74.1374 183.367C74.1788 183.325 74.2112 183.275 74.2329 183.221C74.2546 183.167 74.2651 183.109 74.2637 183.051C74.2624 182.993 74.2492 182.935 74.225 182.882C73.4972 181.179 72.7803 179.486 72.0744 177.804C71.8311 177.21 71.009 175.971 71.0814 175.383L71.8311 174.067L72.7782 174.847C72.9689 175.22 73.0333 175.643 72.9623 176.054C72.7666 176.418 72.7242 176.842 72.8439 177.235C72.8573 177.342 72.9104 177.441 72.9934 177.512C73.0764 177.584 73.1835 177.623 73.2944 177.623C73.4053 177.623 73.5124 177.584 73.5954 177.512C73.6784 177.441 73.7316 177.342 73.7449 177.235C73.7449 177.031 73.7975 176.814 73.8173 176.597C73.8321 176.485 73.8731 176.377 73.9372 176.283C74.0013 176.189 74.0867 176.11 74.187 176.052C74.2873 175.995 74.3997 175.961 74.5158 175.952C74.6318 175.944 74.7483 175.961 74.8564 176.003C75.1095 175.945 75.3751 175.969 75.6126 176.072C75.8501 176.175 76.0465 176.35 76.1717 176.571C76.4659 176.892 76.7157 177.248 76.9149 177.631C77.0399 177.855 77.1714 178.117 77.2898 178.392C76.7198 179.399 76.3853 180.515 76.3098 181.662C76.3013 181.741 76.3145 181.822 76.3482 181.894C76.3818 181.967 76.4347 182.03 76.5014 182.077C76.5682 182.124 76.6464 182.152 76.7283 182.16C76.8101 182.168 76.8926 182.155 76.9675 182.122C78.6906 181.483 78.8156 179.899 78.2829 178.392L78.4802 178.015C78.8749 178.533 79.3602 178.981 79.9139 179.337C80.2218 179.558 80.603 179.661 80.9842 179.625C81.3654 179.59 81.7197 179.419 81.979 179.145C82.7024 178.315 82.2683 177.031 82.5314 176.054C82.6827 175.517 81.8409 175.153 81.6896 175.702ZM77.3424 180.812C77.4153 180.458 77.5187 180.109 77.6515 179.771C77.6747 180.137 77.5653 180.498 77.3424 180.793V180.812ZM78.1842 175.645C77.954 175.147 77.5265 174.368 77.7501 173.844C77.6055 173.32 77.7962 173.205 78.3157 173.537C78.934 173.499 79.1181 173.78 78.8748 174.38C78.797 174.97 78.64 175.548 78.4078 176.099C78.3289 175.92 78.2631 175.766 78.1842 175.626V175.645Z" fill="#2D1E1E"/>
<path d="M108.036 162.545C107.499 162.999 107.013 163.509 106.589 164.065C106.392 163.516 106.129 162.928 105.931 162.334C106.094 161.203 106.024 160.053 105.728 158.949C105.71 158.846 105.659 158.752 105.582 158.681C105.504 158.609 105.405 158.564 105.299 158.552C105.193 158.539 105.086 158.561 104.994 158.613C104.901 158.665 104.829 158.745 104.787 158.84C104.391 159.873 104.407 161.012 104.833 162.034C104.833 162.078 104.833 162.123 104.879 162.168C104.941 162.666 104.743 162.807 104.287 162.589C103.945 162.679 103.735 162.589 103.63 162.289C103.339 161.903 103.092 161.488 102.893 161.05C102.852 160.968 102.788 160.898 102.709 160.849C102.629 160.801 102.537 160.775 102.443 160.775C102.348 160.775 102.256 160.801 102.176 160.849C102.097 160.898 102.033 160.968 101.992 161.05C101.92 161.184 101.854 161.318 101.788 161.446C101.718 161.316 101.619 161.202 101.499 161.113C101.378 161.024 101.239 160.961 101.092 160.929C100.944 160.898 100.791 160.898 100.643 160.93C100.495 160.962 100.356 161.024 100.236 161.114C100.079 161.213 99.9387 161.336 99.8217 161.478C99.7751 161.406 99.7088 161.348 99.6302 161.31C99.5516 161.272 99.4638 161.257 99.3765 161.265C99.2892 161.273 99.206 161.304 99.1359 161.355C99.0659 161.406 99.0119 161.475 98.9799 161.555C98.7826 162.161 98.559 162.768 98.3222 163.375C97.9428 163.217 97.5143 163.212 97.1309 163.36C96.7474 163.509 96.4403 163.799 96.2768 164.167C96.2308 163.797 96.165 163.426 96.0861 163.056C96.0591 162.937 95.9869 162.833 95.8841 162.765C95.7813 162.696 95.6555 162.668 95.532 162.685C95.4086 162.703 95.2967 162.766 95.2189 162.861C95.1411 162.955 95.1032 163.075 95.1128 163.196C95.1785 163.784 95.2706 164.371 95.3627 164.953C95.4061 165.669 95.3575 166.388 95.218 167.092C95.218 167.195 94.876 168.753 94.6327 168.906C94.5099 168.989 94.3672 169.04 94.2183 169.053C94.2626 168.195 94.0026 167.347 93.4817 166.652C93.4357 166.447 93.3831 166.243 93.3305 166.045C93.1858 165.572 92.4163 165.476 92.3571 166.045C92.1979 166.023 92.0363 166.023 91.877 166.045C91.3847 166.172 90.9525 166.46 90.653 166.86C90.3536 167.26 90.2052 167.748 90.2328 168.242C90.1471 168.958 90.287 169.681 90.634 170.318C90.292 171.257 89.9106 172.234 88.8649 171.142C88.2072 170.433 88.1283 169.679 87.1549 169.226C87.0859 169.2 87.0118 169.19 86.9382 169.196C86.8645 169.202 86.7933 169.225 86.7299 169.262C86.6665 169.299 86.6126 169.349 86.5723 169.409C86.532 169.469 86.5063 169.538 86.4973 169.609C86.434 170.265 86.4098 170.924 86.4249 171.583C85.6006 169.645 84.9408 167.646 84.4519 165.604C84.3138 165.017 83.347 165.151 83.4851 165.745C84.2142 168.897 85.3407 171.95 86.8393 174.834C87.076 175.287 87.8981 175.121 87.7732 174.572C87.4627 173.27 87.33 171.934 87.3786 170.599C88.1678 171.519 88.5097 173.154 90.0487 172.879C91.1075 172.7 91.2062 171.8 91.4035 170.963C91.6003 171.094 91.8233 171.184 92.058 171.227C92.2928 171.269 92.5341 171.264 92.7664 171.21C92.9988 171.156 93.217 171.056 93.407 170.916C93.597 170.775 93.7547 170.598 93.8698 170.395V170.318C94.03 170.344 94.1939 170.339 94.352 170.303C94.51 170.266 94.6591 170.2 94.7905 170.107C95.4482 169.698 95.7573 168.747 95.9546 167.948C96.3733 169.548 96.9096 171.117 97.5593 172.643C97.8026 173.211 98.6576 172.828 98.4537 172.253C98.0262 171.041 97.677 169.803 97.408 168.549C97.2633 167.859 96.5794 165.719 96.9542 165.08L97.7369 164.863C97.5856 165.33 97.4541 165.789 97.3423 166.256C97.2107 166.824 97.1055 167.533 97.7698 167.878C99.164 168.561 99.335 166.805 99.2166 165.451C99.4529 167.26 100.169 168.979 101.295 170.439C101.657 170.912 102.268 170.439 102.13 169.948C101.744 168.645 101.369 167.335 101.005 166.019C101.09 166.071 101.19 166.096 101.29 166.091C101.391 166.085 101.486 166.049 101.565 165.987C102.551 165.042 102.637 163.841 102.268 162.577C102.308 162.474 102.341 162.372 102.387 162.276C102.893 163.273 103.623 164.499 104.682 164.039C104.921 163.934 105.131 163.774 105.294 163.573C105.471 164.084 105.649 164.595 105.813 165.112C105.39 165.864 105.088 166.674 104.919 167.514C104.662 168.791 104.439 171.436 106.339 171.685C108.371 171.953 107.799 169.373 107.609 168.293C107.418 167.214 107.181 166.211 106.892 165.189C107.352 164.458 107.924 163.798 108.588 163.234C109.121 162.89 108.516 162.142 108.036 162.545ZM92.4032 167.322C92.4451 167.694 92.511 168.063 92.6005 168.427C92.5601 168.576 92.4767 168.71 92.3602 168.815C92.2436 168.919 92.0988 168.988 91.9428 169.015C91.8651 169.117 91.7793 169.213 91.6863 169.302C91.6247 169.263 91.5538 169.239 91.4801 169.233C91.4064 169.228 91.3325 169.241 91.2654 169.27C91.2549 169.175 91.2549 169.079 91.2654 168.983C91.2162 168.801 91.2072 168.61 91.2391 168.425C91.271 168.239 91.3431 168.062 91.4506 167.905C91.558 167.748 91.6985 167.615 91.8627 167.514C92.0268 167.414 92.2111 167.349 92.4032 167.322ZM100.256 163.036C100.361 162.398 100.598 161.938 101.117 162.174C101.19 162.174 101.255 162.372 101.315 162.557C101.023 163.425 100.864 164.328 100.841 165.24C100.624 164.506 100.446 163.771 100.256 163.036ZM106.523 167.571C106.596 167.916 107.181 169.769 106.925 170.011C106.168 170.216 105.8 170.082 105.82 169.603C105.8 169.403 105.8 169.202 105.82 169.002C105.826 168.636 105.859 168.271 105.918 167.91C106.002 167.451 106.128 167 106.293 166.562C106.372 166.894 106.458 167.214 106.543 167.571H106.523Z" fill="#2D1E1E"/>
<path d="M183.952 127.824C183.052 127.508 182.095 127.373 181.14 127.427C180.185 127.481 179.251 127.722 178.395 128.137C178.247 128.194 178.115 128.283 178.007 128.397C177.899 128.51 177.819 128.646 177.773 128.794C177.726 128.941 177.714 129.097 177.737 129.25C177.761 129.403 177.819 129.548 177.908 129.676C178.953 130.953 180.099 132.149 181.334 133.253C182.327 134.141 183.669 132.576 182.65 131.688C181.903 131.01 181.192 130.296 180.519 129.548C181.352 129.367 182.22 129.407 183.031 129.663C184.32 130.072 185.228 128.252 183.952 127.824Z" fill="#FCBA1B"/>
<path d="M242.549 142.125C242.539 142.035 242.505 141.948 242.451 141.875C242.396 141.801 242.323 141.742 242.238 141.704C242.153 141.666 242.06 141.65 241.967 141.658C241.874 141.666 241.784 141.697 241.707 141.748C240.571 142.401 239.617 143.316 238.932 144.412C238.776 144.76 238.578 145.088 238.34 145.389C238.175 145.855 237.827 145.919 237.301 145.574C237.115 145.631 236.915 145.626 236.732 145.562C236.549 145.497 236.393 145.376 236.288 145.216C235.657 144.631 235.084 143.99 234.578 143.3C234.508 143.211 234.411 143.147 234.3 143.116C234.19 143.084 234.072 143.088 233.964 143.127C233.856 143.165 233.763 143.237 233.7 143.33C233.636 143.423 233.605 143.533 233.611 143.645C233.736 144.986 234.506 148.461 232.822 148.755C231.939 148.782 231.056 148.709 230.191 148.538L227.271 148.301C227.144 148.279 227.012 148.302 226.901 148.367C226.79 148.431 226.707 148.533 226.668 148.653C226.628 148.772 226.635 148.902 226.687 149.017C226.739 149.132 226.832 149.225 226.949 149.279L232.94 152.415C233.545 152.728 233.993 151.776 233.394 151.476L229.685 149.56L231.658 149.719C232.316 149.777 233.769 150.179 234.433 149.719C234.959 149.368 234.867 148.576 234.874 148.065C234.874 147.139 234.874 146.206 234.808 145.28C235.656 146.328 236.722 147.394 237.899 147.094C238.498 146.886 238.993 146.466 239.287 145.919C239.906 144.891 240.677 143.957 241.576 143.147C241.766 145.307 241.799 147.478 241.674 149.643C241.635 150.281 242.687 150.492 242.726 149.828C242.879 147.26 242.819 144.684 242.549 142.125Z" fill="#2D1E1E"/>
<path d="M224.923 147.005C224.853 147.01 224.785 147.03 224.723 147.061C224.661 147.092 224.605 147.135 224.56 147.188C224.469 147.293 224.424 147.429 224.437 147.566C224.449 147.704 224.517 147.831 224.625 147.919C224.734 148.008 224.874 148.051 225.015 148.039C225.157 148.027 225.287 147.961 225.379 147.856C225.47 147.751 225.514 147.614 225.502 147.477C225.49 147.34 225.422 147.213 225.313 147.124C225.205 147.036 225.065 146.993 224.923 147.005Z" fill="#2D1E1E"/>
<path d="M232.369 140.119C232.227 140.131 232.097 140.197 232.005 140.302C231.914 140.408 231.87 140.544 231.882 140.681C231.894 140.819 231.962 140.946 232.07 141.034C232.179 141.123 232.319 141.166 232.461 141.154C232.602 141.142 232.733 141.076 232.824 140.971C232.915 140.866 232.96 140.729 232.947 140.592C232.935 140.455 232.867 140.328 232.759 140.239C232.65 140.151 232.51 140.107 232.369 140.119Z" fill="#2D1E1E"/>
<path d="M243.622 138.222C243.488 138.242 243.368 138.311 243.285 138.414C243.202 138.517 243.162 138.647 243.174 138.778C243.186 138.908 243.248 139.03 243.348 139.117C243.448 139.205 243.579 139.253 243.714 139.25C243.847 139.23 243.967 139.161 244.05 139.058C244.133 138.955 244.173 138.825 244.161 138.694C244.15 138.564 244.087 138.442 243.987 138.355C243.887 138.267 243.756 138.22 243.622 138.222Z" fill="#2D1E1E"/>
<path d="M108.78 146.295C106.991 146.449 107.235 149.151 109.03 148.997C110.826 148.844 110.576 146.136 108.78 146.295Z" fill="#FCBA1B"/>
<path d="M233.079 193.454C231.283 193.613 231.533 196.315 233.329 196.162C235.124 196.008 234.874 193.3 233.079 193.454Z" fill="#FCBA1B"/>
<path d="M253.774 169.137C251.979 169.297 252.228 171.998 254.024 171.845C255.819 171.692 255.596 168.984 253.774 169.137Z" fill="#FCBA1B"/>
<path d="M78.2626 195.957C76.4737 196.11 76.7171 198.819 78.5126 198.659C80.3081 198.499 80.0516 195.797 78.2626 195.957Z" fill="#FCBA1B"/>
<path d="M103.256 178.111C101.467 178.27 101.71 180.972 103.506 180.819C105.301 180.666 105.078 177.957 103.256 178.111Z" fill="#FCBA1B"/>
<path d="M56.6521 212.807C56.5605 212.815 56.4715 212.84 56.3901 212.882C56.3086 212.923 56.2364 212.98 56.1774 213.048C56.1185 213.117 56.074 213.196 56.0466 213.281C56.0191 213.366 56.0092 213.456 56.0174 213.545C56.0256 213.634 56.0518 213.72 56.0944 213.799C56.137 213.878 56.1953 213.949 56.2658 214.006C56.3363 214.063 56.4178 214.106 56.5055 214.133C56.5932 214.16 56.6855 214.169 56.7771 214.161C56.9619 214.145 57.1327 214.058 57.2517 213.92C57.3707 213.782 57.4283 213.603 57.4117 213.423C57.3951 213.244 57.3058 213.078 57.1633 212.963C57.0209 212.847 56.837 212.791 56.6521 212.807Z" fill="#2D1E1E"/>
<path d="M233.296 211.152C233.125 211.185 232.973 211.277 232.869 211.413C232.764 211.548 232.715 211.716 232.73 211.884C232.746 212.052 232.825 212.209 232.953 212.324C233.08 212.439 233.247 212.504 233.421 212.506C233.592 212.474 233.744 212.381 233.849 212.246C233.953 212.111 234.003 211.943 233.987 211.775C233.972 211.606 233.892 211.449 233.765 211.335C233.637 211.22 233.47 211.155 233.296 211.152Z" fill="#2D1E1E"/>
<path d="M176.401 118.67C176.23 118.703 176.078 118.796 175.973 118.931C175.869 119.066 175.819 119.234 175.835 119.402C175.85 119.57 175.93 119.727 176.057 119.842C176.185 119.957 176.352 120.022 176.526 120.024C176.696 119.992 176.849 119.899 176.953 119.764C177.058 119.629 177.107 119.461 177.092 119.293C177.076 119.124 176.997 118.968 176.869 118.853C176.742 118.738 176.575 118.673 176.401 118.67Z" fill="#2D1E1E"/>
<path d="M263.819 230.314C263.648 230.347 263.496 230.439 263.391 230.575C263.287 230.71 263.237 230.878 263.253 231.046C263.268 231.214 263.348 231.371 263.475 231.486C263.603 231.601 263.77 231.666 263.944 231.669C264.114 231.636 264.267 231.543 264.371 231.408C264.476 231.273 264.525 231.105 264.51 230.937C264.494 230.768 264.415 230.612 264.287 230.497C264.16 230.382 263.993 230.317 263.819 230.314Z" fill="#2D1E1E"/>
<path d="M80.6638 229.81C80.5722 229.818 80.4832 229.843 80.4018 229.885C80.3203 229.926 80.2481 229.983 80.1892 230.051C80.1302 230.12 80.0858 230.199 80.0583 230.284C80.0309 230.369 80.021 230.459 80.0292 230.548C80.0374 230.637 80.0635 230.723 80.1061 230.802C80.1487 230.881 80.207 230.951 80.2775 231.009C80.348 231.066 80.4295 231.109 80.5172 231.136C80.6049 231.162 80.6972 231.172 80.7887 231.164C80.9736 231.148 81.1443 231.061 81.2634 230.923C81.3824 230.784 81.4399 230.606 81.4234 230.426C81.4068 230.247 81.3175 230.081 81.175 229.965C81.0326 229.85 80.8487 229.794 80.6638 229.81Z" fill="#2D1E1E"/>
<path d="M81.4341 154.114C81.2551 154.136 81.092 154.225 80.979 154.361C80.8659 154.498 80.8118 154.672 80.828 154.846C80.8442 155.021 80.9294 155.182 81.0657 155.297C81.2021 155.412 81.3789 155.471 81.559 155.461C81.738 155.439 81.9011 155.35 82.0142 155.214C82.1272 155.077 82.1813 154.904 82.1651 154.729C82.1489 154.555 82.0637 154.393 81.9274 154.278C81.7911 154.164 81.6143 154.105 81.4341 154.114Z" fill="#2D1E1E"/>
<path d="M121.55 117.252C121.379 117.285 121.227 117.377 121.122 117.513C121.018 117.648 120.969 117.816 120.984 117.984C121 118.152 121.079 118.309 121.207 118.424C121.334 118.539 121.501 118.604 121.675 118.606C121.846 118.574 121.998 118.481 122.103 118.346C122.207 118.211 122.256 118.043 122.241 117.875C122.225 117.706 122.146 117.55 122.019 117.435C121.891 117.32 121.724 117.255 121.55 117.252Z" fill="#2D1E1E"/>
<path d="M267.449 185.737C267.264 185.753 267.093 185.84 266.974 185.978C266.855 186.117 266.798 186.295 266.814 186.475C266.831 186.655 266.92 186.82 267.063 186.936C267.205 187.052 267.389 187.108 267.574 187.092C267.665 187.084 267.754 187.058 267.836 187.017C267.917 186.975 267.99 186.919 268.049 186.85C268.107 186.782 268.152 186.703 268.179 186.617C268.207 186.532 268.217 186.443 268.209 186.354C268.2 186.265 268.174 186.178 268.132 186.099C268.089 186.02 268.031 185.95 267.96 185.893C267.89 185.835 267.808 185.792 267.72 185.765C267.633 185.739 267.54 185.729 267.449 185.737Z" fill="#2D1E1E"/>
<path d="M185.753 178.155H185.595C185.642 178.488 185.62 178.827 185.531 179.152C185.442 179.477 185.288 179.781 185.078 180.048C184.868 180.315 184.606 180.54 184.306 180.708C184.007 180.876 183.676 180.986 183.333 181.03C183.333 182.627 184.418 183.917 185.753 183.917C187.088 183.917 188.173 182.639 188.173 181.03C188.173 179.42 187.088 178.155 185.753 178.155Z" fill="#2D1E1E"/>
<path d="M184.305 183.112C181.53 195.312 173.815 208.469 159.682 209.887C158.498 210.002 158.485 211.804 159.682 211.695C174.677 210.194 183.121 196.685 186.1 183.591C186.357 182.461 184.568 181.975 184.305 183.112Z" fill="#2D1E1E"/>
<path opacity="0.08" d="M211.396 299.521C205.291 299.126 199.16 299.34 193.1 300.16L193.29 300.102C193.478 300.028 193.641 299.907 193.765 299.752C193.888 299.596 193.967 299.412 193.993 299.217C194.019 299.022 193.991 298.824 193.913 298.643C193.835 298.462 193.708 298.305 193.547 298.186C193.397 298.072 193.217 297.999 193.027 297.976L192.186 297.886C183.765 297.058 175.297 296.785 166.839 297.069C162.873 295.879 158.653 295.724 154.606 296.621C147.835 296.147 141.036 296.189 134.271 296.749C136.656 296.013 139.068 295.374 141.505 294.833C142.406 294.622 143.307 294.431 144.215 294.252C145.734 293.952 147.253 293.69 148.786 293.466C149.174 293.402 149.568 293.345 149.957 293.294C150.13 293.253 150.292 293.176 150.433 293.069C150.574 292.963 150.689 292.828 150.773 292.675C150.856 292.522 150.905 292.353 150.916 292.18C150.927 292.007 150.901 291.834 150.838 291.671C150.787 291.49 150.668 291.334 150.506 291.233C150.343 291.131 150.147 291.092 149.957 291.122L148.431 291.295L143.215 291.889L137.612 292.527L123.643 294.047C122.38 294.194 122.367 296.366 123.643 296.219L131.627 295.319C128.865 296.234 126.133 297.267 123.433 298.416C119.834 299.236 116.314 300.352 112.91 301.75C111.95 302.146 111.969 304.031 113.173 303.884L150.266 299.413C150.342 299.551 150.459 299.665 150.602 299.74C150.744 299.815 150.906 299.848 151.068 299.834C154.863 299.643 158.651 299.464 162.439 299.323C164.544 299.508 166.642 299.706 168.733 299.904C168.846 299.916 168.961 299.905 169.069 299.872C169.178 299.839 169.279 299.786 169.366 299.714C169.452 299.642 169.523 299.554 169.574 299.455C169.624 299.356 169.654 299.248 169.66 299.138C175.579 299.049 181.459 299.138 187.352 299.572C184.826 300.258 182.285 300.835 179.729 301.303C174.643 301.686 169.564 302.204 164.491 302.855C163.255 303.015 163.176 305.053 164.491 305.027C169.694 304.923 174.879 304.397 179.992 303.456L181.393 303.366C181.383 303.583 181.447 303.798 181.576 303.976C181.704 304.154 181.89 304.285 182.104 304.35C189.846 306.214 198 305.623 205.372 302.664C205.597 302.564 205.785 302.398 205.909 302.19C206.032 301.981 206.086 301.741 206.062 301.501C207.838 301.501 209.614 301.565 211.39 301.68C212.679 301.776 212.672 299.604 211.396 299.521ZM188.174 303.143L189.206 302.938C191.881 302.832 194.562 302.762 197.25 302.728C194.255 303.246 191.205 303.385 188.174 303.143Z" fill="#2D1E1E"/>
<path d="M161.335 265.987C160.933 267.533 160.519 269.092 160.078 270.663C160.066 270.717 160.051 270.77 160.032 270.823C159.736 271.876 159.434 272.937 159.112 274.016C157.813 278.553 156.087 282.964 153.955 287.193C153.125 288.815 152.069 290.32 150.818 291.664C150.196 292.326 149.509 292.927 148.766 293.459C147.148 294.69 145.146 295.348 143.091 295.324C142.725 295.318 142.36 295.284 141.999 295.222C141.945 295.162 141.885 295.106 141.821 295.056L141.716 294.979C141.647 294.921 141.572 294.87 141.493 294.826C141.402 294.768 141.307 294.714 141.21 294.666C141.027 294.582 140.835 294.515 140.638 294.468H140.585C140.335 293.798 140.703 292.865 141.519 293.076C142.376 293.301 143.268 293.366 144.15 293.267C145.752 293.051 147.248 292.365 148.438 291.3C150.634 289.448 152.311 286.599 153.469 283.904C154.942 280.467 156.224 276.878 157.356 273.301C157.702 272.194 158.035 271.087 158.355 269.979C158.428 269.743 158.493 269.5 158.559 269.258C158.895 268.095 159.217 266.926 159.519 265.757C159.822 264.589 161.657 264.736 161.335 265.987Z" fill="#2D1E1E"/>
<path d="M194.816 298.154H194.751C194.696 298.147 194.641 298.147 194.586 298.154H194.435H194.165C194.002 298.152 193.839 298.167 193.679 298.199H193.547H193.488C193.4 298.218 193.315 298.243 193.231 298.276C192.877 298.17 192.53 298.042 192.192 297.892C187.852 295.976 185.734 290.694 185.241 285.756C185.089 284.179 185.004 282.563 184.978 280.979C184.978 280.621 184.978 280.257 184.978 279.899C184.978 276.444 185.214 272.95 185.556 269.507C185.655 268.543 185.76 267.591 185.865 266.633L185.944 265.994C186.05 265.036 186.168 264.078 186.286 263.133C186.444 261.855 188.259 262.398 188.075 263.676C187.825 265.694 187.602 267.731 187.418 269.775C187.115 273.225 186.931 276.693 186.924 280.155C186.924 280.517 186.924 280.881 186.924 281.247C186.924 281.815 186.924 282.378 186.924 282.94C187.043 287.615 188.187 293.223 192.021 295.586C192.774 296.051 193.607 296.378 194.481 296.551C195.329 296.64 195.329 297.656 194.816 298.154Z" fill="#2D1E1E"/>
<path d="M195.144 294.36C193.171 294.36 191.553 295.363 191.553 296.596C191.593 296.99 191.748 297.365 191.998 297.678C192.248 297.991 192.584 298.229 192.967 298.365C193.335 298.174 193.747 298.078 194.164 298.084C194.491 298.079 194.815 298.14 195.117 298.261C195.42 298.383 195.693 298.564 195.92 298.793C197.524 298.57 198.728 297.682 198.728 296.615C198.728 295.363 197.123 294.36 195.144 294.36Z" fill="#2D1E1E"/>
<path d="M237.801 257.078C237.795 257.276 237.768 257.472 237.722 257.665C237.626 258.076 237.498 258.48 237.341 258.872C237.24 259.131 237.126 259.385 236.999 259.633L236.801 259.997C236.663 260.239 236.512 260.476 236.354 260.706C234.638 263.261 231.803 265.126 229.37 266.908C225.824 269.516 222.035 271.796 218.051 273.717C214.893 275.336 211.443 276.349 207.89 276.699C201.388 278.945 194.542 280.109 187.64 280.142C187.389 280.145 187.137 280.122 186.891 280.072C186.634 280.021 186.385 279.942 186.147 279.836C185.746 279.836 185.338 279.836 184.937 279.836L160.472 271.053L160.012 270.823C159.439 270.536 158.874 270.236 158.308 269.923C154.408 267.781 150.828 265.131 147.667 262.047C146.707 261.344 145.753 260.61 144.819 259.85C143.622 258.872 142.419 257.831 141.281 256.714C138.762 254.261 136.566 251.463 135.428 248.321C131.193 242.38 128.59 235.487 127.865 228.296C127.569 225.741 127.404 223.123 127.352 220.504C127.352 219.865 127.352 219.182 127.352 218.517C127.352 217.975 127.352 217.438 127.352 216.895C127.352 216.518 127.352 216.154 127.352 215.777C127.352 215.4 127.352 214.966 127.398 214.557C127.444 214.148 127.444 213.65 127.47 213.19C127.468 210.739 127.728 208.295 128.246 205.896C128.338 205.2 128.443 204.51 128.555 203.82C129.169 199.743 130.43 195.783 132.291 192.08C134.264 186.772 137.289 181.637 141.557 177.869C142.925 176.66 144.44 175.62 146.069 174.771C149.167 173.18 152.646 172.427 156.019 173.187L156.112 173.084C156.748 171.994 157.618 171.048 158.663 170.312C161.61 165.952 164.357 161.481 166.904 156.899C167.029 156.643 167.154 156.382 167.272 156.126C167.568 155.289 167.89 154.465 168.232 153.654C168.714 152.503 169.259 151.377 169.863 150.282C170.14 149.777 170.436 149.279 170.745 148.787L171.093 148.244C171.449 147.705 171.986 147.302 172.614 147.106C173.242 146.911 173.921 146.933 174.533 147.171C174.743 147.247 174.944 147.346 175.131 147.465L175.329 147.599C175.4 147.647 175.467 147.703 175.526 147.765C175.606 147.829 175.679 147.902 175.743 147.982C176.02 148.295 176.204 148.675 176.276 149.081C176.345 149.493 176.313 149.915 176.184 150.314C176.092 150.595 176.013 150.869 175.914 151.157C175.579 152.243 175.256 153.328 174.888 154.408C174.849 154.529 174.809 154.644 174.77 154.772C173.371 159.115 171.891 163.437 170.33 167.738C169.324 170.485 168.403 173.327 167.174 175.991C166.971 176.436 166.729 176.863 166.45 177.268C166.388 177.637 166.251 177.991 166.049 178.309C166.17 178.754 166.196 179.218 166.125 179.673C166.054 180.128 165.887 180.564 165.635 180.954C165.868 181.501 165.903 182.109 165.733 182.678C164.457 187.475 163.103 192.617 162.129 197.867C161.746 201.758 161.625 205.669 161.768 209.575C161.768 210.176 161.82 210.776 161.86 211.376C161.978 213.152 162.162 214.921 162.425 216.671C162.491 217.125 162.563 217.572 162.649 218.026C162.734 218.479 162.813 218.945 162.905 219.399C163.971 222.005 165.141 224.573 166.365 227.108C168.56 231.898 171.278 236.444 174.474 240.669C174.658 240.905 174.849 241.135 175.039 241.365C175.605 242.061 176.197 242.732 176.808 243.377C182.517 249.426 189.962 253.45 198.656 253.501C201.129 253.501 203.589 253.335 206.055 253.13C207.199 253.034 208.344 252.932 209.488 252.849C211.553 252.69 213.618 252.575 215.69 252.594H216.275H216.867L218.077 252.645C218.485 252.645 218.893 252.696 219.307 252.734L219.925 252.798C220.136 252.798 220.34 252.836 220.583 252.862L222.74 252.466C223.457 252.338 224.181 252.217 224.904 252.102C225.384 252.019 225.864 251.949 226.351 251.872C227.311 251.725 228.278 251.585 229.251 251.457C230.225 251.329 231.185 251.201 232.158 251.086L232.612 251.035C233.052 250.971 233.501 251.002 233.927 251.128C234.352 251.254 234.744 251.471 235.072 251.763C235.131 251.814 235.183 251.872 235.236 251.923C235.393 252.096 235.534 252.282 235.657 252.479C235.737 252.615 235.81 252.756 235.874 252.9C235.933 253.047 235.992 253.194 236.038 253.347L236.098 253.565C236.112 253.611 236.123 253.658 236.13 253.705L236.223 253.769C236.385 253.894 236.536 254.03 236.676 254.178L236.722 254.229L236.762 254.267C236.779 254.281 236.792 254.299 236.801 254.318C236.849 254.366 236.893 254.417 236.933 254.472L237.071 254.657C237.15 254.759 237.216 254.868 237.288 254.983L237.327 255.053C237.387 255.161 237.446 255.276 237.498 255.391C237.551 255.506 237.61 255.653 237.656 255.794C237.702 255.934 237.735 256.062 237.761 256.203C237.788 256.321 237.807 256.44 237.821 256.56C237.83 256.733 237.824 256.906 237.801 257.078Z" fill="#FCBA1B"/>
<path d="M236.901 254.465C236.861 254.411 236.817 254.36 236.77 254.312C236.76 254.292 236.747 254.275 236.73 254.261L236.691 254.222L236.645 254.171C236.505 254.024 236.353 253.887 236.191 253.762L236.099 253.692C236.092 253.644 236.081 253.597 236.066 253.552L236.007 253.334C235.962 253.182 235.907 253.033 235.842 252.887C235.778 252.743 235.705 252.602 235.625 252.466C235.507 252.266 235.365 252.08 235.204 251.91C235.152 251.859 235.099 251.801 235.04 251.75C234.712 251.458 234.321 251.241 233.895 251.115C233.47 250.989 233.02 250.957 232.58 251.022L232.126 251.08C231.153 251.195 230.186 251.316 229.22 251.444C228.253 251.571 227.279 251.712 226.319 251.859C225.833 251.936 225.352 252.006 224.872 252.089C224.149 252.204 223.425 252.325 222.709 252.453C221.992 252.581 221.268 252.715 220.551 252.855L219.894 252.785L219.276 252.721C218.861 252.683 218.453 252.657 218.046 252.632L216.836 252.581H216.244H215.658C213.587 252.581 211.522 252.676 209.457 252.843C208.312 252.926 207.168 253.028 206.023 253.124C203.557 253.328 201.098 253.507 198.625 253.494C189.911 253.443 182.485 249.419 176.777 243.37C176.172 242.731 175.58 242.054 175.008 241.358C174.817 241.128 174.626 240.898 174.442 240.662C171.27 236.447 168.571 231.913 166.392 227.14C165.169 224.585 163.998 222.03 162.933 219.43C162.841 218.977 162.762 218.517 162.676 218.057C162.591 217.597 162.525 217.137 162.453 216.671V216.703C161.791 224.442 163.434 232.202 167.188 239.059C167.313 239.276 167.431 239.493 167.563 239.697C167.872 240.26 168.22 240.809 168.556 241.352C168.602 241.428 168.648 241.505 168.701 241.575C170.645 244.599 173.006 247.35 175.718 249.751C187.517 260.162 204.195 263.752 219.558 260.041C220.795 259.739 222.016 259.394 223.222 259.006C226.598 258.537 229.9 257.653 233.047 256.375C234.363 255.845 235.724 255.257 237.039 254.625L236.901 254.465Z" fill="#F8D500"/>
<path d="M237.801 257.077C237.795 257.275 237.768 257.472 237.722 257.665C237.626 258.076 237.498 258.479 237.341 258.872C237.24 259.131 237.126 259.384 236.999 259.632L236.801 259.996C236.663 260.239 236.519 260.475 236.361 260.705C235.644 260.29 234.994 259.773 234.434 259.172C233.948 258.648 233.568 258.039 233.316 257.377C233.196 257.059 233.11 256.729 233.059 256.394C233.013 256.14 232.986 255.884 232.98 255.627C232.801 254.147 232.529 252.68 232.165 251.233C232.159 251.179 232.159 251.126 232.165 251.073L232.619 251.015C233.059 250.951 233.508 250.982 233.934 251.108C234.359 251.234 234.75 251.451 235.078 251.743C235.138 251.795 235.19 251.852 235.243 251.903C235.404 252.073 235.545 252.259 235.664 252.459C235.746 252.594 235.819 252.735 235.881 252.88C235.945 253.026 236 253.175 236.045 253.328L236.104 253.545C236.119 253.591 236.13 253.638 236.137 253.685L236.229 253.756C236.391 253.88 236.543 254.017 236.683 254.164L236.729 254.215L236.769 254.254C236.785 254.268 236.799 254.285 236.808 254.305C236.856 254.353 236.9 254.404 236.94 254.458L237.078 254.643C237.157 254.746 237.222 254.854 237.295 254.969L237.334 255.039C237.393 255.148 237.453 255.263 237.505 255.378C237.558 255.493 237.617 255.64 237.663 255.78C237.71 255.912 237.748 256.046 237.775 256.183C237.799 256.303 237.817 256.425 237.827 256.547C237.836 256.724 237.827 256.901 237.801 257.077Z" fill="#442419"/>
<path d="M175.131 147.414C174.944 147.294 174.743 147.196 174.533 147.12C173.92 146.882 173.242 146.859 172.614 147.055C171.986 147.251 171.448 147.653 171.093 148.193L170.745 148.736C170.435 149.228 170.139 149.726 169.863 150.23C169.259 151.326 168.714 152.452 168.232 153.603C167.89 154.414 167.575 155.238 167.272 156.075C167.154 156.33 167.029 156.592 166.904 156.848C164.343 161.434 161.596 165.905 158.663 170.261C157.618 170.997 156.748 171.942 156.111 173.033L156.019 173.135C152.639 172.375 149.166 173.135 146.069 174.719C144.44 175.569 142.925 176.609 141.557 177.817C137.289 181.586 134.237 186.721 132.291 192.029C130.429 195.732 129.169 199.692 128.555 203.769C128.443 204.459 128.338 205.149 128.246 205.845C127.739 208.266 127.494 210.732 127.516 213.203C127.516 213.663 127.463 214.116 127.443 214.57C127.424 215.023 127.411 215.387 127.397 215.79C127.384 216.192 127.397 216.531 127.397 216.908C127.397 217.451 127.397 217.987 127.397 218.53C127.397 219.169 127.397 219.859 127.397 220.516C127.45 223.135 127.614 225.741 127.91 228.309C128.638 235.501 131.243 242.393 135.48 248.333C136.618 251.476 138.815 254.273 141.333 256.726C142.471 257.844 143.675 258.885 144.872 259.862C145.806 260.622 146.759 261.357 147.719 262.06C150.88 265.144 154.46 267.794 158.361 269.935C158.926 270.248 159.492 270.574 160.064 270.836L160.524 271.066L160.11 270.676L158.564 269.213C157.609 268.319 156.664 267.412 155.73 266.492C153.823 264.621 151.889 262.737 149.988 260.82C147.751 257.702 145.679 254.474 143.78 251.15C143.057 249.904 142.359 248.64 141.682 247.375C141.577 247.19 141.478 246.998 141.38 246.813C139.407 243.07 137.558 239.263 135.776 235.418C134.786 228.888 134.451 222.28 134.777 215.688C134.77 215.569 134.77 215.449 134.777 215.33C134.947 211.836 135.314 208.354 135.875 204.899C135.934 204.529 136 204.159 136.066 203.782C136.394 201.834 136.769 199.854 137.216 197.873C137.427 196.947 137.651 196.015 137.874 195.089C137.914 194.929 137.96 194.769 138.006 194.61C138.282 193.596 138.587 192.591 138.92 191.595C138.972 191.429 139.032 191.263 139.091 191.103C139.731 189.232 140.512 187.409 141.426 185.648C144.831 182.105 148.42 178.733 152.178 175.543C156.44 173.947 160.038 172.458 162.945 168.964L163.359 168.447L163.543 168.204C163.938 167.674 164.312 167.138 164.687 166.588C164.911 166.256 165.135 165.918 165.345 165.573C167.43 162.315 169.192 158.796 171.021 155.411C171.277 154.925 171.54 154.44 171.803 153.961C172.297 153.073 172.79 152.172 173.263 151.284C173.954 150.045 174.625 148.8 175.296 147.554L175.131 147.414Z" fill="#F8D500"/>
<path d="M138.61 194.679C138.413 194.712 138.236 194.816 138.116 194.972C137.996 195.128 137.943 195.323 137.968 195.516C137.992 195.709 138.093 195.885 138.248 196.008C138.403 196.13 138.601 196.19 138.801 196.174C138.998 196.142 139.175 196.037 139.295 195.882C139.415 195.726 139.468 195.531 139.443 195.338C139.419 195.145 139.318 194.969 139.163 194.846C139.008 194.723 138.81 194.664 138.61 194.679Z" fill="#2D1E1E"/>
<path d="M156.302 194.265C156.107 194.298 155.931 194.402 155.813 194.557C155.694 194.712 155.641 194.905 155.665 195.097C155.688 195.288 155.787 195.464 155.94 195.587C156.092 195.71 156.288 195.772 156.487 195.759C156.682 195.726 156.858 195.621 156.976 195.467C157.095 195.312 157.148 195.119 157.124 194.927C157.101 194.735 157.002 194.56 156.849 194.437C156.696 194.313 156.501 194.252 156.302 194.265Z" fill="#2D1E1E"/>
<path d="M150.963 202.446C150.521 203.161 149.897 203.754 149.15 204.167C148.404 204.58 147.561 204.8 146.703 204.805C145.844 204.81 144.998 204.601 144.247 204.196C143.496 203.792 142.864 203.207 142.413 202.497C142.084 201.986 141.315 202.555 141.644 203.066C142.184 203.893 142.932 204.573 143.816 205.043C144.701 205.513 145.694 205.757 146.702 205.753C147.71 205.749 148.701 205.497 149.582 205.021C150.463 204.544 151.205 203.858 151.739 203.028C152.054 202.517 151.265 201.929 150.963 202.446Z" fill="#2D1E1E"/>
<path d="M138.544 190.981L135.795 192.636C135.374 192.891 135.841 193.485 136.262 193.236L139.011 191.575C139.426 191.32 138.965 190.726 138.544 190.981Z" fill="#2D1E1E"/>
<path d="M158.434 192.451C157.878 191.716 157.119 191.149 156.244 190.816C155.784 190.643 155.475 191.333 155.942 191.505C156.691 191.789 157.341 192.274 157.816 192.904C157.88 192.977 157.971 193.024 158.069 193.035C158.168 193.045 158.267 193.019 158.346 192.961C158.425 192.903 158.478 192.818 158.494 192.723C158.511 192.628 158.489 192.531 158.434 192.451Z" fill="#2D1E1E"/>
<path d="M136.138 197.873C135.53 197.946 134.958 198.192 134.494 198.581C134.03 198.969 133.695 199.483 133.531 200.056C133.368 200.629 133.383 201.237 133.575 201.802C133.767 202.367 134.127 202.864 134.61 203.23C135.093 203.597 135.677 203.815 136.288 203.859C136.899 203.903 137.509 203.77 138.042 203.477C138.576 203.184 139.007 202.744 139.283 202.213C139.559 201.682 139.666 201.083 139.591 200.492C139.481 199.704 139.058 198.99 138.413 198.5C137.768 198.011 136.952 197.786 136.138 197.873Z" fill="#E0A319"/>
<path d="M157.355 197.4C156.747 197.473 156.175 197.719 155.711 198.107C155.247 198.496 154.912 199.009 154.748 199.583C154.585 200.156 154.6 200.764 154.792 201.329C154.984 201.894 155.344 202.391 155.827 202.757C156.31 203.123 156.893 203.342 157.504 203.386C158.115 203.43 158.726 203.297 159.259 203.004C159.792 202.711 160.224 202.271 160.5 201.74C160.775 201.208 160.883 200.61 160.808 200.019C160.698 199.231 160.275 198.517 159.63 198.027C158.985 197.538 158.169 197.313 157.355 197.4Z" fill="#E0A319"/>
<path d="M138.112 194.597C138.041 194.624 137.982 194.673 137.943 194.737C137.904 194.801 137.889 194.875 137.898 194.948C137.908 195.022 137.943 195.09 137.997 195.142C138.051 195.194 138.122 195.227 138.197 195.235C138.268 195.208 138.328 195.159 138.366 195.095C138.405 195.031 138.421 194.957 138.411 194.884C138.401 194.81 138.366 194.742 138.312 194.69C138.258 194.638 138.187 194.605 138.112 194.597Z" fill="white"/>
<path d="M155.665 194.201C155.594 194.228 155.534 194.277 155.496 194.341C155.457 194.405 155.441 194.479 155.451 194.552C155.461 194.626 155.496 194.694 155.55 194.746C155.604 194.798 155.674 194.831 155.75 194.839C155.821 194.812 155.88 194.763 155.919 194.699C155.958 194.635 155.973 194.561 155.964 194.488C155.954 194.414 155.919 194.346 155.865 194.294C155.811 194.242 155.74 194.209 155.665 194.201Z" fill="white"/>
<path d="M141.676 290.79C143.491 291.652 144.596 293.268 144.142 294.398C143.962 294.745 143.676 295.029 143.322 295.21C142.968 295.391 142.565 295.46 142.169 295.408C141.906 295.074 141.566 294.805 141.176 294.622C140.892 294.475 140.58 294.388 140.26 294.365C139.94 294.342 139.618 294.384 139.315 294.488C137.927 293.581 137.151 292.246 137.539 291.294C138.019 290.138 139.861 289.921 141.676 290.79Z" fill="#2D1E1E"/>
<path d="M129.148 219.648C128.556 219.941 127.97 220.235 127.372 220.503C124.702 221.723 121.946 222.605 118.914 222.42C118.347 222.382 117.783 222.311 117.224 222.209C114.684 221.695 112.268 220.712 110.108 219.315C104.034 215.423 99.3103 209.843 96.5534 203.302C96.3166 202.778 96.0996 202.248 95.8957 201.712C95.8085 201.486 95.817 201.237 95.9194 201.017C96.0218 200.798 96.2096 200.628 96.4416 200.543C96.6736 200.458 96.9307 200.466 97.1564 200.566C97.3821 200.665 97.5579 200.848 97.6451 201.073C97.8622 201.635 98.0858 202.191 98.3357 202.74C100.879 208.644 105.093 213.727 110.489 217.399C112.433 218.732 114.61 219.711 116.915 220.286C117.588 220.44 118.272 220.547 118.96 220.606C121.966 220.842 124.722 219.794 127.352 218.517C127.747 218.332 128.135 218.14 128.523 217.942C129.562 217.412 130.22 219.117 129.148 219.648Z" fill="#2D1E1E"/>
<path d="M95.1457 197.982C94.9755 198.042 94.8141 198.124 94.6656 198.224C93.5738 198.965 93.4554 200.632 94.3959 201.942C95.3364 203.251 96.9937 203.698 98.092 202.957C98.5084 202.626 98.8042 202.173 98.9356 201.666C99.0671 201.159 99.0272 200.624 98.822 200.141C97.1055 200.856 95.435 199.521 95.1457 197.982Z" fill="#2D1E1E"/>
<path d="M228.994 253.264L226.364 255.181C226.028 255.43 226.364 255.985 226.699 255.736L229.33 253.82C229.672 253.577 229.336 253.015 228.994 253.264Z" fill="#E0A319"/>
<path d="M229.759 254.88L228.443 255.218C228.356 255.241 228.282 255.297 228.237 255.373C228.192 255.449 228.18 255.539 228.203 255.624C228.227 255.709 228.284 255.781 228.362 255.825C228.441 255.868 228.534 255.88 228.621 255.857L229.936 255.512C230.022 255.489 230.096 255.434 230.14 255.359C230.185 255.283 230.196 255.194 230.173 255.11C230.149 255.026 230.092 254.955 230.015 254.912C229.937 254.869 229.845 254.857 229.759 254.88Z" fill="#E0A319"/>
<path d="M133.126 230.557L132.468 228.302C132.445 228.217 132.388 228.145 132.309 228.101C132.231 228.058 132.138 228.046 132.051 228.069C131.963 228.092 131.889 228.147 131.844 228.223C131.799 228.3 131.787 228.39 131.811 228.475L132.468 230.729C132.492 230.814 132.549 230.886 132.627 230.93C132.706 230.974 132.799 230.985 132.886 230.963C132.973 230.94 133.047 230.884 133.092 230.808C133.137 230.732 133.15 230.642 133.126 230.557Z" fill="#E0A319"/>
<path d="M133.811 229.03V229.995C133.826 230.069 133.867 230.135 133.927 230.183C133.987 230.231 134.062 230.257 134.139 230.257C134.217 230.257 134.292 230.231 134.352 230.183C134.412 230.135 134.453 230.069 134.468 229.995V229.03C134.453 228.957 134.412 228.89 134.352 228.843C134.292 228.795 134.217 228.769 134.139 228.769C134.062 228.769 133.987 228.795 133.927 228.843C133.867 228.89 133.826 228.957 133.811 229.03Z" fill="#E0A319"/>
<path d="M162.722 166.748V168.664C162.737 168.738 162.778 168.804 162.838 168.852C162.898 168.899 162.973 168.925 163.051 168.925C163.128 168.925 163.203 168.899 163.263 168.852C163.323 168.804 163.364 168.738 163.379 168.664V166.748C163.364 166.674 163.323 166.608 163.263 166.56C163.203 166.512 163.128 166.486 163.051 166.486C162.973 166.486 162.898 166.512 162.838 166.56C162.778 166.608 162.737 166.674 162.722 166.748Z" fill="#E0A319"/>
<path d="M164.714 165.132V167.048C164.729 167.122 164.77 167.189 164.83 167.236C164.89 167.284 164.965 167.31 165.043 167.31C165.12 167.31 165.195 167.284 165.255 167.236C165.315 167.189 165.356 167.122 165.371 167.048V165.132C165.356 165.058 165.315 164.992 165.255 164.944C165.195 164.897 165.12 164.871 165.043 164.871C164.965 164.871 164.89 164.897 164.83 164.944C164.77 164.992 164.729 165.058 164.714 165.132Z" fill="#E0A319"/>
<path d="M183.984 264.85H182.32C182.244 264.865 182.176 264.905 182.127 264.963C182.078 265.022 182.051 265.095 182.051 265.17C182.051 265.245 182.078 265.318 182.127 265.376C182.176 265.435 182.244 265.475 182.32 265.49H183.984C184.06 265.475 184.128 265.435 184.177 265.376C184.226 265.318 184.253 265.245 184.253 265.17C184.253 265.095 184.226 265.022 184.177 264.963C184.128 264.905 184.06 264.865 183.984 264.85Z" fill="#E0A319"/>
<path d="M186.733 266.14C185.748 265.796 184.693 265.686 183.655 265.821C183.234 265.872 183.228 266.524 183.655 266.46C184.632 266.336 185.626 266.437 186.555 266.753C186.963 266.9 187.134 266.274 186.733 266.14Z" fill="#E0A319"/>
<path d="M168.528 241.352L165.865 240.074C165.483 239.889 165.148 240.445 165.529 240.63L168.193 241.907C168.574 242.093 168.91 241.537 168.528 241.352Z" fill="#E0A319"/>
<path d="M169.679 240.898C169.5 240.432 169.209 240.014 168.829 239.681C168.449 239.347 167.991 239.108 167.496 238.982C167.453 238.971 167.408 238.968 167.363 238.973C167.319 238.979 167.276 238.993 167.237 239.015C167.198 239.036 167.164 239.065 167.137 239.099C167.11 239.134 167.09 239.173 167.078 239.215C167.067 239.257 167.063 239.301 167.069 239.344C167.075 239.387 167.089 239.428 167.112 239.466C167.134 239.504 167.164 239.537 167.199 239.563C167.235 239.59 167.275 239.609 167.318 239.621C167.701 239.71 168.056 239.886 168.354 240.135C168.653 240.384 168.886 240.698 169.035 241.051C169.166 241.447 169.811 241.307 169.679 240.898Z" fill="#E0A319"/>
<path d="M214.236 269.187L213.894 269.826C213.703 270.19 214.275 270.522 214.473 270.152L214.808 269.513C214.999 269.143 214.4 268.817 214.236 269.187Z" fill="#E0A319"/>
<path d="M215.566 270.152L214.908 271.11C214.665 271.455 215.244 271.749 215.48 271.436L216.138 270.478C216.375 270.133 215.809 269.814 215.566 270.152Z" fill="#E0A319"/>
<path d="M141.452 246.774C141.376 246.789 141.308 246.829 141.259 246.887C141.209 246.945 141.183 247.018 141.183 247.094C141.183 247.169 141.209 247.242 141.259 247.3C141.308 247.358 141.376 247.398 141.452 247.413C141.528 247.398 141.596 247.358 141.645 247.3C141.694 247.242 141.721 247.169 141.721 247.094C141.721 247.018 141.694 246.945 141.645 246.887C141.596 246.829 141.528 246.789 141.452 246.774Z" fill="#E0A319"/>
<path d="M145.109 249.036C145.033 249.051 144.965 249.091 144.916 249.149C144.867 249.207 144.84 249.28 144.84 249.355C144.84 249.431 144.867 249.504 144.916 249.562C144.965 249.62 145.033 249.66 145.109 249.675C145.185 249.66 145.253 249.62 145.303 249.562C145.352 249.504 145.378 249.431 145.378 249.355C145.378 249.28 145.352 249.207 145.303 249.149C145.253 249.091 145.185 249.051 145.109 249.036Z" fill="#E0A319"/>
<path d="M142.452 251.296C142.376 251.311 142.308 251.351 142.259 251.409C142.209 251.468 142.183 251.541 142.183 251.616C142.183 251.691 142.209 251.764 142.259 251.822C142.308 251.881 142.376 251.92 142.452 251.935C142.528 251.92 142.596 251.881 142.645 251.822C142.694 251.764 142.721 251.691 142.721 251.616C142.721 251.541 142.694 251.468 142.645 251.409C142.596 251.351 142.528 251.311 142.452 251.296Z" fill="#E0A319"/>
<path d="M223.858 255.812C223.782 255.827 223.714 255.867 223.665 255.925C223.616 255.984 223.589 256.057 223.589 256.132C223.589 256.207 223.616 256.28 223.665 256.338C223.714 256.397 223.782 256.437 223.858 256.451C223.934 256.437 224.002 256.397 224.052 256.338C224.101 256.28 224.127 256.207 224.127 256.132C224.127 256.057 224.101 255.984 224.052 255.925C224.002 255.867 223.934 255.827 223.858 255.812Z" fill="#E0A319"/>
<path d="M226.515 257.103C226.439 257.118 226.371 257.158 226.322 257.216C226.273 257.274 226.246 257.347 226.246 257.422C226.246 257.498 226.273 257.571 226.322 257.629C226.371 257.687 226.439 257.727 226.515 257.742C226.591 257.727 226.66 257.687 226.709 257.629C226.758 257.571 226.785 257.498 226.785 257.422C226.785 257.347 226.758 257.274 226.709 257.216C226.66 257.158 226.591 257.118 226.515 257.103Z" fill="#E0A319"/>
<path d="M158.401 225.798C158.325 225.813 158.257 225.853 158.208 225.911C158.159 225.97 158.132 226.043 158.132 226.118C158.132 226.193 158.159 226.266 158.208 226.325C158.257 226.383 158.325 226.423 158.401 226.438C158.477 226.423 158.545 226.383 158.595 226.325C158.644 226.266 158.67 226.193 158.67 226.118C158.67 226.043 158.644 225.97 158.595 225.911C158.545 225.853 158.477 225.813 158.401 225.798Z" fill="#E0A319"/>
<path d="M156.736 215.477C156.66 215.492 156.592 215.532 156.543 215.59C156.494 215.648 156.467 215.721 156.467 215.796C156.467 215.872 156.494 215.944 156.543 216.003C156.592 216.061 156.66 216.101 156.736 216.116C156.812 216.101 156.88 216.061 156.93 216.003C156.979 215.944 157.006 215.872 157.006 215.796C157.006 215.721 156.979 215.648 156.93 215.59C156.88 215.532 156.812 215.492 156.736 215.477Z" fill="#E0A319"/>
<path d="M161.72 220.318C161.645 220.333 161.576 220.373 161.527 220.431C161.478 220.489 161.451 220.562 161.451 220.638C161.451 220.713 161.478 220.786 161.527 220.844C161.576 220.902 161.645 220.942 161.72 220.957C161.796 220.942 161.865 220.902 161.914 220.844C161.963 220.786 161.99 220.713 161.99 220.638C161.99 220.562 161.963 220.489 161.914 220.431C161.865 220.373 161.796 220.333 161.72 220.318Z" fill="#E0A319"/>
<path d="M132.153 213.842C132.077 213.857 132.009 213.896 131.96 213.955C131.911 214.013 131.884 214.086 131.884 214.161C131.884 214.236 131.911 214.309 131.96 214.367C132.009 214.425 132.077 214.465 132.153 214.48C132.229 214.465 132.297 214.425 132.346 214.367C132.396 214.309 132.422 214.236 132.422 214.161C132.422 214.086 132.396 214.013 132.346 213.955C132.297 213.896 132.229 213.857 132.153 213.842Z" fill="#E0A319"/>
<path d="M134.474 215.151C134.398 215.166 134.33 215.206 134.281 215.264C134.232 215.322 134.205 215.395 134.205 215.47C134.205 215.545 134.232 215.618 134.281 215.676C134.33 215.735 134.398 215.775 134.474 215.789C134.55 215.775 134.619 215.735 134.668 215.676C134.717 215.618 134.744 215.545 134.744 215.47C134.744 215.395 134.717 215.322 134.668 215.264C134.619 215.206 134.55 215.166 134.474 215.151Z" fill="#E0A319"/>
<path d="M146.437 177.721C146.361 177.736 146.293 177.776 146.244 177.834C146.195 177.892 146.168 177.965 146.168 178.04C146.168 178.116 146.195 178.189 146.244 178.247C146.293 178.305 146.361 178.345 146.437 178.36C146.513 178.345 146.582 178.305 146.631 178.247C146.68 178.189 146.707 178.116 146.707 178.04C146.707 177.965 146.68 177.892 146.631 177.834C146.582 177.776 146.513 177.736 146.437 177.721Z" fill="#E0A319"/>
<path d="M151.086 179.011C151.01 179.026 150.941 179.066 150.892 179.124C150.843 179.183 150.816 179.256 150.816 179.331C150.816 179.406 150.843 179.479 150.892 179.537C150.941 179.595 151.01 179.635 151.086 179.65C151.162 179.635 151.23 179.595 151.279 179.537C151.328 179.479 151.355 179.406 151.355 179.331C151.355 179.256 151.328 179.183 151.279 179.124C151.23 179.066 151.162 179.026 151.086 179.011Z" fill="#E0A319"/>
<path d="M170.027 160.616C169.951 160.631 169.883 160.67 169.834 160.729C169.785 160.787 169.758 160.86 169.758 160.935C169.758 161.01 169.785 161.083 169.834 161.141C169.883 161.2 169.951 161.239 170.027 161.254C170.103 161.239 170.171 161.2 170.221 161.141C170.27 161.083 170.296 161.01 170.296 160.935C170.296 160.86 170.27 160.787 170.221 160.729C170.171 160.67 170.103 160.631 170.027 160.616Z" fill="#E0A319"/>
<path d="M176.204 150.313C176.112 150.594 176.033 150.869 175.934 151.156C175.599 152.242 175.276 153.328 174.908 154.407C174.869 154.529 174.829 154.644 174.79 154.772C174.093 155.142 173.402 155.487 172.817 155.832C172.524 156.001 172.176 156.053 171.845 155.978C171.514 155.903 171.226 155.706 171.041 155.429C170.963 155.317 170.901 155.194 170.857 155.065C170.387 153.492 170.05 151.883 169.851 150.256C170.127 149.751 170.423 149.253 170.732 148.761L171.08 148.218C171.436 147.679 171.974 147.276 172.601 147.081C173.229 146.885 173.908 146.908 174.52 147.145C174.73 147.221 174.931 147.32 175.118 147.439L175.316 147.573C175.387 147.622 175.454 147.677 175.513 147.739C175.594 147.804 175.666 147.876 175.73 147.956C176.007 148.269 176.191 148.649 176.263 149.055C176.346 149.473 176.326 149.904 176.204 150.313Z" fill="#442419"/>
<path opacity="0.11" d="M237.801 257.084C237.794 257.281 237.768 257.478 237.722 257.671C237.626 258.082 237.498 258.486 237.34 258.878C237.24 259.137 237.126 259.391 236.998 259.638L236.801 260.003C236.663 260.245 236.518 260.482 236.36 260.712C234.644 263.266 231.809 265.132 229.376 266.914C225.831 269.522 222.041 271.802 218.057 273.723C214.899 275.342 211.449 276.355 207.896 276.705C201.394 278.951 194.548 280.115 187.647 280.148C187.395 280.151 187.144 280.128 186.897 280.078C186.897 280.44 186.897 280.804 186.897 281.17C186.239 281.093 185.582 281.004 184.957 280.908C184.957 280.551 184.957 280.186 184.957 279.829L160.472 271.053L160.011 270.823C159.715 271.877 159.413 272.937 159.091 274.016C158.492 273.774 157.9 273.525 157.308 273.263C157.655 272.155 157.988 271.048 158.308 269.941C154.408 267.8 150.827 265.15 147.667 262.066C146.707 261.363 145.753 260.629 144.819 259.868C143.622 258.891 142.419 257.85 141.281 256.732C138.762 254.28 136.565 251.482 135.428 248.339C131.193 242.398 128.59 235.506 127.864 228.315C127.569 225.76 127.404 223.141 127.351 220.523C124.681 221.743 121.926 222.624 118.894 222.439C118.327 222.401 117.762 222.33 117.204 222.228C117.085 221.589 116.987 220.95 116.895 220.312C117.568 220.466 118.251 220.573 118.94 220.631C121.945 220.867 124.701 219.82 127.332 218.542C127.332 218 127.332 217.463 127.332 216.92C127.332 216.543 127.332 216.179 127.332 215.802C127.332 215.425 127.332 214.991 127.378 214.582C127.424 214.174 127.424 213.675 127.45 213.215C127.453 210.755 127.72 208.302 128.246 205.896C128.338 205.199 128.443 204.51 128.555 203.82C129.169 199.743 130.429 195.783 132.291 192.08C134.264 186.772 137.289 181.637 141.557 177.868C142.925 176.66 144.44 175.619 146.069 174.77C142.317 180.098 139.264 185.859 136.98 191.92C136.829 192.297 136.684 192.674 136.552 193.051C135.921 194.788 135.351 196.545 134.842 198.32C134.474 199.598 134.139 200.875 133.836 202.197C132.943 206.04 132.329 209.94 132.001 213.867C132.001 214.052 131.968 214.237 131.962 214.423C131.605 218.961 131.641 223.52 132.067 228.053C132.12 228.692 132.179 229.292 132.251 229.906C132.37 230.902 132.508 231.898 132.659 232.895C135.286 238.773 138.486 244.394 142.215 249.681C142.721 250.16 143.228 250.626 143.747 251.086L143.997 251.309C155.493 261.395 170.304 267.086 185.516 269.386C186.134 269.481 186.759 269.564 187.384 269.647C190.51 270.073 193.636 270.35 196.762 270.478C202.892 270.752 208.646 270.535 214.19 269.2L214.756 269.066C218.581 268.105 222.238 266.598 225.608 264.595C228.613 262.826 231.527 260.929 234.427 259.076C235.545 258.47 236.663 257.767 237.801 257.084Z" fill="#2D1E1E"/>
<path d="M225.252 259.192C224.99 259.192 224.74 259.292 224.555 259.472C224.37 259.652 224.266 259.895 224.266 260.149C224.266 260.404 224.37 260.647 224.555 260.827C224.74 261.007 224.99 261.107 225.252 261.107C225.514 261.107 225.765 261.007 225.95 260.827C226.135 260.647 226.239 260.404 226.239 260.149C226.239 259.895 226.135 259.652 225.95 259.472C225.765 259.292 225.514 259.192 225.252 259.192Z" fill="white"/>
<path d="M229.198 256.636C228.937 256.636 228.686 256.737 228.501 256.917C228.316 257.097 228.212 257.34 228.212 257.594C228.212 257.848 228.316 258.092 228.501 258.272C228.686 258.452 228.937 258.552 229.198 258.552C229.46 258.552 229.711 258.452 229.896 258.272C230.081 258.092 230.185 257.848 230.185 257.594C230.185 257.34 230.081 257.097 229.896 256.917C229.711 256.737 229.46 256.636 229.198 256.636Z" fill="white"/>
<path d="M137.125 241.627C136.95 241.627 136.783 241.694 136.659 241.814C136.536 241.934 136.467 242.096 136.467 242.265C136.467 242.435 136.536 242.597 136.659 242.717C136.783 242.837 136.95 242.904 137.125 242.904C137.299 242.904 137.466 242.837 137.59 242.717C137.713 242.597 137.782 242.435 137.782 242.265C137.782 242.096 137.713 241.934 137.59 241.814C137.466 241.694 137.299 241.627 137.125 241.627Z" fill="white"/>
<path d="M160.143 172.643C159.969 172.643 159.801 172.71 159.678 172.83C159.555 172.95 159.485 173.113 159.485 173.282C159.485 173.451 159.555 173.614 159.678 173.734C159.801 173.854 159.969 173.921 160.143 173.921C160.317 173.921 160.485 173.854 160.608 173.734C160.731 173.614 160.801 173.451 160.801 173.282C160.801 173.113 160.731 172.95 160.608 172.83C160.485 172.71 160.317 172.643 160.143 172.643Z" fill="white"/>
<path d="M162.774 170.408C162.687 170.408 162.603 170.442 162.542 170.502C162.48 170.561 162.445 170.643 162.445 170.727C162.445 170.812 162.48 170.893 162.542 170.953C162.603 171.013 162.687 171.047 162.774 171.047C162.861 171.047 162.945 171.013 163.007 170.953C163.068 170.893 163.103 170.812 163.103 170.727C163.103 170.643 163.068 170.561 163.007 170.502C162.945 170.442 162.861 170.408 162.774 170.408Z" fill="white"/>
<path d="M164.09 175.518C164.002 175.518 163.919 175.551 163.857 175.611C163.795 175.671 163.761 175.752 163.761 175.837C163.761 175.922 163.795 176.003 163.857 176.063C163.919 176.123 164.002 176.157 164.09 176.157C164.177 176.157 164.26 176.123 164.322 176.063C164.384 176.003 164.418 175.922 164.418 175.837C164.418 175.752 164.384 175.671 164.322 175.611C164.26 175.551 164.177 175.518 164.09 175.518Z" fill="white"/>
<path d="M143.045 241.307C142.957 241.307 142.874 241.34 142.812 241.4C142.75 241.46 142.716 241.541 142.716 241.626C142.716 241.711 142.75 241.792 142.812 241.852C142.874 241.912 142.957 241.945 143.045 241.945C143.132 241.945 143.216 241.912 143.277 241.852C143.339 241.792 143.374 241.711 143.374 241.626C143.374 241.541 143.339 241.46 143.277 241.4C143.216 241.34 143.132 241.307 143.045 241.307Z" fill="white"/>
<path d="M139.756 246.417C139.668 246.417 139.585 246.451 139.523 246.511C139.461 246.571 139.427 246.652 139.427 246.737C139.427 246.821 139.461 246.902 139.523 246.962C139.585 247.022 139.668 247.056 139.756 247.056C139.843 247.056 139.926 247.022 139.988 246.962C140.05 246.902 140.084 246.821 140.084 246.737C140.084 246.652 140.05 246.571 139.988 246.511C139.926 246.451 139.843 246.417 139.756 246.417Z" fill="white"/>
<path d="M202.892 265.578C202.805 265.578 202.721 265.612 202.66 265.672C202.598 265.732 202.563 265.813 202.563 265.898C202.563 265.983 202.598 266.064 202.66 266.124C202.721 266.184 202.805 266.217 202.892 266.217C202.98 266.217 203.063 266.184 203.125 266.124C203.187 266.064 203.221 265.983 203.221 265.898C203.221 265.813 203.187 265.732 203.125 265.672C203.063 265.612 202.98 265.578 202.892 265.578Z" fill="white"/>
<path d="M202.892 261.747C202.805 261.747 202.721 261.781 202.66 261.84C202.598 261.9 202.563 261.981 202.563 262.066C202.563 262.151 202.598 262.232 202.66 262.292C202.721 262.352 202.805 262.385 202.892 262.385C202.98 262.385 203.063 262.352 203.125 262.292C203.187 262.232 203.221 262.151 203.221 262.066C203.221 261.981 203.187 261.9 203.125 261.84C203.063 261.781 202.98 261.747 202.892 261.747Z" fill="white"/>
<path d="M208.811 264.301C208.724 264.301 208.64 264.335 208.579 264.395C208.517 264.455 208.482 264.536 208.482 264.621C208.482 264.705 208.517 264.787 208.579 264.846C208.64 264.906 208.724 264.94 208.811 264.94C208.898 264.94 208.982 264.906 209.044 264.846C209.105 264.787 209.14 264.705 209.14 264.621C209.14 264.536 209.105 264.455 209.044 264.395C208.982 264.335 208.898 264.301 208.811 264.301Z" fill="white"/>
<path d="M150.935 210.009C150.848 210.009 150.764 210.043 150.703 210.103C150.641 210.163 150.606 210.244 150.606 210.329C150.606 210.413 150.641 210.495 150.703 210.555C150.764 210.614 150.848 210.648 150.935 210.648C151.023 210.648 151.106 210.614 151.168 210.555C151.229 210.495 151.264 210.413 151.264 210.329C151.264 210.244 151.229 210.163 151.168 210.103C151.106 210.043 151.023 210.009 150.935 210.009Z" fill="white"/>
<path d="M154.882 211.925C154.794 211.925 154.711 211.959 154.649 212.019C154.587 212.079 154.553 212.16 154.553 212.245C154.553 212.33 154.587 212.411 154.649 212.471C154.711 212.531 154.794 212.564 154.882 212.564C154.969 212.564 155.052 212.531 155.114 212.471C155.176 212.411 155.21 212.33 155.21 212.245C155.21 212.16 155.176 212.079 155.114 212.019C155.052 211.959 154.969 211.925 154.882 211.925Z" fill="white"/>
<path d="M134.494 218.313C134.407 218.313 134.323 218.346 134.261 218.406C134.2 218.466 134.165 218.547 134.165 218.632C134.165 218.717 134.2 218.798 134.261 218.858C134.323 218.918 134.407 218.951 134.494 218.951C134.581 218.951 134.665 218.918 134.726 218.858C134.788 218.798 134.823 218.717 134.823 218.632C134.823 218.547 134.788 218.466 134.726 218.406C134.665 218.346 134.581 218.313 134.494 218.313Z" fill="white"/>
<path d="M150.278 214.8C150.103 214.8 149.936 214.867 149.813 214.987C149.689 215.107 149.62 215.269 149.62 215.439C149.62 215.608 149.689 215.771 149.813 215.89C149.936 216.01 150.103 216.077 150.278 216.077C150.452 216.077 150.619 216.01 150.743 215.89C150.866 215.771 150.935 215.608 150.935 215.439C150.935 215.269 150.866 215.107 150.743 214.987C150.619 214.867 150.452 214.8 150.278 214.8Z" fill="white"/>
</svg>
