<svg width="36" height="37" viewBox="0 0 36 37" fill="none" xmlns="http://www.w3.org/2000/svg">
<g clip-path="url(#clip0)">
<path d="M20.5673 36.0643H14.898C13.951 36.0643 13.1807 35.2983 13.1807 34.3568V21.6423H9.87315C8.92619 21.6423 8.15588 20.8761 8.15588 19.9349V14.4867C8.15588 13.5451 8.92619 12.7792 9.87315 12.7792H13.1807V10.051C13.1807 7.34582 14.035 5.04431 15.651 3.39565C17.2743 1.73948 19.5428 0.864258 22.2114 0.864258L26.535 0.87124C27.4804 0.872852 28.2493 1.63877 28.2493 2.57871V7.63721C28.2493 8.57876 27.4793 9.34468 26.5326 9.34468L23.6215 9.34575C22.7337 9.34575 22.5076 9.52273 22.4593 9.57698C22.3796 9.66694 22.2848 9.92126 22.2848 10.6235V12.779H26.3138C26.6171 12.779 26.911 12.8533 27.1635 12.9935C27.7083 13.2962 28.047 13.8685 28.047 14.487L28.0449 19.9351C28.0449 20.8761 27.2746 21.6421 26.3276 21.6421H22.2848V34.3568C22.2848 35.2983 21.5142 36.0643 20.5673 36.0643ZM15.2561 34.0007H20.2091V20.7185C20.2091 20.0898 20.7237 19.5785 21.3557 19.5785H25.9695L25.9713 14.8428H21.3554C20.7234 14.8428 20.2091 14.3315 20.2091 13.7028V10.6235C20.2091 9.81733 20.2915 8.90049 20.9036 8.21138C21.6431 7.37832 22.8085 7.28218 23.621 7.28218L26.1739 7.2811V2.93428L22.2097 2.92783C17.9212 2.92783 15.2561 5.65742 15.2561 10.051V13.7028C15.2561 14.3312 14.7419 14.8428 14.1099 14.8428H10.2313V19.5785H14.1099C14.7419 19.5785 15.2561 20.0898 15.2561 20.7185V34.0007ZM26.531 2.93481H26.5313H26.531Z" fill="black"/>
</g>
<defs>
<clipPath id="clip0">
<rect width="35.3327" height="35.2" fill="white" transform="translate(0.515747 0.933105)"/>
</clipPath>
</defs>
</svg>
