<svg width="224" height="224" viewBox="0 0 224 224" fill="none" xmlns="http://www.w3.org/2000/svg">
<circle cx="112" cy="112" r="112" fill="white"/>
<path d="M98.3595 76.9546C83.9432 100.124 57.3342 115.242 30.0013 115.799C26.5331 122.574 27.6574 131.434 32.7165 137.138C33.4425 137.965 34.2619 138.745 34.6373 139.771C35.0003 140.76 34.9091 141.84 34.907 142.899C34.907 149.91 39.3501 156.528 45.4714 159.974C51.5926 163.421 59.1202 163.905 65.9321 162.178C67.3468 161.818 68.747 161.367 70.1969 161.197C71.9538 160.99 73.7232 161.197 75.4925 161.348C87.4405 162.316 99.4371 160.2 110.328 155.206C109.928 128.559 122.527 103.724 131.019 78.4565L98.3595 76.9546Z" fill="#3A88AA"/>
<path d="M97.5419 92.6562C99.7075 90.0786 101.898 86.6404 100.487 83.5911C94.6162 92.7182 87.3805 100.897 79.0309 107.843C63.9861 120.402 47.6137 125.801 29.3662 131.695C30.1465 133.688 31.2697 135.53 32.6851 137.138C33.3758 137.916 34.1371 138.669 34.5519 139.62C34.6702 139.509 34.7905 139.397 34.9129 139.289C38.0056 136.552 41.8597 134.862 45.5789 133.065C65.5585 123.393 83.2656 109.623 97.5419 92.6562Z" fill="#49A7DB"/>
<path d="M59.3008 152.755C54.8764 155.926 49.9665 158.876 44.6045 159.474C44.8811 159.648 45.1576 159.815 45.4342 159.975C51.5575 163.422 59.083 163.906 65.895 162.178C66.4654 162.033 67.0317 161.874 67.6001 161.725C69.9938 157.763 71.8233 153.301 73.4952 149.015C74.1797 147.258 74.8746 145.338 74.3249 143.534C68.7513 145.458 64.0966 149.317 59.3008 152.755Z" fill="#49A7DB"/>
<path d="M129.504 93.9188H129.488C129.094 93.9028 128.723 93.7353 128.451 93.4516C128.179 93.1678 128.028 92.79 128.029 92.3974C128.031 92.0049 128.185 91.6283 128.459 91.3468C128.734 91.0653 129.107 90.9008 129.5 90.888C129.6 90.888 135.684 90.7681 142.153 84.1501C149.996 76.1273 150.121 65.4897 150.121 65.3821C150.121 64.98 150.281 64.5943 150.566 64.3099C150.851 64.0255 151.238 63.8657 151.641 63.8657C152.044 63.8657 152.431 64.0255 152.716 64.3099C153.001 64.5943 153.162 64.98 153.162 65.3821C153.162 65.8642 153.06 77.3314 144.331 86.2623C136.988 93.7802 129.996 93.9188 129.504 93.9188Z" fill="#231F20"/>
<path d="M142.374 161.148C142.323 161.151 142.272 161.151 142.221 161.148C141.806 161.107 132.024 160.035 121.893 151.218C112.256 142.829 109.26 129.583 109.144 129.022C109.086 128.823 109.069 128.614 109.095 128.408C109.121 128.202 109.189 128.003 109.294 127.825C109.4 127.646 109.542 127.491 109.71 127.369C109.879 127.247 110.071 127.161 110.274 127.116C110.477 127.071 110.688 127.068 110.892 127.107C111.096 127.147 111.29 127.227 111.462 127.345C111.634 127.462 111.78 127.613 111.891 127.789C112.001 127.965 112.075 128.161 112.106 128.367C112.144 128.538 115.048 141.222 123.895 148.922C133.25 157.065 142.437 158.109 142.53 158.118C142.917 158.158 143.274 158.345 143.527 158.64C143.78 158.935 143.91 159.316 143.89 159.703C143.87 160.091 143.702 160.456 143.42 160.724C143.138 160.992 142.764 161.141 142.374 161.142V161.148Z" fill="#231F20"/>
<path d="M53.1006 144.678C53.1006 144.678 84.4742 130.35 91.5413 107.098C98.6084 83.8454 97.8368 63.2244 99.6539 55.4232C102.334 43.9129 108.524 41.0332 108.524 41.0332L114.852 39.9203C114.852 39.9203 121.66 35.4684 128.984 50.2639C134.452 61.2943 137.978 90.3019 126.869 118.137C115.798 145.853 97.6646 153.605 84.4742 155.483C71.2838 157.362 53.9967 151.708 53.9967 151.708L53.1006 144.678Z" fill="#F2D211"/>
<path d="M129.088 50.1522C125.354 42.6014 121.747 40.0672 119.113 39.3949C120.683 41.0499 122.359 43.4496 124.064 46.894C129.532 57.9327 133.06 86.9465 121.946 114.775C110.876 142.496 92.7401 150.243 79.5518 152.122C70.6676 153.398 59.9228 151.234 53.8555 149.695L54.0982 151.604C54.0982 151.604 71.3936 157.258 84.5757 155.38C97.7578 153.501 115.897 145.75 126.97 118.033C138.084 90.2027 134.556 61.1909 129.088 50.1522Z" fill="#EFBB18"/>
<path d="M108.524 41.0356L97.9951 27.9423L104.726 22.3049L118.854 39.4633C118.854 39.4633 117.444 42.9803 116.738 43.4457C116.033 43.9112 108.524 41.0356 108.524 41.0356Z" fill="#F2D211"/>
<path d="M92.0117 29.2882C93.1878 29.822 101.902 29.1041 101.902 29.1041L106.623 24.6045L102.609 17.0266L92.0117 22.3041V29.2882Z" fill="#F2D211"/>
<path d="M96.4736 84.7772C102.358 82.9629 113.19 79.8846 123.147 78.4426C128.302 77.6958 131.811 77.8572 134.197 78.3785C134.162 73.6467 133.776 68.9239 133.043 64.2488C130.494 63.7213 126.794 63.3178 121.498 63.4089C112.661 63.562 103.615 65.8748 98.328 67.4906C97.9236 72.408 97.4195 78.2813 96.4736 84.7772Z" fill="#49A7DB"/>
<path d="M105.061 74.5581C105.252 74.9894 105.559 75.3591 105.949 75.6257C106.377 75.8763 106.855 76.0303 107.349 76.0768C109.175 76.3437 111.046 76.1471 112.836 75.7043C114.184 75.3712 115.562 74.856 116.458 73.7987C117.354 72.7414 117.58 71.0138 116.622 70.0124C115.954 69.3151 114.917 69.1289 113.952 69.0627C111.081 68.8661 102.729 69.5551 105.061 74.5581Z" fill="#F2D211"/>
<path d="M122.58 72.394C122.638 72.8216 122.824 73.2215 123.115 73.541C123.406 73.8606 123.787 74.0846 124.208 74.1837C125.66 74.6761 127.206 74.7175 128.732 74.5065C129.88 74.3472 131.081 74.0099 131.973 73.0788C132.865 72.1477 133.313 70.4656 132.686 69.3545C132.251 68.5807 131.442 68.2662 130.66 68.08C128.353 67.5276 121.447 67.1593 122.58 72.394Z" fill="#F2D211"/>
<path d="M80.6199 177.844C80.3111 177.845 80.0099 177.748 79.7591 177.568C79.5082 177.389 79.3205 177.135 79.2225 176.843C79.1245 176.551 79.1212 176.235 79.213 175.941C79.3049 175.647 79.4872 175.389 79.7342 175.204C79.8213 175.14 88.5147 168.452 90.3774 156.52C92.0617 145.719 88.1226 136.279 88.0832 136.186C87.9655 135.837 87.9842 135.455 88.1355 135.119C88.2869 134.782 88.5598 134.515 88.9 134.37C89.2401 134.226 89.6224 134.214 89.9708 134.338C90.3192 134.461 90.608 134.711 90.7798 135.038C90.9561 135.452 95.0922 145.313 93.2689 156.966C91.2175 170.113 81.8852 177.24 81.4891 177.544C81.2389 177.734 80.9343 177.839 80.6199 177.844Z" fill="#231F20"/>
<path d="M115.782 72.1389C115.782 72.6147 115.641 73.0799 115.376 73.4755C115.11 73.8712 114.734 74.1795 114.293 74.3616C113.852 74.5437 113.367 74.5914 112.899 74.4985C112.431 74.4057 112.001 74.1766 111.664 73.8401C111.326 73.5036 111.096 73.0749 111.003 72.6082C110.91 72.1416 110.958 71.6578 111.141 71.2182C111.323 70.7786 111.633 70.4028 112.029 70.1385C112.426 69.8741 112.892 69.733 113.37 69.733C114.009 69.7336 114.623 69.9872 115.075 70.4383C115.527 70.8894 115.782 71.501 115.782 72.1389Z" fill="#231F20"/>
<path d="M113.364 71.7226C113.364 71.9205 113.305 72.114 113.194 72.2786C113.084 72.4432 112.927 72.5715 112.744 72.6473C112.56 72.723 112.358 72.7429 112.164 72.7042C111.969 72.6656 111.79 72.5703 111.65 72.4303C111.509 72.2903 111.414 72.112 111.375 71.9178C111.336 71.7237 111.356 71.5224 111.432 71.3395C111.508 71.1567 111.637 71.0003 111.802 70.8904C111.967 70.7804 112.161 70.7217 112.359 70.7217C112.626 70.7217 112.881 70.8271 113.069 71.0148C113.258 71.2025 113.364 71.4571 113.364 71.7226Z" fill="white"/>
<path d="M131.912 70.9758C131.914 71.4521 131.774 71.9183 131.51 72.3153C131.247 72.7123 130.871 73.0222 130.43 73.2059C129.989 73.3896 129.504 73.4387 129.035 73.3471C128.567 73.2554 128.136 73.0271 127.797 72.691C127.459 72.355 127.228 71.9263 127.134 71.4594C127.04 70.9924 127.087 70.5081 127.27 70.0679C127.452 69.6277 127.761 69.2513 128.158 68.9865C128.555 68.7217 129.022 68.5803 129.499 68.5803C130.138 68.5803 130.75 68.8324 131.202 69.2813C131.654 69.7303 131.909 70.3396 131.912 70.9758Z" fill="#231F20"/>
<path d="M129.501 70.5599C129.501 70.7578 129.442 70.9513 129.332 71.1159C129.222 71.2805 129.065 71.4088 128.881 71.4846C128.698 71.5603 128.496 71.5801 128.301 71.5415C128.107 71.5029 127.928 71.4076 127.787 71.2676C127.647 71.1276 127.551 70.9493 127.512 70.7551C127.474 70.561 127.494 70.3597 127.57 70.1768C127.646 69.9939 127.774 69.8376 127.939 69.7276C128.104 69.6177 128.299 69.559 128.497 69.559C128.763 69.559 129.019 69.6644 129.207 69.8521C129.395 70.0398 129.501 70.2944 129.501 70.5599Z" fill="white"/>
<path d="M117.234 82.6601C117.234 82.6601 120.394 86.0219 123.528 86.0219C126.663 86.0219 127.717 81.1996 127.717 81.1996C127.717 81.1996 129.104 89.5554 123.821 90.3601C118.946 91.1111 117.234 82.6601 117.234 82.6601Z" fill="#231F20"/>
<path d="M126.966 80.5378C127.238 80.4174 127.543 80.39 127.833 80.46C128.122 80.5299 128.381 80.6932 128.568 80.9245C128.598 80.9725 128.646 81.007 128.701 81.0212C128.756 81.0355 128.814 81.0282 128.864 81.001C128.89 80.9878 128.912 80.9693 128.93 80.9469C128.949 80.9244 128.962 80.8984 128.969 80.8705C128.977 80.8427 128.978 80.8136 128.974 80.7852C128.969 80.7567 128.959 80.7295 128.943 80.7053C128.695 80.3776 128.341 80.145 127.941 80.0467C127.541 79.9484 127.119 79.9904 126.746 80.1655C126.721 80.179 126.698 80.1976 126.68 80.2201C126.663 80.2427 126.65 80.2687 126.642 80.2965C126.635 80.3243 126.634 80.3534 126.638 80.3817C126.643 80.4101 126.654 80.4372 126.669 80.4613C126.699 80.51 126.747 80.5452 126.802 80.5595C126.858 80.5738 126.916 80.566 126.966 80.5378Z" fill="#231F20"/>
<path d="M116.368 83.2178C116.337 82.838 116.423 82.458 116.614 82.1279C116.805 81.7978 117.091 81.5331 117.436 81.369C117.462 81.3556 117.484 81.337 117.502 81.3144C117.52 81.2919 117.533 81.2658 117.54 81.238C117.547 81.2102 117.549 81.1812 117.544 81.1528C117.539 81.1244 117.529 81.0974 117.513 81.0733C117.483 81.025 117.435 80.9901 117.38 80.9758C117.325 80.9616 117.266 80.9691 117.216 80.9968C116.805 81.1982 116.464 81.517 116.236 81.9125C116.007 82.3081 115.903 82.7625 115.934 83.2178C115.934 83.2751 115.957 83.33 115.998 83.3706C116.038 83.4111 116.094 83.4338 116.151 83.4338C116.209 83.4338 116.264 83.4111 116.304 83.3706C116.345 83.33 116.368 83.2751 116.368 83.2178Z" fill="#231F20"/>
<path d="M106.624 125.966C106.406 125.966 106.191 125.919 105.993 125.829C105.794 125.738 105.618 125.607 105.475 125.442C105.208 125.134 98.9076 117.804 97.8102 109.498C96.4369 99.1026 100.073 93.0721 100.227 92.8218C100.438 92.4788 100.776 92.2334 101.168 92.1396C101.561 92.0457 101.974 92.111 102.318 92.3211C102.662 92.5313 102.908 92.869 103.002 93.2601C103.096 93.6512 103.031 94.0635 102.82 94.4064C102.772 94.4871 99.6046 99.8722 100.824 109.095C101.804 116.509 107.714 123.382 107.772 123.45C107.963 123.669 108.088 123.939 108.13 124.227C108.172 124.515 108.13 124.809 108.009 125.073C107.888 125.338 107.693 125.562 107.447 125.719C107.202 125.877 106.916 125.96 106.624 125.959V125.966Z" fill="#231F20"/>
<path d="M148.885 70.8563C148.653 69.5696 148.182 69.0131 147.756 67.4263C147.331 65.8396 146.603 64.3563 146.026 62.8192C145.885 62.5245 145.832 62.1956 145.873 61.8717C146.006 61.2697 146.771 60.9759 147.362 61.1579C147.953 61.34 148.381 61.8572 148.69 62.3992C148.999 62.9412 149.235 63.5184 149.63 63.9963C150.023 61.45 150.813 58.9806 151.97 56.677C152.145 56.2611 152.413 55.8904 152.754 55.5929C153.113 55.3178 153.64 55.2164 154.015 55.4688C154.39 55.7212 154.478 56.1494 154.527 56.5611C154.62 57.3166 154.576 58.0825 154.397 58.8223C154.668 58.2286 154.691 57.5562 154.872 56.9294C155.052 56.3025 155.484 55.6633 156.133 55.5785C156.882 55.4792 157.533 56.2136 157.631 56.9604C157.728 57.7072 157.423 58.4458 157.139 59.143C157.178 58.6754 157.809 58.4313 158.222 58.6547C158.635 58.8781 158.807 59.4057 158.749 59.8712C158.661 60.3329 158.481 60.7722 158.218 61.1621C155.361 66.0899 153.447 70.2999 149.298 74.2202L148.885 70.8563Z" fill="#231F20"/>
<path d="M105.413 121.61C106.035 122.609 107.902 122.667 108.79 123.849C109.678 125.03 110.792 126.025 111.794 127.115C112.011 127.314 112.166 127.57 112.242 127.854C112.335 128.404 111.796 128.905 111.24 128.952C110.684 129 110.153 128.71 109.713 128.369C109.273 128.028 108.883 127.618 108.39 127.351C108.923 129.61 109.099 131.938 108.91 134.25C108.904 134.657 108.805 135.056 108.622 135.419C108.527 135.599 108.38 135.746 108.2 135.84C108.019 135.935 107.814 135.972 107.612 135.947C107.245 135.87 106.989 135.533 106.813 135.208C106.482 134.608 106.26 133.954 106.158 133.276C106.133 133.861 106.34 134.432 106.4 135.016C106.46 135.599 106.317 136.28 105.805 136.567C105.212 136.903 104.421 136.509 104.087 135.916C103.753 135.322 103.751 134.608 103.76 133.93C103.886 134.343 103.44 134.757 103.019 134.701C102.598 134.646 102.278 134.271 102.168 133.874C102.084 133.459 102.084 133.031 102.168 132.616C102.888 127.541 103.747 123.851 104.16 121.122L105.413 121.61Z" fill="#231F20"/>
<path d="M86.445 161.816C84.9017 162.362 72.0391 176.378 72.0391 176.378C72.0391 176.378 84.7026 192.386 86.445 190.747C88.1874 189.109 86.445 178.465 86.445 178.465L96.4742 169.185L86.445 161.816Z" fill="#49A7DB"/>
<path d="M126.498 159.631C126.498 159.631 132.615 149.532 132.978 149.532C133.341 149.532 145.859 154.581 145.859 154.581C145.859 154.581 154.7 148.714 155.795 149.532C156.891 150.349 148.278 167.002 148.278 167.002L126.498 159.631Z" fill="#49A7DB"/>
<path d="M88.912 167.12C88.6693 166.452 87.8126 165.984 87.213 166.367L86.3024 166.754C85.0867 167.838 83.9237 168.977 82.8132 170.172C82.2427 170.793 81.6473 171.556 81.8278 172.373C81.9896 173.114 82.7841 173.594 83.5434 173.615C84.3026 173.635 85.0224 173.267 85.6489 172.835C86.9688 171.919 88.0108 170.658 88.661 169.191C88.9493 168.533 89.1547 167.788 88.912 167.12Z" fill="#F2D211"/>
<path d="M140.025 158.219C140.565 157.755 140.695 156.787 140.123 156.367L139.43 155.657C137.979 154.913 136.496 154.237 134.98 153.632C134.2 153.322 133.269 153.042 132.568 153.502C131.931 153.915 131.767 154.828 132.028 155.542C132.29 156.255 132.883 156.795 133.512 157.222C134.841 158.125 136.394 158.645 138.001 158.724C138.716 158.759 139.486 158.684 140.025 158.219Z" fill="#F2D211"/>
<path opacity="0.55" d="M103.919 49.5794C103.392 50.7957 103.026 52.0753 102.83 53.386C102.517 55.2272 102.384 57.0953 102.254 58.9572C102.003 62.5293 101.752 66.1014 101.499 69.6734C101.443 70.4658 101.555 71.5022 102.328 71.6926C102.915 71.8374 103.461 71.3471 103.818 70.8651C106.755 66.8661 105.386 61.2494 106.591 56.4416C107.185 54.077 108.409 51.9358 109.819 49.9663C110.605 48.8699 113.201 46.7287 112.192 45.2764C111.392 44.122 109.035 44.5772 108.023 45.0695C106.23 45.9219 104.733 47.8127 103.919 49.5794Z" fill="white"/>
<path opacity="0.55" d="M61.4688 144.803L76.2315 137.027C79.2144 135.457 82.2096 133.878 84.9436 131.909C88.2361 129.539 91.1102 126.64 93.4481 123.33C94.8711 121.312 96.126 118.995 96.0057 116.534C96.0169 116.126 95.8937 115.727 95.6552 115.396C94.9333 114.548 93.5477 115.234 92.7512 116.016C90.289 118.464 88.6316 121.602 86.4287 124.277C82.8817 128.611 78.032 131.642 73.2611 134.594L62.9685 140.964C62.0081 141.56 59.1269 142.662 58.681 143.746C57.8782 145.674 60.498 145.314 61.4688 144.803Z" fill="white"/>
<path d="M53.1006 144.68L56.3035 145.984V148.715L53.9967 151.709L53.1006 144.68Z" fill="#C6A810"/>
<path d="M92.0117 29.2872L103.953 19.564L106.623 24.6035L99.3257 29.2872H92.0117Z" fill="#EFBB18"/>
<path d="M149.283 92.4033L152.612 92.7395C153.276 92.8066 153.945 92.7329 154.462 92.3526C156.153 91.107 159.651 87.0327 157.793 75.2629C155.935 63.4931 151.27 60.1841 149.241 59.2872C148.621 59.0134 147.949 59.0654 147.324 59.2533L144.197 60.1947C141.869 60.8956 139.288 59.5725 138.432 57.2395L135.174 48.3619C134.427 46.3255 135.235 44.1425 137.098 43.1702L139.307 42.0162C140.986 41.1395 142.964 40.8955 144.889 41.3275C146.497 41.6884 148.071 42.2219 149.432 43.1835C153.722 46.2137 163.275 54.9814 166.351 74.4607C169.427 93.9401 162.88 104.217 159.659 107.951C158.637 109.136 157.275 109.945 155.826 110.592C154.091 111.367 152.095 111.496 150.193 110.955L147.688 110.243C145.578 109.643 144.113 107.673 144.205 105.558L144.605 96.3375C144.71 93.9143 146.805 92.1529 149.283 92.4033Z" fill="url(#paint0_linear)"/>
<defs>
<linearGradient id="paint0_linear" x1="162.166" y1="44.0791" x2="157.955" y2="115.041" gradientUnits="userSpaceOnUse">
<stop offset="0.0088806" stop-color="#0F47BE"/>
<stop offset="1" stop-color="#082B70"/>
</linearGradient>
</defs>
</svg>
