<svg width="245" height="237" viewBox="0 0 245 237" fill="none" xmlns="http://www.w3.org/2000/svg">
<circle cx="133" cy="125" r="112" fill="white"/>
<path d="M163.622 115.364C138.984 103.542 121.072 78.7706 117.599 51.7261C110.474 49.0103 101.761 51.0711 96.6149 56.6968C95.8674 57.5051 95.1773 58.4008 94.1945 58.8827C93.2474 59.3482 92.161 59.373 91.1049 59.4841C84.1153 60.2326 77.992 65.3451 75.2094 71.783C72.4269 78.2209 72.7479 85.7371 75.1972 92.3076C75.7071 93.6719 76.3062 95.0122 76.6301 96.4319C77.0239 98.152 77.0065 99.9286 77.0448 101.699C77.3558 113.65 80.7452 125.321 86.887 135.587C113.41 132.345 139.515 142.187 165.612 147.911L163.622 115.364Z" fill="#3A88AA"/>
<path d="M110.718 148.339C110.677 148.37 110.635 148.398 110.59 148.424C110.222 148.618 101.48 153.126 88.1496 151.376C75.4676 149.71 65.6211 140.332 65.2132 139.929C65.0539 139.795 64.9238 139.631 64.831 139.445C64.7381 139.259 64.6846 139.056 64.6736 138.849C64.6625 138.641 64.6944 138.434 64.767 138.239C64.8396 138.045 64.9516 137.867 65.0958 137.717C65.2401 137.568 65.4137 137.449 65.6058 137.369C65.7978 137.289 66.0044 137.249 66.2125 137.252C66.4207 137.255 66.626 137.3 66.8159 137.386C67.0057 137.471 67.176 137.594 67.3161 137.748C67.4425 137.87 76.9007 146.83 88.5421 148.359C100.852 149.975 109.083 145.774 109.166 145.729C109.511 145.549 109.912 145.508 110.286 145.614C110.66 145.72 110.98 145.965 111.178 146.299C111.377 146.633 111.44 147.03 111.353 147.409C111.267 147.787 111.039 148.118 110.715 148.334L110.718 148.339Z" fill="#231F20"/>
<path d="M70.3099 135.349C70.3099 135.349 66.0186 146.345 65.661 146.407C65.3033 146.469 52.1026 143.633 52.1026 143.633C52.1026 143.633 44.4008 150.925 43.1813 150.307C41.9619 149.689 47.5857 131.81 47.5857 131.81L70.3099 135.349Z" fill="#49A7DB"/>
<path d="M57.2264 139.053C56.7746 139.602 56.8122 140.578 57.4484 140.894L58.2529 141.475C59.8101 141.96 61.3873 142.372 62.9846 142.71C63.8064 142.882 64.772 142.998 65.3838 142.426C65.9402 141.909 65.9449 140.982 65.5647 140.324C65.1846 139.665 64.5074 139.235 63.8149 138.922C62.3501 138.26 60.7305 138.013 59.1343 138.21C58.4232 138.298 57.6778 138.502 57.2264 139.053Z" fill="#F2D211"/>
<path d="M147.88 116.23C150.681 118.102 154.343 119.907 157.232 118.183C147.506 113.335 138.58 107.033 130.764 99.4955C116.637 85.9176 109.506 70.2589 101.682 52.7935C99.7785 53.7801 98.0621 55.0905 96.6102 56.6657C95.9085 57.4337 95.239 58.2689 94.3346 58.7819C94.4586 58.8872 94.5828 58.9946 94.7031 59.1045C97.7619 61.8791 99.8583 65.5204 102.048 69.0165C113.823 87.7962 129.441 103.885 147.88 116.23Z" fill="#49A7DB"/>
<path d="M83.8803 84.7242C80.2461 80.6752 76.7808 76.1212 75.6122 70.8676C75.4685 71.1604 75.3317 71.4525 75.2017 71.7439C72.4193 78.1842 72.7401 85.6987 75.1895 92.2695C75.3948 92.8197 75.6141 93.3643 75.8233 93.912C80.0285 95.8628 84.6727 97.2007 89.1247 98.401C90.9489 98.8923 92.9371 99.3764 94.6769 98.6387C92.1637 93.3169 87.8202 89.1129 83.8803 84.7242Z" fill="#49A7DB"/>
<path d="M161.301 150.326L161.292 150.312C161.095 149.972 161.038 149.569 161.132 149.188C161.227 148.807 161.466 148.478 161.799 148.269C162.132 148.06 162.534 147.988 162.919 148.068C163.304 148.148 163.643 148.375 163.865 148.699C163.918 148.783 167.278 153.843 176.347 155.747C187.341 158.055 196.415 152.462 196.506 152.404C196.846 152.189 197.259 152.117 197.652 152.205C198.046 152.293 198.388 152.533 198.604 152.873C198.82 153.212 198.892 153.624 198.804 154.016C198.716 154.409 198.475 154.75 198.135 154.965C197.726 155.224 187.963 161.28 175.725 158.712C165.427 156.555 161.564 150.74 161.301 150.326Z" fill="#231F20"/>
<path d="M77.3974 113.167C77.3974 113.167 106.334 131.915 129.807 125.412C153.281 118.909 170.328 107.214 177.907 104.566C189.088 100.658 194.842 104.328 194.842 104.328L199.174 109.062C199.174 109.062 206.59 112.411 197.985 126.505C191.574 137.018 168.901 155.525 139.382 161.077C109.984 166.6 93.7083 155.48 85.0528 145.377C76.3973 135.274 71.9253 117.687 71.9253 117.687L77.3974 113.167Z" fill="#F2D211"/>
<path d="M198.136 126.533C202.53 119.344 202.744 114.948 201.902 112.37C201.342 114.578 200.208 117.275 198.204 120.556C191.786 131.074 169.109 149.586 139.593 155.132C110.192 160.656 93.9183 149.532 85.2639 139.431C79.4246 132.633 75.5017 122.425 73.5552 116.49L72.0684 117.717C72.0684 117.717 76.5449 135.312 85.196 145.408C93.847 155.503 110.126 166.629 139.525 161.108C169.043 155.561 191.718 137.05 198.136 126.533Z" fill="#EFBB18"/>
<path d="M194.843 104.329L200.289 88.4483L208.668 91.0978L201.707 112.187C201.707 112.187 197.974 112.883 197.202 112.538C196.43 112.193 194.843 104.329 194.843 104.329Z" fill="#F2D211"/>
<path d="M195.944 84.1319C196.122 85.4083 201.397 92.363 201.397 92.363L207.736 93.9291L212.003 86.4895L201.857 80.3908L195.944 84.1319Z" fill="#F2D211"/>
<path d="M151.349 117.611C156.038 121.595 164.446 129.069 171 136.682C174.393 140.624 176.136 143.666 176.973 145.954C180.961 143.39 184.753 140.536 188.319 137.415C187.4 134.985 185.759 131.652 182.846 127.241C177.983 119.881 171.18 113.501 166.979 109.914C162.599 112.207 157.356 114.928 151.349 117.611Z" fill="#49A7DB"/>
<path d="M164.602 119.369C164.339 119.761 164.19 120.218 164.173 120.689C164.19 121.184 164.316 121.669 164.541 122.11C165.293 123.79 166.462 125.26 167.795 126.531C168.8 127.488 169.974 128.372 171.349 128.561C172.724 128.749 174.308 128.014 174.642 126.671C174.875 125.735 174.477 124.762 174.016 123.914C172.645 121.391 167.588 114.726 164.602 119.369Z" fill="#F2D211"/>
<path d="M175.819 132.965C175.488 133.243 175.249 133.615 175.134 134.031C175.019 134.447 175.034 134.888 175.176 135.295C175.536 136.782 176.329 138.106 177.326 139.279C178.075 140.16 179.004 140.991 180.27 141.243C181.536 141.496 183.2 140.972 183.806 139.85C184.227 139.068 184.06 138.218 183.799 137.46C183.031 135.221 179.644 129.208 175.819 132.965Z" fill="#F2D211"/>
<path d="M64.0557 154.108C63.8898 153.848 63.8101 153.543 63.8279 153.236C63.8457 152.928 63.9602 152.634 64.155 152.395C64.3498 152.156 64.6151 151.984 64.9133 151.904C65.2115 151.824 65.5275 151.839 65.8164 151.948C65.9173 151.987 76.2368 155.727 87.3381 150.904C97.3856 146.537 103.269 138.164 103.326 138.081C103.559 137.794 103.892 137.606 104.258 137.553C104.624 137.5 104.996 137.587 105.301 137.796C105.606 138.005 105.821 138.32 105.903 138.68C105.984 139.04 105.927 139.417 105.743 139.737C105.487 140.107 99.3522 148.873 88.5085 153.579C76.2779 158.893 65.2449 154.85 64.7752 154.68C64.4803 154.571 64.2281 154.371 64.0557 154.108Z" fill="#231F20"/>
<path d="M172.393 127.104C171.99 127.359 171.52 127.489 171.043 127.477C170.566 127.466 170.103 127.314 169.713 127.04C169.323 126.766 169.022 126.383 168.85 125.94C168.678 125.496 168.642 125.011 168.746 124.547C168.851 124.082 169.091 123.659 169.436 123.331C169.781 123.002 170.216 122.784 170.686 122.702C171.156 122.62 171.64 122.679 172.077 122.872C172.513 123.064 172.882 123.381 173.138 123.783C173.48 124.322 173.594 124.975 173.454 125.597C173.314 126.22 172.933 126.762 172.393 127.104Z" fill="#231F20"/>
<path d="M171.448 124.841C171.28 124.947 171.085 125.002 170.886 124.997C170.688 124.992 170.495 124.929 170.333 124.815C170.171 124.701 170.046 124.542 169.974 124.358C169.903 124.173 169.888 123.971 169.931 123.778C169.975 123.585 170.074 123.409 170.218 123.272C170.362 123.136 170.543 123.045 170.738 123.011C170.934 122.977 171.135 123.001 171.317 123.081C171.498 123.161 171.652 123.293 171.758 123.46C171.901 123.684 171.948 123.956 171.89 124.215C171.832 124.474 171.673 124.699 171.448 124.841Z" fill="white"/>
<path d="M182.018 140.065C181.615 140.322 181.146 140.454 180.668 140.444C180.191 140.435 179.727 140.284 179.335 140.011C178.944 139.738 178.642 139.356 178.469 138.912C178.296 138.468 178.258 137.983 178.361 137.518C178.465 137.053 178.704 136.629 179.049 136.3C179.394 135.971 179.83 135.751 180.3 135.669C180.77 135.587 181.255 135.645 181.692 135.838C182.128 136.03 182.498 136.348 182.754 136.75C183.096 137.287 183.21 137.938 183.072 138.559C182.934 139.18 182.555 139.722 182.018 140.065Z" fill="#231F20"/>
<path d="M181.077 137.81C180.909 137.916 180.714 137.97 180.515 137.965C180.317 137.961 180.124 137.897 179.962 137.783C179.8 137.67 179.675 137.51 179.603 137.326C179.532 137.141 179.517 136.94 179.56 136.746C179.603 136.553 179.703 136.377 179.847 136.241C179.991 136.104 180.172 136.013 180.367 135.979C180.563 135.945 180.764 135.969 180.946 136.049C181.127 136.13 181.281 136.261 181.387 136.429C181.529 136.653 181.577 136.924 181.519 137.183C181.461 137.442 181.302 137.667 181.077 137.81Z" fill="white"/>
<path d="M164.262 133.962C164.262 133.962 163.108 138.424 164.787 141.063C166.466 143.703 171.113 142.008 171.113 142.008C171.113 142.008 164.781 147.652 161.27 143.634C158.023 139.93 164.262 133.962 164.262 133.962Z" fill="#231F20"/>
<path d="M171.271 141.02C171.518 141.185 171.705 141.427 171.801 141.708C171.896 141.989 171.896 142.294 171.801 142.576C171.776 142.627 171.773 142.686 171.79 142.74C171.807 142.794 171.845 142.839 171.895 142.866C171.92 142.881 171.947 142.89 171.976 142.893C172.005 142.896 172.034 142.894 172.061 142.885C172.089 142.876 172.114 142.862 172.136 142.843C172.158 142.824 172.175 142.8 172.187 142.774C172.332 142.39 172.339 141.967 172.208 141.578C172.077 141.188 171.816 140.855 171.468 140.635C171.443 140.621 171.415 140.612 171.387 140.609C171.358 140.606 171.329 140.609 171.302 140.618C171.274 140.627 171.249 140.642 171.227 140.661C171.206 140.68 171.189 140.703 171.177 140.729C171.151 140.78 171.147 140.839 171.165 140.894C171.182 140.948 171.22 140.993 171.271 141.02Z" fill="#231F20"/>
<path d="M163.324 133.531C163.63 133.302 163.997 133.171 164.379 133.154C164.761 133.138 165.139 133.238 165.462 133.44C165.487 133.454 165.515 133.463 165.544 133.466C165.572 133.469 165.601 133.466 165.629 133.457C165.656 133.449 165.682 133.434 165.703 133.415C165.725 133.396 165.742 133.373 165.754 133.346C165.779 133.295 165.783 133.236 165.765 133.182C165.748 133.128 165.71 133.083 165.66 133.056C165.269 132.818 164.816 132.701 164.359 132.721C163.902 132.741 163.461 132.896 163.092 133.166C163.044 133.197 163.009 133.246 162.997 133.302C162.984 133.358 162.994 133.416 163.025 133.465C163.056 133.513 163.105 133.547 163.161 133.56C163.217 133.572 163.276 133.562 163.324 133.531Z" fill="#231F20"/>
<path d="M171.781 149.42C171.692 149.618 171.56 149.794 171.396 149.937C171.232 150.08 171.039 150.187 170.83 150.248C170.438 150.365 161.146 153.071 153.105 150.647C143.041 147.613 139.029 141.824 138.864 141.581C138.637 141.248 138.552 140.84 138.628 140.445C138.704 140.05 138.934 139.701 139.267 139.475C139.601 139.249 140.011 139.164 140.407 139.24C140.803 139.315 141.153 139.545 141.38 139.877C141.434 139.954 145.049 145.051 153.978 147.741C161.156 149.906 169.869 147.366 169.956 147.341C170.235 147.257 170.532 147.255 170.813 147.336C171.093 147.416 171.344 147.575 171.536 147.794C171.728 148.013 171.853 148.283 171.895 148.57C171.938 148.858 171.896 149.152 171.776 149.417L171.781 149.42Z" fill="#231F20"/>
<path d="M191.208 154.295C192.173 153.411 192.392 152.716 193.508 151.508C194.624 150.3 195.49 148.892 196.482 147.583C196.656 147.306 196.906 147.085 197.202 146.946C197.783 146.736 198.442 147.223 198.604 147.818C198.767 148.414 198.558 149.051 198.265 149.601C197.971 150.152 197.609 150.66 197.415 151.248C199.782 150.216 202.296 149.558 204.866 149.298C205.313 149.223 205.77 149.251 206.204 149.378C206.63 149.533 206.998 149.922 206.985 150.374C206.972 150.825 206.656 151.128 206.334 151.39C205.744 151.873 205.072 152.246 204.35 152.491C204.998 152.402 205.58 152.061 206.207 151.877C206.835 151.694 207.607 151.715 208.027 152.216C208.512 152.793 208.239 153.735 207.659 154.218C207.078 154.7 206.29 154.839 205.547 154.973C205.964 154.755 206.509 155.156 206.541 155.623C206.572 156.09 206.218 156.518 205.793 156.718C205.355 156.892 204.886 156.975 204.415 156.963C198.713 157.197 194.122 157.839 188.581 156.445L191.208 154.295Z" fill="#231F20"/>
<path d="M167.303 151.528C168.472 151.682 169.294 153.355 170.739 153.675C172.184 153.995 173.552 154.598 174.961 155.059C175.231 155.175 175.53 155.21 175.82 155.162C176.361 155.02 176.597 154.324 176.411 153.799C176.226 153.274 175.742 152.911 175.249 152.652C174.756 152.393 174.221 152.207 173.774 151.869C176.058 151.423 178.257 150.624 180.292 149.5C180.661 149.327 180.986 149.072 181.242 148.756C181.367 148.596 181.441 148.402 181.452 148.199C181.464 147.996 181.414 147.794 181.308 147.621C181.086 147.319 180.673 147.226 180.304 147.199C179.619 147.145 178.93 147.213 178.268 147.399C178.793 147.136 179.4 147.089 179.958 146.903C180.516 146.718 181.079 146.307 181.13 145.723C181.192 145.046 180.508 144.49 179.828 144.431C179.147 144.372 178.494 144.664 177.878 144.951C178.308 144.896 178.502 144.32 178.278 143.96C178.053 143.6 177.58 143.464 177.172 143.528C176.758 143.623 176.367 143.799 176.022 144.046C171.682 146.791 168.664 149.091 166.34 150.591L167.303 151.528Z" fill="#231F20"/>
<path d="M80.7475 150.428C79.4584 149.421 60.7014 146.095 60.7014 146.095C60.7014 146.095 53.93 165.335 56.2506 165.925C58.5712 166.515 66.6501 159.346 66.6501 159.346L79.88 162.822L80.7475 150.428Z" fill="#49A7DB"/>
<path d="M77.577 155.346C78.0128 154.784 77.9499 153.812 77.3047 153.512L76.4894 152.952C74.9204 152.509 73.3329 152.14 71.7268 151.845C70.8958 151.697 69.9305 151.604 69.3353 152.194C68.7948 152.727 68.8139 153.653 69.203 154.303C69.5922 154.954 70.2895 155.363 70.9911 155.659C72.4737 156.28 74.0989 156.482 75.6891 156.244C76.4006 156.134 77.1412 155.909 77.577 155.346Z" fill="#F2D211"/>
<path opacity="0.55" d="M185.139 105.028C183.827 105.235 182.547 105.612 181.333 106.15C179.606 106.872 177.953 107.761 176.307 108.648C173.148 110.351 169.989 112.052 166.829 113.752C166.128 114.129 165.31 114.779 165.564 115.532C165.755 116.104 166.463 116.301 167.062 116.343C172.021 116.675 176.044 112.514 180.76 110.954C183.08 110.187 185.548 110.071 187.971 110.204C189.321 110.278 192.524 111.317 193.213 109.69C193.762 108.398 192.114 106.657 191.155 106.068C189.474 105.015 187.071 104.767 185.139 105.028Z" fill="white"/>
<path opacity="0.55" d="M81.7736 120.281L96.2654 128.549C99.1926 130.22 102.133 131.897 105.265 133.145C109.035 134.649 113.029 135.517 117.085 135.713C119.555 135.831 122.189 135.647 124.209 134.227C124.56 134.018 124.832 133.7 124.985 133.322C125.316 132.26 123.992 131.461 122.904 131.209C119.513 130.446 115.968 130.731 112.523 130.308C106.953 129.642 101.789 127.181 96.7344 124.744L85.828 119.488C84.8091 118.998 82.3322 117.162 81.1755 117.367C79.113 117.724 80.821 119.737 81.7736 120.281Z" fill="white"/>
<path d="M77.3965 113.167L78.008 116.562L75.696 118.025L71.9263 117.686L77.3965 113.167Z" fill="#C6A810"/>
<path d="M195.944 84.1314L210.573 88.9808L207.736 93.9286L199.861 90.2914L195.944 84.1314Z" fill="#EFBB18"/>
<g clip-path="url(#clip0)">
<path d="M180.688 160.415L180.708 160.21C180.708 160.21 173.239 155.819 163.331 160.134C154.557 163.956 152.669 173.263 152.669 173.263L153.093 173.536C154.109 171.246 157.317 165.297 164.313 162.249C171.523 159.108 177.801 159.804 180.688 160.415Z" fill="#FED600"/>
<path d="M165.329 164.439C170.16 162.345 175.349 161.133 180.642 160.861L180.686 160.414C177.8 159.803 171.522 159.108 164.311 162.248C157.315 165.296 154.108 171.245 153.091 173.536L153.505 173.803C155.234 171.5 159.099 167.149 165.329 164.439Z" fill="#F9A01B"/>
<path d="M165.712 165.851C171.06 163.522 180.558 161.74 180.558 161.74L180.642 160.862C175.349 161.133 170.16 162.345 165.329 164.44C159.104 167.149 155.234 171.501 153.508 173.803L153.805 173.994C153.805 173.994 160.061 168.311 165.712 165.851Z" fill="#FED600"/>
<path d="M180.718 160.199L180.492 161.752C180.653 161.759 180.813 161.737 180.964 161.687C181.163 161.606 181.319 161.451 181.4 161.256C181.48 161.06 181.478 160.841 181.393 160.646C181.332 160.519 181.237 160.411 181.118 160.332C180.999 160.253 180.861 160.207 180.718 160.199Z" fill="#475324"/>
<path d="M153.654 173.602L153.132 174.406L152.534 173.91L153.106 173.194L153.654 173.602Z" fill="#FED600"/>
<path d="M175.285 153.073L175.244 152.87C175.244 152.87 166.818 150.758 158.63 157.695C151.379 163.836 152.322 173.306 152.322 173.306L152.807 173.448C153.102 170.962 154.41 164.346 160.19 159.448C166.15 154.4 172.349 153.301 175.285 153.073Z" fill="#FED600"/>
<path d="M161.808 161.265C165.803 157.894 170.401 155.268 175.375 153.517L175.284 153.076C172.349 153.302 166.149 154.403 160.191 159.45C154.41 164.347 153.103 170.964 152.808 173.449L153.282 173.59C154.253 170.889 156.663 165.625 161.808 161.265Z" fill="#F9A01B"/>
<path d="M162.592 162.513C167.012 158.77 175.555 154.383 175.555 154.383L175.377 153.515C170.403 155.266 165.805 157.892 161.81 161.263C156.667 165.619 154.255 170.887 153.285 173.585L153.626 173.684C153.626 173.684 157.923 166.467 162.592 162.513Z" fill="#FED600"/>
<path d="M175.25 152.857L175.493 154.411C175.649 154.373 175.795 154.307 175.925 154.216C176.09 154.082 176.194 153.889 176.214 153.679C176.233 153.469 176.166 153.259 176.028 153.095C175.932 152.991 175.809 152.913 175.672 152.871C175.535 152.829 175.389 152.824 175.25 152.857Z" fill="#475324"/>
<path d="M153.4 173.488L153.138 174.406L152.421 174.098L152.756 173.25L153.4 173.488Z" fill="#FED600"/>
<path d="M167.645 147.539L167.546 147.355C167.546 147.355 158.876 147.66 153.064 156.603C147.916 164.521 151.571 173.364 151.571 173.364L152.076 173.368C151.632 170.895 150.963 164.171 155.063 157.857C159.295 151.351 164.903 148.571 167.645 147.539Z" fill="#FED600"/>
<path d="M157.139 159.156C159.979 154.804 163.612 151.003 167.86 147.939L167.645 147.539C164.904 148.571 159.296 151.351 155.065 157.856C150.962 164.169 151.635 170.895 152.079 173.367L152.573 173.369C152.711 170.506 153.486 164.772 157.139 159.156Z" fill="#F9A01B"/>
<path d="M158.25 160.138C161.388 155.312 168.282 148.723 168.282 148.723L167.86 147.939C163.612 151.003 159.979 154.804 157.139 159.156C153.486 164.772 152.711 170.505 152.569 173.369L152.925 173.37C152.925 173.37 154.935 165.235 158.25 160.138Z" fill="#FED600"/>
<path d="M167.543 147.34L168.228 148.768C168.365 148.689 168.486 148.585 168.584 148.461C168.704 148.287 168.747 148.072 168.704 147.864C168.662 147.657 168.536 147.474 168.356 147.355C168.234 147.281 168.094 147.24 167.951 147.238C167.808 147.235 167.667 147.271 167.543 147.34Z" fill="#475324"/>
<path d="M152.651 173.241L152.669 174.196L151.893 174.1L151.967 173.19L152.651 173.241Z" fill="#FED600"/>
<path d="M159.362 195.92C156.042 194.323 158.711 188.851 160.479 188.233C161.136 188.005 161.898 188.401 162.6 188.095C163.045 187.904 163.557 187.162 164.009 186.886C165.451 186.009 166.932 186.106 168.254 187.164C174.3 191.995 162.868 200.263 159.976 196.622C159.837 196.44 159.575 196.023 159.362 195.92Z" fill="#8B5E3C"/>
<path d="M161.571 195.998C161.393 195.925 160.835 195.575 160.836 195.341C160.838 194.879 161.86 194.525 162.249 194.71C162.887 195.014 163.536 196.407 162.356 196.217C162.09 196.162 161.827 196.088 161.571 195.998Z" fill="#754C29"/>
<path d="M160.153 190.795C160.251 190.173 160.979 190.233 161.47 190.313C162.125 190.419 162.637 190.677 163.012 191.225C163.263 191.585 163.266 192.032 163.142 192.44C162.985 192.957 162.404 193.257 161.868 193.401C161.535 193.49 160.793 193.645 160.469 193.436C159.772 192.986 160.086 191.219 160.153 190.795Z" fill="#754C29"/>
<path d="M166.467 190.825C166.415 190.757 166.379 190.678 166.36 190.595C166.342 190.512 166.341 190.426 166.36 190.343C166.378 190.26 166.414 190.182 166.466 190.114C166.518 190.046 166.584 189.99 166.661 189.95C167.406 189.563 168.348 190.779 167.555 191.015C167.55 191.014 166.75 191.194 166.467 190.825Z" fill="#754C29"/>
<path d="M123.75 176.518C124.263 174.195 127.003 172.579 131.08 171.807L130.412 174.834C130.337 175.17 130.403 175.523 130.595 175.815C130.786 176.106 131.087 176.313 131.433 176.388C131.778 176.464 132.138 176.403 132.435 176.219C132.731 176.035 132.94 175.742 133.014 175.406L133.892 171.43C134.771 171.355 135.69 171.311 136.65 171.298L135.616 175.977C135.542 176.314 135.608 176.667 135.799 176.958C135.99 177.25 136.292 177.456 136.637 177.532C136.982 177.608 137.342 177.547 137.639 177.362C137.936 177.178 138.144 176.885 138.218 176.549L139.367 171.35C140.238 171.391 141.132 171.459 142.05 171.554L140.821 177.121C140.757 177.453 140.829 177.798 141.021 178.082C141.214 178.366 141.511 178.566 141.85 178.64C142.189 178.715 142.543 178.658 142.837 178.481C143.131 178.304 143.341 178.021 143.424 177.693L144.706 171.889C145.571 172.019 146.446 172.17 147.334 172.344L146.026 178.264C145.952 178.601 146.017 178.954 146.209 179.245C146.4 179.537 146.702 179.743 147.047 179.819C147.392 179.895 147.752 179.834 148.049 179.65C148.345 179.465 148.554 179.173 148.628 178.836L149.936 172.916C150.814 173.129 151.673 173.358 152.512 173.604L151.23 179.408C151.156 179.744 151.222 180.097 151.413 180.389C151.605 180.68 151.906 180.887 152.251 180.962C152.596 181.038 152.957 180.977 153.253 180.793C153.55 180.609 153.758 180.316 153.833 179.98L155.061 174.418C155.929 174.716 156.771 175.029 157.581 175.357L156.433 180.556C156.369 180.889 156.441 181.233 156.633 181.517C156.826 181.801 157.123 182.001 157.462 182.076C157.801 182.15 158.155 182.093 158.449 181.916C158.743 181.739 158.953 181.456 159.036 181.128L160.07 176.444C160.933 176.855 161.749 177.28 162.517 177.72L161.639 181.695C161.565 182.031 161.631 182.384 161.822 182.676C162.014 182.967 162.315 183.174 162.66 183.249C163.005 183.325 163.366 183.264 163.662 183.08C163.959 182.896 164.167 182.603 164.241 182.266L164.91 179.241C168.284 181.648 170.09 184.264 169.577 186.586C169.563 186.649 169.54 186.707 169.525 186.768C169.509 186.829 169.506 186.884 169.495 186.942C169.341 187.565 168.944 188.102 168.388 188.438C167.832 188.775 167.161 188.885 166.518 188.744L125.618 179.757C124.974 179.617 124.411 179.236 124.047 178.698C123.683 178.159 123.548 177.504 123.671 176.874C123.684 176.817 123.7 176.76 123.719 176.704C123.732 176.643 123.736 176.58 123.75 176.518Z" fill="#F8AB3D"/>
<path d="M147.046 179.82C146.702 179.744 146.401 179.537 146.21 179.246C146.019 178.954 145.953 178.602 146.028 178.266L147.335 172.345C147.768 172.43 148.202 172.519 148.639 172.615C149.076 172.711 149.509 172.812 149.938 172.916L148.63 178.837C148.593 179.004 148.523 179.162 148.423 179.301C148.324 179.441 148.197 179.56 148.05 179.651C147.903 179.742 147.738 179.804 147.566 179.833C147.394 179.862 147.217 179.858 147.046 179.82Z" fill="#E1652F"/>
<path d="M152.252 180.964C151.907 180.888 151.606 180.682 151.414 180.39C151.223 180.098 151.157 179.746 151.232 179.409L152.514 173.605C153.386 173.859 154.236 174.128 155.064 174.413L153.834 179.981C153.76 180.317 153.551 180.61 153.255 180.794C152.958 180.979 152.598 181.04 152.252 180.964Z" fill="#E1652F"/>
<path d="M136.638 177.533C136.293 177.457 135.991 177.251 135.8 176.959C135.609 176.668 135.543 176.315 135.617 175.978L136.651 171.299C137.528 171.288 138.434 171.305 139.368 171.351L138.219 176.55C138.145 176.887 137.937 177.179 137.64 177.364C137.344 177.548 136.983 177.609 136.638 177.533Z" fill="#E1652F"/>
<path d="M141.842 178.677C141.497 178.601 141.196 178.394 141.004 178.103C140.813 177.811 140.747 177.458 140.822 177.122L142.05 171.559C142.92 171.647 143.805 171.759 144.706 171.895L143.424 177.699C143.348 178.034 143.139 178.325 142.843 178.509C142.546 178.692 142.187 178.752 141.842 178.677Z" fill="#E1652F"/>
<path d="M131.433 176.388C131.088 176.313 130.786 176.106 130.595 175.815C130.404 175.523 130.338 175.17 130.412 174.834L131.081 171.807C132.01 171.635 132.949 171.509 133.892 171.431L133.014 175.406C132.94 175.742 132.732 176.035 132.435 176.219C132.139 176.403 131.778 176.464 131.433 176.388Z" fill="#E1652F"/>
<path d="M157.456 182.107C157.111 182.031 156.81 181.825 156.618 181.533C156.426 181.242 156.36 180.889 156.434 180.552L157.583 175.352C158.45 175.702 159.279 176.066 160.072 176.444L159.038 181.124C159.001 181.291 158.931 181.448 158.832 181.588C158.733 181.728 158.606 181.846 158.459 181.938C158.312 182.029 158.148 182.091 157.976 182.12C157.804 182.149 157.627 182.145 157.456 182.107Z" fill="#E1652F"/>
<path d="M162.66 183.249C162.315 183.174 162.014 182.967 161.823 182.676C161.631 182.384 161.565 182.031 161.64 181.695L162.518 177.72C163.341 178.187 164.139 178.695 164.91 179.241L164.242 182.267C164.168 182.603 163.959 182.896 163.663 183.08C163.366 183.264 163.006 183.325 162.66 183.249Z" fill="#E1652F"/>
<path d="M156.518 153.405C156.518 153.405 158.178 154.296 158.834 155.582C159.345 156.585 159.417 158.062 159.064 158.084C158.618 158.112 157.362 157.05 156.884 156.002C156.405 154.954 156.518 153.405 156.518 153.405Z" fill="#216838"/>
<path d="M158.865 158.264C158.809 158.226 158.77 158.167 158.757 158.101C158.744 158.035 158.758 157.967 158.797 157.912C158.806 157.898 159.805 156.504 161.785 157.644C161.841 157.68 161.881 157.735 161.897 157.799C161.913 157.863 161.903 157.93 161.869 157.987C161.836 158.043 161.781 158.085 161.717 158.103C161.653 158.121 161.583 158.114 161.524 158.084C159.978 157.194 159.26 158.161 159.231 158.203C159.191 158.259 159.13 158.296 159.062 158.308C158.993 158.319 158.922 158.304 158.865 158.264Z" fill="#754C29"/>
<path d="M159.053 164.13C159.289 163.906 159.5 163.66 159.685 163.395C161.011 161.486 160.742 159.042 159.088 157.937C157.434 156.832 155.018 157.485 153.693 159.393C153.51 159.659 153.353 159.942 153.226 160.238C152.007 160.292 150.841 160.719 149.891 161.458C148.941 162.197 148.255 163.211 147.931 164.357C147.606 165.503 147.659 166.723 148.083 167.845C148.506 168.967 149.278 169.934 150.29 170.61C151.301 171.286 152.502 171.636 153.721 171.611C154.941 171.586 156.118 171.187 157.086 170.471C158.055 169.755 158.766 168.758 159.119 167.62C159.472 166.482 159.449 165.261 159.053 164.13Z" fill="#8DC63F"/>
<path d="M150.514 164.075C151.021 163.35 151.696 162.753 152.485 162.331C153.274 161.91 154.155 161.677 155.057 161.65C155.183 161.354 155.339 161.07 155.522 160.805C156.387 159.559 157.728 158.862 159.026 158.84C157.545 158.097 155.579 158.693 154.479 160.278C154.315 160.515 154.176 160.767 154.065 161.032C153.222 161.055 152.401 161.282 151.673 161.691C150.945 162.101 150.334 162.68 149.893 163.378C149.452 164.076 149.195 164.872 149.146 165.694C149.096 166.516 149.255 167.339 149.609 168.09C149.376 166.683 149.7 165.248 150.514 164.075Z" fill="#B2E561"/>
<path d="M173.791 162.971C173.791 162.971 175.452 163.861 176.107 165.148C176.618 166.151 176.69 167.628 176.338 167.65C175.892 167.677 174.635 166.616 174.157 165.568C173.679 164.52 173.791 162.971 173.791 162.971Z" fill="#216838"/>
<path d="M176.139 167.831C176.082 167.793 176.043 167.734 176.03 167.668C176.017 167.602 176.032 167.534 176.07 167.478C176.08 167.464 177.079 166.071 179.058 167.21C179.115 167.246 179.155 167.302 179.17 167.366C179.186 167.43 179.176 167.497 179.143 167.554C179.109 167.61 179.055 167.652 178.99 167.67C178.926 167.688 178.857 167.681 178.797 167.651C177.252 166.761 176.533 167.728 176.504 167.77C176.464 167.825 176.404 167.863 176.335 167.875C176.267 167.886 176.196 167.87 176.139 167.831Z" fill="#754C29"/>
<path d="M176.327 173.696C176.562 173.473 176.774 173.227 176.959 172.962C178.284 171.053 178.015 168.609 176.361 167.504C174.707 166.399 172.291 167.052 170.966 168.96C170.783 169.226 170.627 169.509 170.499 169.805C169.281 169.859 168.114 170.285 167.164 171.024C166.214 171.763 165.529 172.778 165.204 173.924C164.88 175.07 164.933 176.29 165.356 177.412C165.779 178.534 166.551 179.501 167.563 180.177C168.575 180.852 169.775 181.202 170.995 181.177C172.214 181.152 173.391 180.754 174.36 180.038C175.328 179.322 176.039 178.324 176.392 177.186C176.745 176.049 176.722 174.828 176.327 173.696Z" fill="#8DC63F"/>
<path d="M167.788 173.642C168.294 172.917 168.969 172.319 169.758 171.898C170.547 171.477 171.428 171.243 172.33 171.216C172.456 170.92 172.612 170.637 172.796 170.371C173.66 169.126 175.002 168.428 176.299 168.406C174.818 167.664 172.853 168.26 171.752 169.845C171.588 170.081 171.45 170.334 171.338 170.598C170.496 170.622 169.674 170.848 168.946 171.258C168.218 171.667 167.607 172.247 167.166 172.945C166.725 173.643 166.469 174.439 166.419 175.261C166.37 176.082 166.529 176.906 166.882 177.657C166.65 176.25 166.974 174.814 167.788 173.642Z" fill="#B2E561"/>
<path d="M119.747 176.088C119.747 176.088 119.966 173.492 121.584 172.422C123.742 170.999 128.601 170.218 131.076 169.409C132.321 169.001 133.233 168.01 133.233 168.01C133.233 168.01 133.035 170.898 130.745 172.107C128.868 173.096 124.694 174.098 122.525 174.719C121.519 175.002 120.577 175.466 119.747 176.088Z" fill="#6F8337"/>
<path d="M129.968 170.483C130.044 170.383 130.148 170.307 130.268 170.264C130.388 170.222 130.519 170.215 130.644 170.245C130.769 170.275 130.882 170.341 130.969 170.433C131.056 170.526 131.114 170.641 131.135 170.765C131.155 170.889 131.138 171.015 131.085 171.129C131.032 171.242 130.946 171.338 130.837 171.403C130.728 171.468 130.602 171.5 130.474 171.495C130.346 171.49 130.222 171.448 130.117 171.374C130.047 171.325 129.988 171.263 129.943 171.191C129.898 171.119 129.867 171.04 129.853 170.957C129.84 170.874 129.843 170.79 129.862 170.709C129.882 170.627 129.918 170.551 129.968 170.483Z" fill="#C5D230"/>
<path d="M127.939 171.112C128.014 171.011 128.119 170.934 128.239 170.891C128.359 170.849 128.49 170.842 128.615 170.872C128.74 170.902 128.854 170.968 128.942 171.06C129.029 171.153 129.087 171.268 129.108 171.393C129.128 171.517 129.111 171.644 129.058 171.757C129.005 171.871 128.918 171.967 128.809 172.032C128.7 172.097 128.573 172.129 128.445 172.124C128.316 172.119 128.192 172.076 128.087 172.002C128.018 171.953 127.959 171.891 127.913 171.819C127.868 171.748 127.838 171.668 127.824 171.585C127.81 171.503 127.813 171.418 127.833 171.337C127.852 171.256 127.888 171.179 127.939 171.112Z" fill="#C5D230"/>
<path d="M125.945 171.634C126.02 171.533 126.124 171.456 126.245 171.413C126.365 171.371 126.496 171.364 126.621 171.394C126.746 171.424 126.86 171.489 126.948 171.582C127.035 171.675 127.093 171.79 127.114 171.914C127.134 172.039 127.117 172.165 127.064 172.279C127.011 172.393 126.924 172.489 126.815 172.554C126.706 172.619 126.579 172.651 126.451 172.646C126.322 172.64 126.198 172.598 126.093 172.524C126.023 172.475 125.963 172.413 125.917 172.342C125.872 172.27 125.841 172.191 125.827 172.108C125.813 172.025 125.816 171.94 125.837 171.859C125.857 171.777 125.894 171.701 125.945 171.634Z" fill="#C5D230"/>
<path d="M123.876 172.367C123.951 172.266 124.055 172.19 124.176 172.147C124.296 172.105 124.426 172.098 124.551 172.129C124.676 172.159 124.789 172.224 124.876 172.316C124.964 172.409 125.021 172.524 125.042 172.648C125.063 172.772 125.046 172.898 124.993 173.012C124.94 173.125 124.853 173.221 124.744 173.286C124.636 173.351 124.509 173.383 124.381 173.378C124.253 173.373 124.129 173.331 124.024 173.257C123.954 173.209 123.894 173.147 123.848 173.075C123.803 173.004 123.772 172.924 123.758 172.841C123.744 172.758 123.747 172.673 123.768 172.592C123.788 172.51 123.825 172.434 123.876 172.367Z" fill="#C5D230"/>
<path d="M121.745 173.07C121.82 172.969 121.924 172.892 122.045 172.85C122.165 172.807 122.296 172.8 122.421 172.83C122.546 172.86 122.66 172.925 122.747 173.018C122.835 173.111 122.893 173.226 122.914 173.35C122.935 173.474 122.918 173.601 122.865 173.715C122.812 173.829 122.725 173.924 122.616 173.99C122.507 174.055 122.38 174.087 122.252 174.082C122.124 174.077 121.999 174.035 121.895 173.961C121.825 173.912 121.766 173.85 121.72 173.778C121.675 173.706 121.645 173.627 121.631 173.544C121.617 173.462 121.62 173.377 121.639 173.296C121.659 173.214 121.695 173.138 121.745 173.07Z" fill="#C5D230"/>
<path d="M126.686 191.019L126.099 187.617L122.655 181.792C122.655 181.792 125.021 181.662 125.185 181.746C125.349 181.83 126.415 185.904 127.587 185.547C128.476 185.275 127.233 181.962 127.41 181.898L129.846 181.001C129.846 181.001 129.77 184.752 130.756 184.756C131.742 184.76 131.62 181.056 131.62 181.056L134.395 180.367L132.817 185.623L133.09 190.025L126.686 191.019Z" fill="#6F8423"/>
<path d="M137.134 175.34C137.093 175.103 136.999 174.877 136.858 174.678C136.718 174.48 136.533 174.315 136.319 174.195C136.105 174.075 135.867 174.003 135.622 173.984C135.376 173.965 135.13 174 134.902 174.087C134.814 173.829 134.66 173.596 134.456 173.41C134.252 173.224 134.003 173.091 133.733 173.024C133.464 172.957 133.182 172.957 132.913 173.025C132.645 173.093 132.399 173.226 132.199 173.413C131.806 173.01 131.323 172.702 130.789 172.513C130.255 172.324 129.684 172.259 129.122 172.324C128.56 172.389 128.022 172.581 127.552 172.885C127.082 173.19 126.692 173.598 126.414 174.078C126.058 173.642 125.568 173.329 125.018 173.185C124.468 173.042 123.886 173.075 123.361 173.281C122.835 173.486 122.393 173.853 122.1 174.326C121.807 174.799 121.68 175.353 121.737 175.906C121.079 175.792 120.403 175.915 119.835 176.252C119.267 176.588 118.845 177.116 118.647 177.737C118.45 178.358 118.49 179.029 118.761 179.628C119.032 180.226 119.514 180.71 120.12 180.99C120.094 181.152 120.095 181.316 120.122 181.478C120.158 181.687 120.235 181.888 120.351 182.069C120.466 182.25 120.616 182.407 120.793 182.532C120.97 182.657 121.17 182.746 121.381 182.795C121.593 182.845 121.812 182.853 122.026 182.819C122.317 182.773 122.588 182.65 122.812 182.464C123.35 182.875 124.028 183.066 124.703 182.999C125.379 182.932 125.998 182.61 126.431 182.102C127 182.444 127.678 182.564 128.329 182.437C128.98 182.311 129.555 181.947 129.938 181.42C130.503 181.819 131.203 181.986 131.887 181.887C132.572 181.787 133.186 181.428 133.598 180.887C134.028 181.014 134.484 181.033 134.921 180.941C135.359 180.849 135.764 180.649 136.099 180.36C136.433 180.071 136.686 179.703 136.833 179.29C136.98 178.878 137.016 178.434 136.938 178.002C136.869 177.609 136.706 177.236 136.464 176.914C136.716 176.741 136.913 176.502 137.032 176.223C137.15 175.945 137.185 175.639 137.134 175.34Z" fill="#90AC3D"/>
<path d="M121.401 176.515C120.964 176.512 120.539 176.643 120.185 176.89C119.832 177.136 119.567 177.486 119.429 177.889C119.29 178.292 119.285 178.729 119.414 179.137C119.543 179.546 119.8 179.906 120.147 180.167C119.937 179.503 119.945 178.793 120.17 178.138C120.395 177.483 120.826 176.915 121.401 176.515Z" fill="#B3D82B"/>
<path d="M124.611 173.922C124.175 173.92 123.75 174.051 123.397 174.298C123.044 174.544 122.78 174.893 122.642 175.296C122.503 175.699 122.498 176.135 122.627 176.543C122.755 176.951 123.011 177.311 123.358 177.572C123.148 176.908 123.156 176.199 123.38 175.544C123.605 174.889 124.036 174.322 124.611 173.922Z" fill="#B3D82B"/>
<path d="M133.989 176.608C133.745 176.607 133.504 176.658 133.283 176.756C133.014 176.874 132.782 177.058 132.609 177.291C132.436 177.524 132.328 177.796 132.295 178.083C132.263 178.37 132.307 178.661 132.424 178.927C132.54 179.194 132.725 179.427 132.961 179.604C132.789 179.059 132.796 178.477 132.98 177.94C133.165 177.402 133.517 176.937 133.989 176.608Z" fill="#B3D82B"/>
<path d="M129.641 173.153C129.191 173.151 128.747 173.244 128.338 173.426C127.961 173.595 127.622 173.835 127.341 174.132C127.06 174.43 126.842 174.779 126.7 175.16C126.558 175.541 126.494 175.947 126.513 176.354C126.531 176.76 126.632 177.16 126.808 177.531C127.024 177.978 127.346 178.368 127.748 178.669C127.431 177.667 127.443 176.595 127.783 175.605C128.122 174.615 128.772 173.758 129.641 173.153Z" fill="#B3D82B"/>
<path d="M159.014 202.205L159.162 201.533C158.512 201.39 157.945 201.002 157.584 200.453C157.224 199.903 157.1 199.239 157.24 198.605C157.38 197.972 157.772 197.42 158.331 197.073C158.889 196.726 159.568 196.611 160.218 196.754L160.35 196.158L154.674 194.911C154.66 194.908 154.647 194.905 154.635 194.902L153.297 200.958C153.31 200.96 153.323 200.963 153.336 200.966L159.014 202.205Z" fill="#00A79D"/>
<path d="M154.802 194.328C154.727 194.313 154.648 194.326 154.583 194.364C154.518 194.402 154.47 194.463 154.449 194.535C154.428 194.607 154.435 194.684 154.47 194.751C154.504 194.818 154.564 194.87 154.635 194.897C154.648 194.9 154.661 194.903 154.674 194.906L160.347 196.152L160.475 195.57L154.802 194.328Z" fill="#D1D3D4"/>
<path d="M153.338 200.957C153.325 200.953 153.312 200.951 153.299 200.949C153.223 200.943 153.147 200.966 153.087 201.012C153.028 201.058 152.988 201.125 152.977 201.199C152.966 201.273 152.984 201.348 153.027 201.411C153.07 201.473 153.136 201.517 153.21 201.535L158.883 202.781L159.011 202.199L153.338 200.957Z" fill="#D1D3D4"/>
<path d="M157.239 198.605C157.099 199.238 157.223 199.903 157.583 200.452C157.944 201.001 158.512 201.389 159.161 201.532L160.217 196.754C159.895 196.683 159.563 196.675 159.239 196.729C158.915 196.784 158.606 196.901 158.329 197.073C158.053 197.244 157.814 197.468 157.627 197.731C157.44 197.994 157.308 198.291 157.239 198.605Z" fill="#078276"/>
<path d="M160.349 196.157L160.217 196.754C160.867 196.897 161.434 197.285 161.795 197.835C162.155 198.384 162.279 199.048 162.139 199.682C161.999 200.315 161.607 200.867 161.048 201.214C160.49 201.561 159.811 201.676 159.161 201.533L159.013 202.205L164.686 203.452C164.699 203.453 164.712 203.456 164.724 203.46L166.061 197.408C166.049 197.405 166.036 197.403 166.022 197.4L160.349 196.157Z" fill="#078276"/>
<path d="M166.15 196.821L160.478 195.575L160.349 196.157L166.022 197.403C166.035 197.406 166.048 197.409 166.06 197.411C166.137 197.417 166.212 197.395 166.272 197.348C166.332 197.302 166.371 197.235 166.382 197.161C166.393 197.087 166.376 197.012 166.332 196.949C166.289 196.887 166.224 196.843 166.149 196.826L166.15 196.821Z" fill="#939598"/>
<path d="M164.723 203.467C164.71 203.463 164.697 203.461 164.684 203.459L159.012 202.213L158.883 202.794L164.556 204.04C164.631 204.056 164.709 204.043 164.774 204.005C164.84 203.966 164.888 203.905 164.909 203.833C164.93 203.762 164.922 203.685 164.887 203.618C164.853 203.55 164.794 203.498 164.722 203.471L164.723 203.467Z" fill="#D1D3D4"/>
<path d="M162.14 199.681C162.21 199.368 162.215 199.043 162.156 198.726C162.097 198.409 161.975 198.106 161.796 197.834C161.618 197.562 161.386 197.327 161.115 197.142C160.845 196.956 160.54 196.824 160.218 196.754L159.162 201.532C159.484 201.603 159.816 201.611 160.14 201.556C160.464 201.501 160.773 201.385 161.049 201.213C161.326 201.041 161.565 200.817 161.752 200.555C161.939 200.292 162.071 199.995 162.14 199.681Z" fill="#054F46"/>
<path d="M132.359 185.785C130.285 186.594 128.846 185.749 128.225 184.257C127.604 182.766 128.032 181.191 130.106 180.379C132.18 179.566 134.84 179.936 135.463 181.428C136.087 182.92 134.433 184.974 132.359 185.785Z" fill="#FBB06B"/>
<path d="M147.849 183.182C149.391 184.786 151.052 184.622 152.244 183.529C153.436 182.436 153.712 180.828 152.173 179.221C150.633 177.615 148.062 176.835 146.869 177.928C145.676 179.021 146.309 181.578 147.849 183.182Z" fill="#FBB06B"/>
<path d="M158.661 197.21C158.34 198.665 157.439 199.93 156.157 200.727C154.875 201.524 153.317 201.787 151.825 201.46L139.014 198.645C137.522 198.317 136.219 197.425 135.391 196.164C134.563 194.904 134.279 193.379 134.6 191.924C134.922 190.469 135.823 189.205 137.105 188.408C138.387 187.611 139.945 187.348 141.437 187.675L154.248 190.49C154.987 190.653 155.687 190.955 156.308 191.381C156.93 191.806 157.461 192.346 157.87 192.97C158.28 193.594 158.561 194.29 158.696 195.017C158.832 195.745 158.82 196.49 158.661 197.21Z" fill="#EF4323"/>
<path d="M153.039 190.225L142.646 187.941L140.223 198.911L150.616 201.194L153.039 190.225Z" fill="#3C2415"/>
<path d="M135.347 191.494L133.685 190.034L133.954 191.188L133.329 191.644L133.609 192.244L133.527 192.956L135.062 192.783L135.347 191.494Z" fill="#EF4323"/>
<path d="M158.074 196.415L160.202 195.934L159.573 196.744L159.987 197.584L159.371 197.657L159.431 198.574L157.751 197.877L158.074 196.415Z" fill="#EF4323"/>
<path d="M144.111 188.263L143.36 188.098L140.937 199.068L141.688 199.233L144.111 188.263Z" fill="#8B5E3C"/>
<path d="M152.253 190.052L151.503 189.887L149.08 200.857L149.83 201.022L152.253 190.052Z" fill="#8B5E3C"/>
<path d="M144.583 149.47L142.853 146.235L144.405 145.615L145.272 149.354L144.583 149.47Z" fill="#C5D230"/>
<path d="M145.068 150.088L143.803 144.832L146.297 144.707L146.075 149.751L145.068 150.088Z" fill="#90AC3D"/>
<path d="M145.818 150.552L145.709 146.564L147.464 146.96L146.631 150.186L145.818 150.552Z" fill="#C5D230"/>
<path d="M147.743 163.532C147.78 163.242 147.816 162.942 147.85 162.637L146.169 163.186L147.743 163.532Z" fill="#F15722"/>
<path d="M148.088 160.1C148.115 159.734 148.141 159.361 148.161 158.993L146.111 159.667L148.088 160.1Z" fill="#F15722"/>
<path d="M148.26 156.643C148.269 156.288 148.275 155.937 148.272 155.591L146.347 156.222L148.26 156.643Z" fill="#F15722"/>
<path d="M148.241 153.309C148.217 152.919 148.189 152.547 148.157 152.196L146.155 152.852L148.241 153.309Z" fill="#F15722"/>
<path d="M143.037 154.259C143.055 154.585 143.078 154.919 143.107 155.26L144.879 154.49L143.037 154.259Z" fill="#F15722"/>
<path d="M145.504 148.582C145.504 148.582 143.862 148.582 143.386 149.91C143.279 150.224 143.199 150.546 143.149 150.873L144.819 151.321L143.035 151.82C142.985 152.634 142.985 153.45 143.036 154.264L144.878 154.495L143.106 155.266C143.176 156.074 143.279 156.913 143.405 157.764L145.277 157.998L143.56 158.745C143.701 159.603 143.868 160.459 144.045 161.286L145.367 161.452L144.195 161.961C144.415 162.934 144.649 163.851 144.884 164.669L145.887 164.794L145.034 165.167C145.588 166.994 146.121 168.214 146.452 168.214C146.915 168.208 147.392 166.235 147.744 163.538L146.168 163.192L147.849 162.641C147.941 161.833 148.021 160.979 148.088 160.104L146.111 159.67L148.161 158.996C148.208 158.21 148.241 157.422 148.26 156.646L146.351 156.226L148.276 155.595C148.281 154.799 148.269 154.029 148.231 153.309L146.154 152.853L148.157 152.194C148.105 151.436 147.988 150.682 147.808 149.941C147.416 148.46 145.504 148.582 145.504 148.582Z" fill="#F9851B"/>
<path d="M143.148 150.874C143.099 151.167 143.062 151.481 143.036 151.815L144.819 151.321L143.148 150.874Z" fill="#F15722"/>
<path d="M143.407 157.76C143.455 158.086 143.508 158.413 143.562 158.74L145.279 157.993L143.407 157.76Z" fill="#F15722"/>
<path d="M144.046 161.281C144.096 161.506 144.146 161.731 144.196 161.956L145.368 161.448L144.046 161.281Z" fill="#F15722"/>
<path d="M144.885 164.664C144.935 164.834 144.983 165 145.032 165.16L145.884 164.788L144.885 164.664Z" fill="#F15722"/>
<path d="M174.547 160.619L177.48 158.409L176.333 157.195L173.971 160.225L174.547 160.619Z" fill="#C5D230"/>
<path d="M173.846 160.974L177.209 156.735L174.998 155.577L173.074 160.247L173.846 160.974Z" fill="#90AC3D"/>
<path d="M172.971 161.084L174.75 157.511L172.99 157.135L172.388 160.411L172.971 161.084Z" fill="#C5D230"/>
<path d="M165.756 172.053C165.844 171.774 165.938 171.488 166.036 171.196L167.33 172.399L165.756 172.053Z" fill="#F15722"/>
<path d="M166.888 168.794C167.018 168.451 167.151 168.101 167.288 167.759L168.865 169.23L166.888 168.794Z" fill="#F15722"/>
<path d="M168.189 165.585C168.33 165.26 168.473 164.938 168.621 164.626L170.102 166.005L168.189 165.585Z" fill="#F15722"/>
<path d="M169.611 162.567C169.797 162.223 169.979 161.897 170.156 161.592L171.697 163.027L169.611 162.567Z" fill="#F15722"/>
<path d="M173.933 165.611C173.779 165.899 173.618 166.193 173.447 166.49L172.164 165.049L173.933 165.611Z" fill="#F15722"/>
<path d="M174.087 159.426C174.087 159.426 175.576 160.114 175.449 161.519C175.414 161.848 175.35 162.174 175.258 162.492L173.554 162.198L174.962 163.399C174.664 164.158 174.321 164.899 173.932 165.617L172.162 165.054L173.446 166.496C173.042 167.2 172.595 167.918 172.122 168.638L170.325 168.065L171.568 169.463C171.079 170.182 170.566 170.889 170.057 171.565L168.788 171.162L169.637 172.115C169.027 172.906 168.429 173.639 167.87 174.284L166.908 173.977L167.525 174.672C166.252 176.099 165.254 176.982 164.955 176.843C164.537 176.644 164.935 174.654 165.752 172.059L167.328 172.405L166.035 171.201C166.291 170.429 166.579 169.621 166.887 168.799L168.864 169.233L167.287 167.763C167.576 167.03 167.878 166.3 168.188 165.588L170.097 166.008L168.616 164.628C168.947 163.904 169.282 163.21 169.62 162.573L171.696 163.029L170.157 161.592C170.524 160.926 170.947 160.291 171.423 159.694C172.402 158.514 174.087 159.426 174.087 159.426Z" fill="#F9851B"/>
<path d="M175.258 162.492C175.179 162.779 175.081 163.079 174.963 163.392L173.554 162.197L175.258 162.492Z" fill="#F15722"/>
<path d="M172.123 168.633C171.942 168.908 171.756 169.183 171.569 169.457L170.326 168.06L172.123 168.633Z" fill="#F15722"/>
<path d="M170.059 171.56C169.919 171.743 169.779 171.927 169.638 172.11L168.789 171.158L170.059 171.56Z" fill="#F15722"/>
<path d="M167.872 174.278C167.755 174.411 167.642 174.542 167.529 174.667L166.913 173.972L167.872 174.278Z" fill="#F15722"/>
<path d="M133.352 184.641C139.101 187.217 139.02 190.491 139.02 190.491L119.106 186.115L133.352 184.641Z" fill="#D17E11"/>
<path d="M139.02 190.491L119.105 186.115L118.066 190.822C118.335 190.946 118.554 191.156 118.687 191.417C118.819 191.677 118.857 191.973 118.795 192.256C118.732 192.539 118.573 192.792 118.343 192.973C118.113 193.154 117.826 193.252 117.529 193.252L117.268 194.436L131.693 197.605C131.819 197.174 132.108 196.807 132.502 196.579C132.897 196.352 133.366 196.28 133.816 196.379C134.266 196.477 134.662 196.739 134.924 197.111C135.186 197.483 135.294 197.938 135.226 198.382L137.182 198.811L139.02 190.491ZM121.447 191.429C121.076 191.347 120.738 191.161 120.474 190.892C120.211 190.624 120.034 190.286 119.966 189.921C119.898 189.556 119.942 189.181 120.092 188.842C120.243 188.504 120.493 188.217 120.812 188.02C121.13 187.822 121.502 187.721 121.881 187.731C122.26 187.74 122.629 187.859 122.941 188.073C123.252 188.287 123.493 188.585 123.632 188.931C123.771 189.276 123.803 189.654 123.723 190.015C123.67 190.255 123.569 190.481 123.426 190.682C123.283 190.883 123.101 191.054 122.889 191.185C122.678 191.317 122.442 191.406 122.194 191.448C121.947 191.489 121.693 191.483 121.447 191.429ZM126.023 194.858C125.798 194.808 125.592 194.695 125.432 194.532C125.272 194.369 125.164 194.163 125.123 193.941C125.081 193.72 125.108 193.491 125.2 193.286C125.291 193.08 125.443 192.906 125.637 192.786C125.83 192.665 126.057 192.604 126.287 192.61C126.517 192.616 126.741 192.688 126.931 192.818C127.12 192.947 127.267 193.129 127.351 193.339C127.436 193.549 127.455 193.778 127.407 193.998C127.342 194.292 127.16 194.548 126.9 194.709C126.641 194.871 126.325 194.924 126.023 194.858ZM130.029 193.604C129.738 193.54 129.473 193.394 129.266 193.183C129.059 192.973 128.92 192.708 128.867 192.421C128.814 192.135 128.848 191.841 128.966 191.575C129.084 191.31 129.281 191.086 129.53 190.93C129.78 190.775 130.072 190.696 130.369 190.704C130.666 190.711 130.955 190.804 131.2 190.972C131.444 191.139 131.633 191.373 131.742 191.644C131.852 191.915 131.877 192.211 131.814 192.494C131.773 192.682 131.694 192.86 131.582 193.018C131.469 193.176 131.326 193.31 131.16 193.413C130.995 193.516 130.809 193.586 130.615 193.619C130.421 193.652 130.222 193.647 130.029 193.605L130.029 193.604ZM135.315 194.765C135.179 194.735 135.055 194.667 134.959 194.568C134.862 194.47 134.797 194.345 134.772 194.212C134.748 194.078 134.764 193.94 134.819 193.816C134.875 193.692 134.966 193.587 135.083 193.514C135.2 193.442 135.337 193.405 135.476 193.409C135.615 193.412 135.75 193.456 135.864 193.534C135.978 193.612 136.067 193.722 136.118 193.849C136.169 193.976 136.181 194.114 136.151 194.246C136.132 194.335 136.095 194.418 136.043 194.492C135.99 194.566 135.923 194.629 135.845 194.677C135.767 194.725 135.681 194.758 135.59 194.773C135.499 194.789 135.405 194.786 135.315 194.766L135.315 194.765Z" fill="#F9A01B"/>
<path d="M133.816 196.375C133.366 196.277 132.896 196.35 132.502 196.578C132.108 196.806 131.818 197.172 131.693 197.603L135.226 198.38C135.293 197.936 135.185 197.482 134.923 197.11C134.661 196.738 134.265 196.475 133.816 196.375Z" fill="#D17E11"/>
<path d="M118.796 192.251C118.858 191.968 118.82 191.673 118.687 191.412C118.555 191.152 118.336 190.942 118.067 190.818L117.531 193.247C117.827 193.247 118.114 193.148 118.344 192.967C118.574 192.786 118.733 192.534 118.796 192.251Z" fill="#D17E11"/>
<path d="M122.254 187.776C121.884 187.695 121.498 187.722 121.145 187.855C120.793 187.988 120.49 188.22 120.275 188.523C120.059 188.825 119.941 189.184 119.935 189.554C119.929 189.925 120.035 190.289 120.241 190.602C120.446 190.915 120.741 191.162 121.089 191.313C121.437 191.463 121.821 191.51 122.194 191.447C122.567 191.384 122.911 191.215 123.183 190.96C123.455 190.705 123.643 190.376 123.723 190.015C123.777 189.775 123.781 189.527 123.736 189.284C123.691 189.042 123.597 188.81 123.461 188.602C123.324 188.394 123.148 188.214 122.94 188.072C122.733 187.931 122.5 187.83 122.254 187.776Z" fill="#D17E11"/>
<path d="M126.514 192.638C126.288 192.589 126.054 192.605 125.84 192.686C125.626 192.767 125.441 192.908 125.31 193.092C125.179 193.276 125.108 193.494 125.104 193.719C125.1 193.944 125.165 194.165 125.29 194.356C125.415 194.546 125.594 194.696 125.806 194.787C126.017 194.879 126.251 194.907 126.478 194.869C126.704 194.831 126.913 194.727 127.079 194.572C127.244 194.417 127.358 194.217 127.407 193.998C127.472 193.704 127.414 193.395 127.247 193.14C127.079 192.885 126.815 192.704 126.514 192.638Z" fill="#D17E11"/>
<path d="M135.611 193.424C135.475 193.394 135.334 193.404 135.204 193.453C135.075 193.502 134.964 193.588 134.885 193.699C134.806 193.81 134.763 193.941 134.761 194.077C134.759 194.213 134.798 194.347 134.874 194.461C134.949 194.576 135.058 194.667 135.185 194.722C135.313 194.777 135.454 194.794 135.591 194.771C135.727 194.747 135.854 194.685 135.953 194.592C136.053 194.498 136.122 194.377 136.151 194.245C136.171 194.157 136.172 194.066 136.156 193.977C136.139 193.888 136.105 193.803 136.054 193.726C136.004 193.65 135.939 193.584 135.863 193.532C135.787 193.48 135.701 193.443 135.611 193.424Z" fill="#D17E11"/>
<path d="M130.661 190.738C130.371 190.674 130.068 190.695 129.792 190.8C129.516 190.904 129.278 191.086 129.109 191.323C128.94 191.561 128.847 191.842 128.843 192.132C128.838 192.423 128.921 192.708 129.083 192.954C129.244 193.199 129.476 193.393 129.748 193.511C130.021 193.629 130.323 193.665 130.615 193.616C130.907 193.567 131.177 193.434 131.391 193.234C131.604 193.033 131.752 192.776 131.814 192.492C131.898 192.113 131.824 191.714 131.608 191.385C131.391 191.056 131.051 190.823 130.661 190.738Z" fill="#D17E11"/>
<path d="M135.672 145.02C137.34 143.904 139.717 144.902 141.169 147.336C143.003 150.41 144.964 155.641 143.825 160.215C142.895 163.927 140.935 166.447 138.099 166.089C133.311 165.491 134.081 161.271 134.833 158.426C135.398 156.289 136.271 152.135 135.732 149.98C135.212 147.895 134.083 146.082 135.672 145.02Z" fill="#6B163C"/>
<path d="M135.66 143.451L133.774 140.989L133.181 141.502L135.283 144.362C135.283 144.362 133.914 143.626 132.973 144.332C132.596 144.615 134.68 145.197 134.68 145.197C134.68 145.197 133.506 146.028 134.083 148.052C134.292 148.783 135.548 145.785 135.548 145.785C135.548 145.785 137.739 148.412 137.833 147.789C137.936 147.104 136.938 144.647 136.938 144.647C136.938 144.647 140.349 145.704 140.346 145.605C140.292 143.426 136.985 143.823 136.985 143.823C136.985 143.823 139.118 143.07 138.961 142.961C136.997 141.606 135.66 143.451 135.66 143.451Z" fill="#90AC3D"/>
<path d="M135.985 160.637C135.734 162.308 136.265 163.877 137.263 164.814C135.929 164.47 135.072 162.919 135.327 161.224C135.441 160.368 135.86 159.58 136.509 158.999C136.248 159.514 136.071 160.067 135.985 160.637Z" fill="white"/>
<path d="M136.763 144.183C136.986 144.17 137.165 144.149 137.211 144.147C139.655 144.101 140.376 145.35 140.285 145.175C140.252 145.114 140.075 143.634 136.978 143.61C136.649 143.606 136.282 143.638 136.044 143.759L133.774 140.989L133.577 141.16L135.704 143.873C135.432 143.952 135.147 144.257 134.928 144.548C133.101 146.977 134.142 148.106 134.168 148.167C134.257 148.345 133.739 146.928 135.234 145.052C135.272 145.003 135.458 144.811 135.64 144.595C135.667 144.766 135.71 144.934 135.769 145.097C136.098 145.874 137.763 147.972 137.833 147.788C137.857 147.724 137.736 145.901 137.099 144.548C137.02 144.401 136.905 144.275 136.763 144.183Z" fill="#ACC941"/>
<path d="M113.71 153.877L113.778 153.682C113.778 153.682 122.405 152.828 129.578 160.896C135.93 168.041 133.721 177.278 133.721 177.278L133.222 177.348C133.264 174.844 132.86 168.101 127.796 162.403C122.576 156.532 116.586 154.532 113.71 153.877Z" fill="#FED600"/>
<path d="M125.952 163.966C122.451 160.041 118.253 156.766 113.564 154.301L113.713 153.877C116.589 154.533 122.579 156.532 127.799 162.404C132.863 168.102 133.267 174.844 133.224 177.348L132.736 177.417C132.137 174.604 130.464 169.036 125.952 163.966Z" fill="#F9A01B"/>
<path d="M125.009 165.086C121.137 160.731 113.269 155.134 113.269 155.134L113.563 154.301C118.252 156.766 122.45 160.041 125.951 163.965C130.458 169.033 132.136 174.603 132.733 177.417L132.382 177.465C132.382 177.465 129.1 169.686 125.009 165.086Z" fill="#FED600"/>
<path d="M113.774 153.669L113.324 155.172C113.176 155.111 113.04 155.024 112.923 154.916C112.777 154.759 112.701 154.552 112.71 154.341C112.719 154.131 112.813 153.933 112.972 153.791C113.081 153.702 113.213 153.643 113.355 153.621C113.496 153.6 113.641 153.616 113.774 153.669Z" fill="#475324"/>
<path d="M132.685 177.173L132.82 178.121L133.572 177.921L133.355 177.032L132.685 177.173Z" fill="#FED600"/>
<path d="M121.705 149.479L121.828 149.312C121.828 149.312 130.364 150.928 134.871 160.653C138.863 169.264 134.018 177.463 134.018 177.463L133.517 177.388C134.297 175.009 135.898 168.457 132.716 161.591C129.436 154.512 124.273 150.917 121.705 149.479Z" fill="#FED600"/>
<path d="M130.482 162.561C128.278 157.828 125.212 153.519 121.436 149.845L121.704 149.482C124.273 150.918 129.434 154.515 132.714 161.591C135.897 168.458 134.295 175.01 133.516 177.389L133.026 177.318C133.283 174.461 133.314 168.674 130.482 162.561Z" fill="#F9A01B"/>
<path d="M129.247 163.365C126.813 158.116 120.91 150.554 120.91 150.554L121.437 149.842C125.213 153.516 128.278 157.825 130.483 162.558C133.315 168.667 133.284 174.458 133.028 177.312L132.677 177.259C132.677 177.259 131.818 168.91 129.247 163.365Z" fill="#FED600"/>
<path d="M121.827 149.298L120.952 150.606C120.827 150.507 120.722 150.386 120.642 150.249C120.548 150.058 120.536 149.839 120.606 149.64C120.677 149.441 120.826 149.279 121.021 149.188C121.152 149.134 121.296 149.115 121.438 149.134C121.58 149.154 121.715 149.21 121.827 149.298Z" fill="#475324"/>
<path d="M132.964 177.176L132.814 178.119L133.595 178.14L133.649 177.229L132.964 177.176Z" fill="#FED600"/>
<path d="M130.97 147.659L131.136 147.533C131.136 147.533 138.875 151.444 140.381 161.995C141.717 171.336 134.674 177.83 134.674 177.83L134.214 177.622C135.659 175.564 139.099 169.742 138.04 162.294C136.94 154.617 133.022 149.745 130.97 147.659Z" fill="#FED600"/>
<path d="M135.608 162.604C134.865 157.465 133.169 152.493 130.605 147.932L130.969 147.659C133.022 149.745 136.939 154.617 138.038 162.293C139.101 169.742 135.657 175.562 134.212 177.62L133.763 177.414C134.844 174.758 136.557 169.231 135.608 162.604Z" fill="#F9A01B"/>
<path d="M134.186 163.029C133.372 157.335 129.892 148.467 129.892 148.467L130.606 147.932C133.17 152.493 134.865 157.465 135.608 162.604C136.557 169.231 134.844 174.758 133.767 177.416L133.443 177.268C133.443 177.268 135.047 169.044 134.186 163.029Z" fill="#FED600"/>
<path d="M131.145 147.521L129.922 148.53C129.831 148.4 129.765 148.255 129.729 148.102C129.694 147.894 129.745 147.681 129.871 147.51C129.997 147.34 130.188 147.226 130.401 147.194C130.543 147.178 130.688 147.2 130.819 147.258C130.95 147.315 131.063 147.406 131.145 147.521Z" fill="#475324"/>
<path d="M133.748 177.265L133.329 178.124L134.073 178.362L134.39 177.506L133.748 177.265Z" fill="#FED600"/>
<path d="M124.198 177.927C124.198 177.927 124.276 179.469 123.757 180.123C123.054 181.008 120.89 181.425 120.288 182.807C119.396 184.849 120.498 186.449 121.239 186.916C121.512 187.083 121.627 187.488 122.259 187.686C122.685 187.815 123.142 187.796 123.552 187.631C123.552 187.631 124.113 188.252 124.946 188.169C125.685 188.094 125.997 187.68 125.997 187.68C126.485 187.797 126.997 187.78 127.473 187.63C127.679 187.558 127.999 187.243 128.157 187.097C128.608 186.685 129.238 186.74 129.693 185.282C129.982 184.357 129.629 183.08 129.211 182.482C128.242 181.108 126.56 180.794 125.991 179.951C125.708 179.533 125.657 177.976 125.657 177.976L124.198 177.927Z" fill="#B36C8E"/>
<path d="M123.637 184.34C123.721 183.251 124.097 182.257 124.342 181.441C123.63 181.737 122.847 182.866 122.739 184.266C122.631 185.667 123.041 186.883 123.703 187.294C123.576 186.313 123.553 185.323 123.637 184.34Z" fill="#93486F"/>
<path d="M128.178 184.133C128.069 183.44 127.872 182.763 127.594 182.116C128.174 182.477 128.741 182.995 128.906 184.035C129.071 185.076 128.802 186.001 128.287 186.339C128.336 185.603 128.3 184.862 128.178 184.133Z" fill="#93486F"/>
<path d="M121.568 184.116C121.712 183.391 121.942 182.685 122.252 182.013C121.888 182.221 121.573 182.502 121.33 182.839C121.087 183.176 120.92 183.56 120.842 183.966C120.625 184.991 120.847 185.936 121.345 186.307C121.333 185.57 121.408 184.835 121.568 184.116Z" fill="#93486F"/>
<path d="M126.174 184.143C126.13 183.157 125.981 182.177 125.729 181.219C126.434 181.545 127 182.704 127.072 184.108C127.144 185.512 126.701 186.709 126.032 187.092C126.184 186.117 126.231 185.129 126.174 184.143Z" fill="#93486F"/>
<path d="M141.349 155.65L140.682 155.641L140.661 159.508L141.329 159.518L141.349 155.65Z" fill="#657C12"/>
<path d="M140.676 156.968L139.112 156.081C139.303 155.278 138.605 154.504 138.112 154.172C137.023 153.441 134.653 153.891 134.653 153.891C134.653 153.891 135.211 156.006 136.201 156.641C137.119 157.228 138.323 157.345 138.897 156.532L140.667 157.571L140.676 156.968Z" fill="#657C12"/>
<path d="M142.972 158.235C142.299 158.385 141.615 158.483 140.926 158.53C140.706 158.529 140.201 158.463 139.057 158.18C137.275 157.739 134.643 159.232 134.619 162.521C134.6 165.059 137.016 169.311 139.067 169.341C139.542 169.347 140.579 168.546 140.962 168.552C141.346 168.558 142.374 169.387 142.849 169.396C144.9 169.425 147.36 165.237 147.367 162.704C147.372 159.412 144.757 157.843 142.972 158.235Z" fill="#EF4323"/>
<path d="M138.371 160.106C137.343 160.114 136.112 161.02 136.098 162.763C136.091 163.717 136.655 165.07 137.379 165.959C137.18 165.288 137.074 164.595 137.064 163.898C137.073 162.275 137.6 161.007 138.371 160.106Z" fill="white"/>
<path d="M138.565 156.154C139.689 156.806 140.675 157.286 140.675 157.286L140.677 156.834L138.653 155.87L138.419 155.004L138.383 155.747L137.602 155.374L137.55 154.338L137.412 155.283L136.386 154.792L136.386 154.083L136.277 154.741C135.753 154.49 135.373 154.308 135.289 154.266C135.373 154.312 135.748 154.528 136.266 154.826L135.562 155.091L136.376 154.889L137.272 155.407L136.237 155.771L137.485 155.532L138.338 156.026L137.329 156.646L138.565 156.154Z" fill="#829B1B"/>
<path d="M164.043 161.735L163.375 161.726L163.355 165.593L164.022 165.603L164.043 161.735Z" fill="#657C12"/>
<path d="M163.37 163.053L161.805 162.166C161.997 161.363 161.298 160.589 160.805 160.257C159.717 159.526 157.346 159.976 157.346 159.976C157.346 159.976 157.905 162.091 158.894 162.726C159.812 163.313 161.016 163.43 161.59 162.617L163.361 163.656L163.37 163.053Z" fill="#657C12"/>
<path d="M165.665 164.32C164.992 164.469 164.308 164.568 163.619 164.615C163.4 164.614 162.895 164.548 161.75 164.264C159.969 163.824 157.337 165.317 157.312 168.605C157.293 171.144 159.71 175.395 161.761 175.425C162.236 175.432 163.272 174.631 163.656 174.637C164.039 174.643 165.068 175.472 165.542 175.481C167.593 175.51 170.053 171.322 170.06 168.788C170.066 165.497 167.45 163.928 165.665 164.32Z" fill="#EF4323"/>
<path d="M161.064 166.191C160.037 166.199 158.806 167.104 158.791 168.848C158.784 169.801 159.348 171.155 160.073 172.044C159.873 171.373 159.767 170.68 159.758 169.983C159.766 168.359 160.294 167.092 161.064 166.191Z" fill="white"/>
<path d="M161.258 162.239C162.383 162.891 163.368 163.37 163.368 163.37L163.37 162.919L161.346 161.954L161.113 161.089L161.076 161.832L160.295 161.459L160.243 160.423L160.105 161.368L159.079 160.877L159.08 160.167L158.971 160.825C158.446 160.575 158.066 160.393 157.983 160.351C158.066 160.397 158.441 160.613 158.959 160.911L158.255 161.176L159.07 160.974L159.965 161.492L158.93 161.856L160.179 161.616L161.031 162.11L160.022 162.731L161.258 162.239Z" fill="#829B1B"/>
<path d="M162.119 182.397C161.897 182.663 161.575 182.831 161.224 182.864C160.873 182.897 160.521 182.792 160.247 182.573L156.428 179.522C156.808 178.752 157.225 177.97 157.679 177.176L161.92 180.567C162.056 180.675 162.169 180.809 162.253 180.959C162.337 181.11 162.389 181.275 162.408 181.445C162.426 181.615 162.41 181.787 162.36 181.95C162.311 182.114 162.229 182.266 162.119 182.397Z" fill="#C64817"/>
<path d="M165.464 178.384C165.354 178.516 165.219 178.625 165.065 178.705C164.912 178.785 164.743 178.834 164.57 178.85C164.396 178.867 164.22 178.849 164.053 178.799C163.885 178.749 163.729 178.668 163.594 178.559L159.052 174.928C159.518 174.211 160.013 173.489 160.534 172.768L165.267 176.552C165.403 176.661 165.516 176.795 165.6 176.946C165.683 177.097 165.736 177.262 165.754 177.432C165.772 177.602 165.756 177.774 165.707 177.937C165.657 178.101 165.574 178.252 165.464 178.384Z" fill="#C64817"/>
<path d="M158.769 186.411C158.547 186.677 158.225 186.845 157.874 186.878C157.523 186.911 157.172 186.807 156.897 186.588L154.428 184.613C154.682 183.723 154.982 182.846 155.328 181.986L158.569 184.579C158.705 184.687 158.818 184.821 158.902 184.972C158.986 185.122 159.039 185.288 159.057 185.458C159.076 185.628 159.06 185.8 159.011 185.963C158.961 186.127 158.879 186.279 158.769 186.411Z" fill="#C64817"/>
<path d="M166.989 196.511L119.214 186.015L118.954 187.19L166.729 197.686L166.989 196.511Z" fill="#0F47BE"/>
<path d="M166.99 196.511L119.278 186.029L119.188 186.438L166.9 196.921L166.99 196.511Z" fill="#1960DD"/>
<path d="M167.911 192.335L120.137 181.838L119.877 183.012L167.652 193.509L167.911 192.335Z" fill="#0F47BE"/>
<path d="M167.912 192.335L120.2 181.852L120.11 182.261L167.822 192.744L167.912 192.335Z" fill="#1960DD"/>
<path d="M158.224 183.908L132.477 178.251L129.967 189.611L155.714 195.268L158.224 183.908Z" fill="#0F47BE"/>
<path d="M158.228 183.888L132.481 178.231L132.356 178.797L158.103 184.454L158.228 183.888Z" fill="#1960DD"/>
<path d="M128.186 168.626L127.075 168.381L121.049 195.665L122.16 195.909L128.186 168.626Z" fill="#0F47BE"/>
<path d="M131.518 169.358L130.406 169.113L124.38 196.397L125.491 196.641L131.518 169.358Z" fill="#0F47BE"/>
<path d="M135.417 170.214L134.306 169.97L128.279 197.253L129.39 197.498L135.417 170.214Z" fill="#0F47BE"/>
<path d="M160.054 175.627L158.942 175.383L152.916 202.666L154.027 202.91L160.054 175.627Z" fill="#0F47BE"/>
<path d="M163.781 176.446L162.67 176.202L156.643 203.485L157.755 203.729L163.781 176.446Z" fill="#0F47BE"/>
<path d="M167.114 177.178L166.003 176.934L159.976 204.218L161.088 204.462L167.114 177.178Z" fill="#0F47BE"/>
<path d="M138.751 170.947L137.64 170.703L131.613 197.986L132.724 198.23L138.751 170.947Z" fill="#0F47BE"/>
<path d="M142.084 171.679L140.973 171.435L134.946 198.718L136.057 198.962L142.084 171.679Z" fill="#0F47BE"/>
<path d="M145.417 172.411L144.306 172.167L138.279 199.45L139.39 199.695L145.417 172.411Z" fill="#0F47BE"/>
<path d="M149.317 173.268L148.206 173.024L142.179 200.307L143.291 200.551L149.317 173.268Z" fill="#0F47BE"/>
<path d="M152.649 174L151.538 173.756L145.512 201.039L146.623 201.284L152.649 174Z" fill="#0F47BE"/>
<path d="M156.549 174.857L155.438 174.613L149.411 201.896L150.522 202.14L156.549 174.857Z" fill="#0F47BE"/>
<path d="M120.016 166.034L115.587 193.277C115.415 194.054 115.567 194.87 116.009 195.543C116.452 196.217 117.148 196.694 117.945 196.869L163.566 206.892C164.363 207.067 165.196 206.926 165.881 206.501C166.566 206.075 167.048 205.399 167.219 204.621L174.679 178.044L120.016 166.034ZM164.185 202.453C164.136 202.675 163.999 202.868 163.803 202.99C163.608 203.111 163.37 203.152 163.142 203.102L119.927 193.607C119.699 193.557 119.5 193.421 119.374 193.228C119.248 193.036 119.204 192.803 119.253 192.581L124.239 170.012C124.263 169.902 124.309 169.798 124.374 169.706C124.44 169.614 124.524 169.535 124.62 169.475C124.717 169.415 124.826 169.374 124.939 169.355C125.053 169.335 125.169 169.338 125.282 169.363L168.501 178.858C168.613 178.883 168.72 178.929 168.815 178.994C168.91 179.059 168.991 179.142 169.054 179.237C169.116 179.333 169.159 179.439 169.179 179.55C169.2 179.661 169.198 179.775 169.174 179.885L164.185 202.453Z" fill="#0F47BE"/>
<path d="M158.905 205.868L126.304 198.705L118.119 196.907L118.019 198.796L132.014 201.871L132.666 200.981L148.478 204.455L148.694 205.535L162.689 208.61L163.394 206.854L158.905 205.868Z" fill="#082B70"/>
<path d="M118.847 162.116L117.592 167.796C117.543 168.018 117.587 168.251 117.713 168.444C117.839 168.636 118.038 168.772 118.266 168.822L175.092 181.308C175.205 181.332 175.322 181.335 175.435 181.316C175.549 181.297 175.657 181.256 175.754 181.196C175.851 181.135 175.935 181.057 176.001 180.965C176.066 180.873 176.112 180.768 176.137 180.658L177.391 174.979L118.847 162.116Z" fill="#2C6FD8"/>
<path d="M177.612 173.979L119.068 161.116L118.848 162.116L177.391 174.978L177.612 173.979Z" fill="#3EA1FF"/>
<path d="M152.668 145.569L151.352 145.28C151.235 145.253 151.113 145.251 150.995 145.274C150.827 145.305 150.673 145.384 150.552 145.5C150.43 145.617 150.346 145.765 150.31 145.928L144.684 171.449C144.635 171.671 144.678 171.904 144.805 172.097C144.931 172.289 145.13 172.425 145.358 172.476L147.192 172.878L153.186 145.682L152.668 145.569Z" fill="#343635"/>
<path d="M155.345 146.227C155.247 146.158 155.135 146.11 155.018 146.085L153.185 145.682L147.188 172.879L149.022 173.282C149.135 173.307 149.252 173.309 149.365 173.29C149.479 173.271 149.587 173.23 149.684 173.17C149.781 173.109 149.864 173.031 149.93 172.939C149.996 172.847 150.042 172.742 150.066 172.632L155.692 147.112C155.729 146.948 155.716 146.777 155.654 146.62C155.592 146.462 155.485 146.326 155.345 146.227Z" fill="#231F20"/>
<path d="M151.596 145.194C151.611 145.124 151.597 145.051 151.558 144.991C151.518 144.931 151.456 144.888 151.385 144.873C151.35 144.865 151.313 144.864 151.278 144.87C151.242 144.876 151.208 144.889 151.178 144.908C151.148 144.927 151.122 144.951 151.102 144.98C151.081 145.009 151.067 145.041 151.059 145.076L150.55 147.381C150.535 147.451 150.549 147.523 150.588 147.583C150.628 147.643 150.69 147.685 150.761 147.701C150.796 147.709 150.833 147.71 150.868 147.704C150.904 147.698 150.938 147.685 150.968 147.666C150.999 147.648 151.025 147.623 151.045 147.594C151.066 147.565 151.08 147.533 151.088 147.498L151.596 145.194Z" fill="#231F20"/>
<path d="M152.669 145.428C152.684 145.359 152.67 145.287 152.631 145.227C152.591 145.167 152.529 145.124 152.458 145.109C152.423 145.101 152.387 145.1 152.351 145.106C152.316 145.112 152.282 145.124 152.252 145.143C152.221 145.162 152.195 145.186 152.175 145.215C152.155 145.244 152.14 145.276 152.133 145.311L151.624 147.616C151.608 147.685 151.622 147.758 151.661 147.818C151.701 147.879 151.763 147.921 151.834 147.937C151.906 147.953 151.98 147.94 152.041 147.902C152.102 147.864 152.146 147.804 152.161 147.734L152.669 145.428Z" fill="#231F20"/>
<path d="M154.292 145.785C154.3 145.751 154.3 145.715 154.294 145.68C154.287 145.645 154.274 145.612 154.254 145.582C154.235 145.553 154.209 145.527 154.18 145.506C154.15 145.486 154.116 145.472 154.081 145.464C154.01 145.449 153.936 145.462 153.875 145.5C153.814 145.538 153.771 145.598 153.756 145.667L153.246 147.973C153.231 148.042 153.245 148.114 153.284 148.174C153.323 148.234 153.385 148.277 153.456 148.292C153.528 148.308 153.602 148.295 153.663 148.257C153.724 148.219 153.767 148.159 153.783 148.089L154.292 145.785Z" fill="#141112"/>
<path d="M155.366 146.02C155.381 145.95 155.367 145.878 155.327 145.818C155.288 145.758 155.226 145.715 155.155 145.7C155.119 145.692 155.083 145.69 155.047 145.696C155.011 145.702 154.977 145.714 154.947 145.733C154.916 145.752 154.89 145.776 154.869 145.805C154.848 145.834 154.834 145.867 154.826 145.901L154.317 148.207C154.302 148.276 154.315 148.349 154.354 148.409C154.394 148.469 154.456 148.511 154.527 148.527C154.598 148.543 154.672 148.53 154.734 148.492C154.795 148.454 154.838 148.394 154.853 148.324L155.366 146.02Z" fill="#141112"/>
<path d="M146.634 170.266C146.572 170.546 146.627 170.839 146.786 171.08C146.945 171.322 147.195 171.493 147.482 171.556L147.947 169.45C147.805 169.419 147.658 169.415 147.516 169.439C147.373 169.464 147.236 169.515 147.114 169.591C146.992 169.667 146.887 169.765 146.805 169.881C146.722 169.997 146.664 170.128 146.634 170.266Z" fill="#BCBEC0"/>
<path d="M148.791 170.739C148.821 170.601 148.824 170.458 148.798 170.318C148.772 170.178 148.718 170.045 148.639 169.925C148.56 169.805 148.458 169.701 148.338 169.62C148.219 169.538 148.084 169.48 147.942 169.449L147.477 171.555C147.619 171.587 147.766 171.59 147.909 171.566C148.051 171.542 148.188 171.491 148.31 171.415C148.432 171.339 148.537 171.241 148.62 171.125C148.702 171.009 148.76 170.878 148.791 170.739Z" fill="#58595B"/>
<path d="M146.958 170.338C146.998 170.157 147.091 169.992 147.226 169.863C147.36 169.734 147.531 169.646 147.717 169.611C147.508 169.608 147.304 169.675 147.141 169.802C146.977 169.929 146.864 170.107 146.82 170.306C146.776 170.506 146.803 170.715 146.898 170.899C146.993 171.082 147.15 171.228 147.341 171.313C147.188 171.204 147.069 171.053 147.001 170.88C146.933 170.707 146.918 170.518 146.958 170.338Z" fill="#D1D3D4"/>
</g>
<defs>
<clipPath id="clip0">
<rect width="72.9858" height="59.8422" fill="white" transform="matrix(0.976704 0.214591 -0.21569 0.976462 116.484 137.19)"/>
</clipPath>
</defs>
</svg>
