<svg width="224" height="224" viewBox="0 0 224 224" fill="none" xmlns="http://www.w3.org/2000/svg">
<circle cx="112" cy="112" r="112" fill="white"/>
<path d="M81.3595 66.9569C66.9432 90.1266 40.3342 105.245 13.0013 105.801C9.53309 112.576 10.6574 121.437 15.7165 127.14C16.4425 127.968 17.2619 128.748 17.6373 129.774C18.0003 130.762 17.9091 131.842 17.907 132.902C17.907 139.912 22.3501 146.53 28.4714 149.977C34.5926 153.423 42.1202 153.907 48.9321 152.18C50.3468 151.82 51.747 151.369 53.1969 151.199C54.9538 150.992 56.7232 151.199 58.4925 151.35C70.4405 152.318 82.4371 150.203 93.3282 145.208C92.9278 118.561 105.527 93.7262 114.019 68.4588L81.3595 66.9569Z" fill="#3A88AA"/>
<path d="M80.5419 82.6586C82.7075 80.081 84.8979 76.6428 83.4874 73.5935C77.6162 82.7206 70.3805 90.8989 62.0309 97.8451C46.9861 110.404 30.6137 115.804 12.3662 121.697C13.1465 123.691 14.2697 125.532 15.6851 127.14C16.3758 127.918 17.1371 128.671 17.5519 129.623C17.6702 129.511 17.7905 129.399 17.9129 129.292C21.0056 126.555 24.8597 124.865 28.5789 123.067C48.5585 113.395 66.2656 99.6254 80.5419 82.6586Z" fill="#49A7DB"/>
<path d="M42.3008 142.757C37.8764 145.929 32.9665 148.879 27.6045 149.477C27.8811 149.65 28.1576 149.817 28.4342 149.977C34.5575 153.424 42.083 153.908 48.895 152.18C49.4654 152.036 50.0317 151.876 50.6001 151.727C52.9938 147.766 54.8233 143.303 56.4952 139.017C57.1797 137.26 57.8746 135.341 57.3249 133.537C51.7513 135.461 47.0966 139.319 42.3008 142.757Z" fill="#49A7DB"/>
<path d="M112.504 83.9212H112.488C112.094 83.9052 111.723 83.7377 111.451 83.454C111.179 83.1703 111.028 82.7924 111.029 82.3999C111.031 82.0073 111.185 81.6307 111.459 81.3492C111.734 81.0677 112.107 80.9033 112.5 80.8905C112.6 80.8905 118.684 80.7705 125.153 74.1525C132.996 66.1298 133.121 55.4922 133.121 55.3846C133.121 54.9824 133.281 54.5967 133.566 54.3123C133.851 54.0279 134.238 53.8682 134.641 53.8682C135.044 53.8682 135.431 54.0279 135.716 54.3123C136.001 54.5967 136.162 54.9824 136.162 55.3846C136.162 55.8666 136.06 67.3338 127.331 76.2647C119.988 83.7826 112.996 83.9212 112.504 83.9212Z" fill="#231F20"/>
<path d="M109.726 162.258C109.74 162.209 109.75 162.159 109.758 162.108C109.804 161.695 110.783 151.929 104.237 140.215C98.0083 129.072 85.6373 123.401 85.1115 123.171C84.9282 123.073 84.7266 123.013 84.5191 122.996C84.3117 122.978 84.1029 123.003 83.9056 123.069C83.7083 123.136 83.5267 123.242 83.3721 123.381C83.2176 123.52 83.0933 123.689 83.007 123.878C82.9207 124.067 82.8742 124.271 82.8704 124.479C82.8666 124.687 82.9056 124.893 82.985 125.085C83.0643 125.277 83.1824 125.45 83.3318 125.595C83.4812 125.739 83.6588 125.852 83.8535 125.925C84.0142 125.997 95.8523 131.462 101.569 141.691C107.614 152.508 106.733 161.688 106.721 161.781C106.681 162.167 106.79 162.554 107.027 162.862C107.264 163.17 107.61 163.376 107.995 163.437C108.379 163.498 108.772 163.409 109.093 163.19C109.414 162.97 109.639 162.636 109.72 162.257L109.726 162.258Z" fill="#231F20"/>
<path d="M36.1006 134.681C36.1006 134.681 67.4742 120.353 74.5413 97.1005C81.6084 73.8481 80.8368 53.2271 82.6539 45.4259C85.3338 33.9156 91.5235 31.0359 91.5235 31.0359L97.8522 29.9229C97.8522 29.9229 104.66 25.471 111.984 40.2665C117.452 51.297 120.978 80.3046 109.869 108.139C98.7981 135.856 80.6646 143.607 67.4742 145.486C54.2838 147.364 36.9967 141.71 36.9967 141.71L36.1006 134.681Z" fill="#F2D211"/>
<path d="M112.088 40.1544C108.354 32.6036 104.747 30.0694 102.113 29.3971C103.683 31.0521 105.359 33.4518 107.064 36.8962C112.532 47.9349 116.06 76.9487 104.946 104.777C93.8756 132.498 75.7401 140.245 62.5518 142.124C53.6676 143.4 42.9228 141.236 36.8555 139.697L37.0982 141.607C37.0982 141.607 54.3936 147.26 67.5757 145.382C80.7578 143.504 98.8975 135.752 109.97 108.035C121.084 80.2049 117.556 51.1931 112.088 40.1544Z" fill="#EFBB18"/>
<path d="M91.5242 31.0369L80.9951 17.9437L87.7262 12.3063L101.854 29.4647C101.854 29.4647 100.444 32.9816 99.7384 33.4471C99.0331 33.9125 91.5242 31.0369 91.5242 31.0369Z" fill="#F2D211"/>
<path d="M75.0117 19.2907C76.1878 19.8244 84.9019 19.1066 84.9019 19.1066L89.623 14.607L85.6093 7.02905L75.0117 12.3065V19.2907Z" fill="#F2D211"/>
<path d="M79.4736 74.7793C85.3584 72.965 96.1903 69.8867 106.147 68.4447C111.302 67.6979 114.811 67.8593 117.197 68.3806C117.162 63.6488 116.776 58.926 116.043 54.2509C113.494 53.7233 109.794 53.3199 104.498 53.4109C95.6614 53.564 86.6154 55.8769 81.328 57.4926C80.9236 62.4101 80.4195 68.2834 79.4736 74.7793Z" fill="#49A7DB"/>
<path d="M88.0611 64.5602C88.2517 64.9914 88.5592 65.3612 88.9489 65.6278C89.377 65.8784 89.855 66.0324 90.3492 66.0788C92.1747 66.3457 94.0458 66.1492 95.8361 65.7064C97.1845 65.3733 98.5619 64.8581 99.458 63.8008C100.354 62.7435 100.58 61.0159 99.6219 60.0145C98.954 59.3172 97.9167 59.131 96.9521 59.0648C94.0811 58.8682 85.7294 59.5572 88.0611 64.5602Z" fill="#F2D211"/>
<path d="M105.58 62.3963C105.638 62.8239 105.824 63.2238 106.115 63.5434C106.406 63.8629 106.787 64.087 107.208 64.186C108.66 64.6784 110.206 64.7198 111.732 64.5088C112.88 64.3495 114.081 64.0122 114.973 63.0811C115.865 62.1501 116.313 60.4679 115.686 59.3569C115.251 58.583 114.442 58.2685 113.66 58.0823C111.353 57.5299 104.447 57.1616 105.58 62.3963Z" fill="#F2D211"/>
<path d="M63.6199 167.847C63.3111 167.847 63.0099 167.751 62.7591 167.571C62.5082 167.391 62.3205 167.137 62.2225 166.845C62.1245 166.553 62.1212 166.238 62.213 165.944C62.3049 165.65 62.4872 165.392 62.7342 165.207C62.8213 165.143 71.5147 158.455 73.3774 146.522C75.0617 135.721 71.1226 126.282 71.0832 126.189C70.9655 125.839 70.9842 125.458 71.1355 125.122C71.2869 124.785 71.5598 124.518 71.9 124.373C72.2401 124.228 72.6224 124.216 72.9708 124.34C73.3192 124.464 73.608 124.714 73.7798 125.041C73.9561 125.454 78.0922 135.316 76.2689 146.969C74.2175 160.116 64.8852 167.242 64.4891 167.547C64.2389 167.737 63.9343 167.842 63.6199 167.847Z" fill="#231F20"/>
<path d="M98.7822 62.1408C98.7822 62.6167 98.6407 63.0818 98.3756 63.4775C98.1105 63.8731 97.7337 64.1815 97.2929 64.3636C96.852 64.5457 96.3669 64.5933 95.8989 64.5005C95.4309 64.4076 95.0011 64.1785 94.6637 63.842C94.3263 63.5056 94.0965 63.0769 94.0034 62.6102C93.9103 62.1435 93.9581 61.6598 94.1407 61.2202C94.3233 60.7805 94.6325 60.4048 95.0293 60.1404C95.426 59.8761 95.8924 59.735 96.3696 59.735C97.0093 59.7355 97.6226 59.9892 98.0749 60.4402C98.5273 60.8913 98.7816 61.5029 98.7822 62.1408Z" fill="#231F20"/>
<path d="M96.3635 61.7248C96.3635 61.9227 96.3046 62.1162 96.1943 62.2808C96.084 62.4454 95.9272 62.5737 95.7437 62.6495C95.5603 62.7252 95.3584 62.7451 95.1636 62.7064C94.9689 62.6678 94.79 62.5725 94.6495 62.4325C94.5091 62.2925 94.4135 62.1142 94.3748 61.92C94.336 61.7259 94.3559 61.5246 94.4319 61.3417C94.5079 61.1589 94.6366 61.0025 94.8017 60.8926C94.9668 60.7826 95.1609 60.7239 95.3595 60.7239C95.6258 60.7239 95.8812 60.8293 96.0694 61.017C96.2577 61.2047 96.3635 61.4593 96.3635 61.7248Z" fill="white"/>
<path d="M114.912 60.9784C114.914 61.4547 114.774 61.9208 114.51 62.3178C114.247 62.7148 113.871 63.0248 113.43 63.2085C112.989 63.3922 112.504 63.4413 112.035 63.3496C111.567 63.258 111.136 63.0297 110.797 62.6936C110.459 62.3576 110.228 61.9289 110.134 61.4619C110.04 60.995 110.087 60.5107 110.27 60.0705C110.452 59.6302 110.761 59.2539 111.158 58.9891C111.555 58.7243 112.022 58.5829 112.499 58.5829C113.138 58.5829 113.75 58.8349 114.202 59.2839C114.654 59.7328 114.909 60.3421 114.912 60.9784Z" fill="#231F20"/>
<path d="M112.5 60.562C112.5 60.76 112.441 60.9535 112.331 61.1181C112.221 61.2827 112.064 61.411 111.88 61.4867C111.697 61.5625 111.495 61.5823 111.3 61.5437C111.106 61.5051 110.927 61.4098 110.786 61.2698C110.646 61.1298 110.55 60.9515 110.511 60.7573C110.473 60.5632 110.493 60.3619 110.569 60.179C110.645 59.9961 110.773 59.8398 110.938 59.7298C111.104 59.6199 111.298 59.5612 111.496 59.5612C111.763 59.5612 112.018 59.6666 112.206 59.8543C112.394 60.042 112.5 60.2966 112.5 60.562Z" fill="white"/>
<path d="M100.233 72.6626C100.233 72.6626 103.393 76.0243 106.527 76.0243C109.662 76.0243 110.716 71.202 110.716 71.202C110.716 71.202 112.103 79.5578 106.82 80.3626C101.945 81.1135 100.233 72.6626 100.233 72.6626Z" fill="#231F20"/>
<path d="M109.966 70.5397C110.238 70.4193 110.543 70.392 110.833 70.4619C111.122 70.5318 111.381 70.6952 111.568 70.9265C111.598 70.9744 111.646 71.009 111.701 71.0232C111.756 71.0374 111.814 71.0302 111.864 71.003C111.89 70.9897 111.912 70.9713 111.93 70.9488C111.949 70.9263 111.962 70.9003 111.969 70.8725C111.977 70.8447 111.978 70.8156 111.974 70.7871C111.969 70.7587 111.959 70.7315 111.943 70.7073C111.695 70.3795 111.341 70.147 110.941 70.0487C110.541 69.9504 110.119 69.9923 109.746 70.1675C109.721 70.1809 109.698 70.1995 109.68 70.2221C109.663 70.2446 109.65 70.2706 109.642 70.2985C109.635 70.3263 109.634 70.3553 109.638 70.3837C109.643 70.4121 109.654 70.4391 109.669 70.4632C109.699 70.5119 109.747 70.5472 109.802 70.5615C109.858 70.5758 109.916 70.568 109.966 70.5397Z" fill="#231F20"/>
<path d="M99.3678 73.2202C99.3372 72.8405 99.423 72.4604 99.6138 72.1303C99.8045 71.8002 100.091 71.5356 100.436 71.3714C100.462 71.358 100.484 71.3394 100.502 71.3168C100.52 71.2943 100.533 71.2683 100.54 71.2405C100.547 71.2126 100.549 71.1836 100.544 71.1552C100.539 71.1269 100.529 71.0998 100.513 71.0757C100.483 71.0274 100.435 70.9925 100.38 70.9782C100.325 70.964 100.266 70.9715 100.216 70.9992C99.8055 71.2006 99.4641 71.5194 99.2358 71.915C99.0075 72.3105 98.9025 72.7649 98.9343 73.2202C98.9343 73.2775 98.9571 73.3325 98.9978 73.373C99.0384 73.4135 99.0935 73.4363 99.151 73.4363C99.2085 73.4363 99.2637 73.4135 99.3043 73.373C99.345 73.3325 99.3678 73.2775 99.3678 73.2202Z" fill="#231F20"/>
<path d="M89.6245 115.968C89.4065 115.968 89.191 115.922 88.9927 115.831C88.7944 115.741 88.6179 115.609 88.4753 115.445C88.2077 115.136 81.9076 107.807 80.8102 99.5006C79.4369 89.105 83.0734 83.0745 83.2269 82.8242C83.4377 82.4813 83.7763 82.2359 84.1685 82.142C84.5606 82.0481 84.9741 82.1134 85.318 82.3236C85.6618 82.5337 85.9079 82.8715 86.002 83.2625C86.0962 83.6536 86.0307 84.066 85.82 84.4089C85.7723 84.4896 82.6046 89.8746 83.8244 99.0972C84.8035 106.512 90.7136 113.384 90.7717 113.452C90.9633 113.672 91.0876 113.941 91.1297 114.229C91.1717 114.517 91.1297 114.811 91.0087 115.076C90.8877 115.34 90.6928 115.565 90.4473 115.722C90.2019 115.879 89.9162 115.962 89.6245 115.962V115.968Z" fill="#231F20"/>
<path d="M131.884 60.8588C131.652 59.572 131.181 59.0155 130.755 57.4288C130.33 55.842 129.602 54.3587 129.025 52.8216C128.884 52.527 128.831 52.1981 128.872 51.8741C129.005 51.2721 129.77 50.9783 130.361 51.1604C130.952 51.3424 131.38 51.8596 131.689 52.4016C131.998 52.9437 132.234 53.5208 132.629 53.9987C133.022 51.4525 133.812 48.983 134.969 46.6794C135.144 46.2635 135.412 45.8928 135.753 45.5954C136.112 45.3202 136.639 45.2189 137.014 45.4713C137.389 45.7236 137.477 46.1519 137.526 46.5636C137.619 47.319 137.575 48.0849 137.396 48.8247C137.667 48.231 137.69 47.5586 137.871 46.9318C138.051 46.305 138.483 45.6657 139.132 45.5809C139.881 45.4816 140.532 46.216 140.63 46.9628C140.727 47.7097 140.422 48.4482 140.138 49.1454C140.178 48.6779 140.808 48.4337 141.221 48.6572C141.634 48.8806 141.806 49.4081 141.748 49.8736C141.661 50.3354 141.48 50.7746 141.217 51.1645C138.36 56.0923 136.446 60.3023 132.297 64.2226L131.884 60.8588Z" fill="#231F20"/>
<path d="M88.4129 111.612C89.0352 112.612 90.9022 112.67 91.7901 113.851C92.6779 115.032 93.7919 116.027 94.7938 117.117C95.0109 117.316 95.1664 117.572 95.2419 117.856C95.3353 118.406 94.7959 118.907 94.24 118.954C93.684 119.002 93.153 118.712 92.7132 118.371C92.2734 118.03 91.8834 117.62 91.3897 117.353C91.9232 119.612 92.0989 121.94 91.9104 124.253C91.904 124.659 91.8055 125.059 91.622 125.421C91.5274 125.601 91.38 125.748 91.1995 125.843C91.019 125.937 90.814 125.974 90.6118 125.949C90.2446 125.872 89.9895 125.535 89.8131 125.21C89.4817 124.61 89.2598 123.956 89.1576 123.278C89.1327 123.864 89.3402 124.435 89.4003 125.018C89.4605 125.601 89.3173 126.282 88.8049 126.57C88.2117 126.905 87.4213 126.512 87.0873 125.918C86.7533 125.324 86.7513 124.61 86.7596 123.932C86.8861 124.346 86.4401 124.759 86.019 124.704C85.5979 124.648 85.2784 124.273 85.1685 123.876C85.0845 123.461 85.0845 123.033 85.1685 122.618C85.8883 117.544 86.7471 113.853 87.1599 111.124L88.4129 111.612Z" fill="#231F20"/>
<path d="M69.445 151.818C67.9017 152.364 55.0391 166.38 55.0391 166.38C55.0391 166.38 67.7026 182.388 69.445 180.75C71.1874 179.111 69.445 168.468 69.445 168.468L79.4742 159.187L69.445 151.818Z" fill="#49A7DB"/>
<path d="M102.729 155.818C102.729 155.818 114.476 157.221 114.626 157.551C114.775 157.881 115.314 171.337 115.314 171.337C115.314 171.337 124.314 176.958 124.019 178.289C123.723 179.621 104.96 178.649 104.96 178.649L102.729 155.818Z" fill="#49A7DB"/>
<path d="M71.912 157.122C71.6693 156.454 70.8126 155.986 70.213 156.369L69.3024 156.756C68.0867 157.84 66.9237 158.98 65.8132 160.174C65.2427 160.795 64.6473 161.558 64.8278 162.376C64.9896 163.116 65.7841 163.596 66.5434 163.617C67.3026 163.638 68.0224 163.27 68.6489 162.837C69.9688 161.921 71.0108 160.66 71.661 159.193C71.9493 158.536 72.1547 157.791 71.912 157.122Z" fill="#F2D211"/>
<path d="M109.589 167.533C110.234 167.832 111.173 167.552 111.321 166.859L111.684 165.937C111.767 164.312 111.774 162.686 111.703 161.059C111.665 160.222 111.537 159.26 110.829 158.812C110.189 158.404 109.287 158.63 108.743 159.162C108.198 159.693 107.949 160.455 107.818 161.202C107.54 162.782 107.705 164.407 108.294 165.9C108.556 166.565 108.941 167.234 109.589 167.533Z" fill="#F2D211"/>
<path opacity="0.55" d="M86.9195 39.582C86.3921 40.7983 86.026 42.0779 85.8304 43.3885C85.5172 45.2298 85.3844 47.0979 85.2537 48.9598C85.0034 52.5318 84.7517 56.1039 84.4986 59.676C84.4426 60.4683 84.5546 61.5048 85.3284 61.6951C85.9155 61.8399 86.461 61.3496 86.8178 60.8676C89.7552 56.8687 88.3861 51.252 89.5914 46.4441C90.1846 44.0795 91.4086 41.9383 92.8192 39.9689C93.6054 38.8724 96.2005 36.7312 95.1923 35.279C94.3916 34.1246 92.035 34.5797 91.0227 35.0721C89.2304 35.9244 87.7327 37.8153 86.9195 39.582Z" fill="white"/>
<path opacity="0.55" d="M44.4688 134.806L59.2315 127.029C62.2144 125.459 65.2096 123.88 67.9436 121.911C71.2361 119.542 74.1102 116.642 76.4481 113.332C77.8711 111.315 79.126 108.998 79.0057 106.536C79.0169 106.129 78.8937 105.729 78.6552 105.398C77.9333 104.55 76.5477 105.237 75.7512 106.019C73.289 108.466 71.6316 111.604 69.4287 114.279C65.8817 118.613 61.032 121.644 56.2611 124.596L45.9685 130.966C45.0081 131.562 42.1269 132.665 41.681 133.749C40.8782 135.677 43.498 135.317 44.4688 134.806Z" fill="white"/>
<path d="M36.1006 134.683L39.3035 135.986V138.717L36.9967 141.711L36.1006 134.683Z" fill="#C6A810"/>
<path d="M75.0117 19.2895L86.9534 9.56628L89.623 14.6058L82.3257 19.2895H75.0117Z" fill="#EFBB18"/>
<g clip-path="url(#clip0)">
<path d="M200.453 119.433L200.424 119.188C200.424 119.188 190.602 115.966 180.18 123.573C170.951 130.311 171.147 141.704 171.147 141.704L171.71 141.916C172.304 138.97 174.508 131.172 181.867 125.799C189.451 120.262 196.937 119.461 200.453 119.433Z" fill="#FED600"/>
<path d="M183.612 128.105C188.696 124.407 194.424 121.65 200.515 119.969L200.451 119.433C196.934 119.461 189.449 120.262 181.864 125.799C174.505 131.172 172.302 138.97 171.708 141.916L172.258 142.122C173.678 138.979 177.057 132.885 183.612 128.105Z" fill="#F9A01B"/>
<path d="M184.422 129.66C190.048 125.554 200.645 121.02 200.645 121.02L200.516 119.969C194.426 121.65 188.698 124.407 183.614 128.105C177.066 132.882 173.68 138.979 172.263 142.122L172.658 142.269C172.658 142.269 178.478 133.997 184.422 129.66Z" fill="#FED600"/>
<path d="M200.433 119.173L200.57 121.052C200.758 121.019 200.939 120.952 201.103 120.855C201.313 120.708 201.455 120.486 201.499 120.236C201.542 119.987 201.483 119.73 201.334 119.524C201.231 119.39 201.092 119.287 200.933 119.226C200.774 119.164 200.602 119.146 200.433 119.173Z" fill="#475324"/>
<path d="M172.38 141.849L171.979 142.925L171.156 142.497L171.637 141.511L172.38 141.849Z" fill="#FED600"/>
<path d="M192.28 112.221L192.18 111.994C192.18 111.994 181.83 111.69 174.085 121.926C167.224 130.99 170.755 141.845 170.755 141.845L171.357 141.887C171.061 138.898 170.882 130.808 176.351 123.58C181.989 116.129 188.922 113.245 192.28 112.221Z" fill="#FED600"/>
<path d="M178.7 125.292C182.484 120.313 187.16 116.052 192.499 112.719L192.28 112.225C188.921 113.246 181.989 116.133 176.352 123.581C170.883 130.809 171.062 138.899 171.358 141.888L171.946 141.931C172.381 138.516 173.833 131.727 178.7 125.292Z" fill="#F9A01B"/>
<path d="M179.933 126.552C184.115 121.027 192.93 113.686 192.93 113.686L192.499 112.716C187.16 116.048 182.484 120.309 178.701 125.288C173.835 131.718 172.382 138.512 171.946 141.923L172.369 141.952C172.369 141.952 175.515 132.388 179.933 126.552Z" fill="#FED600"/>
<path d="M192.184 111.978L192.867 113.737C193.038 113.653 193.191 113.537 193.319 113.398C193.477 113.198 193.549 112.945 193.517 112.693C193.486 112.442 193.354 112.213 193.151 112.057C193.012 111.959 192.849 111.9 192.679 111.886C192.509 111.872 192.338 111.904 192.184 111.978Z" fill="#475324"/>
<path d="M172.055 141.78L171.987 142.924L171.072 142.748L171.244 141.667L172.055 141.78Z" fill="#FED600"/>
<path d="M181.965 107.702L181.804 107.512C181.804 107.512 171.791 110.102 167.326 122.079C163.371 132.683 169.898 142.106 169.898 142.106L170.487 141.98C169.334 139.197 166.827 131.488 169.974 123.033C173.228 114.319 179.04 109.618 181.965 107.702Z" fill="#FED600"/>
<path d="M172.723 124.021C174.909 118.191 178.161 112.801 182.317 108.116L181.964 107.702C179.039 109.618 173.227 114.319 169.975 123.032C166.822 131.487 169.335 139.195 170.487 141.979L171.062 141.853C170.487 138.462 169.915 131.544 172.723 124.021Z" fill="#F9A01B"/>
<path d="M174.27 124.887C176.681 118.423 183.011 108.927 183.011 108.927L182.318 108.116C178.161 112.801 174.91 118.191 172.724 124.022C169.916 131.544 170.488 138.463 171.059 141.855L171.474 141.764C171.474 141.764 171.721 131.714 174.27 124.887Z" fill="#FED600"/>
<path d="M181.795 107.497L182.959 108.994C183.099 108.865 183.213 108.712 183.295 108.543C183.389 108.307 183.384 108.044 183.281 107.812C183.178 107.58 182.986 107.397 182.746 107.305C182.584 107.249 182.411 107.238 182.243 107.272C182.076 107.306 181.921 107.384 181.795 107.497Z" fill="#475324"/>
<path d="M171.12 141.683L171.387 142.798L170.46 142.885L170.311 141.8L171.12 141.683Z" fill="#FED600"/>
<path d="M184.761 166.532C180.487 165.515 182.186 158.416 184.085 157.236C184.791 156.8 185.78 157.068 186.518 156.528C186.987 156.19 187.392 155.188 187.848 154.748C189.3 153.35 191.049 153.082 192.86 153.981C201.138 158.086 189.958 170.719 185.657 167.196C185.448 167.019 185.036 166.598 184.761 166.532Z" fill="#8B5E3C"/>
<path d="M187.351 166.056C187.126 166.016 186.386 165.749 186.327 165.476C186.21 164.933 187.309 164.255 187.81 164.372C188.631 164.563 189.744 166.028 188.322 166.11C187.998 166.114 187.673 166.096 187.351 166.056Z" fill="#754C29"/>
<path d="M184.364 160.324C184.318 159.569 185.181 159.452 185.773 159.42C186.563 159.375 187.225 159.545 187.802 160.091C188.187 160.448 188.304 160.971 188.266 161.482C188.216 162.128 187.617 162.629 187.03 162.936C186.665 163.126 185.842 163.498 185.41 163.337C184.483 162.989 184.395 160.838 184.364 160.324Z" fill="#754C29"/>
<path d="M191.722 158.732C191.644 158.665 191.581 158.582 191.538 158.489C191.495 158.397 191.473 158.296 191.473 158.194C191.473 158.092 191.495 157.991 191.538 157.898C191.581 157.806 191.644 157.723 191.722 157.656C192.49 157.011 193.899 158.194 193.037 158.674C193.031 158.674 192.146 159.091 191.722 158.732Z" fill="#754C29"/>
<path d="M138.325 152.965C138.325 150.111 141.099 147.511 145.646 145.557V149.276C145.646 149.69 145.813 150.086 146.111 150.379C146.409 150.671 146.812 150.835 147.234 150.835C147.655 150.835 148.059 150.671 148.356 150.379C148.654 150.086 148.821 149.69 148.821 149.276V144.392C149.825 144.077 150.884 143.788 151.997 143.527V149.276C151.997 149.69 152.164 150.086 152.462 150.379C152.76 150.671 153.164 150.835 153.585 150.835C154.006 150.835 154.41 150.671 154.708 150.379C155.005 150.086 155.173 149.69 155.173 149.276V142.888C156.197 142.712 157.256 142.561 158.348 142.436V149.276C158.36 149.682 158.532 150.068 158.829 150.351C159.126 150.634 159.523 150.792 159.937 150.792C160.35 150.792 160.748 150.634 161.044 150.351C161.341 150.068 161.513 149.682 161.525 149.276V142.145C162.566 142.075 163.623 142.026 164.701 142.002V149.276C164.701 149.69 164.868 150.086 165.166 150.379C165.464 150.671 165.867 150.835 166.289 150.835C166.71 150.835 167.113 150.671 167.411 150.379C167.709 150.086 167.876 149.69 167.876 149.276V142.002C168.953 142.025 170.011 142.073 171.052 142.145V149.276C171.052 149.69 171.219 150.086 171.517 150.379C171.815 150.671 172.219 150.835 172.64 150.835C173.061 150.835 173.465 150.671 173.762 150.379C174.06 150.086 174.228 149.69 174.228 149.276V142.442C175.315 142.568 176.375 142.718 177.402 142.894V149.283C177.414 149.689 177.586 150.074 177.883 150.357C178.179 150.64 178.577 150.799 178.99 150.799C179.404 150.799 179.801 150.64 180.098 150.357C180.395 150.074 180.567 149.689 180.579 149.283V143.527C181.689 143.786 182.747 144.074 183.754 144.392V149.276C183.754 149.69 183.922 150.086 184.219 150.379C184.517 150.671 184.921 150.835 185.342 150.835C185.763 150.835 186.167 150.671 186.465 150.379C186.763 150.086 186.93 149.69 186.93 149.276V145.559C191.476 147.511 194.251 150.111 194.251 152.965C194.251 153.042 194.239 153.116 194.236 153.191C194.234 153.267 194.244 153.332 194.247 153.403C194.228 154.172 193.904 154.904 193.343 155.442C192.782 155.979 192.029 156.28 191.245 156.281H141.332C140.547 156.281 139.793 155.981 139.231 155.443C138.67 154.905 138.344 154.173 138.325 153.403C138.325 153.332 138.329 153.262 138.337 153.191C138.337 153.116 138.325 153.042 138.325 152.965Z" fill="#F8AB3D"/>
<path d="M166.288 150.835C165.868 150.835 165.465 150.67 165.167 150.378C164.87 150.085 164.703 149.689 164.703 149.276V142.002C165.228 141.99 165.757 141.983 166.29 141.983C166.822 141.983 167.353 141.99 167.879 142.002V149.276C167.879 149.481 167.838 149.684 167.758 149.873C167.677 150.063 167.56 150.234 167.413 150.379C167.265 150.524 167.09 150.639 166.897 150.717C166.704 150.795 166.497 150.835 166.288 150.835Z" fill="#E1652F"/>
<path d="M172.643 150.835C172.221 150.835 171.818 150.671 171.52 150.379C171.222 150.086 171.055 149.69 171.055 149.276V142.145C172.135 142.218 173.194 142.315 174.231 142.435V149.276C174.231 149.69 174.063 150.086 173.765 150.379C173.468 150.671 173.064 150.835 172.643 150.835Z" fill="#E1652F"/>
<path d="M153.587 150.835C153.166 150.835 152.762 150.671 152.464 150.379C152.166 150.086 151.999 149.69 151.999 149.276V143.527C153.018 143.288 154.076 143.075 155.175 142.888V149.276C155.175 149.69 155.008 150.086 154.71 150.379C154.412 150.671 154.008 150.835 153.587 150.835Z" fill="#E1652F"/>
<path d="M159.938 150.835C159.516 150.835 159.112 150.671 158.815 150.379C158.517 150.086 158.35 149.69 158.35 149.276V142.442C159.384 142.321 160.443 142.224 161.527 142.151V149.283C161.525 149.695 161.356 150.09 161.059 150.381C160.761 150.672 160.358 150.835 159.938 150.835Z" fill="#E1652F"/>
<path d="M147.235 150.836C146.814 150.836 146.41 150.672 146.113 150.379C145.815 150.087 145.647 149.69 145.647 149.277V145.557C146.685 145.116 147.745 144.727 148.823 144.392V149.277C148.823 149.69 148.656 150.087 148.358 150.379C148.06 150.672 147.657 150.836 147.235 150.836Z" fill="#E1652F"/>
<path d="M178.993 150.835C178.571 150.835 178.167 150.671 177.869 150.379C177.571 150.086 177.404 149.69 177.403 149.276V142.888C178.502 143.074 179.561 143.287 180.58 143.527V149.276C180.581 149.481 180.54 149.684 180.46 149.873C180.38 150.062 180.263 150.234 180.116 150.379C179.968 150.524 179.793 150.639 179.6 150.717C179.408 150.795 179.201 150.835 178.993 150.835Z" fill="#E1652F"/>
<path d="M185.344 150.836C184.923 150.836 184.519 150.672 184.221 150.379C183.923 150.087 183.756 149.69 183.756 149.277V144.392C184.834 144.727 185.894 145.117 186.932 145.559V149.277C186.932 149.69 186.764 150.087 186.467 150.379C186.169 150.672 185.765 150.836 185.344 150.836Z" fill="#E1652F"/>
<path d="M170.521 117.441C170.521 117.441 172.682 118.057 173.776 119.396C174.629 120.44 175.092 122.152 174.688 122.269C174.175 122.416 172.44 121.496 171.614 120.391C170.788 119.285 170.521 117.441 170.521 117.441Z" fill="#216838"/>
<path d="M174.502 122.532C174.426 122.502 174.366 122.443 174.334 122.369C174.302 122.295 174.301 122.211 174.332 122.137C174.34 122.118 175.144 120.228 177.741 121.053C177.816 121.081 177.877 121.136 177.911 121.207C177.946 121.278 177.952 121.359 177.927 121.434C177.903 121.508 177.85 121.571 177.78 121.609C177.71 121.647 177.627 121.656 177.55 121.636C175.523 120.992 174.935 122.31 174.912 122.367C174.88 122.442 174.819 122.502 174.742 122.533C174.665 122.564 174.579 122.564 174.502 122.532Z" fill="#754C29"/>
<path d="M176.229 129.358C176.446 129.035 176.629 128.692 176.776 128.334C177.827 125.755 176.886 122.961 174.677 122.092C172.468 121.223 169.824 122.61 168.773 125.187C168.628 125.546 168.518 125.918 168.446 126.297C167.042 126.674 165.794 127.475 164.878 128.585C163.963 129.696 163.425 131.061 163.342 132.488C163.259 133.915 163.635 135.331 164.416 136.537C165.197 137.743 166.344 138.677 167.696 139.208C169.047 139.74 170.534 139.841 171.947 139.497C173.36 139.154 174.627 138.384 175.57 137.295C176.513 136.207 177.084 134.855 177.202 133.431C177.321 132.006 176.98 130.582 176.229 129.358Z" fill="#8DC63F"/>
<path d="M166.276 131.492C166.68 130.512 167.312 129.638 168.122 128.941C168.932 128.244 169.897 127.744 170.94 127.48C171.011 127.101 171.119 126.729 171.264 126.37C171.951 124.688 173.332 123.525 174.837 123.165C172.923 122.676 170.788 123.881 169.914 126.022C169.785 126.341 169.688 126.673 169.626 127.011C168.652 127.256 167.754 127.733 167.012 128.4C166.27 129.067 165.708 129.904 165.374 130.836C165.041 131.767 164.946 132.766 165.1 133.742C165.254 134.718 165.65 135.641 166.255 136.431C165.623 134.842 165.63 133.076 166.276 131.492Z" fill="#B2E561"/>
<path d="M193.083 124.205C193.083 124.205 195.245 124.821 196.338 126.16C197.191 127.203 197.655 128.916 197.25 129.032C196.738 129.18 195.003 128.259 194.177 127.154C193.351 126.049 193.083 124.205 193.083 124.205Z" fill="#216838"/>
<path d="M197.065 129.296C196.989 129.265 196.928 129.207 196.897 129.133C196.865 129.058 196.864 128.975 196.894 128.9C196.902 128.881 197.706 126.991 200.303 127.817C200.378 127.845 200.439 127.9 200.474 127.971C200.509 128.041 200.514 128.123 200.49 128.197C200.465 128.272 200.413 128.335 200.342 128.373C200.272 128.41 200.19 128.42 200.112 128.4C198.085 127.755 197.498 129.074 197.474 129.13C197.442 129.206 197.381 129.265 197.305 129.296C197.228 129.327 197.141 129.327 197.065 129.296Z" fill="#754C29"/>
<path d="M198.792 136.121C199.008 135.799 199.191 135.456 199.339 135.098C200.39 132.519 199.449 129.724 197.24 128.855C195.031 127.987 192.386 129.373 191.335 131.951C191.19 132.31 191.081 132.682 191.008 133.061C189.604 133.438 188.357 134.238 187.441 135.349C186.525 136.46 185.988 137.825 185.905 139.252C185.822 140.678 186.198 142.095 186.979 143.3C187.76 144.506 188.907 145.441 190.258 145.972C191.609 146.503 193.096 146.604 194.509 146.261C195.922 145.918 197.19 145.148 198.133 144.059C199.076 142.971 199.647 141.619 199.765 140.194C199.883 138.77 199.543 137.345 198.792 136.121Z" fill="#8DC63F"/>
<path d="M188.839 138.256C189.242 137.276 189.874 136.402 190.684 135.705C191.494 135.008 192.46 134.508 193.503 134.244C193.573 133.864 193.682 133.493 193.827 133.134C194.513 131.452 195.895 130.289 197.4 129.929C195.485 129.44 193.35 130.645 192.477 132.786C192.347 133.105 192.251 133.437 192.189 133.775C191.214 134.02 190.316 134.497 189.574 135.164C188.833 135.831 188.27 136.668 187.937 137.599C187.603 138.531 187.509 139.529 187.662 140.505C187.816 141.481 188.213 142.405 188.817 143.195C188.185 141.605 188.193 139.84 188.839 138.256Z" fill="#B2E561"/>
<path d="M133.557 153.492C133.557 153.492 133.143 150.393 134.751 148.723C136.898 146.499 142.352 144.333 145.024 142.747C146.369 141.949 147.175 140.553 147.175 140.553C147.175 140.553 147.688 143.988 145.333 145.995C143.403 147.637 138.802 149.886 136.438 151.172C135.339 151.763 134.362 152.55 133.557 153.492Z" fill="#6F8337"/>
<path d="M144.011 144.292C144.073 144.155 144.175 144.039 144.304 143.958C144.433 143.877 144.583 143.836 144.736 143.839C144.889 143.842 145.037 143.89 145.163 143.976C145.288 144.061 145.385 144.182 145.441 144.321C145.497 144.461 145.509 144.614 145.477 144.76C145.444 144.907 145.368 145.041 145.258 145.145C145.148 145.249 145.01 145.319 144.859 145.346C144.709 145.373 144.553 145.356 144.413 145.297C144.319 145.257 144.234 145.199 144.163 145.127C144.092 145.055 144.036 144.97 143.999 144.876C143.962 144.783 143.943 144.683 143.945 144.583C143.948 144.483 143.97 144.384 144.011 144.292Z" fill="#C5D230"/>
<path d="M141.812 145.551C141.873 145.413 141.975 145.296 142.104 145.215C142.234 145.134 142.384 145.093 142.538 145.096C142.691 145.099 142.84 145.146 142.966 145.232C143.091 145.318 143.188 145.439 143.245 145.579C143.301 145.719 143.313 145.872 143.28 146.019C143.248 146.166 143.172 146.3 143.061 146.404C142.951 146.509 142.812 146.579 142.661 146.606C142.51 146.633 142.354 146.615 142.214 146.555C142.12 146.515 142.035 146.458 141.964 146.386C141.893 146.313 141.837 146.228 141.8 146.135C141.762 146.042 141.744 145.942 141.746 145.842C141.748 145.741 141.771 145.642 141.812 145.551Z" fill="#C5D230"/>
<path d="M139.624 146.676C139.685 146.538 139.787 146.421 139.917 146.341C140.046 146.26 140.197 146.218 140.35 146.221C140.503 146.224 140.652 146.272 140.778 146.358C140.904 146.443 141.001 146.564 141.057 146.704C141.113 146.844 141.125 146.997 141.092 147.144C141.06 147.291 140.984 147.425 140.873 147.529C140.763 147.634 140.624 147.704 140.473 147.731C140.322 147.758 140.167 147.74 140.026 147.681C139.931 147.642 139.846 147.584 139.774 147.512C139.702 147.44 139.646 147.355 139.609 147.261C139.571 147.168 139.553 147.068 139.556 146.967C139.558 146.866 139.582 146.767 139.624 146.676Z" fill="#C5D230"/>
<path d="M137.403 148.068C137.465 147.93 137.567 147.814 137.696 147.734C137.825 147.653 137.975 147.612 138.128 147.615C138.281 147.618 138.429 147.665 138.555 147.751C138.68 147.837 138.777 147.957 138.833 148.097C138.889 148.236 138.901 148.389 138.869 148.536C138.836 148.682 138.76 148.816 138.651 148.921C138.541 149.025 138.402 149.095 138.251 149.122C138.101 149.149 137.946 149.132 137.805 149.072C137.711 149.033 137.625 148.976 137.553 148.904C137.482 148.832 137.426 148.747 137.388 148.653C137.351 148.559 137.333 148.459 137.335 148.359C137.338 148.258 137.361 148.159 137.403 148.068Z" fill="#C5D230"/>
<path d="M135.105 149.44C135.167 149.302 135.268 149.185 135.398 149.104C135.527 149.023 135.677 148.982 135.831 148.984C135.984 148.987 136.133 149.035 136.259 149.12C136.384 149.206 136.482 149.327 136.538 149.467C136.594 149.606 136.607 149.759 136.574 149.906C136.542 150.053 136.466 150.188 136.356 150.292C136.245 150.397 136.106 150.467 135.955 150.494C135.805 150.521 135.649 150.504 135.508 150.444C135.415 150.404 135.33 150.347 135.259 150.275C135.187 150.203 135.132 150.117 135.094 150.024C135.057 149.931 135.038 149.831 135.04 149.731C135.042 149.63 135.064 149.531 135.105 149.44Z" fill="#C5D230"/>
<path d="M145.469 169.201L143.912 165.366L138.406 159.426C138.406 159.426 141.127 158.664 141.34 158.721C141.552 158.777 143.839 163.277 145.112 162.557C146.076 162.01 143.778 158.447 143.967 158.326L146.572 156.648C146.572 156.648 147.448 161.063 148.596 160.814C149.745 160.565 148.651 156.255 148.651 156.255L151.704 154.734L151.218 161.3L152.667 166.388L145.469 169.201Z" fill="#6F8423"/>
<path d="M153.6 148.138C153.492 147.871 153.324 147.63 153.109 147.434C152.894 147.238 152.638 147.092 152.358 147.006C152.078 146.92 151.782 146.897 151.491 146.938C151.201 146.98 150.924 147.084 150.68 147.245C150.511 146.965 150.273 146.731 149.987 146.566C149.702 146.401 149.378 146.309 149.047 146.3C148.716 146.29 148.387 146.364 148.093 146.512C147.798 146.661 147.546 146.88 147.361 147.15C146.8 146.78 146.159 146.543 145.489 146.459C144.818 146.375 144.137 146.446 143.499 146.667C142.862 146.887 142.286 147.251 141.817 147.729C141.348 148.207 140.999 148.786 140.799 149.42C140.272 149 139.622 148.76 138.944 148.733C138.267 148.706 137.599 148.895 137.04 149.271C136.481 149.647 136.061 150.191 135.842 150.821C135.623 151.451 135.617 152.133 135.825 152.766C135.03 152.802 134.275 153.12 133.701 153.661C133.126 154.201 132.771 154.928 132.7 155.707C132.63 156.485 132.85 157.262 133.319 157.894C133.788 158.525 134.474 158.968 135.25 159.141C135.262 159.336 135.305 159.529 135.378 159.712C135.474 159.948 135.616 160.163 135.796 160.346C135.977 160.528 136.192 160.674 136.43 160.774C136.668 160.875 136.924 160.928 137.183 160.931C137.442 160.934 137.699 160.887 137.939 160.793C138.266 160.664 138.55 160.45 138.763 160.174C139.494 160.517 140.333 160.567 141.101 160.315C141.87 160.062 142.509 159.525 142.882 158.819C143.632 159.073 144.452 159.039 145.177 158.723C145.902 158.407 146.478 157.833 146.789 157.117C147.548 157.439 148.405 157.455 149.177 157.161C149.948 156.868 150.57 156.289 150.911 155.549C151.444 155.588 151.979 155.493 152.465 155.272C152.95 155.051 153.371 154.713 153.686 154.288C154.001 153.863 154.2 153.367 154.265 152.845C154.33 152.324 154.258 151.795 154.057 151.308C153.875 150.865 153.59 150.47 153.224 150.155C153.474 149.888 153.642 149.557 153.708 149.2C153.774 148.843 153.737 148.475 153.6 148.138Z" fill="#90AC3D"/>
<path d="M135.59 153.565C135.081 153.674 134.62 153.937 134.272 154.317C133.924 154.697 133.705 155.175 133.648 155.683C133.591 156.191 133.697 156.704 133.952 157.15C134.207 157.596 134.598 157.952 135.07 158.168C134.655 157.444 134.482 156.61 134.575 155.784C134.669 154.958 135.024 154.182 135.59 153.565Z" fill="#B3D82B"/>
<path d="M138.659 149.7C138.151 149.81 137.691 150.073 137.343 150.453C136.995 150.833 136.778 151.31 136.72 151.817C136.663 152.325 136.769 152.837 137.023 153.283C137.278 153.728 137.668 154.084 138.139 154.3C137.724 153.577 137.551 152.743 137.644 151.918C137.737 151.093 138.092 150.317 138.659 149.7Z" fill="#B3D82B"/>
<path d="M150.266 150.433C149.982 150.495 149.715 150.616 149.483 150.789C149.2 150.996 148.977 151.272 148.836 151.589C148.694 151.906 148.639 152.254 148.675 152.598C148.711 152.942 148.837 153.272 149.041 153.554C149.245 153.836 149.52 154.062 149.84 154.208C149.5 153.614 149.359 152.931 149.435 152.254C149.512 151.576 149.802 150.94 150.266 150.433Z" fill="#B3D82B"/>
<path d="M144.318 147.505C143.793 147.619 143.3 147.842 142.872 148.16C142.476 148.455 142.143 148.823 141.893 149.245C141.642 149.666 141.478 150.131 141.411 150.614C141.344 151.098 141.374 151.589 141.5 152.061C141.626 152.533 141.845 152.976 142.146 153.364C142.512 153.833 142.988 154.208 143.533 154.457C142.906 153.363 142.644 152.104 142.785 150.857C142.926 149.61 143.462 148.437 144.318 147.505Z" fill="#B3D82B"/>
<path d="M185.972 173.989V173.162C185.179 173.162 184.418 172.853 183.858 172.302C183.297 171.752 182.982 171.005 182.982 170.226C182.982 169.448 183.297 168.701 183.858 168.15C184.418 167.6 185.179 167.29 185.972 167.29V166.557H179.045C179.029 166.557 179.013 166.557 178.998 166.557V173.999C179.014 173.997 179.03 173.997 179.045 173.999L185.972 173.989Z" fill="#00A79D"/>
<path d="M179.045 165.842C178.954 165.843 178.866 165.878 178.8 165.94C178.733 166.002 178.693 166.086 178.687 166.175C178.681 166.264 178.71 166.353 178.767 166.423C178.825 166.492 178.907 166.538 178.998 166.551C179.013 166.551 179.028 166.551 179.045 166.551H185.968V165.837L179.045 165.842Z" fill="#D1D3D4"/>
<path d="M179.045 173.987C179.029 173.986 179.013 173.986 178.998 173.987C178.907 174 178.825 174.046 178.767 174.116C178.71 174.186 178.681 174.274 178.687 174.363C178.693 174.453 178.733 174.537 178.8 174.599C178.866 174.66 178.954 174.695 179.045 174.697H185.968V173.982L179.045 173.987Z" fill="#D1D3D4"/>
<path d="M182.981 170.226C182.981 171.005 183.296 171.752 183.857 172.302C184.418 172.853 185.179 173.162 185.972 173.162V167.29C185.579 167.29 185.19 167.366 184.827 167.513C184.464 167.661 184.135 167.877 183.857 168.15C183.579 168.422 183.359 168.746 183.209 169.102C183.059 169.459 182.981 169.841 182.981 170.226Z" fill="#078276"/>
<path d="M185.972 166.557V167.29C186.765 167.29 187.525 167.599 188.086 168.15C188.647 168.701 188.962 169.448 188.962 170.226C188.962 171.005 188.647 171.752 188.086 172.302C187.525 172.853 186.765 173.162 185.972 173.162V173.988H192.894C192.91 173.987 192.926 173.987 192.942 173.988V166.552C192.927 166.552 192.911 166.552 192.894 166.552L185.972 166.557Z" fill="#078276"/>
<path d="M192.895 165.842H185.972V166.556H192.895C192.911 166.556 192.927 166.556 192.942 166.556C193.032 166.543 193.115 166.497 193.172 166.428C193.23 166.358 193.258 166.27 193.252 166.18C193.246 166.091 193.206 166.007 193.14 165.945C193.074 165.883 192.986 165.848 192.895 165.847V165.842Z" fill="#939598"/>
<path d="M192.942 173.997C192.926 173.996 192.91 173.996 192.895 173.997H185.972V174.712H192.895C192.986 174.711 193.074 174.676 193.14 174.614C193.206 174.552 193.246 174.468 193.252 174.379C193.258 174.289 193.23 174.201 193.172 174.131C193.115 174.061 193.032 174.015 192.942 174.002V173.997Z" fill="#D1D3D4"/>
<path d="M188.962 170.226C188.962 169.841 188.885 169.459 188.735 169.102C188.584 168.746 188.364 168.422 188.086 168.15C187.809 167.877 187.479 167.661 187.116 167.513C186.753 167.366 186.364 167.29 185.972 167.29V173.162C186.364 173.162 186.753 173.086 187.116 172.939C187.479 172.791 187.808 172.575 188.086 172.302C188.364 172.03 188.584 171.706 188.734 171.35C188.885 170.994 188.962 170.612 188.962 170.226Z" fill="#054F46"/>
<path d="M150.728 161.606C148.523 163.089 146.63 162.469 145.523 160.881C144.417 159.293 144.511 157.338 146.716 155.852C148.921 154.366 152.112 154.114 153.221 155.702C154.33 157.29 152.933 160.123 150.728 161.606Z" fill="#FBB06B"/>
<path d="M168.088 154.569C170.294 156.052 172.185 155.432 173.292 153.844C174.398 152.256 174.306 150.301 172.101 148.815C169.896 147.329 166.703 147.077 165.596 148.665C164.488 150.253 165.882 153.086 168.088 154.569Z" fill="#FBB06B"/>
<path d="M184.278 168.226C184.278 170.013 183.555 171.727 182.268 172.991C180.981 174.255 179.235 174.965 177.414 174.966H161.78C159.959 174.966 158.213 174.256 156.926 172.992C155.638 171.728 154.915 170.013 154.915 168.226C154.915 166.438 155.639 164.724 156.926 163.46C158.213 162.197 159.959 161.487 161.78 161.487H177.414C178.316 161.487 179.208 161.661 180.041 162C180.874 162.338 181.63 162.835 182.268 163.46C182.905 164.086 183.411 164.829 183.755 165.647C184.1 166.464 184.278 167.341 184.278 168.226Z" fill="#EF4323"/>
<path d="M175.938 161.487H163.255V174.966H175.938V161.487Z" fill="#3C2415"/>
<path d="M155.673 167.53L153.363 166.247L153.974 167.53L153.363 168.225L153.843 168.857L153.931 169.713L155.673 169.114V167.53Z" fill="#EF4323"/>
<path d="M183.39 167.445L185.743 166.333L185.22 167.445L185.918 168.322L185.22 168.567L185.524 169.627L183.39 169.242V167.445Z" fill="#EF4323"/>
<path d="M165.043 161.487H164.127V174.966H165.043V161.487Z" fill="#8B5E3C"/>
<path d="M174.979 161.487H174.063V174.966H174.979V161.487Z" fill="#8B5E3C"/>
<path d="M155.619 115.903L152.773 112.558L154.42 111.432L156.391 115.59L155.619 115.903Z" fill="#C5D230"/>
<path d="M156.342 116.504L153.519 110.669L156.39 109.881L157.428 115.85L156.342 116.504Z" fill="#90AC3D"/>
<path d="M157.334 116.855L156.182 112.209L158.327 112.222L158.186 116.216L157.334 116.855Z" fill="#C5D230"/>
<path d="M162.911 131.57C162.88 131.221 162.845 130.86 162.806 130.493L160.99 131.57H162.911Z" fill="#F15722"/>
<path d="M162.431 127.459C162.368 127.023 162.303 126.579 162.231 126.143L160.019 127.46L162.431 127.459Z" fill="#F15722"/>
<path d="M161.742 123.362C161.661 122.945 161.578 122.532 161.486 122.127L159.407 123.362H161.742Z" fill="#F15722"/>
<path d="M160.862 119.46C160.734 119.009 160.606 118.58 160.478 118.177L158.316 119.461L160.862 119.46Z" fill="#F15722"/>
<path d="M155.05 121.914C155.155 122.291 155.268 122.677 155.389 123.069L157.254 121.711L155.05 121.914Z" fill="#F15722"/>
<path d="M156.461 114.627C156.461 114.627 154.551 115.049 154.338 116.729C154.294 117.124 154.284 117.522 154.31 117.918L156.369 118.013L154.421 119.057C154.572 120.024 154.782 120.98 155.05 121.922L157.254 121.718L155.389 123.077C155.679 124.006 156.014 124.963 156.379 125.928L158.618 125.72L156.812 127.037C157.196 128.007 157.611 128.967 158.03 129.89L159.612 129.744L158.378 130.643C158.884 131.727 159.393 132.74 159.877 133.639L161.075 133.527L160.179 134.184C161.293 136.183 162.228 137.475 162.612 137.39C163.15 137.264 163.197 134.829 162.914 131.577H160.991L162.805 130.499C162.705 129.528 162.579 128.507 162.431 127.465H160.019L162.232 126.147C162.084 125.214 161.92 124.281 161.742 123.367H159.413L161.491 122.131C161.292 121.197 161.08 120.298 160.851 119.465H158.317L160.478 118.177C160.223 117.302 159.893 116.448 159.492 115.626C158.656 113.992 156.461 114.627 156.461 114.627Z" fill="#F9851B"/>
<path d="M154.31 117.918C154.327 118.274 154.365 118.651 154.421 119.049L156.369 118.011L154.31 117.918Z" fill="#F15722"/>
<path d="M156.38 125.921C156.519 126.291 156.665 126.66 156.813 127.03L158.618 125.713L156.38 125.921Z" fill="#F15722"/>
<path d="M158.029 129.883C158.145 130.134 158.261 130.386 158.378 130.637L159.611 129.738L158.029 129.883Z" fill="#F15722"/>
<path d="M159.876 133.632C159.977 133.818 160.076 134 160.174 134.176L161.071 133.52L159.876 133.632Z" fill="#F15722"/>
<path d="M193.36 121.253L196.205 117.907L194.558 116.781L192.587 120.94L193.36 121.253Z" fill="#C5D230"/>
<path d="M192.636 121.853L195.46 116.019L192.589 115.23L191.55 121.199L192.636 121.853Z" fill="#90AC3D"/>
<path d="M191.643 122.203L192.796 117.558L190.651 117.571L190.792 121.565L191.643 122.203Z" fill="#C5D230"/>
<path d="M186.067 136.918C186.098 136.569 186.134 136.208 186.172 135.841L187.988 136.918H186.067Z" fill="#F15722"/>
<path d="M186.547 132.807C186.61 132.371 186.675 131.927 186.747 131.491L188.96 132.808L186.547 132.807Z" fill="#F15722"/>
<path d="M187.237 128.711C187.317 128.293 187.401 127.88 187.493 127.475L189.571 128.711H187.237Z" fill="#F15722"/>
<path d="M188.116 124.808C188.244 124.357 188.372 123.928 188.5 123.525L190.662 124.809L188.116 124.808Z" fill="#F15722"/>
<path d="M193.929 127.263C193.824 127.64 193.711 128.026 193.589 128.418L191.725 127.059L193.929 127.263Z" fill="#F15722"/>
<path d="M192.517 119.974C192.517 119.974 194.428 120.397 194.64 122.077C194.685 122.471 194.694 122.869 194.669 123.266L192.609 123.36L194.557 124.405C194.406 125.371 194.196 126.328 193.928 127.269L191.725 127.065L193.589 128.424C193.3 129.354 192.964 130.31 192.599 131.276L190.361 131.067L192.166 132.385C191.782 133.354 191.367 134.315 190.949 135.238L189.367 135.092L190.6 135.991C190.094 137.074 189.586 138.088 189.102 138.987L187.903 138.875L188.8 139.531C187.686 141.53 186.751 142.823 186.367 142.737C185.829 142.611 185.781 140.176 186.064 136.925H187.988L186.173 135.846C186.273 134.875 186.4 133.855 186.547 132.812H188.96L186.747 131.495C186.894 130.562 187.058 129.629 187.236 128.715H189.565L187.487 127.479C187.687 126.545 187.898 125.646 188.127 124.812H190.662L188.5 123.525C188.756 122.649 189.086 121.796 189.486 120.974C190.322 119.339 192.517 119.974 192.517 119.974Z" fill="#F9851B"/>
<path d="M194.669 123.266C194.651 123.622 194.614 123.999 194.558 124.397L192.61 123.359L194.669 123.266Z" fill="#F15722"/>
<path d="M192.599 131.27C192.459 131.639 192.313 132.009 192.166 132.378L190.36 131.061L192.599 131.27Z" fill="#F15722"/>
<path d="M190.949 135.231C190.834 135.483 190.718 135.734 190.601 135.985L189.368 135.087L190.949 135.231Z" fill="#F15722"/>
<path d="M189.103 138.98C189.001 139.166 188.903 139.348 188.804 139.524L187.908 138.869L189.103 138.98Z" fill="#F15722"/>
<path d="M151.587 160.012C158.941 161.551 159.689 165.409 159.689 165.409H135.387L151.587 160.012Z" fill="#D17E11"/>
<path d="M159.689 165.408H135.387V171.191C135.732 171.268 136.041 171.457 136.262 171.728C136.483 172 136.604 172.337 136.604 172.684C136.604 173.032 136.483 173.369 136.262 173.641C136.041 173.912 135.732 174.101 135.387 174.177V175.632H152.991C153.026 175.094 153.269 174.59 153.669 174.221C154.069 173.853 154.598 173.648 155.147 173.648C155.695 173.648 156.224 173.853 156.624 174.221C157.024 174.59 157.267 175.094 157.302 175.632H159.689V165.408ZM139.478 171.032C139.026 171.032 138.584 170.9 138.208 170.654C137.832 170.407 137.539 170.056 137.366 169.646C137.193 169.236 137.148 168.785 137.236 168.349C137.325 167.914 137.542 167.514 137.862 167.2C138.182 166.886 138.589 166.673 139.033 166.586C139.476 166.5 139.936 166.545 140.353 166.715C140.771 166.885 141.128 167.172 141.379 167.542C141.63 167.911 141.764 168.345 141.764 168.789C141.764 169.084 141.704 169.375 141.59 169.647C141.475 169.92 141.306 170.167 141.094 170.375C140.882 170.584 140.63 170.749 140.352 170.861C140.075 170.974 139.778 171.032 139.478 171.032ZM145.686 173.872C145.411 173.872 145.142 173.792 144.914 173.642C144.685 173.492 144.507 173.279 144.402 173.03C144.297 172.781 144.269 172.506 144.323 172.242C144.377 171.977 144.509 171.734 144.703 171.543C144.898 171.352 145.145 171.223 145.415 171.17C145.684 171.117 145.963 171.144 146.217 171.248C146.471 171.351 146.688 171.526 146.841 171.75C146.994 171.974 147.075 172.238 147.075 172.508C147.075 172.87 146.929 173.217 146.668 173.472C146.408 173.728 146.054 173.872 145.686 173.872ZM150.025 171.371C149.671 171.371 149.324 171.268 149.029 171.075C148.734 170.881 148.505 170.606 148.369 170.285C148.233 169.963 148.198 169.609 148.267 169.268C148.336 168.926 148.507 168.613 148.758 168.366C149.008 168.12 149.328 167.953 149.676 167.885C150.023 167.817 150.384 167.852 150.711 167.985C151.039 168.118 151.319 168.344 151.516 168.633C151.713 168.923 151.818 169.263 151.818 169.611C151.818 169.842 151.772 170.071 151.682 170.285C151.592 170.499 151.46 170.693 151.293 170.857C151.127 171.02 150.929 171.15 150.712 171.238C150.494 171.327 150.261 171.373 150.025 171.373V171.371ZM156.476 171.371C156.311 171.371 156.149 171.323 156.011 171.232C155.873 171.141 155.766 171.013 155.702 170.862C155.639 170.712 155.623 170.546 155.655 170.386C155.688 170.227 155.768 170.08 155.885 169.965C156.002 169.85 156.152 169.772 156.314 169.74C156.477 169.708 156.646 169.725 156.799 169.787C156.952 169.849 157.083 169.955 157.175 170.09C157.267 170.226 157.316 170.385 157.316 170.548C157.317 170.656 157.295 170.763 157.253 170.864C157.211 170.964 157.149 171.055 157.071 171.131C156.993 171.208 156.9 171.269 156.798 171.31C156.696 171.351 156.587 171.373 156.476 171.373V171.371Z" fill="#F9A01B"/>
<path d="M155.146 173.644C154.597 173.645 154.069 173.851 153.669 174.22C153.269 174.589 153.027 175.093 152.991 175.631H157.303C157.267 175.093 157.024 174.589 156.624 174.22C156.224 173.851 155.696 173.646 155.146 173.644Z" fill="#D17E11"/>
<path d="M136.603 172.678C136.603 172.331 136.482 171.994 136.261 171.723C136.04 171.452 135.732 171.263 135.387 171.186V174.172C135.732 174.095 136.04 173.905 136.261 173.634C136.482 173.363 136.603 173.026 136.603 172.678Z" fill="#D17E11"/>
<path d="M139.478 166.543C139.026 166.543 138.584 166.675 138.208 166.921C137.833 167.168 137.54 167.518 137.367 167.928C137.193 168.338 137.148 168.789 137.236 169.225C137.324 169.66 137.542 170.06 137.861 170.374C138.181 170.688 138.588 170.901 139.031 170.988C139.475 171.075 139.934 171.031 140.352 170.861C140.77 170.691 141.127 170.404 141.378 170.035C141.63 169.666 141.764 169.232 141.764 168.789C141.764 168.494 141.705 168.202 141.591 167.929C141.476 167.657 141.308 167.409 141.095 167.201C140.883 166.992 140.631 166.827 140.353 166.714C140.076 166.601 139.779 166.543 139.478 166.543Z" fill="#D17E11"/>
<path d="M145.686 171.145C145.412 171.145 145.143 171.225 144.914 171.374C144.686 171.524 144.508 171.737 144.403 171.986C144.297 172.236 144.27 172.51 144.324 172.774C144.377 173.039 144.51 173.282 144.704 173.472C144.898 173.663 145.146 173.793 145.415 173.846C145.685 173.898 145.964 173.871 146.218 173.768C146.472 173.665 146.689 173.49 146.842 173.266C146.994 173.042 147.076 172.778 147.076 172.508C147.076 172.147 146.929 171.8 146.669 171.544C146.408 171.288 146.055 171.145 145.686 171.145Z" fill="#D17E11"/>
<path d="M156.477 169.723C156.311 169.723 156.149 169.772 156.011 169.862C155.874 169.953 155.766 170.081 155.703 170.232C155.64 170.382 155.623 170.548 155.656 170.707C155.688 170.867 155.768 171.014 155.886 171.129C156.003 171.244 156.153 171.322 156.315 171.354C156.478 171.385 156.647 171.369 156.8 171.306C156.953 171.244 157.084 171.139 157.176 171.003C157.268 170.868 157.317 170.709 157.317 170.546C157.317 170.438 157.295 170.331 157.253 170.231C157.211 170.131 157.149 170.04 157.071 169.964C156.993 169.887 156.9 169.826 156.799 169.785C156.697 169.744 156.587 169.723 156.477 169.723Z" fill="#D17E11"/>
<path d="M150.025 167.85C149.671 167.85 149.324 167.953 149.029 168.146C148.734 168.34 148.505 168.615 148.369 168.936C148.233 169.258 148.198 169.612 148.267 169.953C148.336 170.294 148.507 170.608 148.758 170.854C149.008 171.1 149.328 171.268 149.675 171.336C150.023 171.404 150.384 171.369 150.711 171.236C151.039 171.103 151.319 170.877 151.516 170.588C151.713 170.298 151.818 169.958 151.818 169.61C151.818 169.143 151.629 168.695 151.293 168.365C150.957 168.035 150.501 167.85 150.025 167.85Z" fill="#D17E11"/>
<path d="M144.104 112.984C145.758 111.246 148.782 111.805 151.097 114.283C154.022 117.413 157.65 123.038 157.5 128.692C157.372 133.281 155.738 136.739 152.346 137.049C146.619 137.582 146.431 132.438 146.574 128.911C146.683 126.261 146.63 121.167 145.45 118.781C144.308 116.472 142.528 114.637 144.104 112.984Z" fill="#6B163C"/>
<path d="M143.688 111.147L140.859 108.747L140.301 109.502L143.483 112.312C143.483 112.312 141.7 111.801 140.786 112.871C140.42 113.3 142.995 113.446 142.995 113.446C142.995 113.446 141.843 114.722 143.035 116.945C143.466 117.747 144.157 113.911 144.157 113.911C144.157 113.911 147.382 116.425 147.331 115.671C147.275 114.841 145.482 112.22 145.482 112.22C145.482 112.22 149.723 112.579 149.695 112.465C149.071 109.925 145.324 111.242 145.324 111.242C145.324 111.242 147.614 109.811 147.403 109.723C144.769 108.642 143.688 111.147 143.688 111.147Z" fill="#90AC3D"/>
<path d="M148.483 131.205C148.621 133.228 149.642 134.93 151.044 135.772C149.403 135.711 148.008 134.114 147.868 132.062C147.781 131.029 148.065 129.998 148.672 129.149C148.5 129.82 148.436 130.514 148.483 131.205Z" fill="white"/>
<path d="M145.159 111.721C145.415 111.648 145.617 111.577 145.671 111.563C148.504 110.881 149.664 112.158 149.513 111.977C149.459 111.913 148.872 110.224 145.261 110.994C144.877 111.074 144.458 111.206 144.212 111.409L140.859 108.747L140.673 108.999L143.846 111.63C143.55 111.792 143.297 112.224 143.116 112.621C141.614 115.937 143.116 116.992 143.162 117.058C143.312 117.243 142.344 115.716 143.602 113.133C143.634 113.066 143.801 112.793 143.958 112.493C144.033 112.686 144.126 112.872 144.237 113.048C144.819 113.873 147.296 115.904 147.331 115.67C147.342 115.588 146.733 113.483 145.643 112.063C145.514 111.91 145.347 111.792 145.159 111.721Z" fill="#ACC941"/>
<path d="M120.82 129.017L120.85 128.772C120.85 128.772 130.671 125.549 141.093 133.157C150.323 139.895 150.127 151.288 150.127 151.288L149.563 151.499C148.969 148.553 146.766 140.756 139.407 135.382C131.822 129.845 124.337 129.044 120.82 129.017Z" fill="#FED600"/>
<path d="M137.661 137.688C132.577 133.99 126.85 131.233 120.759 129.552L120.823 129.017C124.339 129.044 131.825 129.845 139.409 135.382C146.768 140.756 148.972 148.553 149.566 151.499L149.015 151.705C147.595 148.562 144.216 142.468 137.661 137.688Z" fill="#F9A01B"/>
<path d="M136.851 139.243C131.225 135.137 120.629 130.603 120.629 130.603L120.757 129.552C126.848 131.233 132.576 133.99 137.659 137.688C144.208 142.466 147.593 148.562 149.011 151.705L148.615 151.852C148.615 151.852 142.795 143.581 136.851 139.243Z" fill="#FED600"/>
<path d="M120.84 128.757L120.703 130.635C120.515 130.602 120.334 130.536 120.171 130.438C119.961 130.291 119.818 130.069 119.775 129.82C119.731 129.57 119.79 129.314 119.939 129.107C120.043 128.974 120.181 128.871 120.34 128.809C120.499 128.747 120.672 128.729 120.84 128.757Z" fill="#475324"/>
<path d="M148.894 151.431L149.294 152.507L150.118 152.08L149.636 151.093L148.894 151.431Z" fill="#FED600"/>
<path d="M128.994 121.805L129.094 121.577C129.094 121.577 139.444 121.273 147.19 131.51C154.051 140.573 150.519 151.429 150.519 151.429L149.917 151.47C150.213 148.482 150.392 140.391 144.923 133.163C139.285 125.713 132.353 122.828 128.994 121.805Z" fill="#FED600"/>
<path d="M142.574 134.876C138.791 129.896 134.115 125.636 128.775 122.303L128.994 121.809C132.353 122.83 139.286 125.716 144.922 133.164C150.391 140.392 150.212 148.483 149.916 151.471L149.329 151.514C148.893 148.099 147.441 141.31 142.574 134.876Z" fill="#F9A01B"/>
<path d="M141.342 136.135C137.16 130.611 128.345 123.27 128.345 123.27L128.775 122.299C134.114 125.632 138.79 129.892 142.574 134.872C147.439 141.301 148.893 148.096 149.328 151.507L148.906 151.536C148.906 151.536 145.759 141.972 141.342 136.135Z" fill="#FED600"/>
<path d="M129.09 121.561L128.407 123.321C128.237 123.236 128.083 123.121 127.955 122.981C127.797 122.781 127.726 122.528 127.757 122.277C127.789 122.026 127.92 121.797 128.123 121.64C128.262 121.543 128.425 121.483 128.595 121.47C128.766 121.456 128.937 121.487 129.09 121.561Z" fill="#475324"/>
<path d="M149.219 151.362L149.287 152.506L150.201 152.33L150.029 151.249L149.219 151.362Z" fill="#FED600"/>
<path d="M139.309 117.285L139.47 117.095C139.47 117.095 149.482 119.685 153.947 131.662C157.903 142.266 151.376 151.689 151.376 151.689L150.787 151.563C151.939 148.78 154.447 141.071 151.299 132.616C148.045 123.902 142.233 119.201 139.309 117.285Z" fill="#FED600"/>
<path d="M148.55 133.604C146.364 127.774 143.113 122.384 138.956 117.699L139.309 117.285C142.234 119.201 148.047 123.902 151.298 132.615C154.451 141.07 151.939 148.778 150.786 151.562L150.211 151.436C150.786 148.045 151.358 141.127 148.55 133.604Z" fill="#F9A01B"/>
<path d="M147.004 134.469C144.593 128.006 138.263 118.51 138.263 118.51L138.955 117.699C143.112 122.384 146.364 127.774 148.55 133.604C151.358 141.127 150.785 148.045 150.214 151.437L149.799 151.347C149.799 151.347 149.552 141.296 147.004 134.469Z" fill="#FED600"/>
<path d="M139.478 117.079L138.314 118.576C138.175 118.447 138.061 118.294 137.978 118.125C137.884 117.889 137.889 117.626 137.992 117.394C138.095 117.162 138.288 116.979 138.528 116.887C138.689 116.831 138.863 116.82 139.03 116.854C139.197 116.888 139.352 116.965 139.478 117.079Z" fill="#475324"/>
<path d="M150.153 151.266L149.887 152.38L150.814 152.467L150.962 151.382L150.153 151.266Z" fill="#FED600"/>
<path d="M139.208 154.5C139.208 154.5 139.696 156.287 139.259 157.187C138.669 158.405 136.258 159.45 135.912 161.225C135.4 163.848 137.093 165.44 138.076 165.796C138.436 165.921 138.674 166.366 139.46 166.436C139.989 166.478 140.516 166.337 140.951 166.038C140.951 166.038 141.764 166.622 142.712 166.31C143.553 166.032 143.809 165.466 143.809 165.466C144.408 165.478 144.999 165.326 145.515 165.027C145.736 164.89 146.027 164.439 146.173 164.227C146.593 163.628 147.34 163.53 147.495 161.704C147.593 160.545 146.854 159.14 146.214 158.547C144.732 157.186 142.695 157.251 141.815 156.41C141.379 155.993 140.919 154.181 140.919 154.181L139.208 154.5Z" fill="#B36C8E"/>
<path d="M140.205 162.161C140.023 160.862 140.205 159.601 140.281 158.581C139.528 159.112 138.907 160.637 139.141 162.306C139.375 163.974 140.165 165.295 141.041 165.605C140.641 164.489 140.361 163.335 140.205 162.161Z" fill="#93486F"/>
<path d="M145.437 160.749C145.131 159.966 144.729 159.222 144.238 158.536C145.007 158.809 145.799 159.27 146.259 160.447C146.719 161.624 146.643 162.778 146.131 163.306C145.999 162.43 145.766 161.573 145.437 160.749Z" fill="#93486F"/>
<path d="M137.738 162.431C137.72 161.544 137.805 160.658 137.994 159.791C137.623 160.128 137.33 160.538 137.133 160.996C136.937 161.453 136.842 161.946 136.855 162.442C136.866 163.699 137.367 164.749 138.042 165.056C137.839 164.195 137.737 163.314 137.738 162.431Z" fill="#93486F"/>
<path d="M143.107 161.276C142.802 160.132 142.377 159.022 141.838 157.964C142.742 158.164 143.699 159.376 144.143 161.003C144.587 162.63 144.38 164.147 143.7 164.768C143.626 163.587 143.427 162.417 143.107 161.276Z" fill="#93486F"/>
<path d="M153.445 123.979L152.665 124.14L153.636 128.677L154.415 128.516L153.445 123.979Z" fill="#657C12"/>
<path d="M153 125.696L150.951 125.06C150.967 124.069 149.956 123.343 149.296 123.08C147.841 122.504 145.198 123.642 145.198 123.642C145.198 123.642 146.392 125.976 147.707 126.466C148.926 126.917 150.358 126.745 150.816 125.643L153.144 126.405L153 125.696Z" fill="#657C12"/>
<path d="M155.997 126.59C155.252 126.939 154.482 127.23 153.692 127.463C153.436 127.518 152.831 127.571 151.427 127.533C149.24 127.475 146.561 129.903 147.378 133.763C148.008 136.743 151.913 141.103 154.308 140.61C154.862 140.496 155.862 139.29 156.311 139.198C156.759 139.106 158.168 139.813 158.723 139.701C161.117 139.207 162.904 133.666 162.261 130.695C161.421 126.837 157.974 125.671 155.997 126.59Z" fill="#EF4323"/>
<path d="M151.123 129.967C149.929 130.241 148.73 131.619 149.161 133.667C149.398 134.786 150.402 136.227 151.474 137.082C151.069 136.347 150.768 135.562 150.577 134.748C150.17 132.843 150.458 131.222 151.123 129.967Z" fill="white"/>
<path d="M150.334 125.286C151.81 125.761 153.081 126.069 153.081 126.069L152.967 125.54L150.363 124.93L149.869 123.976L150.017 124.856L149.012 124.62L148.686 123.419L148.768 124.562L147.447 124.251L147.265 123.419L147.308 124.219C146.633 124.06 146.144 123.945 146.036 123.917C146.145 123.95 146.637 124.106 147.317 124.322L146.565 124.813L147.461 124.367L148.637 124.744L147.525 125.437L148.917 124.835L150.037 125.194L149.021 126.181L150.334 125.286Z" fill="#829B1B"/>
<path d="M181.422 125.266L180.643 125.427L181.613 129.965L182.393 129.804L181.422 125.266Z" fill="#657C12"/>
<path d="M180.977 126.984L178.928 126.348C178.945 125.357 177.933 124.63 177.274 124.368C175.819 123.792 173.176 124.929 173.176 124.929C173.176 124.929 174.369 127.264 175.684 127.753C176.904 128.204 178.335 128.032 178.794 126.931L181.122 127.693L180.977 126.984Z" fill="#657C12"/>
<path d="M183.974 127.878C183.23 128.226 182.459 128.518 181.669 128.75C181.413 128.806 180.809 128.859 179.404 128.821C177.217 128.763 174.538 131.191 175.355 135.051C175.985 138.03 179.891 142.39 182.285 141.898C182.84 141.783 183.84 140.577 184.288 140.486C184.736 140.394 186.146 141.1 186.7 140.989C189.095 140.494 190.881 134.954 190.238 131.983C189.398 128.124 185.951 126.959 183.974 127.878Z" fill="#EF4323"/>
<path d="M179.101 131.255C177.907 131.529 176.707 132.907 177.139 134.954C177.376 136.073 178.38 137.514 179.451 138.369C179.047 137.635 178.745 136.85 178.555 136.036C178.148 134.131 178.436 132.51 179.101 131.255Z" fill="white"/>
<path d="M178.311 126.573C179.788 127.048 181.058 127.356 181.058 127.356L180.944 126.827L178.341 126.218L177.846 125.264L177.995 126.144L176.99 125.907L176.663 124.707L176.745 125.849L175.425 125.539L175.243 124.707L175.285 125.506C174.61 125.348 174.121 125.232 174.014 125.205C174.123 125.237 174.614 125.393 175.294 125.609L174.543 126.101L175.439 125.655L176.615 126.032L175.503 126.724L176.895 126.122L178.014 126.482L176.999 127.468L178.311 126.573Z" fill="#829B1B"/>
<path d="M184.493 149.977C184.303 150.346 183.971 150.626 183.571 150.755C183.171 150.884 182.735 150.852 182.359 150.665L177.131 148.072C177.375 147.071 177.659 146.047 177.984 145L183.791 147.882C183.977 147.975 184.143 148.102 184.28 148.257C184.416 148.412 184.519 148.592 184.584 148.787C184.65 148.982 184.675 149.187 184.659 149.391C184.644 149.595 184.587 149.795 184.493 149.977Z" fill="#C64817"/>
<path d="M187.356 144.413C187.262 144.595 187.132 144.758 186.974 144.891C186.816 145.024 186.633 145.126 186.435 145.19C186.237 145.253 186.028 145.278 185.82 145.263C185.612 145.247 185.41 145.192 185.224 145.099L179.004 142.013C179.362 141.053 179.753 140.078 180.174 139.1L186.655 142.316C186.842 142.409 187.008 142.536 187.144 142.692C187.28 142.847 187.383 143.027 187.449 143.222C187.514 143.417 187.539 143.622 187.523 143.826C187.507 144.031 187.45 144.23 187.356 144.413Z" fill="#C64817"/>
<path d="M181.626 155.541C181.436 155.91 181.105 156.19 180.705 156.319C180.305 156.448 179.869 156.416 179.493 156.23L176.112 154.552C176.179 153.443 176.303 152.338 176.484 151.242L180.922 153.445C181.109 153.537 181.275 153.665 181.411 153.82C181.548 153.975 181.652 154.155 181.717 154.35C181.782 154.545 181.808 154.75 181.793 154.954C181.777 155.159 181.721 155.358 181.626 155.541Z" fill="#C64817"/>
<path d="M193.79 165.262H135.486V166.705H193.79V165.262Z" fill="#0F47BE"/>
<path d="M193.791 165.262H135.564V165.764H193.791V165.262Z" fill="#1960DD"/>
<path d="M193.79 160.13H135.486V161.572H193.79V160.13Z" fill="#0F47BE"/>
<path d="M193.791 160.13H135.564V160.632H193.791V160.13Z" fill="#1960DD"/>
<path d="M180.348 152.748H148.928V166.707H180.348V152.748Z" fill="#0F47BE"/>
<path d="M180.348 152.724H148.928V153.418H180.348V152.724Z" fill="#1960DD"/>
<path d="M141.46 142.574H140.104V176.099H141.46V142.574Z" fill="#0F47BE"/>
<path d="M145.525 142.574H144.169V176.099H145.525V142.574Z" fill="#0F47BE"/>
<path d="M150.284 142.574H148.928V176.099H150.284V142.574Z" fill="#0F47BE"/>
<path d="M180.349 142.574H178.993V176.099H180.349V142.574Z" fill="#0F47BE"/>
<path d="M184.898 142.574H183.542V176.099H184.898V142.574Z" fill="#0F47BE"/>
<path d="M188.966 142.574H187.61V176.099H188.966V142.574Z" fill="#0F47BE"/>
<path d="M154.352 142.574H152.996V176.099H154.352V142.574Z" fill="#0F47BE"/>
<path d="M158.421 142.574H157.064V176.099H158.421V142.574Z" fill="#0F47BE"/>
<path d="M162.487 142.574H161.131V176.099H162.487V142.574Z" fill="#0F47BE"/>
<path d="M167.247 142.574H165.891V176.099H167.247V142.574Z" fill="#0F47BE"/>
<path d="M171.314 142.574H169.958V176.099H171.314V142.574Z" fill="#0F47BE"/>
<path d="M176.072 142.574H174.716V176.099H176.072V142.574Z" fill="#0F47BE"/>
<path d="M131.284 141.641L133.133 174.707C133.133 175.662 133.52 176.578 134.208 177.254C134.896 177.93 135.829 178.309 136.802 178.309H192.475C193.448 178.309 194.381 177.93 195.069 177.254C195.757 176.578 196.143 175.662 196.143 174.707L197.993 141.641H131.284ZM192.055 172.947C192.055 173.22 191.945 173.481 191.748 173.674C191.552 173.868 191.285 173.976 191.007 173.976H138.269C137.991 173.976 137.725 173.868 137.529 173.674C137.332 173.481 137.222 173.22 137.222 172.947V145.215C137.222 145.08 137.249 144.946 137.301 144.821C137.354 144.697 137.431 144.583 137.528 144.487C137.625 144.392 137.741 144.316 137.868 144.264C137.995 144.212 138.132 144.186 138.269 144.186H191.011C191.149 144.186 191.285 144.212 191.412 144.264C191.54 144.316 191.655 144.392 191.752 144.487C191.85 144.583 191.927 144.697 191.979 144.821C192.032 144.946 192.059 145.08 192.059 145.215L192.055 172.947Z" fill="#0F47BE"/>
<path d="M186.787 178.308H147.002H137.013L137.381 180.548H154.461L154.991 179.338H174.288L174.817 180.548H191.896L192.266 178.308H186.787Z" fill="#082B70"/>
<path d="M128.917 137.35V144.328C128.917 144.601 129.027 144.863 129.224 145.056C129.421 145.249 129.688 145.357 129.966 145.357H199.313C199.451 145.357 199.587 145.331 199.714 145.279C199.842 145.227 199.957 145.151 200.055 145.056C200.152 144.96 200.229 144.847 200.282 144.722C200.335 144.597 200.362 144.463 200.362 144.328V137.35H128.917Z" fill="#2C6FD8"/>
<path d="M200.362 136.122H128.917V137.35H200.362V136.122Z" fill="#3EA1FF"/>
<path d="M164.027 109.25H162.421C162.278 109.249 162.135 109.278 162.004 109.335C161.817 109.415 161.658 109.547 161.546 109.714C161.434 109.882 161.375 110.078 161.375 110.278L161.388 141.634C161.388 141.907 161.498 142.169 161.695 142.362C161.892 142.555 162.158 142.664 162.437 142.664H164.674L164.658 109.25H164.027Z" fill="#343635"/>
<path d="M167.312 109.331C167.18 109.276 167.038 109.249 166.894 109.25H164.657L164.67 142.665H166.908C167.046 142.665 167.182 142.638 167.31 142.587C167.437 142.535 167.552 142.459 167.65 142.363C167.747 142.268 167.824 142.154 167.877 142.029C167.929 141.904 167.956 141.77 167.956 141.635L167.943 110.279C167.944 110.078 167.885 109.881 167.772 109.712C167.66 109.544 167.5 109.411 167.312 109.331Z" fill="#231F20"/>
<path d="M162.682 109.087C162.682 109.001 162.647 108.919 162.586 108.859C162.524 108.799 162.441 108.765 162.354 108.765C162.311 108.765 162.268 108.773 162.229 108.789C162.189 108.805 162.153 108.829 162.123 108.859C162.092 108.889 162.068 108.925 162.052 108.964C162.035 109.003 162.027 109.044 162.027 109.087V111.92C162.028 112.005 162.062 112.087 162.124 112.147C162.185 112.207 162.268 112.241 162.355 112.241C162.398 112.241 162.441 112.233 162.481 112.217C162.521 112.201 162.557 112.177 162.587 112.147C162.618 112.117 162.642 112.082 162.658 112.042C162.675 112.003 162.683 111.961 162.683 111.919L162.682 109.087Z" fill="#231F20"/>
<path d="M163.992 109.085C163.992 109 163.957 108.919 163.896 108.859C163.834 108.799 163.751 108.765 163.664 108.765C163.622 108.765 163.579 108.773 163.539 108.789C163.5 108.805 163.464 108.828 163.433 108.858C163.403 108.888 163.379 108.924 163.362 108.962C163.346 109.001 163.338 109.043 163.338 109.085V111.919C163.338 112.004 163.372 112.086 163.434 112.147C163.495 112.207 163.579 112.241 163.666 112.241C163.753 112.241 163.836 112.207 163.898 112.147C163.959 112.086 163.994 112.004 163.994 111.919L163.992 109.085Z" fill="#231F20"/>
<path d="M165.973 109.085C165.973 109.043 165.965 109.001 165.948 108.962C165.932 108.923 165.908 108.887 165.877 108.857C165.847 108.828 165.81 108.804 165.771 108.788C165.731 108.772 165.688 108.763 165.645 108.764C165.558 108.764 165.475 108.798 165.414 108.858C165.353 108.919 165.318 109 165.318 109.085V111.919C165.318 112.004 165.353 112.086 165.414 112.146C165.475 112.206 165.558 112.24 165.645 112.24C165.732 112.24 165.815 112.206 165.877 112.145C165.938 112.085 165.973 112.003 165.973 111.918V109.085Z" fill="#141112"/>
<path d="M167.282 109.084C167.282 108.999 167.247 108.917 167.186 108.857C167.124 108.797 167.041 108.763 166.954 108.763C166.911 108.763 166.868 108.771 166.828 108.787C166.788 108.803 166.752 108.826 166.721 108.856C166.69 108.886 166.666 108.921 166.649 108.96C166.633 109 166.624 109.042 166.624 109.084V111.918C166.624 112.003 166.658 112.085 166.72 112.145C166.781 112.205 166.864 112.239 166.951 112.24C167.038 112.24 167.121 112.206 167.182 112.145C167.244 112.085 167.278 112.003 167.278 111.918L167.282 109.084Z" fill="#141112"/>
<path d="M163.352 139.747C163.352 140.09 163.491 140.419 163.738 140.661C163.986 140.904 164.321 141.04 164.671 141.04V138.453C164.497 138.452 164.326 138.486 164.166 138.551C164.005 138.616 163.86 138.711 163.738 138.831C163.615 138.952 163.518 139.094 163.452 139.251C163.385 139.409 163.351 139.577 163.352 139.747Z" fill="#BCBEC0"/>
<path d="M165.984 139.746C165.984 139.576 165.95 139.407 165.884 139.25C165.818 139.093 165.721 138.951 165.598 138.83C165.475 138.71 165.33 138.615 165.17 138.55C165.01 138.485 164.838 138.452 164.665 138.453V141.04C164.838 141.04 165.01 141.007 165.17 140.942C165.33 140.877 165.476 140.782 165.598 140.661C165.721 140.541 165.818 140.398 165.884 140.241C165.95 140.084 165.984 139.916 165.984 139.746Z" fill="#58595B"/>
<path d="M163.748 139.747C163.748 139.525 163.814 139.308 163.937 139.122C164.061 138.936 164.237 138.789 164.445 138.7C164.2 138.75 163.98 138.882 163.823 139.072C163.665 139.263 163.579 139.5 163.579 139.746C163.579 139.991 163.665 140.229 163.823 140.419C163.98 140.61 164.2 140.741 164.445 140.791C164.238 140.703 164.062 140.557 163.938 140.371C163.814 140.186 163.748 139.969 163.748 139.747Z" fill="#D1D3D4"/>
</g>
<path d="M133.46 36.5554L132.281 36.7983L133.75 43.6602L134.928 43.4173L133.46 36.5554Z" fill="#657C12"/>
<path d="M132.787 39.1535L129.689 38.1915C129.714 36.6933 128.184 35.5944 127.187 35.1971C124.988 34.3263 120.991 36.0469 120.991 36.0469C120.991 36.0469 122.796 39.5775 124.784 40.3171C126.628 40.9996 128.792 40.7391 129.485 39.0737L133.006 40.2258L132.787 39.1535Z" fill="#657C12"/>
<path d="M137.319 40.5053C136.193 41.0319 135.028 41.4729 133.834 41.8245C133.446 41.9082 132.533 41.988 130.409 41.931C127.102 41.8436 123.052 45.5143 124.287 51.3503C125.239 55.8556 131.144 62.4482 134.765 61.703C135.603 61.53 137.115 59.707 137.793 59.5682C138.471 59.4295 140.602 60.4978 141.441 60.3286C145.061 59.5815 147.762 51.204 146.79 46.7119C145.52 40.8779 140.308 39.1157 137.319 40.5053Z" fill="#EF4323"/>
<path d="M129.95 45.6105C128.145 46.0249 126.331 48.1084 126.983 51.2031C127.342 52.895 128.86 55.0735 130.48 56.3662C129.869 55.2554 129.413 54.0686 129.125 52.838C128.509 49.958 128.945 47.5076 129.95 45.6105Z" fill="white"/>
<path d="M128.756 38.532C130.988 39.2506 132.909 39.7163 132.909 39.7163L132.737 38.916L128.8 37.9941L128.053 36.5513L128.278 37.8819L126.758 37.5246L126.264 35.7092L126.388 37.4371L124.392 36.9676L124.117 35.7092L124.18 36.9182C123.16 36.6787 122.42 36.5038 122.258 36.462C122.422 36.5114 123.166 36.7471 124.194 37.0741L123.057 37.8173L124.413 37.1425L126.19 37.7127L124.51 38.7601L126.614 37.8496L128.307 38.3933L126.771 39.8854L128.756 38.532Z" fill="#829B1B"/>
<defs>
<clipPath id="clip0">
<rect width="86.9938" height="71.8016" fill="white" transform="translate(119.759 108.747)"/>
</clipPath>
</defs>
</svg>
