<svg width="73" height="73" viewBox="0 0 73 73" fill="none" xmlns="http://www.w3.org/2000/svg">
<path d="M53.6094 44.4844C54.4539 44.4814 55.2671 44.1643 55.8906 43.5947C56.3812 44.0406 56.9907 44.3343 57.645 44.4403C58.2994 44.5463 58.9704 44.46 59.5767 44.1918C60.1829 43.9236 60.6981 43.4851 61.0598 42.9295C61.4215 42.374 61.6141 41.7254 61.6141 41.0625C61.6141 40.3996 61.4215 39.751 61.0598 39.1955C60.6981 38.6399 60.1829 38.2014 59.5767 37.9332C58.9704 37.665 58.2994 37.5787 57.645 37.6847C56.9907 37.7907 56.3812 38.0844 55.8906 38.5303C55.4787 38.1559 54.9816 37.8876 54.4425 37.7488C53.9034 37.61 53.3386 37.6048 52.797 37.7336C52.2554 37.8625 51.7535 38.1215 51.3347 38.4883C50.9159 38.8551 50.5929 39.3184 50.3937 39.8383C50.1946 40.3581 50.1252 40.9187 50.1917 41.4714C50.2583 42.0241 50.4586 42.5522 50.7754 43.01C51.0922 43.4677 51.5159 43.8412 52.0098 44.0982C52.5036 44.3551 53.0527 44.4877 53.6094 44.4844ZM58.1719 39.9219C58.3975 39.9219 58.618 39.9888 58.8056 40.1141C58.9931 40.2394 59.1393 40.4176 59.2257 40.626C59.312 40.8344 59.3346 41.0638 59.2906 41.285C59.2466 41.5063 59.1379 41.7095 58.9784 41.869C58.8189 42.0286 58.6157 42.1372 58.3944 42.1812C58.1731 42.2252 57.9438 42.2026 57.7354 42.1163C57.5269 42.03 57.3488 41.8838 57.2235 41.6962C57.0981 41.5086 57.0312 41.2881 57.0312 41.0625C57.0312 40.76 57.1514 40.4699 57.3653 40.256C57.5792 40.042 57.8694 39.9219 58.1719 39.9219ZM53.6094 39.9219C53.835 39.9219 54.0555 39.9888 54.2431 40.1141C54.4306 40.2394 54.5768 40.4176 54.6632 40.626C54.7495 40.8344 54.7721 41.0638 54.7281 41.285C54.6841 41.5063 54.5754 41.7095 54.4159 41.869C54.2564 42.0286 54.0532 42.1372 53.8319 42.1812C53.6106 42.2252 53.3813 42.2026 53.1729 42.1163C52.9645 42.03 52.7863 41.8838 52.661 41.6962C52.5356 41.5086 52.4687 41.2881 52.4687 41.0625C52.4687 40.76 52.5889 40.4699 52.8028 40.256C53.0167 40.042 53.3069 39.9219 53.6094 39.9219Z" fill="#F6A900"/>
<path d="M67.2969 20.5312H28.5156C27.6081 20.5313 26.7377 20.8918 26.096 21.5335C25.4543 22.1752 25.0938 23.0456 25.0938 23.9531V29.6562H17.1094C16.8069 29.6563 16.5168 29.7765 16.303 29.9905L11.4062 34.8872V34.2188C11.4062 33.9162 11.2861 33.6261 11.0722 33.4122C10.8583 33.1983 10.5681 33.0781 10.2656 33.0781H3.42188C3.11936 33.0781 2.82924 33.1983 2.61533 33.4122C2.40142 33.6261 2.28125 33.9162 2.28125 34.2188V54.75C2.28125 55.0525 2.40142 55.3426 2.61533 55.5565C2.82924 55.7705 3.11936 55.8906 3.42188 55.8906H10.2656C10.5681 55.8906 10.8583 55.7705 11.0722 55.5565C11.2861 55.3426 11.4062 55.0525 11.4062 54.75H26.2344C26.4346 54.75 26.6313 54.6973 26.8047 54.5972L29.6562 52.9501V55.8906C29.6562 56.4957 29.8966 57.0759 30.3244 57.5037C30.7522 57.9315 31.3325 58.1719 31.9375 58.1719H63.875C64.48 58.1719 65.0603 57.9315 65.4881 57.5037C65.9159 57.0759 66.1562 56.4957 66.1562 55.8906V50.1875H67.2969C68.2044 50.1875 69.0748 49.827 69.7165 49.1853C70.3582 48.5435 70.7188 47.6732 70.7188 46.7656V23.9531C70.7188 23.0456 70.3582 22.1752 69.7165 21.5335C69.0748 20.8918 68.2044 20.5313 67.2969 20.5312ZM28.5156 22.8125H67.2969C67.5994 22.8125 67.8895 22.9327 68.1034 23.1466C68.3173 23.3605 68.4375 23.6506 68.4375 23.9531V25.3036C68.0722 25.1685 67.6863 25.0975 67.2969 25.0938H28.5156C28.1262 25.0975 27.7403 25.1685 27.375 25.3036V23.9531C27.375 23.6506 27.4952 23.3605 27.7091 23.1466C27.923 22.9327 28.2131 22.8125 28.5156 22.8125ZM4.5625 53.6094V35.3594H9.125V53.6094H4.5625ZM25.9287 52.4688H11.4062V38.1128L17.5816 31.9375H25.0938V43.07C25.094 43.2701 25.1468 43.4667 25.247 43.6399C25.3472 43.8131 25.4912 43.957 25.6646 44.0569C25.8379 44.1569 26.0345 44.2095 26.2347 44.2095C26.4348 44.2094 26.6314 44.1567 26.8047 44.0566L36.062 38.7105C36.5832 38.413 37.1728 38.2558 37.7729 38.2543C38.2986 38.2537 38.8173 38.3742 39.2889 38.6065C39.7604 38.8387 40.1721 39.1765 40.4921 39.5936C40.812 40.0107 41.0315 40.4959 41.1336 41.0116C41.2357 41.5272 41.2176 42.0595 41.0807 42.567C40.9645 43.0001 40.7635 43.4059 40.4894 43.7609C40.2153 44.1158 39.8735 44.4129 39.4839 44.6349L25.9287 52.4688ZM63.875 35.3594V46.7656H40.3644L40.6256 46.6151C41.2751 46.2421 41.8447 45.7447 42.3018 45.1514C42.7588 44.558 43.0944 43.8804 43.2894 43.1573C43.4843 42.4341 43.5347 41.6796 43.4378 40.937C43.3408 40.1943 43.0984 39.478 42.7244 38.8292C41.9663 37.5192 40.7202 36.5628 39.2588 36.169C37.7974 35.7753 36.2395 35.9763 34.9259 36.7281L31.9375 38.4585V35.3594H63.875ZM44.4969 33.0781C45.4794 32.3379 46.6761 31.9375 47.9062 31.9375C49.1364 31.9375 50.3331 32.3379 51.3156 33.0781H44.4969ZM36.4145 49.0469H63.875V51.3281H32.4645L36.4145 49.0469ZM31.9375 55.8906V53.6094H63.875V55.8906H31.9375ZM68.4375 46.7656C68.4375 47.0681 68.3173 47.3583 68.1034 47.5722C67.8895 47.7861 67.5994 47.9062 67.2969 47.9062H66.1562V35.3594C66.1562 34.7543 65.9159 34.1741 65.4881 33.7463C65.0603 33.3185 64.48 33.0781 63.875 33.0781H54.434C53.7037 32.0225 52.7283 31.1597 51.5914 30.5637C50.4544 29.9678 49.1899 29.6564 47.9062 29.6564C46.6226 29.6564 45.3581 29.9678 44.2211 30.5637C43.0842 31.1597 42.1088 32.0225 41.3785 33.0781H31.9375C31.3325 33.0781 30.7522 33.3185 30.3244 33.7463C29.8966 34.1741 29.6562 34.7543 29.6562 35.3594V39.7759L27.375 41.0933V28.5156C27.375 28.2131 27.4952 27.923 27.7091 27.7091C27.923 27.4952 28.2131 27.375 28.5156 27.375H67.2969C67.5994 27.375 67.8895 27.4952 68.1034 27.7091C68.3173 27.923 68.4375 28.2131 68.4375 28.5156V46.7656Z" fill="#F6A900"/>
<path d="M35.3594 31.9375V29.6562H30.7969C30.4944 29.6562 30.2042 29.7764 29.9903 29.9903C29.7764 30.2042 29.6562 30.4944 29.6562 30.7969V33.0781H31.9375V31.9375H35.3594Z" fill="#F6A900"/>
<path d="M66.1562 30.7969C66.1562 30.4944 66.0361 30.2042 65.8222 29.9903C65.6083 29.7764 65.3181 29.6562 65.0156 29.6562H60.4531V31.9375H63.875V33.0781H66.1562V30.7969Z" fill="#F6A900"/>
<path d="M44.8186 9.45917L46.4314 11.072L49.8533 7.65014C50.0671 7.43624 50.1873 7.14617 50.1873 6.84371C50.1873 6.54126 50.0671 6.25119 49.8533 6.03729L46.4314 2.61542L44.8186 4.22826L46.2934 5.70309H28.5156V7.98434H46.2934L44.8186 9.45917Z" fill="#F6A900"/>
<path d="M28.1814 60.1189L26.5686 58.506L23.1467 61.9279C22.9329 62.1418 22.8127 62.4319 22.8127 62.7343C22.8127 63.0368 22.9329 63.3269 23.1467 63.5408L26.5686 66.9626L28.1814 65.3498L26.7066 63.875H39.9219V61.5937H26.7066L28.1814 60.1189Z" fill="#F6A900"/>
<path d="M55.5564 63.5408L53.9436 61.9279L50.5217 65.3498C50.3079 65.5637 50.1877 65.8538 50.1877 66.1562C50.1877 66.4587 50.3079 66.7487 50.5217 66.9626L53.9436 70.3845L55.5564 68.7717L54.0816 67.2968H67.2969V65.0156H54.0816L55.5564 63.5408Z" fill="#F6A900"/>
<path d="M38.7812 12.5468V14.8281H56.559L55.0842 16.3029L56.697 17.9158L60.1189 14.4939C60.3328 14.28 60.4529 13.9899 60.4529 13.6875C60.4529 13.385 60.3328 13.0949 60.1189 12.881L56.697 9.45917L55.0842 11.072L56.559 12.5468H38.7812Z" fill="#F6A900"/>
</svg>
