<svg width="73" height="73" viewBox="0 0 73 73" fill="none" xmlns="http://www.w3.org/2000/svg">
<path d="M36.5 2.28125C34.2441 2.28125 32.0388 2.95021 30.163 4.20355C28.2873 5.45688 26.8253 7.2383 25.962 9.32252C25.0987 11.4067 24.8728 13.7002 25.3129 15.9127C25.753 18.1253 26.8394 20.1577 28.4346 21.7529C30.0298 23.3481 32.0622 24.4345 34.2748 24.8746C36.4873 25.3147 38.7808 25.0888 40.865 24.2255C42.9492 23.3622 44.7306 21.9002 45.9839 20.0245C47.2373 18.1487 47.9062 15.9434 47.9062 13.6875C47.9028 10.6634 46.7 7.76418 44.5617 5.62583C42.4233 3.48748 39.5241 2.28466 36.5 2.28125ZM36.5 22.8125C34.6952 22.8125 32.931 22.2773 31.4304 21.2747C29.9298 20.272 28.7603 18.8469 28.0696 17.1795C27.379 15.5121 27.1982 13.6774 27.5503 11.9073C27.9024 10.1372 28.7715 8.5113 30.0477 7.23515C31.3238 5.959 32.9497 5.08992 34.7198 4.73783C36.4899 4.38574 38.3246 4.56645 39.992 5.2571C41.6594 5.94775 43.0845 7.11732 44.0872 8.61792C45.0898 10.1185 45.625 11.8827 45.625 13.6875C45.6223 16.1068 44.66 18.4262 42.9493 20.1368C41.2387 21.8475 38.9193 22.8098 36.5 22.8125Z" fill="#F6A900"/>
<path d="M39.5878 13.5491L38.7698 7.823C38.7309 7.55121 38.5953 7.30255 38.3879 7.12266C38.1805 6.94278 37.9152 6.84375 37.6406 6.84375H35.3594C35.0848 6.84375 34.8195 6.94278 34.6121 7.12266C34.4046 7.30255 34.2691 7.55121 34.2302 7.823L33.4122 13.5491C33.317 14.2159 33.4401 14.8956 33.7633 15.4866C34.0864 16.0776 34.5922 16.5481 35.2049 16.8278C35.8177 17.1075 36.5045 17.1813 37.1627 17.0382C37.8209 16.8951 38.4151 16.5428 38.8564 16.0339C38.8749 16.0126 38.8921 15.9905 38.9099 15.9688H43.3437V13.6875H39.6037C39.5992 13.6413 39.5943 13.5952 39.5878 13.5491ZM37.133 14.5392C37.0145 14.6759 36.8549 14.7706 36.6781 14.809C36.5013 14.8475 36.3168 14.8277 36.1522 14.7526C35.9875 14.6774 35.8517 14.5511 35.7648 14.3923C35.678 14.2336 35.6449 14.051 35.6705 13.8719L36.3486 9.125H36.6513L37.3295 13.8719C37.3471 13.9907 37.3386 14.1119 37.3047 14.2272C37.2708 14.3424 37.2122 14.4489 37.133 14.5392Z" fill="#F6A900"/>
<path d="M58.1719 9.125H50.1875V11.4062H58.1719C58.4743 11.4066 58.7642 11.5269 58.978 11.7407C59.1919 11.9545 59.3122 12.2445 59.3125 12.5469V67.2969C59.3122 67.5993 59.1919 67.8892 58.978 68.103C58.7642 68.3169 58.4743 68.4372 58.1719 68.4375H14.8281C14.5257 68.4372 14.2358 68.3169 14.022 68.103C13.8081 67.8892 13.6878 67.5993 13.6875 67.2969V12.5469C13.6878 12.2445 13.8081 11.9545 14.022 11.7407C14.2358 11.5269 14.5257 11.4066 14.8281 11.4062H22.8125V9.125H14.8281C13.9209 9.12603 13.0511 9.48687 12.4096 10.1284C11.7681 10.7699 11.4073 11.6397 11.4062 12.5469V67.2969C11.4073 68.2041 11.7681 69.0739 12.4096 69.7154C13.0511 70.3569 13.9209 70.7177 14.8281 70.7188H58.1719C59.0791 70.7177 59.9489 70.3569 60.5904 69.7154C61.2319 69.0739 61.5927 68.2041 61.5938 67.2969V12.5469C61.5927 11.6397 61.2319 10.7699 60.5904 10.1284C59.9489 9.48687 59.0791 9.12603 58.1719 9.125Z" fill="#F6A900"/>
<path d="M54.75 57.0312V29.6562C54.75 29.3537 54.6298 29.0636 54.4159 28.8497C54.202 28.6358 53.9119 28.5156 53.6094 28.5156H33.0781C32.7756 28.5156 32.4855 28.6358 32.2716 28.8497C32.0577 29.0636 31.9375 29.3537 31.9375 29.6562V35.3594H19.3906C19.0881 35.3594 18.798 35.4796 18.5841 35.6935C18.3702 35.9074 18.25 36.1975 18.25 36.5V63.875C18.25 64.1775 18.3702 64.4676 18.5841 64.6815C18.798 64.8954 19.0881 65.0156 19.3906 65.0156H33.0781C33.3806 65.0156 33.6708 64.8954 33.8847 64.6815C34.0986 64.4676 34.2187 64.1775 34.2188 63.875V58.1719H53.6094C53.9119 58.1719 54.202 58.0517 54.4159 57.8378C54.6298 57.6239 54.75 57.3338 54.75 57.0312ZM39.9219 49.0469H34.2188V44.4844H45.625V49.0469H39.9219ZM33.0781 55.8906H20.5312V51.3281H38.7812V55.8906H33.0781ZM31.9375 49.0469H27.375V44.4844H31.9375V49.0469ZM25.0938 49.0469H20.5312V44.4844H25.0938V49.0469ZM52.4688 42.2031H47.9062V37.6406H52.4688V42.2031ZM47.9062 44.4844H52.4688V49.0469H47.9062V44.4844ZM52.4688 35.3594H41.0625V30.7969H52.4688V35.3594ZM34.2188 30.7969H38.7812V35.3594H34.2188V30.7969ZM39.9219 37.6406H45.625V42.2031H27.375V37.6406H39.9219ZM20.5312 37.6406H25.0938V42.2031H20.5312V37.6406ZM20.5312 58.1719H25.0938V62.7344H20.5312V58.1719ZM31.9375 62.7344H27.375V58.1719H31.9375V62.7344ZM41.0625 51.3281H45.625V55.8906H41.0625V51.3281ZM52.4688 55.8906H47.9062V51.3281H52.4688V55.8906Z" fill="#F6A900"/>
<path d="M21.6719 30.7969H23.9531V33.0781H21.6719V30.7969Z" fill="#F6A900"/>
<path d="M27.375 30.7969H29.6562V33.0781H27.375V30.7969Z" fill="#F6A900"/>
<path d="M36.5 60.4531H38.7812V62.7344H36.5V60.4531Z" fill="#F6A900"/>
<path d="M42.2031 60.4531H44.4844V62.7344H42.2031V60.4531Z" fill="#F6A900"/>
<path d="M47.9062 60.4531H50.1875V62.7344H47.9062V60.4531Z" fill="#F6A900"/>
</svg>
