<svg width="60" height="69" viewBox="0 0 60 69" fill="none" xmlns="http://www.w3.org/2000/svg">
<path d="M58.4009 1.92477C57.9804 1.40999 57.4505 0.995369 56.8497 0.711053C56.2489 0.426737 55.5923 0.27987 54.9277 0.281132C52.8911 0.285635 50.8834 0.762673 49.0625 1.67471C47.2416 2.58675 45.6572 3.9089 44.4339 5.53713L43.3321 4.80257C42.5591 4.2867 41.6613 3.98888 40.7333 3.9405C39.8052 3.89212 38.8813 4.09497 38.0589 4.52768C37.7986 4.67238 37.6051 4.91319 37.52 5.19864C37.4348 5.48409 37.4647 5.79153 37.6033 6.05523C37.7418 6.31892 37.978 6.51795 38.2614 6.60977C38.5448 6.70159 38.8529 6.67891 39.1197 6.54658C39.5794 6.3053 40.0955 6.19226 40.614 6.21936C41.1324 6.24646 41.634 6.41268 42.066 6.70057L44.5126 8.33166C45.6045 9.06116 46.9336 9.34672 48.2288 9.1301L49.6545 8.89171C50.2349 8.79539 50.8308 8.87858 51.3625 9.13016C51.8943 9.38173 52.3365 9.78969 52.6301 10.2995C52.9237 10.8092 53.0546 11.3965 53.0053 11.9827C52.9561 12.5689 52.729 13.1261 52.3544 13.5797L51.2195 14.9484L49.1196 17.4875L47.5296 13.5375C47.4548 13.3521 47.3326 13.1896 47.1753 13.0662C47.0179 12.9429 46.8309 12.8631 46.633 12.8348C46.4349 12.8052 46.2325 12.8287 46.0465 12.9031C45.8604 12.9774 45.6976 13.0999 45.5745 13.258L42.9579 16.5807L41.8823 11.4478C41.8399 11.2468 41.7439 11.061 41.6045 10.91C41.4652 10.759 41.2876 10.6484 41.0906 10.59C40.8936 10.5316 40.6845 10.5274 40.4853 10.5781C40.2862 10.6287 40.1044 10.7321 39.9592 10.8775L37.7601 13.0767L37.2149 11.7079C37.2977 11.3263 37.3409 10.9372 37.3438 10.5468C37.3411 9.43301 37.0136 8.34424 36.4013 7.41388C35.7891 6.48353 34.9187 5.75202 33.8968 5.30901C33.9137 5.15446 33.9221 4.9991 33.9219 4.84363C33.923 3.73236 33.5185 2.65889 32.7843 1.82471C32.0501 0.990526 31.0366 0.452985 29.9342 0.312978C28.8318 0.172971 27.7162 0.440124 26.7968 1.0643C25.8773 1.68847 25.2173 2.62674 24.9406 3.70301C23.7945 3.66889 22.665 3.98326 21.7013 4.6046C20.7376 5.22595 19.9851 6.12502 19.5432 7.18305C19.4805 7.32163 19.4461 7.47135 19.4422 7.6234C19.4382 7.77545 19.4647 7.92676 19.52 8.06842C19.5754 8.21008 19.6586 8.33924 19.7646 8.4483C19.8706 8.55735 19.9974 8.6441 20.1374 8.70343C20.2775 8.76277 20.428 8.7935 20.5801 8.79381C20.7322 8.79412 20.8828 8.764 21.0231 8.70524C21.1634 8.64647 21.2905 8.56024 21.397 8.45162C21.5034 8.343 21.5871 8.21418 21.6431 8.07274C21.9052 7.45314 22.3442 6.92456 22.9052 6.5531C23.4661 6.18164 24.1241 5.98378 24.7969 5.98426C25.0899 5.98926 25.3809 6.0326 25.6626 6.11315C25.8357 6.15881 26.0172 6.16308 26.1922 6.12563C26.3673 6.08817 26.5311 6.01003 26.6703 5.89753C26.8096 5.78504 26.9204 5.64134 26.9938 5.47807C27.0673 5.31479 27.1012 5.13653 27.093 4.95769C27.0959 4.91906 27.0909 4.88023 27.0781 4.84363C27.075 4.50689 27.1465 4.17365 27.2875 3.86781C27.4284 3.56197 27.6353 3.29114 27.8933 3.07473C28.1514 2.85833 28.4541 2.70174 28.7798 2.6162C29.1055 2.53065 29.4461 2.51827 29.7771 2.57995C30.1082 2.64163 30.4215 2.77584 30.6945 2.97295C30.9676 3.17005 31.1936 3.42516 31.3564 3.71996C31.5191 4.01476 31.6146 4.34194 31.636 4.67801C31.6573 5.01408 31.604 5.35072 31.4798 5.66374C31.4199 5.81916 31.3948 5.98581 31.4062 6.15198C31.4176 6.31815 31.4652 6.47981 31.5458 6.6256C31.6263 6.77138 31.7378 6.89776 31.8725 6.99584C32.0071 7.09392 32.1616 7.16132 32.325 7.19332C33.0972 7.35248 33.791 7.77283 34.2896 8.38361C34.7882 8.99439 35.0612 9.75831 35.0625 10.5468C35.063 11.1893 34.881 11.8188 34.5377 12.3619C34.1944 12.9051 33.704 13.3397 33.1235 13.615C32.8666 13.7391 32.6656 13.9549 32.56 14.2199C32.4545 14.4849 32.452 14.7798 32.5531 15.0465C32.798 15.6682 32.8512 16.3489 32.7058 17.001C32.5605 17.6531 32.2233 18.2468 31.7376 18.7056C31.6055 18.8396 31.5094 19.0048 31.4581 19.1858L27.2857 21.9644L27.0154 20.3413C26.923 19.7858 26.8648 19.2292 26.8283 18.6714L29.8362 17.2856C29.9765 17.2258 30.1034 17.1384 30.2093 17.0287C30.3153 16.919 30.3982 16.7892 30.4531 16.6469C30.508 16.5046 30.5338 16.3527 30.529 16.2002C30.5242 16.0478 30.4888 15.8979 30.425 15.7593C30.3612 15.6208 30.2703 15.4964 30.1576 15.3936C30.045 15.2908 29.9128 15.2117 29.769 15.1609C29.6252 15.11 29.4727 15.0886 29.3204 15.0977C29.1682 15.1069 29.0193 15.1465 28.8826 15.2142L26.8546 16.1484C26.9275 15.3067 27.0632 14.4718 27.2606 13.6504L32.0878 11.5973C32.3661 11.4787 32.5859 11.2544 32.6988 10.9738C32.8118 10.6931 32.8086 10.3791 32.69 10.1008C32.5714 9.82246 32.3471 9.60265 32.0665 9.48971C31.7859 9.37677 31.4718 9.37994 31.1935 9.49852L28.2279 10.7601C28.5091 10.1048 28.8318 9.46823 29.194 8.85407C29.3433 8.59509 29.385 8.28784 29.3101 7.99844C29.2352 7.70903 29.0496 7.46061 28.7934 7.30662C28.5372 7.15264 28.2307 7.10541 27.94 7.1751C27.6493 7.24478 27.3976 7.42581 27.239 7.67922C26.8456 8.34569 26.4933 9.03553 26.1839 9.7449L25.8417 8.95444C25.7862 8.81131 25.7024 8.68085 25.5953 8.57088C25.4882 8.46091 25.36 8.37369 25.2184 8.31444C25.0768 8.2552 24.9247 8.22515 24.7711 8.2261C24.6176 8.22705 24.4659 8.25898 24.325 8.31996C24.1841 8.38095 24.057 8.46975 23.9513 8.58104C23.8456 8.69233 23.7634 8.82381 23.7097 8.96762C23.6559 9.11143 23.6318 9.2646 23.6387 9.41795C23.6456 9.57131 23.6834 9.72169 23.7498 9.8601L25.0843 12.9398C24.9429 13.5109 24.8288 14.0869 24.7421 14.6678L24.5927 14.4534C24.5085 14.3272 24.3999 14.2191 24.2733 14.1354C24.1467 14.0517 24.0047 13.994 23.8556 13.9659C23.7065 13.9378 23.5533 13.9397 23.4049 13.9715C23.2565 14.0033 23.116 14.0644 22.9915 14.1512C22.8671 14.2381 22.7612 14.3488 22.6801 14.4771C22.599 14.6053 22.5443 14.7485 22.5192 14.8982C22.4941 15.0478 22.4991 15.201 22.534 15.3487C22.5688 15.4964 22.6328 15.6356 22.7221 15.7583L24.5403 18.3657C24.568 19.1522 24.6442 19.9361 24.7684 20.7131L25.025 22.2496L24.579 21.953L20.2743 12.2805C19.8574 11.3461 19.2492 10.5095 18.4888 9.82479C17.7285 9.14008 16.8329 8.62248 15.8601 8.30543C15.6062 8.22353 15.348 8.15537 15.0868 8.10126L15.5156 3.8011C15.56 3.35561 15.5106 2.90576 15.3708 2.48048C15.2309 2.05519 15.0036 1.66387 14.7035 1.33165C14.3951 1.01309 14.0258 0.759796 13.6175 0.586811C13.2093 0.413826 12.7704 0.324684 12.327 0.324684C11.8836 0.324684 11.4447 0.413826 11.0365 0.586811C10.6282 0.759796 10.2589 1.01309 9.95052 1.33165C9.72589 1.58787 9.54409 1.87866 9.41214 2.19282C9.14848 1.99688 8.85605 1.84297 8.54526 1.73657C8.11873 1.59924 7.66815 1.55288 7.22259 1.60047C6.77703 1.64806 6.3464 1.78855 5.95849 2.01287C5.57059 2.23718 5.23403 2.54034 4.97054 2.90278C4.70705 3.26521 4.52248 3.67887 4.42875 4.11705C4.36542 4.4393 4.35195 4.76937 4.38883 5.09571C4.05106 5.05311 3.70864 5.06543 3.37481 5.13221C2.71524 5.27423 2.11732 5.62077 1.6662 6.12246C1.21508 6.62415 0.93378 7.2554 0.862368 7.92629C0.790956 8.59719 0.933074 9.27351 1.26848 9.85892C1.60388 10.4443 2.11547 10.909 2.73036 11.1866L6.67122 12.9649C6.30494 14.0644 6.20701 15.2356 6.38559 16.3807C6.56417 17.5259 7.01409 18.6116 7.69778 19.5474L8.09358 20.0915L6.04045 18.7228C5.86866 18.6078 5.66887 18.5418 5.46244 18.5316C5.25601 18.5214 5.05069 18.5675 4.86843 18.665C4.68616 18.7624 4.5338 18.9076 4.42763 19.0849C4.32146 19.2622 4.26547 19.4651 4.26564 19.6718V51.6093C4.26564 51.9118 4.38581 52.2019 4.59972 52.4158C4.81363 52.6297 5.10375 52.7499 5.40626 52.7499C5.70878 52.7499 5.9989 52.6297 6.21281 52.4158C6.42672 52.2019 6.54689 51.9118 6.54689 51.6093V21.8036L11.617 25.1833C11.8044 25.3083 12.0247 25.375 12.25 25.375C12.4753 25.375 12.6956 25.3083 12.8831 25.1833L19.0938 21.0405L25.3045 25.181C25.4919 25.306 25.7122 25.3728 25.9375 25.3728C26.1628 25.3728 26.3831 25.306 26.5706 25.181L32.7813 21.0405L38.992 25.181C39.1794 25.306 39.3997 25.3728 39.625 25.3728C39.8503 25.3728 40.0706 25.306 40.2581 25.181L45.3281 21.8024V63.0155C45.3281 63.318 45.4483 63.6081 45.6622 63.822C45.8761 64.036 46.1663 64.1561 46.4688 64.1561C46.7713 64.1561 47.0614 64.036 47.2753 63.822C47.4892 63.6081 47.6094 63.318 47.6094 63.0155V22.4252L49.8906 24.7065V37.9218C49.8906 38.2243 50.0108 38.5144 50.2247 38.7283C50.4386 38.9422 50.7288 39.0624 51.0313 39.0624C51.3338 39.0624 51.6239 38.9422 51.8378 38.7283C52.0517 38.5144 52.1719 38.2243 52.1719 37.9218V24.7065L54.4532 22.4252V32.2186C54.4532 32.5211 54.5733 32.8113 54.7872 33.0252C55.0011 33.2391 55.2913 33.3593 55.5938 33.3593C55.8963 33.3593 56.1864 33.2391 56.4003 33.0252C56.6142 32.8113 56.7344 32.5211 56.7344 32.2186V19.6718C56.7344 19.4462 56.6674 19.2257 56.5421 19.0382C56.4168 18.8507 56.2386 18.7045 56.0302 18.6182C55.8218 18.5319 55.5925 18.5093 55.3713 18.5533C55.1501 18.5973 54.9469 18.7059 54.7874 18.8653L54.3585 19.2942C54.2076 18.1165 53.8888 16.9665 53.4118 15.8792L54.1121 15.0317C54.9213 14.0508 55.3411 12.8063 55.2915 11.5357C55.2418 10.265 54.7262 9.0571 53.8429 8.14232C54.9599 7.98187 56.0948 7.99148 57.2089 8.17083L57.688 8.24954C57.9792 8.29804 58.2779 8.23173 58.5213 8.06453C58.7646 7.89733 58.9337 7.64227 58.9928 7.35301L59.335 5.65804C59.4669 5.00546 59.4515 4.33168 59.2899 3.68582C59.1283 3.03996 58.8246 2.43832 58.4009 1.92477ZM11.6421 2.86693C11.7303 2.77416 11.8364 2.7003 11.9541 2.64983C12.0717 2.59936 12.1984 2.57333 12.3264 2.57333C12.4545 2.57333 12.5811 2.59936 12.6988 2.64983C12.8164 2.7003 12.9226 2.77416 13.0108 2.86693C13.0979 2.96226 13.1638 3.075 13.2041 3.1977C13.2444 3.3204 13.2583 3.45025 13.2446 3.57868L12.8032 7.9986C12.7154 8.00772 12.6298 8.02711 12.5432 8.03966L11.6569 6.07323L11.4071 3.57868C11.3936 3.45017 11.4076 3.32026 11.4481 3.19756C11.4886 3.07486 11.5547 2.96217 11.6421 2.86693ZM6.66095 4.59726C6.6878 4.47094 6.74099 4.3517 6.81705 4.24733C6.89312 4.14297 6.99034 4.05582 7.10237 3.99158C7.21413 3.92709 7.33815 3.88672 7.46646 3.87307C7.59476 3.85943 7.7245 3.87281 7.84732 3.91235C7.97014 3.95189 8.08332 4.01672 8.17956 4.10266C8.2758 4.18861 8.35297 4.29375 8.40611 4.41133L10.352 8.72176C10.2186 8.78791 10.0817 8.84951 9.95166 8.92479C9.82162 9.00007 9.69958 9.08676 9.57525 9.17002L6.81151 5.32612C6.73706 5.2218 6.68521 5.10309 6.65928 4.97758C6.63336 4.85207 6.63393 4.72253 6.66095 4.59726ZM3.66909 9.10729C3.49188 9.02722 3.34444 8.89327 3.24779 8.72452C3.15114 8.55577 3.1102 8.36083 3.1308 8.16746C3.1514 7.97409 3.23249 7.79214 3.36253 7.64755C3.49256 7.50295 3.66491 7.40307 3.85501 7.36213C3.98135 7.33503 4.11195 7.33462 4.23844 7.36094C4.36494 7.38727 4.48454 7.43973 4.58958 7.51497L6.62445 8.9784L7.87914 10.7304C7.82553 10.8 7.76508 10.8638 7.71489 10.9346L3.66909 9.10729ZM18.4607 18.7228L12.7063 22.5598L11.658 21.1169L14.667 19.3798C14.9291 19.2285 15.1204 18.9793 15.1988 18.687C15.2772 18.3947 15.2363 18.0832 15.085 17.8211C14.9338 17.559 14.6846 17.3677 14.3923 17.2893C14.1 17.2109 13.7885 17.2518 13.5264 17.4031L10.311 19.2611L9.54331 18.2061C8.84629 17.3025 8.48096 16.1869 8.50851 15.0461C8.53606 13.9053 8.95483 12.8087 9.69466 11.9399C10.4345 11.0711 11.4504 10.4829 12.5722 10.2739C13.6941 10.0649 14.8536 10.2478 15.8567 10.792L14.2108 11.741C14.081 11.8159 13.9672 11.9156 13.8759 12.0345C13.7847 12.1533 13.7177 12.289 13.6789 12.4337C13.6401 12.5785 13.6302 12.7294 13.6497 12.878C13.6692 13.0266 13.7178 13.1699 13.7927 13.2997C13.8676 13.4294 13.9673 13.5432 14.0862 13.6345C14.2051 13.7257 14.3407 13.7927 14.4855 13.8315C14.6302 13.8703 14.7812 13.8802 14.9297 13.8607C15.0783 13.8412 15.2216 13.7926 15.3514 13.7177L17.6999 12.3615C17.8911 12.6286 18.0561 12.9136 18.1927 13.2124L21.0328 19.5908L19.7314 18.7228C19.5435 18.5967 19.3223 18.5294 19.0961 18.5294C18.8698 18.5294 18.6486 18.5967 18.4607 18.7228ZM39.625 22.8655L34.1968 19.2474C34.7619 18.3497 35.062 17.3107 35.0625 16.2499C35.0606 15.8881 35.0224 15.5273 34.9485 15.1731C35.2667 14.945 35.5606 14.6847 35.8256 14.3964L36.2818 15.537C36.352 15.7123 36.4646 15.8674 36.6095 15.9884C36.7544 16.1095 36.927 16.1927 37.112 16.2306C37.2969 16.2684 37.4884 16.2598 37.6692 16.2054C37.85 16.1511 38.0145 16.0527 38.1479 15.9191L40.0813 13.9846L41.2219 19.4379C41.2664 19.6503 41.3706 19.8455 41.5221 20.0008C41.6737 20.156 41.8664 20.2648 42.0776 20.3144C42.2889 20.364 42.5099 20.3523 42.7147 20.2807C42.9195 20.2091 43.0996 20.0805 43.234 19.9101L46.1414 16.2214L47.1805 18.8015C46.9939 18.6452 46.7619 18.5532 46.5189 18.539C46.2758 18.5249 46.0347 18.5893 45.8312 18.7228L39.625 22.8655ZM52.1719 20.8124C52.1719 21.0508 52.1502 21.2846 52.1343 21.5184L51.0313 22.6214L49.1618 20.7519C49.3523 20.6889 49.5223 20.5754 49.6534 20.4234L51.7316 17.9141C52.0189 18.8535 52.1673 19.83 52.1719 20.8124ZM57.0948 5.20635L56.9705 5.83255C54.8212 5.58699 52.6443 5.85436 50.6184 6.61274C50.1723 6.56424 49.7218 6.57383 49.2781 6.64126L47.8524 6.87851C47.3615 6.95907 46.8581 6.90952 46.3923 6.73479C47.4067 5.43888 48.7018 4.39005 50.1803 3.66732C51.6588 2.94458 53.282 2.56678 54.9277 2.56238C55.2547 2.56224 55.5778 2.63472 55.8734 2.77459C56.1691 2.91445 56.43 3.11822 56.6373 3.37118C56.8447 3.62413 56.9933 3.91997 57.0724 4.23733C57.1515 4.5547 57.1592 4.88566 57.0948 5.20635Z" fill="black"/>
<path d="M55.5938 35.6406C55.2912 35.6406 55.0011 35.7608 54.7872 35.9747C54.5733 36.1886 54.4531 36.4787 54.4531 36.7812V65.7326L52.1719 64.592V44.7656C52.1719 44.4631 52.0517 44.173 51.8378 43.9591C51.6239 43.7452 51.3338 43.625 51.0312 43.625C50.7287 43.625 50.4386 43.7452 50.2247 43.9591C50.0108 44.173 49.8906 44.4631 49.8906 44.7656V64.592L46.1996 66.4375H6.54688V56.1719C6.54688 55.8694 6.4267 55.5792 6.21279 55.3653C5.99888 55.1514 5.70876 55.0312 5.40625 55.0312C5.10374 55.0312 4.81362 55.1514 4.59971 55.3653C4.3858 55.5792 4.26562 55.8694 4.26562 56.1719V67.5781C4.26562 67.8806 4.3858 68.1707 4.59971 68.3847C4.81362 68.5986 5.10374 68.7187 5.40625 68.7187H46.4688C46.6452 68.7207 46.8198 68.6816 46.9786 68.6047L51.0312 66.5721L55.0839 68.6047C55.2583 68.6918 55.4521 68.7328 55.6468 68.7237C55.8415 68.7147 56.0307 68.6559 56.1962 68.5529C56.3617 68.45 56.4981 68.3063 56.5923 68.1357C56.6865 67.965 56.7354 67.773 56.7344 67.5781V36.7812C56.7344 36.4787 56.6142 36.1886 56.4003 35.9747C56.1864 35.7608 55.8963 35.6406 55.5938 35.6406Z" fill="black"/>
<path d="M20 53.0001C34.5 51.5 38.5 38.0001 38 30.0001C30.8706 28.3366 21.0855 33.2558 18 38.0001C14.5938 43.2375 17.3765 49.5895 20 53.0001Z" fill="white"/>
<path d="M17.2037 47.5031C16.946 48.077 16.8127 48.699 16.8125 49.3281C16.8128 50.2227 17.0762 51.0975 17.5698 51.8436C18.0635 52.5897 18.7655 53.1742 19.5887 53.5245L19.104 57.1619C19.0806 57.312 19.0874 57.4653 19.124 57.6127C19.1607 57.7602 19.2264 57.8988 19.3174 58.0205C19.4083 58.1422 19.5227 58.2445 19.6537 58.3214C19.7847 58.3983 19.9298 58.4482 20.0804 58.4683C20.231 58.4883 20.3841 58.4781 20.5307 58.4382C20.6772 58.3983 20.8144 58.3295 20.934 58.2358C21.0537 58.1422 21.1534 58.0256 21.2273 57.8929C21.3013 57.7602 21.348 57.614 21.3647 57.463L21.846 53.8587C22.5664 53.7803 23.2578 53.5322 23.8636 53.1346C24.4694 52.737 24.9722 52.2014 25.3306 51.5717C26.0714 51.6623 26.8229 51.6011 27.5392 51.3918C28.2555 51.1826 28.9218 50.8297 29.4974 50.3547C29.8262 50.4303 30.1625 50.4686 30.5 50.4687C31.71 50.4687 32.8705 49.988 33.7261 49.1324C34.5818 48.2768 35.0625 47.1163 35.0625 45.9062C35.0623 45.5688 35.024 45.2325 34.9484 44.9036C35.7632 43.8964 36.2063 42.6393 36.2031 41.3437C36.2031 41.2958 36.2031 41.2468 36.2031 41.1977C36.85 41.0294 37.4523 40.7218 37.9679 40.2965C38.4835 39.8711 38.8999 39.3382 39.1881 38.7351C39.2579 38.5992 39.2997 38.4506 39.3109 38.2983C39.3222 38.1459 39.3027 37.9928 39.2537 37.8481C39.2047 37.7034 39.1271 37.57 39.0255 37.4558C38.9239 37.3417 38.8004 37.2491 38.6624 37.1836C38.5244 37.1181 38.3746 37.081 38.2219 37.0745C38.0693 37.068 37.9169 37.0923 37.7738 37.1458C37.6307 37.1993 37.4998 37.2811 37.3889 37.3862C37.2779 37.4913 37.1893 37.6176 37.1281 37.7576C36.9479 38.1386 36.6657 38.4622 36.3127 38.6925C35.9598 38.9228 35.5499 39.0509 35.1286 39.0625C35.0944 39.0625 34.9872 39.0465 34.9518 39.0442C34.7734 39.0404 34.5964 39.0761 34.4335 39.1489C34.2706 39.2217 34.1258 39.3297 34.0097 39.4651C33.8965 39.6046 33.8179 39.7688 33.7803 39.9444C33.7426 40.1201 33.747 40.3021 33.7929 40.4757C33.9617 41.0602 33.9652 41.6801 33.8029 42.2664C33.6406 42.8528 33.3189 43.3827 32.8736 43.7972C32.709 43.9559 32.5959 44.1603 32.5489 44.384C32.5019 44.6078 32.5232 44.8404 32.6101 45.0519C32.7224 45.3228 32.7805 45.613 32.7812 45.9062C32.7812 46.5112 32.5409 47.0915 32.1131 47.5193C31.6852 47.9471 31.105 48.1875 30.5 48.1875C30.206 48.187 29.9149 48.1289 29.6434 48.0164C29.4319 47.9295 29.1992 47.9082 28.9755 47.9552C28.7518 48.0021 28.5473 48.1153 28.3887 48.2799C28.0721 48.6112 27.6917 48.8749 27.2704 49.055C26.8491 49.2352 26.3957 49.3281 25.9375 49.3281C25.6105 49.3222 25.2862 49.2684 24.9748 49.1684C24.8303 49.1257 24.6788 49.112 24.529 49.1282C24.3793 49.1443 24.2342 49.19 24.1021 49.2625C23.9701 49.3351 23.8537 49.433 23.7598 49.5508C23.6658 49.6686 23.5961 49.8038 23.5547 49.9486C23.4596 50.2796 23.291 50.5848 23.0615 50.8415C22.832 51.0983 22.5476 51.2999 22.2293 51.4314C22.4979 50.1073 22.883 48.8096 23.3802 47.5533L27.2298 47.0366C27.38 47.0187 27.5251 46.9712 27.6568 46.8967C27.7884 46.8223 27.9039 46.7224 27.9966 46.6029C28.0893 46.4833 28.1573 46.3466 28.1966 46.2005C28.2359 46.0545 28.2458 45.9021 28.2257 45.7522C28.2056 45.6023 28.1559 45.4579 28.0794 45.3274C28.003 45.1969 27.9013 45.0829 27.7804 44.992C27.6595 44.9012 27.5217 44.8353 27.3751 44.7982C27.2285 44.7611 27.076 44.7535 26.9264 44.7759L24.5311 45.0975C25.0245 44.1899 25.579 43.3168 26.1907 42.4843H30.5C30.8025 42.4843 31.0926 42.3642 31.3065 42.1503C31.5204 41.9364 31.6406 41.6462 31.6406 41.3437C31.6406 41.0412 31.5204 40.7511 31.3065 40.5372C31.0926 40.3233 30.8025 40.2031 30.5 40.2031H28.1046C28.8434 39.4286 29.6359 38.7071 30.476 38.0439L32.2714 38.9427C32.5421 39.0779 32.8555 39.1001 33.1425 39.0042C33.2847 38.9568 33.4161 38.8818 33.5292 38.7836C33.6424 38.6853 33.7351 38.5658 33.8021 38.4317C33.869 38.2976 33.9089 38.1517 33.9195 38.0022C33.93 37.8527 33.911 37.7027 33.8636 37.5605C33.8161 37.4184 33.7412 37.287 33.6429 37.1738C33.5447 37.0606 33.4251 36.9679 33.2911 36.901L32.5999 36.5588C33.1941 36.1915 33.7998 35.8391 34.4317 35.5242C34.7024 35.389 34.9084 35.1518 35.0042 34.8647C35.1 34.5777 35.0779 34.2643 34.9427 33.9935C34.8075 33.7228 34.5702 33.5168 34.2832 33.421C33.9961 33.3252 33.6827 33.3473 33.412 33.4825C32.8029 33.7871 32.2166 34.1224 31.6406 34.4703V33.3593C31.6406 33.0568 31.5204 32.7667 31.3065 32.5528C31.0926 32.3389 30.8025 32.2187 30.5 32.2187C30.1974 32.2187 29.9073 32.3389 29.6934 32.5528C29.4795 32.7667 29.3593 33.0568 29.3593 33.3593V36.0147C28.262 36.8564 27.2358 37.7868 26.2911 38.7967L25.8793 37.5614C25.832 37.4191 25.7571 37.2875 25.6589 37.1742C25.5607 37.0608 25.4411 36.9679 25.307 36.9008C25.173 36.8336 25.0269 36.7935 24.8774 36.7828C24.7278 36.7721 24.5776 36.7909 24.4353 36.8383C24.293 36.8856 24.1614 36.9605 24.048 37.0587C23.9347 37.1569 23.8418 37.2764 23.7746 37.4105C23.7075 37.5446 23.6674 37.6906 23.6567 37.8402C23.6459 37.9898 23.6648 38.14 23.7121 38.2823L24.5676 40.8475C24.0233 41.569 23.518 42.3191 23.054 43.0946L22.4951 40.0001C22.4694 39.8517 22.4147 39.7099 22.3339 39.5829C22.2532 39.4558 22.1482 39.346 22.0248 39.2597C21.9015 39.1734 21.7623 39.1124 21.6152 39.0802C21.4682 39.048 21.3162 39.0452 21.1681 39.072C21.0199 39.0988 20.8786 39.1546 20.7521 39.2363C20.6257 39.318 20.5167 39.4239 20.4314 39.5479C20.346 39.672 20.2861 39.8116 20.2551 39.9589C20.224 40.1062 20.2224 40.2582 20.2503 40.4061L21.351 46.4971C20.7415 47.9855 20.2762 49.529 19.9617 51.1063C19.7285 50.9261 19.5332 50.7017 19.3869 50.4459C19.2406 50.19 19.1463 49.9079 19.1093 49.6155C19.0723 49.3231 19.0934 49.0263 19.1714 48.7421C19.2494 48.4579 19.3827 48.1919 19.5636 47.9593C19.6535 47.8395 19.7189 47.7032 19.7561 47.5581C19.7933 47.4129 19.8015 47.2619 19.7803 47.1137C19.7591 46.9654 19.7089 46.8227 19.6326 46.6938C19.5563 46.5649 19.4554 46.4523 19.3355 46.3625C18.6363 45.851 18.16 45.0908 18.0046 44.2386C17.8493 43.3863 18.0268 42.507 18.5006 41.7817C18.6293 41.5828 18.6928 41.3487 18.6824 41.112C18.672 40.8753 18.5881 40.6477 18.4424 40.4609C18.1268 40.063 17.9544 39.5704 17.9531 39.0625C17.9531 38.4574 18.1934 37.8772 18.6212 37.4494C19.0491 37.0216 19.6293 36.7812 20.2343 36.7812C20.3681 36.7834 20.5013 36.7979 20.6324 36.8246C20.8656 36.865 21.1055 36.8325 21.3195 36.7315C21.5334 36.6304 21.711 36.4657 21.8278 36.26C22.1223 35.7298 22.5525 35.2875 23.0742 34.9782C23.5959 34.669 24.1904 34.5039 24.7968 34.5C25.1122 34.5061 25.4251 34.5564 25.7264 34.6494C25.8769 34.6922 26.0345 34.7036 26.1895 34.6829C26.3445 34.6622 26.4936 34.6098 26.6276 34.5291C26.7615 34.4483 26.8774 34.3409 26.968 34.2134C27.0587 34.086 27.1222 33.9412 27.1545 33.7882C27.2581 33.2971 27.4687 32.8349 27.7713 32.4344C28.0738 32.0339 28.4609 31.7051 28.9051 31.4713C29.3492 31.2375 29.8394 31.1044 30.3408 31.0816C30.8422 31.0588 31.3425 31.1468 31.806 31.3393C32.0475 31.4393 32.316 31.4533 32.5667 31.379C32.8173 31.3046 33.0348 31.1465 33.1827 30.931C33.4583 30.5302 33.8548 30.2279 34.3143 30.0684C34.7738 29.9089 35.2723 29.9004 35.7369 30.0442C36.2016 30.188 36.6081 30.4766 36.8972 30.8678C37.1862 31.259 37.3427 31.7323 37.3437 32.2187C37.3419 32.7814 37.1295 33.323 36.7483 33.7369C36.6446 33.8476 36.564 33.9779 36.5113 34.1201C36.4585 34.2623 36.4347 34.4136 36.4411 34.5652C36.4476 34.7167 36.4842 34.8654 36.5488 35.0027C36.6134 35.1399 36.7048 35.2629 36.8175 35.3644C36.9302 35.4659 37.062 35.5438 37.2053 35.5938C37.3485 35.6437 37.5003 35.6646 37.6517 35.6551C37.8031 35.6457 37.951 35.6062 38.087 35.5388C38.2229 35.4715 38.344 35.3778 38.4433 35.263C39.2356 34.3835 39.6543 33.2301 39.6108 32.0472C39.5672 30.8643 39.0649 29.7447 38.2101 28.9258C37.3553 28.1069 36.2153 27.653 35.0316 27.6602C33.8478 27.6675 32.7134 28.1353 31.8687 28.9645C31.4211 28.8526 30.9614 28.7963 30.5 28.7968C29.3873 28.8011 28.3 29.1291 27.3705 29.7408C26.4411 30.3524 25.7097 31.2213 25.2656 32.2415C24.3072 32.1535 23.3423 32.3153 22.465 32.7111C21.5876 33.1069 20.8278 33.7232 20.2594 34.5C19.6585 34.4979 19.0631 34.6143 18.5071 34.8425C17.9512 35.0707 17.4458 35.4063 17.0197 35.8301C16.5936 36.2538 16.2553 36.7574 16.024 37.3121C15.7927 37.8667 15.673 38.4615 15.6718 39.0625C15.6712 39.811 15.8591 40.5477 16.2182 41.2046C15.7307 42.231 15.564 43.3805 15.7398 44.5031C15.9156 45.6257 16.4258 46.6692 17.2037 47.4974V47.5031Z" fill="black"/>
<path d="M36.2031 56.1719C36.2031 55.8694 36.083 55.5792 35.869 55.3653C35.6551 55.1514 35.365 55.0312 35.0625 55.0312H28.2188C27.9162 55.0312 27.6261 55.1514 27.4122 55.3653C27.1983 55.5792 27.0781 55.8694 27.0781 56.1719C27.0781 56.4744 27.1983 56.7645 27.4122 56.9784C27.6261 57.1923 27.9162 57.3125 28.2188 57.3125H35.0625C35.365 57.3125 35.6551 57.1923 35.869 56.9784C36.083 56.7645 36.2031 56.4744 36.2031 56.1719Z" fill="black"/>
<path d="M20.2344 60.7344C19.9319 60.7344 19.6417 60.8545 19.4278 61.0685C19.2139 61.2824 19.0938 61.5725 19.0938 61.875C19.0938 62.1775 19.2139 62.4676 19.4278 62.6815C19.6417 62.8955 19.9319 63.0156 20.2344 63.0156H28.2188C28.5213 63.0156 28.8114 62.8955 29.0253 62.6815C29.2392 62.4676 29.3594 62.1775 29.3594 61.875C29.3594 61.5725 29.2392 61.2824 29.0253 61.0685C28.8114 60.8545 28.5213 60.7344 28.2188 60.7344H20.2344Z" fill="black"/>
<path d="M32.7812 63.0156H36.2031C36.5056 63.0156 36.7958 62.8955 37.0097 62.6815C37.2236 62.4676 37.3438 62.1775 37.3438 61.875C37.3438 61.5725 37.2236 61.2824 37.0097 61.0685C36.7958 60.8545 36.5056 60.7344 36.2031 60.7344H32.7812C32.4787 60.7344 32.1886 60.8545 31.9747 61.0685C31.7608 61.2824 31.6406 61.5725 31.6406 61.875C31.6406 62.1775 31.7608 62.4676 31.9747 62.6815C32.1886 62.8955 32.4787 63.0156 32.7812 63.0156Z" fill="black"/>
<path d="M11.1094 56.1719C10.8069 56.1719 10.5167 56.292 10.3028 56.506C10.0889 56.7199 9.96875 57.01 9.96875 57.3125V61.875C9.96875 62.1775 10.0889 62.4676 10.3028 62.6815C10.5167 62.8955 10.8069 63.0156 11.1094 63.0156H15.6719C15.9744 63.0156 16.2645 62.8955 16.4784 62.6815C16.6923 62.4676 16.8125 62.1775 16.8125 61.875V57.3125C16.8125 57.01 16.6923 56.7199 16.4784 56.506C16.2645 56.292 15.9744 56.1719 15.6719 56.1719H11.1094ZM14.5312 60.7344H12.25V58.4531H14.5312V60.7344Z" fill="black"/>
</svg>
