<svg width="59" height="59" viewBox="0 0 59 59" fill="none" xmlns="http://www.w3.org/2000/svg">
<path d="M37.9139 7.29052C37.3209 3.13447 33.7034 0 29.4996 0C26.7961 0 24.2285 1.30459 22.6321 3.49101C22.306 3.93691 22.4036 4.5624 22.8495 4.88847C23.2939 5.21337 23.9209 5.11698 24.2464 4.6705C25.4683 2.99853 27.4318 2.00009 29.4993 2.00009C32.7143 2.00009 35.4802 4.39599 35.9337 7.57264C36.0052 8.07157 36.4332 8.43163 36.9228 8.43163C36.9694 8.43163 37.0174 8.42811 37.0652 8.42167C37.6119 8.34344 37.9918 7.8369 37.9139 7.29052Z" fill="#F6A900"/>
<path d="M52.357 18.4851L49.357 13.485C49.1765 13.1836 48.851 12.9996 48.4994 12.9996H45.6245C45.0726 12.9996 44.6246 13.4475 44.6246 13.9995C44.6246 14.5514 45.0726 14.9994 45.6245 14.9994H47.9334L49.7334 17.9994H9.26543L11.0654 14.9994H12.1245C12.6765 14.9994 13.1244 14.5514 13.1244 13.9995C13.1244 13.4475 12.6765 12.9996 12.1245 12.9996H10.4994C10.1478 12.9996 9.82236 13.1836 9.64189 13.485L6.6419 18.4851C6.45645 18.7945 6.45205 19.1792 6.6293 19.4926C6.80654 19.8061 7.13877 20 7.49941 20H51.4994C51.8601 20 52.192 19.8061 52.3696 19.4926C52.5471 19.1792 52.5424 18.7939 52.357 18.4851Z" fill="#F6A900"/>
<path d="M47.3724 9.26455C47.2323 9.03867 47.0088 8.87841 46.7504 8.81806L33.1183 5.62969C32.8602 5.56904 32.5883 5.61416 32.3627 5.75361C32.1377 5.89365 31.9772 6.11719 31.9168 6.37559L30.8888 10.7701C30.7628 11.3077 31.0968 11.8456 31.6347 11.971C32.1723 12.097 32.7108 11.763 32.8362 11.2251L33.6366 7.80469L45.321 10.5378L43.485 18.3879C43.359 18.9255 43.693 19.4634 44.2309 19.5887C44.3079 19.6066 44.3844 19.6151 44.46 19.6151C44.9141 19.6151 45.3251 19.304 45.4321 18.8431L47.496 10.0195C47.557 9.76142 47.5124 9.48955 47.3724 9.26455Z" fill="#F6A900"/>
<path d="M30.0283 11.6285L29.1172 3.92197C29.0861 3.65859 28.9517 3.41807 28.7431 3.25401C28.5345 3.08994 28.2711 3.01494 28.0066 3.046L11.281 5.02295C10.7329 5.08799 10.3409 5.58486 10.4056 6.13359L11.9247 18.987C11.985 19.4959 12.4165 19.87 12.9166 19.87C12.9556 19.87 12.9957 19.8674 13.0356 19.863C13.5834 19.7979 13.9754 19.301 13.911 18.7523L12.5091 6.89121L27.2486 5.14922L28.042 11.8626C28.107 12.411 28.6016 12.8007 29.1527 12.7386C29.7008 12.6741 30.0928 12.1769 30.0283 11.6285Z" fill="#F6A900"/>
<path d="M37.937 18.6199L35.9522 10.3658C35.89 10.1083 35.728 9.88533 35.5022 9.74676C35.2763 9.60936 35.0053 9.56629 34.746 9.62781L18.6366 13.502C18.0996 13.6309 17.7691 14.1712 17.898 14.7082L18.89 18.8338C19.0189 19.3714 19.5591 19.7021 20.0958 19.5723C20.6328 19.4434 20.9633 18.9032 20.8344 18.3662L20.0759 15.2127L34.2409 11.8066L35.992 19.088C36.1019 19.5465 36.512 19.8542 36.9635 19.8542C37.0411 19.8542 37.1196 19.8451 37.1984 19.826C37.7355 19.6968 38.0659 19.1569 37.937 18.6199Z" fill="#F6A900"/>
<path d="M52.499 18.9489C52.4715 18.4174 52.0326 18.0002 51.5 18.0002H7.49995C6.96733 18.0002 6.52846 18.4171 6.50092 18.9489L4.50083 57.9488C4.48677 58.2224 4.58579 58.4902 4.77446 58.6889C4.96343 58.8872 5.22534 59 5.49956 59H53.4995C53.7734 59 54.0356 58.8875 54.2255 58.6889C54.4138 58.4902 54.5129 58.2227 54.4991 57.9488L52.499 18.9489ZM6.5519 56.9999L8.44946 20H50.5493L52.4468 56.9999H6.5519Z" fill="#F6A900"/>
<path d="M36.9996 21.9999C35.3452 21.9999 33.9996 23.3455 33.9996 24.9999C33.9996 26.6543 35.3452 27.9999 36.9996 27.9999C38.654 27.9999 39.9996 26.6543 39.9996 24.9999C39.9996 23.3455 38.654 21.9999 36.9996 21.9999ZM36.9996 26.0001C36.4479 26.0001 35.9997 25.5515 35.9997 25.0002C35.9997 24.4488 36.4482 24.0003 36.9996 24.0003C37.5509 24.0003 37.9995 24.4488 37.9995 25.0002C37.9995 25.5515 37.5509 26.0001 36.9996 26.0001Z" fill="#F6A900"/>
<path d="M21.9996 21.9999C20.3452 21.9999 18.9996 23.3455 18.9996 24.9999C18.9996 26.6543 20.3452 27.9999 21.9996 27.9999C23.654 27.9999 24.9996 26.6543 24.9996 24.9999C24.9996 23.3455 23.654 21.9999 21.9996 21.9999ZM21.9996 26.0001C21.4482 26.0001 20.9997 25.5515 20.9997 25.0002C20.9997 24.4488 21.4482 24.0003 21.9996 24.0003C22.5509 24.0003 22.9995 24.4488 22.9995 25.0002C22.9995 25.5515 22.5509 26.0001 21.9996 26.0001Z" fill="#F6A900"/>
<path d="M36.9995 24.9999H36.9225C36.3705 24.9999 35.9226 25.4478 35.9226 25.9998C35.9226 26.1363 35.9495 26.2667 35.9996 26.3853V31.4997C35.9996 35.0835 33.0837 37.9998 29.4995 37.9998C25.9153 37.9998 22.9994 35.0838 22.9994 31.4997V26.0001C22.9994 25.4481 22.5515 25.0002 21.9995 25.0002C21.4476 25.0002 20.9996 25.4481 20.9996 26.0001V31.5C20.9996 36.1869 24.8126 39.9999 29.4995 39.9999C34.1864 39.9999 37.9994 36.1869 37.9994 31.5V26.0001C37.9994 25.4481 37.5515 24.9999 36.9995 24.9999Z" fill="#F6A900"/>
</svg>
