<svg width="37" height="37" viewBox="0 0 37 37" fill="none" xmlns="http://www.w3.org/2000/svg">
<g clip-path="url(#clip0)">
<path d="M18.5628 1.0708C21.5072 1.0708 23.911 1.10518 25.7743 1.17393C27.3615 1.24268 28.7762 1.51768 30.0184 1.99893C31.2145 2.45726 32.2497 3.12184 33.1238 3.99268C33.9979 4.86351 34.665 5.89476 35.125 7.08643C35.6081 8.32393 35.8841 9.7333 35.9532 11.3145C36.0222 13.1708 36.0567 15.5656 36.0567 18.4989C36.0567 21.4323 36.0222 23.827 35.9532 25.6833C35.8841 27.2645 35.6081 28.6739 35.125 29.9114C34.665 31.1031 33.9979 32.1343 33.1238 33.0052C32.2497 33.876 31.2145 34.5406 30.0184 34.9989C28.7762 35.4802 27.3615 35.7552 25.7743 35.8239C23.911 35.8927 21.5072 35.927 18.5628 35.927C15.6184 35.927 13.2146 35.8927 11.3514 35.8239C9.76414 35.7552 8.34945 35.4802 7.10728 34.9989C5.91112 34.5406 4.87598 33.876 4.00186 33.0052C3.12775 32.1343 2.46066 31.1031 2.00059 29.9114C1.51753 28.6739 1.24149 27.2645 1.17248 25.6833C1.10347 23.827 1.06897 21.4323 1.06897 18.4989C1.06897 15.5656 1.10347 13.1708 1.17248 11.3145C1.24149 9.7333 1.51753 8.32393 2.00059 7.08643C2.46066 5.89476 3.12775 4.86351 4.00186 3.99268C4.87598 3.12184 5.91112 2.45726 7.10728 1.99893C8.34945 1.51768 9.76414 1.24268 11.3514 1.17393C13.2146 1.10518 15.6184 1.0708 18.5628 1.0708ZM18.5628 3.33955C15.5034 3.33955 13.0076 3.37393 11.0753 3.44268C9.83315 3.48851 8.68299 3.70622 7.62485 4.0958C5.96863 4.7833 4.79547 5.95205 4.10538 7.60205C3.71433 8.65622 3.4958 9.80205 3.44979 11.0395C3.38078 12.9646 3.34628 15.451 3.34628 18.4989C3.34628 21.5468 3.38078 24.0333 3.44979 25.9583C3.4958 27.1958 3.71433 28.3416 4.10538 29.3958C4.79547 31.0458 5.96863 32.2145 7.62485 32.902C8.68299 33.2916 9.83315 33.5093 11.0753 33.5552C13.0076 33.6239 15.5034 33.6583 18.5628 33.6583C21.6222 33.6583 24.1181 33.6239 26.0503 33.5552C27.2925 33.5093 28.4426 33.2916 29.5008 32.902C31.157 32.2145 32.3302 31.0458 33.0203 29.3958C33.4113 28.3416 33.6298 27.1958 33.6758 25.9583C33.7449 24.0333 33.7794 21.5468 33.7794 18.4989C33.7794 15.451 33.7449 12.9646 33.6758 11.0395C33.6298 9.80205 33.4113 8.65622 33.0203 7.60205C32.3302 5.95205 31.157 4.7833 29.5008 4.0958C28.4426 3.70622 27.2925 3.48851 26.0503 3.44268C24.1181 3.37393 21.6222 3.33955 18.5628 3.33955ZM18.5628 25.477C20.4951 25.477 22.1456 24.7953 23.5142 23.4317C24.8829 22.0682 25.5673 20.4239 25.5673 18.4989C25.5673 16.5739 24.8829 14.9297 23.5142 13.5661C22.1456 12.2026 20.4951 11.5208 18.5628 11.5208C16.6306 11.5208 14.9801 12.2026 13.6114 13.5661C12.2427 14.9297 11.5584 16.5739 11.5584 18.4989C11.5584 20.4239 12.2427 22.0682 13.6114 23.4317C14.9801 24.7953 16.6306 25.477 18.5628 25.477ZM18.5628 9.56143C21.0472 9.56143 23.1634 10.4323 24.9117 12.1739C26.6599 13.9156 27.534 16.0239 27.534 18.4989C27.534 20.9739 26.6599 23.0823 24.9117 24.8239C23.1634 26.5656 21.0472 27.4364 18.5628 27.4364C16.0785 27.4364 13.9622 26.5656 12.214 24.8239C10.4657 23.0823 9.59161 20.9739 9.59161 18.4989C9.59161 16.0239 10.4657 13.9156 12.214 12.1739C13.9622 10.4323 16.0785 9.56143 18.5628 9.56143ZM30.0184 9.21768C30.0184 9.79059 29.8113 10.2776 29.3973 10.6786C28.9832 11.0797 28.4772 11.2802 27.8791 11.2802C27.304 11.2802 26.8152 11.0797 26.4126 10.6786C26.0101 10.2776 25.8088 9.79059 25.8088 9.21768C25.8088 8.62184 26.0101 8.11768 26.4126 7.70518C26.8152 7.29268 27.304 7.08643 27.8791 7.08643C28.4541 7.08643 28.9545 7.2984 29.38 7.72236C29.8056 8.14632 30.0184 8.64476 30.0184 9.21768Z" fill="black"/>
</g>
<defs>
<clipPath id="clip0">
<rect width="35.3327" height="35.2" fill="white" transform="translate(0.930908 0.933105)"/>
</clipPath>
</defs>
</svg>
