<svg width="80" height="69" viewBox="0 0 80 69" fill="none" xmlns="http://www.w3.org/2000/svg">
<path d="M0 59.2851V46.9004H4.04884C5.39278 46.9004 6.40216 47.1783 7.07696 47.734C7.75744 48.2897 8.09768 49.1119 8.09768 50.2007C8.09768 50.7791 7.93323 51.2923 7.60433 51.7403C7.27544 52.1826 6.82745 52.5257 6.26039 52.7695C6.92953 52.9566 7.4569 53.3139 7.8425 53.8413C8.23377 54.363 8.42941 54.9867 8.42941 55.7126C8.42941 56.824 8.06933 57.6973 7.34915 58.3324C6.62898 58.9675 5.6111 59.2851 4.29551 59.2851H0ZM1.63315 53.4925V57.9496H4.32954C5.0894 57.9496 5.68766 57.754 6.12429 57.3627C6.56661 56.9658 6.78776 56.4214 6.78776 55.7296C6.78776 54.2382 5.97686 53.4925 4.35505 53.4925H1.63315ZM1.63315 52.1826H4.09988C4.81438 52.1826 5.38428 52.004 5.80957 51.6467C6.24054 51.2895 6.45603 50.8046 6.45603 50.1922C6.45603 49.5117 6.25756 49.0184 5.86061 48.7122C5.46367 48.4003 4.85974 48.2443 4.04884 48.2443H1.63315V52.1826Z" fill="black"/>
<path d="M16.2889 59.2851C16.1982 59.1036 16.1245 58.7804 16.0678 58.3154C15.3363 59.0753 14.463 59.4552 13.4479 59.4552C12.5406 59.4552 11.7949 59.2 11.2109 58.6897C10.6325 58.1736 10.3433 57.5215 10.3433 56.7333C10.3433 55.7749 10.7062 55.0321 11.432 54.5047C12.1635 53.9717 13.1899 53.7052 14.5112 53.7052H16.0423V52.9822C16.0423 52.4321 15.8778 51.9955 15.5489 51.6722C15.22 51.3433 14.7352 51.1789 14.0944 51.1789C13.533 51.1789 13.0623 51.3207 12.6824 51.6042C12.3025 51.8877 12.1125 52.2308 12.1125 52.6334H10.5304C10.5304 52.1741 10.692 51.7318 11.0152 51.3065C11.3441 50.8755 11.7864 50.5353 12.3422 50.2858C12.9035 50.0363 13.5188 49.9115 14.188 49.9115C15.2484 49.9115 16.0791 50.178 16.6802 50.7111C17.2813 51.2384 17.5932 51.9671 17.6159 52.8971V57.1331C17.6159 57.978 17.7236 58.65 17.9391 59.149V59.2851H16.2889ZM13.6776 58.0857C14.1709 58.0857 14.6388 57.9581 15.0811 57.703C15.5234 57.4478 15.8438 57.1161 16.0423 56.7078V54.8194H14.8089C12.8809 54.8194 11.9169 55.3837 11.9169 56.5121C11.9169 57.0055 12.0813 57.3911 12.4102 57.6689C12.7391 57.9468 13.1616 58.0857 13.6776 58.0857Z" fill="black"/>
<path d="M21.5711 50.0816L21.6222 51.2384C22.3253 50.3538 23.244 49.9115 24.3781 49.9115C26.3231 49.9115 27.3041 51.0088 27.3212 53.2033V59.2851H25.7476V53.1948C25.7419 52.5313 25.5888 52.0408 25.2882 51.7233C24.9934 51.4057 24.5312 51.2469 23.9018 51.2469C23.3914 51.2469 22.9434 51.383 22.5578 51.6552C22.1722 51.9274 21.8717 52.2847 21.6562 52.727V59.2851H20.0826V50.0816H21.5711Z" fill="black"/>
<path d="M35.3763 59.2851C35.2856 59.1036 35.2119 58.7804 35.1552 58.3154C34.4236 59.0753 33.5504 59.4552 32.5353 59.4552C31.628 59.4552 30.8823 59.2 30.2982 58.6897C29.7198 58.1736 29.4306 57.5215 29.4306 56.7333C29.4306 55.7749 29.7936 55.0321 30.5194 54.5047C31.2509 53.9717 32.2773 53.7052 33.5986 53.7052H35.1296V52.9822C35.1296 52.4321 34.9652 51.9955 34.6363 51.6722C34.3074 51.3433 33.8226 51.1789 33.1818 51.1789C32.6204 51.1789 32.1497 51.3207 31.7698 51.6042C31.3898 51.8877 31.1999 52.2308 31.1999 52.6334H29.6178C29.6178 52.1741 29.7794 51.7318 30.1026 51.3065C30.4315 50.8755 30.8738 50.5353 31.4295 50.2858C31.9909 50.0363 32.6062 49.9115 33.2753 49.9115C34.3357 49.9115 35.1665 50.178 35.7676 50.7111C36.3687 51.2384 36.6806 51.9671 36.7032 52.8971V57.1331C36.7032 57.978 36.811 58.65 37.0265 59.149V59.2851H35.3763ZM32.765 58.0857C33.2583 58.0857 33.7262 57.9581 34.1685 57.703C34.6108 57.4478 34.9312 57.1161 35.1296 56.7078V54.8194H33.8963C31.9683 54.8194 31.0042 55.3837 31.0042 56.5121C31.0042 57.0055 31.1687 57.3911 31.4976 57.6689C31.8265 57.9468 32.249 58.0857 32.765 58.0857Z" fill="black"/>
<path d="M40.6585 50.0816L40.7096 51.2384C41.4127 50.3538 42.3314 49.9115 43.4655 49.9115C45.4105 49.9115 46.3915 51.0088 46.4085 53.2033V59.2851H44.8349V53.1948C44.8293 52.5313 44.6762 52.0408 44.3756 51.7233C44.0807 51.4057 43.6186 51.2469 42.9891 51.2469C42.4788 51.2469 42.0308 51.383 41.6452 51.6552C41.2596 51.9274 40.9591 52.2847 40.7436 52.727V59.2851H39.17V50.0816H40.6585Z" fill="black"/>
<path d="M54.4637 59.2851C54.373 59.1036 54.2993 58.7804 54.2425 58.3154C53.511 59.0753 52.6378 59.4552 51.6227 59.4552C50.7154 59.4552 49.9697 59.2 49.3856 58.6897C48.8072 58.1736 48.518 57.5215 48.518 56.7333C48.518 55.7749 48.8809 55.0321 49.6068 54.5047C50.3383 53.9717 51.3647 53.7052 52.686 53.7052H54.217V52.9822C54.217 52.4321 54.0526 51.9955 53.7237 51.6722C53.3948 51.3433 52.9099 51.1789 52.2692 51.1789C51.7078 51.1789 51.2371 51.3207 50.8572 51.6042C50.4772 51.8877 50.2873 52.2308 50.2873 52.6334H48.7052C48.7052 52.1741 48.8668 51.7318 49.19 51.3065C49.5189 50.8755 49.9612 50.5353 50.5169 50.2858C51.0783 50.0363 51.6936 49.9115 52.3627 49.9115C53.4231 49.9115 54.2539 50.178 54.855 50.7111C55.4561 51.2384 55.7679 51.9671 55.7906 52.8971V57.1331C55.7906 57.978 55.8984 58.65 56.1139 59.149V59.2851H54.4637ZM51.8524 58.0857C52.3457 58.0857 52.8135 57.9581 53.2559 57.703C53.6982 57.4478 54.0186 57.1161 54.217 56.7078V54.8194H52.9837C51.0556 54.8194 50.0916 55.3837 50.0916 56.5121C50.0916 57.0055 50.2561 57.3911 50.585 57.6689C50.9139 57.9468 51.3363 58.0857 51.8524 58.0857Z" fill="black"/>
<path d="M58.2914 58.46C58.2914 58.1878 58.3708 57.961 58.5295 57.7795C58.694 57.5981 58.9378 57.5073 59.2611 57.5073C59.5843 57.5073 59.8281 57.5981 59.9926 57.7795C60.1627 57.961 60.2478 58.1878 60.2478 58.46C60.2478 58.7208 60.1627 58.9392 59.9926 59.115C59.8281 59.2907 59.5843 59.3786 59.2611 59.3786C58.9378 59.3786 58.694 59.2907 58.5295 59.115C58.3708 58.9392 58.2914 58.7208 58.2914 58.46Z" fill="black"/>
<path d="M68.5326 58.3749C67.9201 59.0951 67.0213 59.4552 65.8362 59.4552C64.8551 59.4552 64.1066 59.1717 63.5906 58.6046C63.0802 58.0319 62.8222 57.1869 62.8166 56.0698V50.0816H64.3902V56.0273C64.3902 57.4223 64.9572 58.1198 66.0914 58.1198C67.2935 58.1198 68.0931 57.6718 68.49 56.7758V50.0816H70.0636V59.2851H68.5666L68.5326 58.3749Z" fill="black"/>
<path d="M78.1443 59.2851C78.0536 59.1036 77.9799 58.7804 77.9231 58.3154C77.1916 59.0753 76.3184 59.4552 75.3033 59.4552C74.396 59.4552 73.6503 59.2 73.0662 58.6897C72.4878 58.1736 72.1986 57.5215 72.1986 56.7333C72.1986 55.7749 72.5615 55.0321 73.2874 54.5047C74.0189 53.9717 75.0453 53.7052 76.3666 53.7052H77.8976V52.9822C77.8976 52.4321 77.7332 51.9955 77.4043 51.6722C77.0754 51.3433 76.5905 51.1789 75.9498 51.1789C75.3884 51.1789 74.9177 51.3207 74.5378 51.6042C74.1578 51.8877 73.9679 52.2308 73.9679 52.6334H72.3858C72.3858 52.1741 72.5474 51.7318 72.8706 51.3065C73.1995 50.8755 73.6418 50.5353 74.1975 50.2858C74.7589 50.0363 75.3742 49.9115 76.0433 49.9115C77.1037 49.9115 77.9345 50.178 78.5356 50.7111C79.1367 51.2384 79.4486 51.9671 79.4712 52.8971V57.1331C79.4712 57.978 79.579 58.65 79.7945 59.149V59.2851H78.1443ZM75.533 58.0857C76.0263 58.0857 76.4941 57.9581 76.9365 57.703C77.3788 57.4478 77.6992 57.1161 77.8976 56.7078V54.8194H76.6643C74.7362 54.8194 73.7722 55.3837 73.7722 56.5121C73.7722 57.0055 73.9367 57.3911 74.2656 57.6689C74.5945 57.9468 75.0169 58.0857 75.533 58.0857Z" fill="black"/>
<path d="M26.7382 65.0124C26.6041 65.0124 26.5021 65.0488 26.4321 65.1217C26.365 65.1946 26.3315 65.3025 26.3315 65.4454V65.7165H27.04V65.9789H26.3403V68.0169H26.0297V65.9789H25.6187V65.7165H26.0297V65.4322C26.0297 65.2223 26.0895 65.0561 26.2091 64.9337C26.3315 64.8112 26.5035 64.75 26.7251 64.75C26.8126 64.75 26.8971 64.7631 26.9788 64.7894C27.0604 64.8127 27.1289 64.8477 27.1843 64.8943L27.0793 65.1261C26.989 65.0503 26.8753 65.0124 26.7382 65.0124Z" fill="black"/>
<path d="M28.1068 66.167C28.1797 66.0124 28.2876 65.8958 28.4305 65.8171C28.5762 65.7384 28.7555 65.699 28.9684 65.699V66.0008L28.894 65.9964C28.652 65.9964 28.4625 66.0707 28.3255 66.2194C28.1885 66.3681 28.12 66.5766 28.12 66.8448V68.0169H27.8094V65.7165H28.1068V66.167Z" fill="black"/>
<path d="M31.5122 66.9629H29.588C29.6055 67.202 29.6973 67.3959 29.8635 67.5446C30.0297 67.6903 30.2396 67.7632 30.4932 67.7632C30.6361 67.7632 30.7673 67.7384 30.8868 67.6889C31.0064 67.6364 31.1099 67.5606 31.1973 67.4615L31.3723 67.6626C31.2702 67.7851 31.1419 67.8784 30.9874 67.9425C30.8358 68.0067 30.6682 68.0387 30.4845 68.0387C30.2483 68.0387 30.0384 67.9892 29.8547 67.89C29.674 67.788 29.5326 67.6481 29.4305 67.4702C29.3285 67.2924 29.2775 67.0912 29.2775 66.8667C29.2775 66.6422 29.3256 66.441 29.4218 66.2632C29.5209 66.0853 29.655 65.9468 29.8241 65.8477C29.9961 65.7486 30.1886 65.699 30.4014 65.699C30.6142 65.699 30.8052 65.7486 30.9743 65.8477C31.1434 65.9468 31.2761 66.0853 31.3723 66.2632C31.4685 66.4381 31.5166 66.6393 31.5166 66.8667L31.5122 66.9629ZM30.4014 65.9658C30.1798 65.9658 29.9932 66.0372 29.8416 66.1801C29.6929 66.32 29.6084 66.5037 29.588 66.7311H31.2192C31.1988 66.5037 31.1128 66.32 30.9612 66.1801C30.8125 66.0372 30.6259 65.9658 30.4014 65.9658Z" fill="black"/>
<path d="M32.7652 68.0387C32.5786 68.0387 32.3993 68.0125 32.2273 67.96C32.0582 67.9046 31.9256 67.8361 31.8294 67.7545L31.9693 67.5096C32.0655 67.5854 32.1865 67.6481 32.3323 67.6976C32.4781 67.7443 32.6297 67.7676 32.7871 67.7676C32.997 67.7676 33.1516 67.7355 33.2507 67.6714C33.3527 67.6043 33.4037 67.511 33.4037 67.3915C33.4037 67.3069 33.3761 67.2413 33.3207 67.1947C33.2653 67.1451 33.1953 67.1087 33.1107 67.0854C33.0262 67.0591 32.9139 67.0343 32.774 67.011C32.5874 66.976 32.4372 66.941 32.3235 66.906C32.2098 66.8681 32.1122 66.8055 32.0305 66.718C31.9518 66.6305 31.9124 66.5095 31.9124 66.355C31.9124 66.1626 31.9926 66.0051 32.153 65.8827C32.3133 65.7602 32.5364 65.699 32.8221 65.699C32.9708 65.699 33.1195 65.7194 33.2682 65.7602C33.4169 65.7981 33.5393 65.8492 33.6355 65.9133L33.5 66.1626C33.3105 66.0314 33.0845 65.9658 32.8221 65.9658C32.6238 65.9658 32.4737 66.0008 32.3716 66.0707C32.2725 66.1407 32.223 66.2326 32.223 66.3463C32.223 66.4337 32.2506 66.5037 32.306 66.5562C32.3644 66.6087 32.4358 66.648 32.5203 66.6743C32.6049 66.6976 32.7215 66.7224 32.8702 66.7486C33.0539 66.7836 33.2011 66.8186 33.3119 66.8536C33.4227 66.8886 33.5175 66.9483 33.5962 67.0329C33.6749 67.1174 33.7143 67.234 33.7143 67.3827C33.7143 67.5839 33.6297 67.7443 33.4606 67.8638C33.2944 67.9804 33.0626 68.0387 32.7652 68.0387Z" fill="black"/>
<path d="M35.4603 65.699C35.749 65.699 35.9779 65.7836 36.147 65.9527C36.319 66.1189 36.405 66.3623 36.405 66.683V68.0169H36.0945V66.7136C36.0945 66.4745 36.0347 66.2923 35.9152 66.167C35.7956 66.0416 35.6251 65.9789 35.4035 65.9789C35.1557 65.9789 34.9589 66.0533 34.8131 66.2019C34.6702 66.3477 34.5988 66.5504 34.5988 66.8098V68.0169H34.2883V64.7719H34.5988V66.1189C34.6833 65.9847 34.8 65.8812 34.9487 65.8083C35.0974 65.7355 35.2679 65.699 35.4603 65.699Z" fill="black"/>
<path d="M41.2615 65.699C41.5501 65.699 41.776 65.7821 41.9393 65.9483C42.1055 66.1145 42.1886 66.3594 42.1886 66.683V68.0169H41.8781V66.7136C41.8781 66.4745 41.8198 66.2923 41.7032 66.167C41.5895 66.0416 41.4276 65.9789 41.2177 65.9789C40.9786 65.9789 40.7906 66.0533 40.6536 66.2019C40.5165 66.3477 40.448 66.5504 40.448 66.8098V68.0169H40.1375V66.7136C40.1375 66.4745 40.0792 66.2923 39.9626 66.167C39.8489 66.0416 39.6856 65.9789 39.4728 65.9789C39.2366 65.9789 39.0486 66.0533 38.9086 66.2019C38.7716 66.3477 38.7031 66.5504 38.7031 66.8098V68.0169H38.3926V65.7165H38.6899V66.1363C38.7716 65.9964 38.8853 65.8885 39.0311 65.8127C39.1768 65.7369 39.3445 65.699 39.534 65.699C39.7264 65.699 39.8926 65.7398 40.0325 65.8215C40.1754 65.9031 40.2818 66.0241 40.3518 66.1845C40.4364 66.0328 40.5573 65.9148 40.7148 65.8302C40.8751 65.7427 41.0574 65.699 41.2615 65.699Z" fill="black"/>
<path d="M43.8354 65.699C44.1357 65.699 44.366 65.7748 44.5263 65.9264C44.6867 66.0751 44.7669 66.2967 44.7669 66.5912V68.0169H44.4695V67.6583C44.3995 67.7778 44.296 67.8711 44.159 67.9382C44.0249 68.0052 43.8645 68.0387 43.6779 68.0387C43.4214 68.0387 43.2173 67.9775 43.0657 67.8551C42.914 67.7326 42.8382 67.5708 42.8382 67.3696C42.8382 67.1743 42.9082 67.0168 43.0482 66.8973C43.191 66.7778 43.417 66.718 43.726 66.718H44.4564V66.578C44.4564 66.3798 44.401 66.2296 44.2902 66.1276C44.1794 66.0226 44.0176 65.9702 43.8047 65.9702C43.659 65.9702 43.519 65.9949 43.3849 66.0445C43.2508 66.0912 43.1356 66.1568 43.0394 66.2413L42.8995 66.0095C43.0161 65.9104 43.156 65.8346 43.3193 65.7821C43.4826 65.7267 43.6546 65.699 43.8354 65.699ZM43.726 67.7938C43.901 67.7938 44.0511 67.7545 44.1765 67.6758C44.3018 67.5941 44.3951 67.4775 44.4564 67.3259V66.9498H43.7348C43.3412 66.9498 43.1444 67.0868 43.1444 67.3609C43.1444 67.495 43.1954 67.6014 43.2974 67.6801C43.3995 67.7559 43.5423 67.7938 43.726 67.7938Z" fill="black"/>
<path d="M45.9076 66.167C45.9805 66.0124 46.0884 65.8958 46.2313 65.8171C46.377 65.7384 46.5563 65.699 46.7692 65.699V66.0008L46.6948 65.9964C46.4528 65.9964 46.2633 66.0707 46.1263 66.2194C45.9893 66.3681 45.9207 66.5766 45.9207 66.8448V68.0169H45.6102V65.7165H45.9076V66.167Z" fill="black"/>
<path d="M48.1842 66.8623L47.6419 67.3609V68.0169H47.3314V64.7719H47.6419V66.9716L49.0151 65.7165H49.4L48.416 66.6568L49.4918 68.0169H49.1113L48.1842 66.8623Z" fill="black"/>
<path d="M51.867 66.9629H49.9427C49.9602 67.202 50.052 67.3959 50.2182 67.5446C50.3844 67.6903 50.5943 67.7632 50.848 67.7632C50.9908 67.7632 51.122 67.7384 51.2416 67.6889C51.3611 67.6364 51.4646 67.5606 51.5521 67.4615L51.727 67.6626C51.625 67.7851 51.4967 67.8784 51.3422 67.9425C51.1906 68.0067 51.0229 68.0387 50.8392 68.0387C50.6031 68.0387 50.3932 67.9892 50.2095 67.89C50.0287 67.788 49.8873 67.6481 49.7853 67.4702C49.6832 67.2924 49.6322 67.0912 49.6322 66.8667C49.6322 66.6422 49.6803 66.441 49.7765 66.2632C49.8756 66.0853 50.0098 65.9468 50.1789 65.8477C50.3509 65.7486 50.5433 65.699 50.7561 65.699C50.969 65.699 51.1599 65.7486 51.329 65.8477C51.4981 65.9468 51.6308 66.0853 51.727 66.2632C51.8232 66.4381 51.8713 66.6393 51.8713 66.8667L51.867 66.9629ZM50.7561 65.9658C50.5346 65.9658 50.348 66.0372 50.1964 66.1801C50.0477 66.32 49.9631 66.5037 49.9427 66.7311H51.574C51.5535 66.5037 51.4675 66.32 51.3159 66.1801C51.1672 66.0372 50.9806 65.9658 50.7561 65.9658Z" fill="black"/>
<path d="M53.7148 67.8769C53.6565 67.9294 53.5836 67.9702 53.4961 67.9994C53.4115 68.0256 53.3226 68.0387 53.2293 68.0387C53.0136 68.0387 52.8474 67.9804 52.7308 67.8638C52.6141 67.7472 52.5558 67.5825 52.5558 67.3696V65.9789H52.1447V65.7165H52.5558V65.2136H52.8663V65.7165H53.5661V65.9789H52.8663V67.3521C52.8663 67.4892 52.8999 67.5941 52.9669 67.667C53.0369 67.737 53.136 67.772 53.2643 67.772C53.3285 67.772 53.3897 67.7618 53.448 67.7414C53.5092 67.7209 53.5617 67.6918 53.6054 67.6539L53.7148 67.8769Z" fill="black"/>
<path d="M69.4302 27.0115C61.9595 35.6008 50.2617 40.0079 38.8787 39.6087C27.4957 39.2096 16.5343 34.2854 7.8551 26.916C6.44979 25.7299 5.0445 24.4314 4.2519 22.7731C3.70015 21.6599 3.50391 20.404 3.68978 19.1755C3.76892 18.6889 3.93049 18.2194 4.16757 17.7871C4.22379 17.6859 4.28 17.5904 4.34183 17.4948C4.70946 16.9572 5.19368 16.5095 5.75839 16.185C6.86101 15.5751 8.11541 15.2942 9.37284 15.3756C11.2728 15.4655 13.0772 16.1682 14.8929 16.7472C20.2819 18.4631 25.9441 19.157 31.588 18.7933C42.4257 18.1019 52.6676 13.5487 61.9427 7.92743C63.2854 7.02854 64.7407 6.31035 66.271 5.79137C67.1791 5.50661 68.1393 5.42788 69.0816 5.5609C69.814 5.68632 70.5137 5.9574 71.1394 6.35811C71.765 6.75881 72.304 7.28098 72.7242 7.89371C72.7748 7.95554 72.8198 8.023 72.8647 8.09045C74.5511 10.4739 75.1132 14.049 74.6467 16.854C74.0283 20.6483 71.9597 24.0941 69.4302 27.0115Z" fill="#FFE950"/>
<path d="M69.4302 27.0117C61.9595 35.6009 50.2617 40.008 38.8787 39.6089C27.4957 39.2098 16.5343 34.2856 7.8551 26.9161C6.44979 25.73 5.0445 24.4315 4.25191 22.7733C3.70015 21.6601 3.50391 20.4041 3.68978 19.1757C3.76892 18.6891 3.93049 18.2195 4.16757 17.7872C12.0024 25.2893 22.2581 29.7477 33.0881 30.3599C43.9181 30.972 54.6109 27.6976 63.2412 21.1262C67.6257 17.7872 71.5269 13.4139 72.876 8.07373C74.5624 10.4571 75.1245 14.0322 74.6579 16.8372C74.0283 20.6484 71.9597 24.0943 69.4302 27.0117Z" fill="#F6A900"/>
<path d="M72.7129 7.87697C72.4487 8.1749 72.1508 8.43909 71.8979 8.73702C70.8242 8.25921 69.6494 7.55657 68.5588 7.07876C68.7845 6.5873 68.956 6.07273 69.0704 5.54416C69.3309 4.39592 69.3213 3.20287 69.0423 2.05898L69.0029 1.89598C69.3871 1.22578 69.9678 0.689711 70.6666 0.360245C71.3653 0.0307784 72.1484 -0.0762057 72.9099 0.0537768C73.6714 0.183759 74.3746 0.54444 74.9245 1.08704C75.4744 1.62963 75.8444 2.32798 75.9845 3.08768C75.9845 3.08768 75.9845 3.08768 75.9845 3.12141C75.1016 4.83984 74.0021 6.43804 72.7129 7.87697Z" fill="#FFE950"/>
<path d="M75.9845 3.08766C74.8603 3.20009 73.7922 3.72848 72.6849 3.64979C71.4145 3.54298 70.1159 2.75039 69.0423 2.07022L69.0029 1.9072C69.3871 1.237 69.9679 0.700928 70.6666 0.371461C71.3653 0.0419949 72.1484 -0.064972 72.9099 0.0650105C73.6714 0.194993 74.3746 0.555657 74.9245 1.09825C75.4744 1.64085 75.8444 2.3392 75.9845 3.0989V3.08766Z" fill="#74370D"/>
<path d="M38.9068 30.2665C26.6975 31.7618 13.9429 27.8269 4.96574 19.4175C4.64996 19.429 4.33449 19.3872 4.03261 19.2938C3.90512 19.275 3.78165 19.2351 3.66724 19.1758C3.76191 18.5528 3.99745 17.9597 4.35591 17.4415C4.71438 16.9233 5.18632 16.4936 5.73585 16.1853C5.92866 16.2423 6.10638 16.3414 6.25611 16.4756C6.40585 16.6098 6.52384 16.7756 6.60152 16.961C6.72608 17.3097 6.71145 17.693 6.5607 18.0311C6.40994 18.3693 6.13465 18.6363 5.79206 18.7767C14.9089 26.7797 26.7924 30.9029 38.9068 30.2665Z" fill="#74370D"/>
<path d="M48.0356 28.6756C50.2475 27.8236 52.4128 26.8554 54.5226 25.775C56.6092 24.6866 58.6188 23.4564 60.5373 22.0931C62.46 20.7389 64.2926 19.2612 66.0236 17.6692C67.7606 16.0784 69.3964 14.3696 71.004 12.6101C69.7851 14.6807 68.3349 16.6062 66.6813 18.3494C65.0277 20.1065 63.2009 21.6923 61.2287 23.0825C59.2527 24.4703 57.1392 25.6514 54.9217 26.607C52.7174 27.5697 50.4055 28.2642 48.0356 28.6756Z" fill="#74370D"/>
</svg>
