<svg width="24" height="22" viewBox="0 0 24 22" fill="none" xmlns="http://www.w3.org/2000/svg">
<path fill-rule="evenodd" clip-rule="evenodd" d="M20.9999 15.2835V17.9933C21.0022 18.502 20.767 18.988 20.352 19.3319C19.937 19.6757 19.3808 19.8457 18.8199 19.7999C15.7428 19.4979 12.7869 18.5481 10.1899 17.0268C7.77377 15.64 5.72528 13.7896 4.18994 11.6071C2.49992 9.25063 1.44818 6.56769 1.11994 3.77564C1.06941 3.27059 1.25621 2.76961 1.63471 2.39508C2.0132 2.02055 2.54853 1.80696 3.10994 1.80649H6.10994C7.1138 1.79756 7.96944 2.46224 8.10994 3.36013C8.23656 4.22734 8.47139 5.07883 8.80994 5.89836C9.08468 6.55854 8.90896 7.30279 8.35994 7.80428L7.08994 8.95145C8.5135 11.2129 10.5864 13.0853 13.0899 14.3712L14.3599 13.224C14.9151 12.7281 15.7391 12.5693 16.4699 12.8175C17.3772 13.1233 18.3199 13.3354 19.2799 13.4498C20.2855 13.5779 21.0251 14.3664 20.9999 15.2835Z" stroke="black" stroke-width="2" stroke-linecap="round" stroke-linejoin="round"/>
</svg>
