<svg width="32" height="29" viewBox="0 0 32 29" fill="none" xmlns="http://www.w3.org/2000/svg">
<path d="M29.3398 0.762126C28.9558 0.789958 28.5789 0.879706 28.2237 1.02787H28.219C27.8781 1.16253 26.2573 1.84178 23.7932 2.87138L14.9631 6.57627C8.62706 9.23369 2.39866 11.8506 2.39866 11.8506L2.47282 11.822C2.47282 11.822 2.0434 11.9626 1.59484 12.2689C1.31773 12.4445 1.07927 12.6744 0.893893 12.9445C0.6738 13.2663 0.496768 13.7584 0.562557 14.2673C0.670211 15.1277 1.23001 15.6437 1.63192 15.9285C2.03862 16.2169 2.42617 16.3515 2.42617 16.3515H2.43574L8.27659 18.3118C8.53855 19.1495 10.0565 24.1212 10.4213 25.2664C10.6366 25.9504 10.8459 26.3782 11.1079 26.7047C11.2347 26.8715 11.383 27.011 11.5612 27.123C11.6539 27.1767 11.7527 27.2191 11.8555 27.2493L11.7957 27.235C11.8136 27.2398 11.828 27.2541 11.8411 27.2588C11.889 27.2719 11.9213 27.2767 11.9823 27.2862C12.9069 27.5651 13.6497 26.9931 13.6497 26.9931L13.6916 26.9597L17.1401 23.8316L22.92 28.2491L23.0516 28.3051C24.2561 28.8318 25.4762 28.5387 26.1209 28.0215C26.7704 27.5007 27.0228 26.8346 27.0228 26.8346L27.0647 26.7274L31.5311 3.93196C31.6579 3.36949 31.6902 2.84278 31.5503 2.33155C31.4059 1.81416 31.0727 1.36917 30.6161 1.08388C30.2326 0.851638 29.7879 0.739542 29.3398 0.762126ZM29.219 3.20504C29.2142 3.28012 29.2285 3.27178 29.195 3.41597V3.42908L24.7704 25.9873C24.7513 26.0195 24.719 26.0898 24.6305 26.1601C24.5372 26.234 24.463 26.2805 24.0743 26.1268L17.005 20.7273L12.7347 24.605L13.6318 18.8969L25.1819 8.17191C25.658 7.73099 25.4989 7.63804 25.4989 7.63804C25.5324 7.09703 24.78 7.47955 24.78 7.47955L10.2156 16.4683L10.2108 16.4445L3.22999 14.1028V14.0981L3.21205 14.0945C3.22429 14.0904 3.23627 14.0857 3.24794 14.0802L3.28621 14.0611L3.32329 14.048C3.32329 14.048 9.55648 11.4311 15.8925 8.7737C19.0648 7.44261 22.2609 6.10199 24.719 5.06762C27.1771 4.03921 28.9941 3.28488 29.0969 3.24437C29.195 3.20623 29.1484 3.20623 29.219 3.20623V3.20504Z" fill="black"/>
</svg>
