<svg width="194" height="22" viewBox="0 0 194 22" fill="none" xmlns="http://www.w3.org/2000/svg">
<circle cx="97" cy="13" r="8" fill="#F9DF09" fill-opacity="0.3"/>
<path d="M91.2653 19.2636C93.0655 20.8896 95.4573 21.7851 98 21.7851C100.543 21.7851 102.934 20.8896 104.735 19.2636C106.542 17.6308 107.538 15.4583 107.538 13.1456C107.538 10.1633 105.835 7.39658 103.062 5.82161C103.896 5.33142 104.498 4.49817 104.525 4.45984C104.558 4.41421 104.574 4.35917 104.573 4.30308C104.572 4.247 104.552 4.19292 104.517 4.14906C104.482 4.1052 104.433 4.07396 104.379 4.06007C104.325 4.04618 104.267 4.0504 104.216 4.07209C104.206 4.07639 103.192 4.49181 102.154 4.19821C101.88 4.12065 101.597 3.98637 101.298 3.84419C100.598 3.51101 99.8113 3.13705 98.8435 3.35765L98.2129 0.8191C98.163 0.614937 98.0342 0.438842 97.8549 0.32928C97.6755 0.219717 97.46 0.185592 97.2556 0.234356C97.0511 0.283121 96.8743 0.410813 96.7637 0.589542C96.6531 0.76827 96.6177 0.983509 96.6652 1.18824L97.305 3.93287C96.1276 3.63553 95.3315 3.95543 94.6782 4.21797C94.2935 4.37266 93.9612 4.50586 93.6056 4.50586C93.4628 4.50586 93.2098 4.4228 92.9865 4.34954C92.7568 4.27417 92.5399 4.20298 92.3648 4.1891C92.3159 4.18522 92.2669 4.19536 92.2236 4.21835C92.1802 4.24133 92.1444 4.2762 92.1202 4.31886C92.096 4.36152 92.0844 4.4102 92.0869 4.45918C92.0894 4.50817 92.1058 4.55542 92.1342 4.59541C92.2291 4.72887 92.6486 5.29842 93.1651 5.6964C90.2527 7.24778 88.4623 10.0641 88.4623 13.1456C88.4623 15.4583 89.4578 17.6311 91.2653 19.2636ZM93.0743 4.91918C93.264 4.97671 93.4486 5.0217 93.6056 5.0217C94.061 5.0217 94.4542 4.86366 94.8705 4.69639C95.5883 4.40794 96.3306 4.10965 97.5709 4.55274C97.6145 4.56833 97.6615 4.57187 97.707 4.56301C97.7524 4.55414 97.7947 4.53319 97.8292 4.50235C97.8638 4.47152 97.8894 4.43194 97.9034 4.38778C97.9174 4.34362 97.9192 4.29651 97.9087 4.2514L97.1677 1.07262C97.1515 1.00071 97.1643 0.925321 97.2033 0.862798C97.2424 0.800275 97.3045 0.755664 97.3762 0.738645C97.4479 0.721626 97.5234 0.733571 97.5864 0.771889C97.6494 0.810207 97.6947 0.871807 97.7125 0.943323L98.6521 4.72548C98.6686 4.79183 98.7108 4.84893 98.7694 4.88419C98.8279 4.91945 98.8981 4.93 98.9645 4.91351C99.0308 4.89702 99.0879 4.85484 99.1232 4.79626C99.1585 4.73767 99.169 4.66748 99.1525 4.60112L98.968 3.85849C99.7613 3.684 100.429 4.00167 101.077 4.30967C101.396 4.46143 101.698 4.60482 102.014 4.69419C102.584 4.85537 103.139 4.83655 103.572 4.76952C103.315 5.02273 102.983 5.29829 102.617 5.47597C101.952 5.79431 101.208 5.90999 100.478 5.80859C100.419 5.8002 100.359 5.81267 100.308 5.84385C100.257 5.87504 100.218 5.923 100.198 5.97952C100.179 6.03604 100.179 6.0976 100.2 6.15367C100.221 6.20973 100.261 6.25681 100.313 6.28683C100.781 6.56031 101.161 6.96446 101.404 7.44991C101.601 7.85226 101.697 8.29703 101.683 8.74516C101.465 8.5124 101.223 8.27482 100.97 8.16182C100.854 8.11373 100.736 8.07169 100.616 8.03587C100.086 7.8661 99.2854 7.60954 98.6786 6.68876C98.6551 6.65312 98.6232 6.62386 98.5856 6.60362C98.548 6.58337 98.506 6.57276 98.4633 6.57275C98.4606 6.57275 98.4578 6.57275 98.455 6.57275C98.2005 6.58091 98.0824 6.82832 97.9456 7.11484C97.735 7.55557 97.4469 8.15898 96.7237 8.31878C96.6267 8.34026 96.4023 8.34886 96.1854 8.35689C95.9038 8.36751 95.6698 8.37872 95.4799 8.40326C95.5895 8.01224 95.7915 7.71945 95.9883 7.4341C96.3088 6.96952 96.6402 6.48917 96.345 5.74916C96.3204 5.68756 96.2731 5.63779 96.2127 5.61021C96.1524 5.58262 96.0838 5.57934 96.0211 5.60105C95.6668 5.72385 94.741 5.95907 93.799 5.49264C93.5548 5.37216 93.2985 5.15108 93.0743 4.91918ZM93.6859 6.00925C94.5768 6.4065 95.4348 6.29555 95.9311 6.1666C95.9905 6.5229 95.8123 6.78132 95.5637 7.14165C95.297 7.52837 94.965 8.00962 94.8945 8.7428C94.8896 8.79345 94.8998 8.84441 94.9239 8.88926C94.9479 8.93411 94.9847 8.97085 95.0296 8.99483C95.0745 9.01882 95.1254 9.02899 95.1761 9.02406C95.2267 9.01913 95.2748 8.99933 95.3142 8.96714C95.4279 8.90187 95.9327 8.88279 96.2046 8.87261C96.4663 8.86268 96.6923 8.85417 96.8346 8.82276C97.8035 8.60886 98.1835 7.813 98.4107 7.3375C98.4233 7.31103 98.4371 7.28216 98.4512 7.2532C99.1269 8.10046 99.9482 8.36373 100.458 8.52714C100.581 8.56649 100.687 8.60053 100.76 8.63305C100.959 8.72157 101.209 8.9921 101.411 9.20948C101.515 9.32189 101.613 9.42806 101.701 9.50695C101.735 9.53703 101.776 9.55776 101.82 9.56708C101.864 9.5764 101.91 9.57399 101.953 9.56007C101.996 9.54615 102.034 9.52123 102.065 9.48778C102.095 9.45433 102.116 9.41353 102.125 9.36945C102.282 8.6448 102.191 7.88842 101.866 7.22196C101.706 6.89924 101.494 6.60545 101.237 6.3527C101.663 6.3293 102.082 6.24202 102.482 6.09382C105.284 7.54139 107.022 10.236 107.022 13.1456C107.022 17.6251 102.975 21.2694 98 21.2694C93.0252 21.2694 88.9779 17.6251 88.9779 13.1456C88.9779 10.1606 90.7787 7.43668 93.6859 6.00925Z" fill="#F6A900"/>
<path d="M92.8461 18.5822C92.8685 18.6079 92.8958 18.629 92.9264 18.644C92.957 18.6591 92.9903 18.668 93.0244 18.6701C93.0585 18.6722 93.0926 18.6675 93.1249 18.6563C93.1571 18.6451 93.1868 18.6277 93.2122 18.6049C93.2377 18.5822 93.2583 18.5546 93.273 18.5238C93.2877 18.493 93.2962 18.4596 93.2978 18.4255C93.2995 18.3914 93.2944 18.3573 93.2828 18.3252C93.2712 18.2931 93.2534 18.2636 93.2303 18.2385C92.9161 17.8877 92.6327 17.5104 92.3834 17.1108C92.3658 17.0816 92.3425 17.0561 92.3149 17.0359C92.2874 17.0157 92.2561 17.0012 92.2228 16.9933C92.1896 16.9853 92.1551 16.984 92.1214 16.9894C92.0877 16.9949 92.0554 17.007 92.0264 17.025C91.9974 17.0431 91.9722 17.0667 91.9524 17.0946C91.9327 17.1224 91.9186 17.1539 91.9111 17.1873C91.9036 17.2206 91.9028 17.2551 91.9087 17.2887C91.9146 17.3224 91.9272 17.3545 91.9457 17.3833C92.2107 17.8081 92.512 18.2092 92.8461 18.5822Z" fill="#F6A900"/>
<path d="M91.4807 15.8819C91.5127 15.8708 91.5422 15.8536 91.5676 15.8312C91.593 15.8088 91.6137 15.7816 91.6285 15.7511C91.6434 15.7207 91.6521 15.6876 91.6541 15.6538C91.6562 15.62 91.6516 15.5862 91.6406 15.5541C91.0963 13.9739 91.1033 12.2559 91.6605 10.6801C91.6833 10.6156 91.6795 10.5448 91.6501 10.4831C91.6206 10.4214 91.5678 10.3739 91.5033 10.3511C91.4389 10.3283 91.368 10.3321 91.3063 10.3615C91.2446 10.391 91.1971 10.4438 91.1743 10.5082C90.5783 12.1938 90.5707 14.0316 91.1529 15.7221C91.1638 15.7541 91.1811 15.7836 91.2035 15.809C91.2259 15.8344 91.2531 15.8551 91.2836 15.8699C91.314 15.8848 91.3471 15.8934 91.3809 15.8955C91.4147 15.8975 91.4486 15.8929 91.4806 15.8818L91.4807 15.8819Z" fill="#F6A900"/>
<path d="M0 13H68.5" stroke="#F6A900"/>
<path d="M125 13H193.5" stroke="#F6A900"/>
</svg>
