<svg width="194" height="28" viewBox="0 0 194 28" fill="none" xmlns="http://www.w3.org/2000/svg">
<g clip-path="url(#clip0)">
<path d="M84 19.124C83.9953 22.5871 86.012 25.7343 89.1602 27.1771C92.3084 28.6198 96.009 28.0926 98.629 25.8281C100.091 27.23 102.041 28.0087 104.067 28C106.719 27.9991 109.195 26.6735 110.667 24.467C112.139 22.2605 112.411 19.4647 111.393 17.0156C111.378 16.977 111.36 16.94 111.337 16.905C111.295 16.8355 111.197 16.625 111.041 16.2811C109.992 13.8152 109.409 11.1763 109.321 8.498C109.312 5.79183 107.246 3.53668 104.551 3.29094C104.725 1.03647 106.221 0.936604 106.404 0.933337C106.57 0.93267 106.724 0.843108 106.807 0.698387C106.89 0.553667 106.889 0.375774 106.805 0.231721C106.721 0.0876668 106.567 -0.000663145 106.4 3.74977e-06C105.119 0.0944485 104.055 1.02257 103.787 2.27827C103.763 2.2442 103.743 2.2092 103.719 2.1756C102.716 0.801271 99.8624 0.10687 99.7416 0.0779371C99.6085 0.0462394 99.4682 0.0745587 99.3578 0.155402C99.2474 0.236246 99.178 0.361468 99.168 0.497937C99.1582 0.62207 98.9468 3.55554 99.9497 4.92754C99.9964 4.99007 100.039 5.04187 100.083 5.09694C99.2637 6.04056 98.8123 7.24823 98.812 8.498C98.7858 9.74549 98.6387 10.9875 98.3728 12.2066C96.8088 10.9509 94.8631 10.2665 92.8573 10.2667C92.6389 10.2667 92.4228 10.2793 92.2077 10.2947L92.6884 9.33334H95.6666C96.4398 9.33334 97.0666 8.70654 97.0666 7.93334V1.4C97.0666 0.626805 96.4398 3.74977e-06 95.6666 3.74977e-06H85.4C84.6268 3.74977e-06 84 0.626805 84 1.4V7.93334C84 8.70654 84.6268 9.33334 85.4 9.33334H88.3782L89.2341 11.0455C86.0598 12.4831 84.0148 15.6393 84 19.124ZM102.96 2.72207C103.096 2.91318 103.215 3.11623 103.315 3.32874C102.376 3.46111 101.491 3.8456 100.753 4.44127C100.736 4.41747 100.718 4.39787 100.7 4.37267C100.167 3.64 100.066 2.1 100.076 1.13914C100.994 1.42194 102.426 1.98847 102.96 2.72207ZM104.067 4.2C106.446 4.19639 108.379 6.11987 108.388 8.4994C108.467 11.3102 109.077 14.0805 110.188 16.6637C110.286 16.907 110.4 17.1437 110.529 17.3721C111.427 19.5329 111.187 21.9996 109.889 23.9468C108.591 25.894 106.407 27.0645 104.067 27.0667C102.295 27.0747 100.588 26.3997 99.3015 25.1818C102.57 21.7278 102.511 16.305 99.1699 12.922C99.5188 11.4721 99.7117 9.98896 99.7453 8.498C99.7546 6.11902 101.688 4.19638 104.067 4.2ZM88.6666 8.4H85.4C85.1422 8.4 84.9333 8.19107 84.9333 7.93334V1.4C84.9333 1.14227 85.1422 0.933337 85.4 0.933337H95.6666C95.9244 0.933337 96.1333 1.14227 96.1333 1.4V7.93334C96.1333 8.19107 95.9244 8.4 95.6666 8.4H92.4C92.2231 8.39992 92.0614 8.49985 91.9823 8.65807L90.5333 11.5565L89.0866 8.65807C89.0072 8.49909 88.8444 8.39903 88.6666 8.4ZM89.6522 11.8813L90.1156 12.8086C90.1946 12.967 90.3563 13.0671 90.5333 13.0671C90.7103 13.0671 90.872 12.967 90.951 12.8086L91.7107 11.2887C95.8323 10.6882 99.7146 13.3832 100.593 17.4547C101.472 21.5261 99.0458 25.5822 95.0433 26.7346C91.0407 27.887 86.8296 25.7418 85.4086 21.8265C83.9875 17.9113 85.8423 13.5645 89.6522 11.8813Z" fill="#F6A900"/>
<path d="M87.3628 17.0333C87.4917 17.2565 87.7771 17.333 88.0003 17.2041L88.0535 17.1733C88.2912 17.4131 88.5896 17.5837 88.9168 17.6671V17.7333C88.9168 17.9911 89.1257 18.2 89.3835 18.2C89.6412 18.2 89.8501 17.9911 89.8501 17.7333V17.6671C90.1773 17.5836 90.4756 17.4129 90.7135 17.1733L90.7667 17.2041C90.9111 17.2888 91.0899 17.2896 91.2351 17.2062C91.3803 17.1228 91.4697 16.968 91.4693 16.8005C91.469 16.6331 91.3789 16.4786 91.2333 16.3959L91.175 16.3623C91.2752 16.0395 91.2752 15.6939 91.175 15.3711L91.2333 15.3375C91.3789 15.2547 91.469 15.1003 91.4693 14.9328C91.4697 14.7653 91.3803 14.6105 91.2351 14.5271C91.0899 14.4437 90.9111 14.4445 90.7667 14.5292L90.7135 14.56C90.4756 14.3204 90.1773 14.1497 89.8501 14.0663V14C89.8501 13.7423 89.6412 13.5333 89.3835 13.5333C89.1257 13.5333 88.9168 13.7423 88.9168 14V14.0663C88.5896 14.1496 88.2912 14.3203 88.0535 14.56L88.0003 14.5292C87.7773 14.4024 87.4937 14.4794 87.3655 14.7015C87.2372 14.9237 87.3123 15.2077 87.5336 15.3375L87.5924 15.3711C87.4916 15.6938 87.4916 16.0395 87.5924 16.3623L87.5336 16.3959C87.3104 16.5247 87.2339 16.8101 87.3628 17.0333ZM89.3835 14.9333C89.8989 14.9333 90.3168 15.3512 90.3168 15.8667C90.3168 16.3821 89.8989 16.8 89.3835 16.8C88.868 16.8 88.4501 16.3821 88.4501 15.8667C88.4501 15.3512 88.868 14.9333 89.3835 14.9333Z" fill="#F6A900"/>
<path d="M88.2 23.8C88.4577 23.8 88.6667 23.5911 88.6667 23.3334C88.6667 23.0756 88.4577 22.8667 88.2 22.8667C87.9423 22.8667 87.7333 23.0756 87.7333 23.3334C87.7333 23.5911 87.9423 23.8 88.2 23.8Z" fill="#F6A900"/>
<path d="M89.6 25.2001C89.8577 25.2001 90.0667 24.9911 90.0667 24.7334C90.0667 24.4757 89.8577 24.2667 89.6 24.2667C89.3423 24.2667 89.1333 24.4757 89.1333 24.7334C89.1333 24.9911 89.3423 25.2001 89.6 25.2001Z" fill="#F6A900"/>
<path d="M91.4671 23.3334C91.7249 23.3334 91.9338 23.1244 91.9338 22.8667C91.9338 22.609 91.7249 22.4 91.4671 22.4C91.2094 22.4 91.0005 22.609 91.0005 22.8667C91.0005 23.1244 91.2094 23.3334 91.4671 23.3334Z" fill="#F6A900"/>
<path d="M92.4 26.1334C92.6577 26.1334 92.8667 25.9245 92.8667 25.6667C92.8667 25.409 92.6577 25.2001 92.4 25.2001C92.1423 25.2001 91.9333 25.409 91.9333 25.6667C91.9333 25.9245 92.1423 26.1334 92.4 26.1334Z" fill="#F6A900"/>
<path d="M95.2 25.6666C95.4577 25.6666 95.6667 25.4577 95.6667 25.1999C95.6667 24.9422 95.4577 24.7333 95.2 24.7333C94.9423 24.7333 94.7333 24.9422 94.7333 25.1999C94.7333 25.4577 94.9423 25.6666 95.2 25.6666Z" fill="#F6A900"/>
<path d="M97.5333 23.8C97.791 23.8 98 23.5911 98 23.3334C98 23.0756 97.791 22.8667 97.5333 22.8667C97.2756 22.8667 97.0667 23.0756 97.0667 23.3334C97.0667 23.5911 97.2756 23.8 97.5333 23.8Z" fill="#F6A900"/>
<path d="M99.4 20.5333C99.6577 20.5333 99.8667 20.3244 99.8667 20.0666C99.8667 19.8089 99.6577 19.6 99.4 19.6C99.1423 19.6 98.9333 19.8089 98.9333 20.0666C98.9333 20.3244 99.1423 20.5333 99.4 20.5333Z" fill="#F6A900"/>
<path d="M94.7338 23.3334C94.9915 23.3334 95.2005 23.1244 95.2005 22.8667C95.2005 22.609 94.9915 22.4 94.7338 22.4C94.4761 22.4 94.2671 22.609 94.2671 22.8667C94.2671 23.1244 94.4761 23.3334 94.7338 23.3334Z" fill="#F6A900"/>
<path d="M97.0667 21C97.3244 21 97.5333 20.7911 97.5333 20.5333C97.5333 20.2756 97.3244 20.0667 97.0667 20.0667C96.8089 20.0667 96.6 20.2756 96.6 20.5333C96.6 20.7911 96.8089 21 97.0667 21Z" fill="#F6A900"/>
<path d="M90.0667 3.2667C90.0667 2.4935 89.4399 1.8667 88.6667 1.8667C87.8935 1.8667 87.2667 2.4935 87.2667 3.2667C87.2667 4.0399 87.8935 4.6667 88.6667 4.6667C89.4399 4.6667 90.0667 4.0399 90.0667 3.2667ZM88.2 3.2667C88.2 3.00897 88.4089 2.80003 88.6667 2.80003C88.9244 2.80003 89.1333 3.00897 89.1333 3.2667C89.1333 3.52443 88.9244 3.73337 88.6667 3.73337C88.4089 3.73337 88.2 3.52443 88.2 3.2667Z" fill="#F6A900"/>
<path d="M91 6.06663C91 6.83982 91.6268 7.46663 92.4 7.46663C93.1732 7.46663 93.8 6.83982 93.8 6.06663C93.8 5.29343 93.1732 4.66663 92.4 4.66663C91.6268 4.66663 91 5.29343 91 6.06663ZM92.8667 6.06663C92.8667 6.32436 92.6577 6.53329 92.4 6.53329C92.1423 6.53329 91.9333 6.32436 91.9333 6.06663C91.9333 5.80889 92.1423 5.59996 92.4 5.59996C92.6577 5.59996 92.8667 5.80889 92.8667 6.06663Z" fill="#F6A900"/>
<path d="M92.7299 2.47001C92.5477 2.28783 92.2523 2.28783 92.0701 2.47001L88.3367 6.20334C88.2154 6.32051 88.1668 6.49402 88.2095 6.65718C88.2522 6.82034 88.3796 6.94776 88.5428 6.99047C88.7059 7.03317 88.8794 6.98452 88.9966 6.86321L92.7299 3.12987C92.9121 2.94764 92.9121 2.65224 92.7299 2.47001Z" fill="#F6A900"/>
<path d="M108.724 23.6363C108.881 23.6366 109.027 23.5586 109.114 23.4286C110.235 21.7763 110.457 19.6733 109.705 17.8235C109.609 17.5842 109.337 17.4679 109.098 17.5638C108.859 17.6596 108.742 17.9314 108.838 18.1707C109.474 19.7361 109.286 21.5159 108.336 22.9134C108.241 23.0566 108.232 23.2406 108.313 23.3922C108.394 23.5438 108.552 23.6385 108.724 23.6386V23.6363Z" fill="#F6A900"/>
<circle opacity="0.35" cx="92" cy="19" r="7" fill="#F9DF09"/>
<path opacity="0.35" d="M111.872 19C111.872 22.5613 108.429 27.7931 105.409 27.7931C99.3934 27.7931 102.874 24.2759 102.874 19C102.874 15.4387 104.39 8.02683 106.872 6.79306C109.89 5.293 108.872 14.2931 111.872 19Z" fill="#F9DF09"/>
</g>
<path d="M0 15H68.5" stroke="#F6A900"/>
<path d="M125 15H193.5" stroke="#F6A900"/>
<defs>
<clipPath id="clip0">
<rect width="28" height="28" fill="white" transform="translate(84)"/>
</clipPath>
</defs>
</svg>
