<svg width="46" height="44" viewBox="0 0 46 44" fill="none" xmlns="http://www.w3.org/2000/svg">
<g clip-path="url(#clip0)">
<path d="M29.7871 20.0222L20.0298 14.7035C19.4688 14.3977 18.8056 14.4091 18.2557 14.7337C17.7055 15.0587 17.3773 15.6327 17.3773 16.2698V26.816C17.3773 27.4501 17.7034 28.0231 18.25 28.3484C18.5354 28.5183 18.8518 28.6036 19.1689 28.6036C19.4593 28.6036 19.7505 28.5321 20.0183 28.3884L29.776 23.1613C30.3552 22.8508 30.7168 22.2509 30.7195 21.5953C30.7218 20.9397 30.3647 20.3371 29.7871 20.0222ZM19.9654 25.4893V17.6072L27.2579 21.5825L19.9654 25.4893Z" fill="black"/>
<path d="M44.7477 13.1938L44.7457 13.1736C44.7083 12.8195 44.3359 9.66931 42.7987 8.06705C41.0219 6.18246 39.0076 5.95352 38.0388 5.84375C37.9586 5.83469 37.8852 5.82629 37.8195 5.81757L37.7423 5.80951C31.9035 5.38654 23.0856 5.3288 22.9973 5.32846L22.9896 5.32812L22.9818 5.32846C22.8935 5.3288 14.0757 5.38654 8.18426 5.80951L8.10642 5.81757C8.04375 5.82596 7.97467 5.83368 7.89953 5.84241C6.94189 5.95251 4.94912 6.18179 3.16728 8.13452C1.70319 9.71967 1.27997 12.8023 1.2365 13.1488L1.23144 13.1938C1.2183 13.3411 0.906616 16.8495 0.906616 20.3716V23.664C0.906616 27.1861 1.2183 30.6945 1.23144 30.8422L1.2338 30.8643C1.27121 31.2128 1.64321 34.3052 3.17334 35.9081C4.84398 37.7296 6.95638 37.9706 8.09261 38.1002C8.27221 38.1207 8.42687 38.1381 8.53234 38.1566L8.63444 38.1707C12.0057 38.4903 22.5758 38.6477 23.0239 38.6541L23.0374 38.6544L23.0509 38.6541C23.1392 38.6537 31.9567 38.596 37.7956 38.173L37.8727 38.165C37.9465 38.1552 38.0294 38.1465 38.1204 38.1371C39.0726 38.0364 41.0546 37.8273 42.8119 35.9011C44.276 34.3156 44.6995 31.2329 44.7426 30.8868L44.7477 30.8418C44.7608 30.6941 45.0729 27.1861 45.0729 23.664V20.3716C45.0725 16.8495 44.7608 13.3415 44.7477 13.1938ZM42.4843 23.664C42.4843 26.924 42.1986 30.2812 42.1716 30.5894C42.0618 31.4384 41.6153 33.3887 40.902 34.1612C39.8022 35.3666 38.6723 35.4861 37.8475 35.5731C37.7477 35.5835 37.6554 35.5936 37.5718 35.604C31.9244 36.0108 23.4394 36.0733 23.0485 36.0756C22.6102 36.0692 12.1947 35.9105 8.92624 35.608C8.75878 35.5808 8.57783 35.56 8.38711 35.5385C7.4197 35.4281 6.09545 35.277 5.07716 34.1612L5.05324 34.1357C4.35236 33.4082 3.91869 31.5844 3.80851 30.5995C3.78795 30.3665 3.4948 26.9696 3.4948 23.664V20.3716C3.4948 17.1153 3.77987 13.7617 3.8075 13.4472C3.93857 12.4472 4.39347 10.615 5.07716 9.87442C6.21069 8.63235 7.40588 8.49472 8.19639 8.40375C8.27187 8.39502 8.34229 8.38696 8.40733 8.37857C14.137 7.9697 22.6829 7.90894 22.9896 7.90659C23.2962 7.9086 31.8391 7.9697 37.5179 8.37857C37.5877 8.3873 37.6638 8.39603 37.7457 8.40543C38.5588 8.49774 39.7877 8.63739 40.9155 9.83582L40.9259 9.84689C41.6268 10.5743 42.0605 12.4301 42.1706 13.4348C42.1902 13.6547 42.4843 17.0589 42.4843 20.3716V23.664Z" fill="black"/>
</g>
<defs>
<clipPath id="clip0">
<rect width="44.1661" height="44" fill="white" transform="translate(0.906616)"/>
</clipPath>
</defs>
</svg>
